<svg width="33" height="22" viewBox="0 0 33 22" fill="none" xmlns="http://www.w3.org/2000/svg">
<rect width="33" height="22" fill="black"/>
<path d="M5.54461 6.16406C6.17352 6.16406 6.71453 6.31836 7.16766 6.62695C7.62469 6.93555 7.97625 7.4082 8.22234 8.04492C8.47234 8.67773 8.59734 9.56055 8.59734 10.6934C8.59734 11.8379 8.47039 12.7285 8.21648 13.3652C7.96648 14.002 7.62859 14.4707 7.20281 14.7715C6.77703 15.0684 6.23992 15.2168 5.59148 15.2168C4.94305 15.2168 4.39812 15.0664 3.95672 14.7656C3.51531 14.4648 3.16961 14.0078 2.91961 13.3945C2.66961 12.7812 2.54461 11.9082 2.54461 10.7754C2.54461 9.19336 2.78875 8.04688 3.27703 7.33594C3.82 6.55469 4.57586 6.16406 5.54461 6.16406ZM5.58562 7.72266C5.30828 7.72266 5.06219 7.8125 4.84734 7.99219C4.6325 8.16797 4.46844 8.47266 4.35516 8.90625C4.24187 9.33984 4.18523 9.97461 4.18523 10.8105C4.18523 11.9004 4.31414 12.6543 4.57195 13.0723C4.83367 13.4863 5.17156 13.6934 5.58562 13.6934C5.98406 13.6934 6.30047 13.4961 6.53484 13.1016C6.82 12.625 6.96258 11.8281 6.96258 10.7109C6.96258 9.57812 6.83367 8.79688 6.57586 8.36719C6.32195 7.9375 5.99187 7.72266 5.58562 7.72266ZM10.8084 11.0801H13.785V12.5684H10.8084V11.0801ZM17.6309 6.38086H20.0859V15H18.457V7.92188H16.6816L17.6309 6.38086ZM24.09 6.38086H25.7189V15H24.09V6.38086ZM28.2933 6.38086H29.9222V15H28.2933V6.38086Z" fill="white"/>
<rect x="1.5" y="1.5" width="30" height="19" stroke="white"/>
</svg>
