<svg width="33" height="22" viewBox="0 0 33 22" fill="none" xmlns="http://www.w3.org/2000/svg">
<rect width="33" height="22" fill="black"/>
<path d="M6.17062 6.69141C6.90435 6.69141 7.53553 6.87142 8.06418 7.23145C8.59738 7.59147 9.00754 8.1429 9.29465 8.88574C9.58631 9.62402 9.73215 10.654 9.73215 11.9756C9.73215 13.3109 9.58404 14.3499 9.28781 15.0928C8.99615 15.8356 8.60194 16.3825 8.1052 16.7334C7.60845 17.0798 6.98182 17.2529 6.22531 17.2529C5.4688 17.2529 4.83306 17.0775 4.31809 16.7266C3.80311 16.3757 3.39979 15.8424 3.10812 15.127C2.81646 14.4115 2.67062 13.3929 2.67062 12.0713C2.67062 10.2256 2.95546 8.88802 3.52512 8.05859C4.15858 7.14714 5.04042 6.69141 6.17062 6.69141ZM6.21848 8.50977C5.89491 8.50977 5.6078 8.61458 5.35715 8.82422C5.1065 9.0293 4.91509 9.38477 4.78293 9.89062C4.65077 10.3965 4.58469 11.137 4.58469 12.1123C4.58469 13.3838 4.73508 14.2633 5.03586 14.751C5.3412 15.234 5.7354 15.4756 6.21848 15.4756C6.68332 15.4756 7.05246 15.2454 7.3259 14.7852C7.65858 14.2292 7.82492 13.2995 7.82492 11.9961C7.82492 10.6745 7.67453 9.76302 7.37375 9.26172C7.07753 8.76042 6.69243 8.50977 6.21848 8.50977ZM12.3118 12.4268H15.7844V14.1631H12.3118V12.4268ZM20.2712 6.94434H23.1355V17H21.2351V8.74219H19.1638L20.2712 6.94434ZM27.8069 6.94434H29.7073V17H27.8069V6.94434Z" fill="white"/>
<rect x="1.5" y="1.5" width="30" height="19" stroke="white"/>
</svg>
