<svg width="33" height="22" viewBox="0 0 33 22" fill="none" xmlns="http://www.w3.org/2000/svg">
<rect width="33" height="22" fill="black"/>
<path d="M8.12254 6.69141C8.85626 6.69141 9.48745 6.87142 10.0161 7.23145C10.5493 7.59147 10.9595 8.1429 11.2466 8.88574C11.5382 9.62402 11.6841 10.654 11.6841 11.9756C11.6841 13.3109 11.536 14.3499 11.2397 15.0928C10.9481 15.8356 10.5539 16.3825 10.0571 16.7334C9.56037 17.0798 8.93374 17.2529 8.17723 17.2529C7.42072 17.2529 6.78497 17.0775 6.27 16.7266C5.75503 16.3757 5.35171 15.8424 5.06004 15.127C4.76837 14.4115 4.62254 13.3929 4.62254 12.0713C4.62254 10.2256 4.90737 8.88802 5.47703 8.05859C6.1105 7.14714 6.99233 6.69141 8.12254 6.69141ZM8.17039 8.50977C7.84682 8.50977 7.55971 8.61458 7.30906 8.82422C7.05841 9.0293 6.86701 9.38477 6.73484 9.89062C6.60268 10.3965 6.5366 11.137 6.5366 12.1123C6.5366 13.3838 6.68699 14.2633 6.98777 14.751C7.29311 15.234 7.68732 15.4756 8.17039 15.4756C8.63523 15.4756 9.00438 15.2454 9.27781 14.7852C9.6105 14.2292 9.77684 13.2995 9.77684 11.9961C9.77684 10.6745 9.62645 9.76302 9.32566 9.26172C9.02944 8.76042 8.64435 8.50977 8.17039 8.50977ZM14.2637 12.4268H17.7363V14.1631H14.2637V12.4268ZM22.3599 10.1846H20.4937C20.5438 9.09993 20.8833 8.24772 21.5122 7.62793C22.1457 7.00358 22.9569 6.69141 23.9458 6.69141C24.5565 6.69141 25.0943 6.82129 25.5591 7.08105C26.0285 7.33626 26.4022 7.70768 26.6802 8.19531C26.9627 8.67839 27.104 9.17057 27.104 9.67188C27.104 10.2689 26.9331 10.9115 26.5913 11.5996C26.2541 12.2878 25.6343 13.1012 24.732 14.04L23.604 15.2295H27.1861V17H20.2202V16.084L23.3306 12.9121C24.0825 12.151 24.5816 11.5404 24.8277 11.0801C25.0783 10.6152 25.2036 10.196 25.2036 9.82227C25.2036 9.4349 25.0737 9.11589 24.814 8.86523C24.5588 8.61003 24.2284 8.48242 23.8228 8.48242C23.4126 8.48242 23.0708 8.63509 22.7974 8.94043C22.5239 9.24577 22.3781 9.66048 22.3599 10.1846Z" fill="white"/>
<rect x="1.5" y="1.5" width="30" height="19" stroke="white"/>
</svg>
