<svg width="33" height="22" viewBox="0 0 33 22" fill="none" xmlns="http://www.w3.org/2000/svg">
<rect width="33" height="22" fill="black"/>
<path d="M8.12254 6.69141C8.85626 6.69141 9.48745 6.87142 10.0161 7.23145C10.5493 7.59147 10.9595 8.1429 11.2466 8.88574C11.5382 9.62402 11.6841 10.654 11.6841 11.9756C11.6841 13.3109 11.536 14.3499 11.2397 15.0928C10.9481 15.8356 10.5539 16.3825 10.0571 16.7334C9.56037 17.0798 8.93374 17.2529 8.17723 17.2529C7.42072 17.2529 6.78497 17.0775 6.27 16.7266C5.75503 16.3757 5.35171 15.8424 5.06004 15.127C4.76837 14.4115 4.62254 13.3929 4.62254 12.0713C4.62254 10.2256 4.90737 8.88802 5.47703 8.05859C6.1105 7.14714 6.99233 6.69141 8.12254 6.69141ZM8.17039 8.50977C7.84682 8.50977 7.55971 8.61458 7.30906 8.82422C7.05841 9.0293 6.86701 9.38477 6.73484 9.89062C6.60268 10.3965 6.5366 11.137 6.5366 12.1123C6.5366 13.3838 6.68699 14.2633 6.98777 14.751C7.29311 15.234 7.68732 15.4756 8.17039 15.4756C8.63523 15.4756 9.00438 15.2454 9.27781 14.7852C9.6105 14.2292 9.77684 13.2995 9.77684 11.9961C9.77684 10.6745 9.62645 9.76302 9.32566 9.26172C9.02944 8.76042 8.64435 8.50977 8.17039 8.50977ZM14.2637 12.4268H17.7363V14.1631H14.2637V12.4268ZM22.5786 9.42578H20.7398C20.8355 8.68294 21.1021 8.08594 21.5396 7.63477C22.1502 7.00586 22.9182 6.69141 23.8433 6.69141C24.6682 6.69141 25.3586 6.95345 25.9146 7.47754C26.4751 8.00163 26.7554 8.6237 26.7554 9.34375C26.7554 9.79036 26.6323 10.1982 26.3862 10.5674C26.1447 10.9365 25.7915 11.235 25.3267 11.4629C25.9374 11.6452 26.4136 11.9642 26.7554 12.4199C27.1017 12.8711 27.2749 13.4043 27.2749 14.0195C27.2749 14.9219 26.9422 15.6875 26.2769 16.3164C25.6115 16.9408 24.7639 17.2529 23.7339 17.2529C22.7586 17.2529 21.9634 16.959 21.3482 16.3711C20.7329 15.7786 20.3957 14.9743 20.3364 13.958H22.23C22.312 14.4775 22.492 14.8649 22.77 15.1201C23.0526 15.3708 23.4081 15.4961 23.8364 15.4961C24.2831 15.4961 24.6522 15.3525 24.9439 15.0654C25.2401 14.7783 25.3882 14.4274 25.3882 14.0127C25.3882 13.557 25.19 13.1719 24.7935 12.8574C24.397 12.543 23.8251 12.3812 23.0777 12.3721V10.7314C23.5379 10.695 23.8797 10.6243 24.103 10.5195C24.3309 10.4102 24.5064 10.262 24.6294 10.0752C24.757 9.88835 24.8208 9.6901 24.8208 9.48047C24.8208 9.20703 24.7251 8.98145 24.5337 8.80371C24.3423 8.62142 24.0917 8.53027 23.7818 8.53027C23.5083 8.53027 23.2599 8.61458 23.0366 8.7832C22.8133 8.94727 22.6607 9.16146 22.5786 9.42578Z" fill="white"/>
<rect x="1.5" y="1.5" width="30" height="19" stroke="white"/>
</svg>
