<svg width="33" height="22" viewBox="0 0 33 22" fill="none" xmlns="http://www.w3.org/2000/svg">
<rect width="33" height="22" fill="black"/>
<path d="M6.5366 6.94434H9.40086V17H7.50047V8.74219H5.42918L6.5366 6.94434ZM14.2637 12.4268H17.7363V14.1631H14.2637V12.4268ZM22.3599 10.1846H20.4937C20.5438 9.09993 20.8833 8.24772 21.5122 7.62793C22.1457 7.00358 22.9569 6.69141 23.9458 6.69141C24.5565 6.69141 25.0943 6.82129 25.5591 7.08105C26.0285 7.33626 26.4022 7.70768 26.6802 8.19531C26.9627 8.67839 27.104 9.17057 27.104 9.67188C27.104 10.2689 26.9331 10.9115 26.5913 11.5996C26.2541 12.2878 25.6343 13.1012 24.732 14.04L23.604 15.2295H27.1861V17H20.2202V16.084L23.3306 12.9121C24.0825 12.151 24.5816 11.5404 24.8277 11.0801C25.0783 10.6152 25.2036 10.196 25.2036 9.82227C25.2036 9.4349 25.0737 9.11589 24.814 8.86523C24.5588 8.61003 24.2284 8.48242 23.8228 8.48242C23.4126 8.48242 23.0708 8.63509 22.7974 8.94043C22.5239 9.24577 22.3781 9.66048 22.3599 10.1846Z" fill="white"/>
<rect x="1.5" y="1.5" width="30" height="19" stroke="white"/>
</svg>
