<svg width="33" height="22" viewBox="0 0 33 22" fill="none" xmlns="http://www.w3.org/2000/svg">
<rect width="33" height="22" fill="black"/>
<path d="M6.5366 6.94434H9.40086V17H7.50047V8.74219H5.42918L6.5366 6.94434ZM14.2637 12.4268H17.7363V14.1631H14.2637V12.4268ZM22.5786 9.42578H20.7398C20.8355 8.68294 21.1021 8.08594 21.5396 7.63477C22.1502 7.00586 22.9182 6.69141 23.8433 6.69141C24.6682 6.69141 25.3586 6.95345 25.9146 7.47754C26.4751 8.00163 26.7554 8.6237 26.7554 9.34375C26.7554 9.79036 26.6323 10.1982 26.3862 10.5674C26.1447 10.9365 25.7915 11.235 25.3267 11.4629C25.9374 11.6452 26.4136 11.9642 26.7554 12.4199C27.1017 12.8711 27.2749 13.4043 27.2749 14.0195C27.2749 14.9219 26.9422 15.6875 26.2769 16.3164C25.6115 16.9408 24.7639 17.2529 23.7339 17.2529C22.7586 17.2529 21.9634 16.959 21.3482 16.3711C20.7329 15.7786 20.3957 14.9743 20.3364 13.958H22.23C22.312 14.4775 22.492 14.8649 22.77 15.1201C23.0526 15.3708 23.4081 15.4961 23.8364 15.4961C24.2831 15.4961 24.6522 15.3525 24.9439 15.0654C25.2401 14.7783 25.3882 14.4274 25.3882 14.0127C25.3882 13.557 25.19 13.1719 24.7935 12.8574C24.397 12.543 23.8251 12.3812 23.0777 12.3721V10.7314C23.5379 10.695 23.8797 10.6243 24.103 10.5195C24.3309 10.4102 24.5064 10.262 24.6294 10.0752C24.757 9.88835 24.8208 9.6901 24.8208 9.48047C24.8208 9.20703 24.7251 8.98145 24.5337 8.80371C24.3423 8.62142 24.0917 8.53027 23.7818 8.53027C23.5083 8.53027 23.2599 8.61458 23.0366 8.7832C22.8133 8.94727 22.6607 9.16146 22.5786 9.42578Z" fill="white"/>
<rect x="1.5" y="1.5" width="30" height="19" stroke="white"/>
</svg>
