<svg width="33" height="22" viewBox="0 0 33 22" fill="none" xmlns="http://www.w3.org/2000/svg">
<rect width="33" height="22" fill="black"/>
<path d="M4.58469 6.94434H7.44895V17H5.54855V8.74219H3.47727L4.58469 6.94434ZM12.3118 12.4268H15.7844V14.1631H12.3118V12.4268ZM20.6267 9.42578H18.7879C18.8836 8.68294 19.1502 8.08594 19.5877 7.63477C20.1983 7.00586 20.9662 6.69141 21.8914 6.69141C22.7162 6.69141 23.4067 6.95345 23.9627 7.47754C24.5232 8.00163 24.8035 8.6237 24.8035 9.34375C24.8035 9.79036 24.6804 10.1982 24.4343 10.5674C24.1928 10.9365 23.8396 11.235 23.3748 11.4629C23.9854 11.6452 24.4617 11.9642 24.8035 12.4199C25.1498 12.8711 25.323 13.4043 25.323 14.0195C25.323 14.9219 24.9903 15.6875 24.325 16.3164C23.6596 16.9408 22.8119 17.2529 21.782 17.2529C20.8067 17.2529 20.0115 16.959 19.3962 16.3711C18.781 15.7786 18.4438 14.9743 18.3845 13.958H20.2781C20.3601 14.4775 20.5401 14.8649 20.8181 15.1201C21.1007 15.3708 21.4561 15.4961 21.8845 15.4961C22.3311 15.4961 22.7003 15.3525 22.992 15.0654C23.2882 14.7783 23.4363 14.4274 23.4363 14.0127C23.4363 13.557 23.238 13.1719 22.8416 12.8574C22.4451 12.543 21.8731 12.3812 21.1257 12.3721V10.7314C21.586 10.695 21.9278 10.6243 22.1511 10.5195C22.379 10.4102 22.5545 10.262 22.6775 10.0752C22.8051 9.88835 22.8689 9.6901 22.8689 9.48047C22.8689 9.20703 22.7732 8.98145 22.5818 8.80371C22.3904 8.62142 22.1397 8.53027 21.8298 8.53027C21.5564 8.53027 21.308 8.61458 21.0847 8.7832C20.8614 8.94727 20.7087 9.16146 20.6267 9.42578ZM27.8069 6.94434H29.7073V17H27.8069V6.94434Z" fill="white"/>
<rect x="1.5" y="1.5" width="30" height="19" stroke="white"/>
</svg>
