<svg width="34" height="22" viewBox="0 0 34 22" fill="none" xmlns="http://www.w3.org/2000/svg">
<rect x="1" width="33" height="22" fill="black"/>
<path d="M4.68523 6.38086H7.14031V15H5.51141V7.92188H3.73602L4.68523 6.38086ZM11.3084 11.0801H14.285V12.5684H11.3084V11.0801ZM18.4355 8.50781H16.8594C16.9414 7.87109 17.1699 7.35938 17.5449 6.97266C18.0684 6.43359 18.7266 6.16406 19.5195 6.16406C20.2266 6.16406 20.8184 6.38867 21.2949 6.83789C21.7754 7.28711 22.0156 7.82031 22.0156 8.4375C22.0156 8.82031 21.9102 9.16992 21.6992 9.48633C21.4922 9.80273 21.1895 10.0586 20.791 10.2539C21.3145 10.4102 21.7227 10.6836 22.0156 11.0742C22.3125 11.4609 22.4609 11.918 22.4609 12.4453C22.4609 13.2188 22.1758 13.875 21.6055 14.4141C21.0352 14.9492 20.3086 15.2168 19.4258 15.2168C18.5898 15.2168 17.9082 14.9648 17.3809 14.4609C16.8535 13.9531 16.5645 13.2637 16.5137 12.3926H18.1367C18.207 12.8379 18.3613 13.1699 18.5996 13.3887C18.8418 13.6035 19.1465 13.7109 19.5137 13.7109C19.8965 13.7109 20.2129 13.5879 20.4629 13.3418C20.7168 13.0957 20.8438 12.7949 20.8438 12.4395C20.8438 12.0488 20.6738 11.7188 20.334 11.4492C19.9941 11.1797 19.5039 11.041 18.8633 11.0332V9.62695C19.2578 9.5957 19.5508 9.53516 19.7422 9.44531C19.9375 9.35156 20.0879 9.22461 20.1934 9.06445C20.3027 8.9043 20.3574 8.73438 20.3574 8.55469C20.3574 8.32031 20.2754 8.12695 20.1113 7.97461C19.9473 7.81836 19.7324 7.74023 19.4668 7.74023C19.2324 7.74023 19.0195 7.8125 18.8281 7.95703C18.6367 8.09766 18.5059 8.28125 18.4355 8.50781ZM24.59 6.38086H26.2189V15H24.59V6.38086ZM28.7933 6.38086H30.4222V15H28.7933V6.38086Z" fill="white"/>
<rect x="2.5" y="1.5" width="30" height="19" stroke="white"/>
</svg>
