<svg width="33" height="22" viewBox="0 0 33 22" fill="none" xmlns="http://www.w3.org/2000/svg">
<rect width="33" height="22" fill="black"/>
<path d="M6.67332 10.1846H4.80711C4.85724 9.09993 5.19676 8.24772 5.82566 7.62793C6.45913 7.00358 7.27033 6.69141 8.25926 6.69141C8.86994 6.69141 9.4077 6.82129 9.87254 7.08105C10.3419 7.33626 10.7156 7.70768 10.9936 8.19531C11.2762 8.67839 11.4175 9.17057 11.4175 9.67188C11.4175 10.2689 11.2466 10.9115 10.9048 11.5996C10.5675 12.2878 9.94773 13.1012 9.04539 14.04L7.91746 15.2295H11.4995V17H4.53367V16.084L7.64402 12.9121C8.39598 12.151 8.895 11.5404 9.14109 11.0801C9.39175 10.6152 9.51707 10.196 9.51707 9.82227C9.51707 9.4349 9.38719 9.11589 9.12742 8.86523C8.87221 8.61003 8.54181 8.48242 8.13621 8.48242C7.72606 8.48242 7.38426 8.63509 7.11082 8.94043C6.83738 9.24577 6.69155 9.66048 6.67332 10.1846ZM14.2637 12.4268H17.7363V14.1631H14.2637V12.4268ZM22.2573 6.94434H26.9673V8.70801H23.6861L23.2759 10.54C23.3898 10.5081 23.5015 10.4854 23.6109 10.4717C23.7202 10.4535 23.8251 10.4443 23.9253 10.4443C24.8368 10.4443 25.5933 10.7565 26.1948 11.3809C26.801 12.0007 27.104 12.7959 27.104 13.7666C27.104 14.7464 26.7691 15.5736 26.0991 16.248C25.4338 16.918 24.6226 17.2529 23.6655 17.2529C22.8088 17.2529 22.0728 17.0091 21.4575 16.5215C20.8423 16.0339 20.439 15.3662 20.2476 14.5186H22.2573C22.4123 14.833 22.6151 15.0723 22.8657 15.2363C23.121 15.3958 23.4012 15.4756 23.7066 15.4756C24.1304 15.4756 24.4904 15.3229 24.7866 15.0176C25.0829 14.7122 25.231 14.3203 25.231 13.8418C25.231 13.377 25.092 12.9964 24.814 12.7002C24.5405 12.3994 24.2079 12.249 23.8159 12.249C23.6063 12.249 23.3989 12.3014 23.1939 12.4062C22.9933 12.5111 22.7951 12.6683 22.5991 12.8779L21.0405 12.5293L22.2573 6.94434Z" fill="white"/>
<rect x="1.5" y="1.5" width="30" height="19" stroke="white"/>
</svg>
