<svg width="33" height="22" viewBox="0 0 33 22" fill="none" xmlns="http://www.w3.org/2000/svg">
<rect width="33" height="22" fill="black"/>
<path d="M6.67332 10.1846H4.80711C4.85724 9.09993 5.19676 8.24772 5.82566 7.62793C6.45913 7.00358 7.27033 6.69141 8.25926 6.69141C8.86994 6.69141 9.4077 6.82129 9.87254 7.08105C10.3419 7.33626 10.7156 7.70768 10.9936 8.19531C11.2762 8.67839 11.4175 9.17057 11.4175 9.67188C11.4175 10.2689 11.2466 10.9115 10.9048 11.5996C10.5675 12.2878 9.94773 13.1012 9.04539 14.04L7.91746 15.2295H11.4995V17H4.53367V16.084L7.64402 12.9121C8.39598 12.151 8.895 11.5404 9.14109 11.0801C9.39175 10.6152 9.51707 10.196 9.51707 9.82227C9.51707 9.4349 9.38719 9.11589 9.12742 8.86523C8.87221 8.61003 8.54181 8.48242 8.13621 8.48242C7.72606 8.48242 7.38426 8.63509 7.11082 8.94043C6.83738 9.24577 6.69155 9.66048 6.67332 10.1846ZM14.2637 12.4268H17.7363V14.1631H14.2637V12.4268ZM23.98 6.69141L25.607 7.50488L23.8501 10.9229C24.7023 10.9229 25.4269 11.2282 26.0239 11.8389C26.621 12.4495 26.9195 13.2083 26.9195 14.1152C26.9195 14.9902 26.6118 15.7331 25.9966 16.3438C25.3859 16.9499 24.6476 17.2529 23.7818 17.2529C22.8749 17.2529 22.1183 16.9385 21.5122 16.3096C20.9107 15.6761 20.6099 14.9515 20.6099 14.1357C20.6099 13.8258 20.6555 13.5137 20.7466 13.1992C20.8423 12.8848 21.0588 12.4017 21.396 11.75L23.98 6.69141ZM23.7407 12.7344C23.3853 12.7344 23.0868 12.8643 22.8452 13.124C22.6037 13.3792 22.4829 13.7005 22.4829 14.0879C22.4829 14.4753 22.6083 14.8011 22.8589 15.0654C23.1141 15.3298 23.4103 15.4619 23.7476 15.4619C24.103 15.4619 24.4084 15.332 24.6636 15.0723C24.9188 14.8125 25.0464 14.4844 25.0464 14.0879C25.0464 13.7005 24.9211 13.3792 24.6704 13.124C24.4243 12.8643 24.1144 12.7344 23.7407 12.7344Z" fill="white"/>
<rect x="1.5" y="1.5" width="30" height="19" stroke="white"/>
</svg>
