<svg width="33" height="22" viewBox="0 0 33 22" fill="none" xmlns="http://www.w3.org/2000/svg">
<rect width="33" height="22" fill="black"/>
<path d="M9.8225 10.1846H7.95629C8.00642 9.09993 8.34594 8.24772 8.97484 7.62793C9.60831 7.00358 10.4195 6.69141 11.4084 6.69141C12.0191 6.69141 12.5569 6.82129 13.0217 7.08105C13.4911 7.33626 13.8648 7.70768 14.1428 8.19531C14.4254 8.67839 14.5666 9.17057 14.5666 9.67188C14.5666 10.2689 14.3957 10.9115 14.0539 11.5996C13.7167 12.2878 13.0969 13.1012 12.1946 14.04L11.0666 15.2295H14.6487V17H7.68285V16.084L10.7932 12.9121C11.5452 12.151 12.0442 11.5404 12.2903 11.0801C12.5409 10.6152 12.6663 10.196 12.6663 9.82227C12.6663 9.4349 12.5364 9.11589 12.2766 8.86523C12.0214 8.61003 11.691 8.48242 11.2854 8.48242C10.8752 8.48242 10.5334 8.63509 10.26 8.94043C9.98656 9.24577 9.84073 9.66048 9.8225 10.1846ZM19.5593 11.1211V8.55762H21.2683V11.1211H23.825V12.8301H21.2683V15.3867H19.5593V12.8301H16.9959V11.1211H19.5593Z" fill="white"/>
<rect x="1.5" y="1.5" width="30" height="19" stroke="white"/>
</svg>
