<svg width="33" height="22" viewBox="0 0 33 22" fill="none" xmlns="http://www.w3.org/2000/svg">
<rect width="33" height="22" fill="black"/>
<path d="M6.40867 10.1846H4.54246C4.59259 9.09993 4.93211 8.24772 5.56102 7.62793C6.19448 7.00358 7.00568 6.69141 7.99461 6.69141C8.60529 6.69141 9.14305 6.82129 9.60789 7.08105C10.0773 7.33626 10.451 7.70768 10.729 8.19531C11.0115 8.67839 11.1528 9.17057 11.1528 9.67188C11.1528 10.2689 10.9819 10.9115 10.6401 11.5996C10.3029 12.2878 9.68309 13.1012 8.78074 14.04L7.65281 15.2295H11.2348V17H4.26902V16.084L7.37938 12.9121C8.13133 12.151 8.63035 11.5404 8.87645 11.0801C9.1271 10.6152 9.25242 10.196 9.25242 9.82227C9.25242 9.4349 9.12254 9.11589 8.86277 8.86523C8.60757 8.61003 8.27716 8.48242 7.87156 8.48242C7.46141 8.48242 7.11961 8.63509 6.84617 8.94043C6.57273 9.24577 6.4269 9.66048 6.40867 10.1846ZM16.1455 11.1211V8.55762H17.8545V11.1211H20.4111V12.8301H17.8545V15.3867H16.1455V12.8301H13.582V11.1211H16.1455ZM24.4878 6.94434H27.3521V17H25.4517V8.74219H23.3804L24.4878 6.94434Z" fill="white"/>
<rect x="1.5" y="1.5" width="30" height="19" stroke="white"/>
</svg>
