<svg width="33" height="22" viewBox="0 0 33 22" fill="none" xmlns="http://www.w3.org/2000/svg">
<rect width="33" height="22" fill="black"/>
<path d="M4.91867 10.1846H3.05246C3.10259 9.09993 3.44211 8.24772 4.07102 7.62793C4.70448 7.00358 5.51568 6.69141 6.50461 6.69141C7.11529 6.69141 7.65305 6.82129 8.11789 7.08105C8.58729 7.33626 8.96099 7.70768 9.23898 8.19531C9.52154 8.67839 9.66281 9.17057 9.66281 9.67188C9.66281 10.2689 9.49191 10.9115 9.15012 11.5996C8.81288 12.2878 8.19309 13.1012 7.29074 14.04L6.16281 15.2295H9.74484V17H2.77902V16.084L5.88937 12.9121C6.64133 12.151 7.14035 11.5404 7.38645 11.0801C7.6371 10.6152 7.76242 10.196 7.76242 9.82227C7.76242 9.4349 7.63254 9.11589 7.37277 8.86523C7.11756 8.61003 6.78716 8.48242 6.38156 8.48242C5.97141 8.48242 5.62961 8.63509 5.35617 8.94043C5.08273 9.24577 4.9369 9.66048 4.91867 10.1846ZM14.6555 11.1211V8.55762H16.3645V11.1211H18.9211V12.8301H16.3645V15.3867H14.6555V12.8301H12.092V11.1211H14.6555ZM21.7058 6.94434H23.6062V17H21.7058V6.94434ZM26.6096 6.94434H28.51V17H26.6096V6.94434Z" fill="white"/>
<rect x="1.5" y="1.5" width="30" height="19" stroke="white"/>
</svg>
