<svg width="33" height="22" viewBox="0 0 33 22" fill="none" xmlns="http://www.w3.org/2000/svg">
<rect width="33" height="22" fill="black"/>
<path d="M5.91867 10.1846H4.05246C4.10259 9.09993 4.44211 8.24772 5.07102 7.62793C5.70448 7.00358 6.51568 6.69141 7.50461 6.69141C8.11529 6.69141 8.65305 6.82129 9.11789 7.08105C9.58729 7.33626 9.96099 7.70768 10.239 8.19531C10.5215 8.67839 10.6628 9.17057 10.6628 9.67188C10.6628 10.2689 10.4919 10.9115 10.1501 11.5996C9.81288 12.2878 9.19309 13.1012 8.29074 14.04L7.16281 15.2295H10.7448V17H3.77902V16.084L6.88937 12.9121C7.64133 12.151 8.14035 11.5404 8.38645 11.0801C8.6371 10.6152 8.76242 10.196 8.76242 9.82227C8.76242 9.4349 8.63254 9.11589 8.37277 8.86523C8.11756 8.61003 7.78716 8.48242 7.38156 8.48242C6.97141 8.48242 6.62961 8.63509 6.35617 8.94043C6.08273 9.24577 5.9369 9.66048 5.91867 10.1846ZM15.6555 11.1211V8.55762H17.3645V11.1211H19.9211V12.8301H17.3645V15.3867H15.6555V12.8301H13.092V11.1211H15.6555ZM22.7058 6.94434H24.6062V17H22.7058V6.94434ZM27.6096 6.94434H29.51V17H27.6096V6.94434Z" fill="white"/>
<rect x="1.5" y="1.5" width="30" height="19" stroke="white"/>
<path fill-rule="evenodd" clip-rule="evenodd" d="M26.5625 12C26.7319 14.0968 25 14.8186 25 16.6655C25 17.9199 25.8525 18.9906 27.5 18.9999C29.1475 19.0093 30 17.7125 30 16.3878C30 15.18 29.4272 14.0411 28.3467 13.3329C28.6033 14.0933 28.2617 14.7877 27.9297 15.0269C27.9492 14.0536 27.6172 12.6093 26.5625 12ZM27.8711 15.7916C28.9142 16.9551 28.2736 18.4166 27.4358 18.4166C26.9261 18.4166 26.6639 18.0477 26.6667 17.665C26.6719 16.9554 27.4269 16.9548 27.8711 15.7916V15.7916Z" fill="#FF0000"/>
</svg>
