<svg width="33" height="22" viewBox="0 0 33 22" fill="none" xmlns="http://www.w3.org/2000/svg">
<rect width="33" height="22" fill="black"/>
<path d="M7.87059 10.1846H6.00438C6.05451 9.09993 6.39402 8.24772 7.02293 7.62793C7.65639 7.00358 8.46759 6.69141 9.45652 6.69141C10.0672 6.69141 10.605 6.82129 11.0698 7.08105C11.5392 7.33626 11.9129 7.70768 12.1909 8.19531C12.4735 8.67839 12.6147 9.17057 12.6147 9.67188C12.6147 10.2689 12.4438 10.9115 12.102 11.5996C11.7648 12.2878 11.145 13.1012 10.2427 14.04L9.11473 15.2295H12.6968V17H5.73094V16.084L8.84129 12.9121C9.59324 12.151 10.0923 11.5404 10.3384 11.0801C10.589 10.6152 10.7143 10.196 10.7143 9.82227C10.7143 9.4349 10.5845 9.11589 10.3247 8.86523C10.0695 8.61003 9.73908 8.48242 9.33348 8.48242C8.92332 8.48242 8.58152 8.63509 8.30809 8.94043C8.03465 9.24577 7.88882 9.66048 7.87059 10.1846ZM17.6074 11.1211V8.55762H19.3164V11.1211H21.873V12.8301H19.3164V15.3867H17.6074V12.8301H15.0439V11.1211H17.6074ZM24.6577 6.94434H26.5581V17H24.6577V6.94434Z" fill="white"/>
<rect x="1.5" y="1.5" width="30" height="19" stroke="white"/>
<path fill-rule="evenodd" clip-rule="evenodd" d="M26.5625 12C26.7319 14.0968 25 14.8186 25 16.6655C25 17.9199 25.8525 18.9906 27.5 18.9999C29.1475 19.0093 30 17.7125 30 16.3878C30 15.18 29.4272 14.0411 28.3467 13.3329C28.6033 14.0933 28.2617 14.7877 27.9297 15.0269C27.9492 14.0536 27.6172 12.6093 26.5625 12ZM27.8711 15.7916C28.9142 16.9551 28.2736 18.4166 27.4358 18.4166C26.9261 18.4166 26.6639 18.0477 26.6667 17.665C26.6719 16.9554 27.4269 16.9548 27.8711 15.7916V15.7916Z" fill="#FF0000"/>
</svg>
