<svg width="33" height="22" viewBox="0 0 33 22" fill="none" xmlns="http://www.w3.org/2000/svg">
<rect width="33" height="22" fill="black"/>
<path d="M6.89207 9.42578H5.0532C5.14891 8.68294 5.41551 8.08594 5.85301 7.63477C6.46369 7.00586 7.23159 6.69141 8.15672 6.69141C8.98159 6.69141 9.67202 6.95345 10.228 7.47754C10.7886 8.00163 11.0688 8.6237 11.0688 9.34375C11.0688 9.79036 10.9458 10.1982 10.6997 10.5674C10.4582 10.9365 10.105 11.235 9.64012 11.4629C10.2508 11.6452 10.727 11.9642 11.0688 12.4199C11.4152 12.8711 11.5884 13.4043 11.5884 14.0195C11.5884 14.9219 11.2557 15.6875 10.5903 16.3164C9.92495 16.9408 9.07729 17.2529 8.04734 17.2529C7.07208 17.2529 6.27684 16.959 5.6616 16.3711C5.04637 15.7786 4.70913 14.9743 4.64988 13.958H6.54344C6.62547 14.4775 6.80548 14.8649 7.08348 15.1201C7.36603 15.3708 7.7215 15.4961 8.14988 15.4961C8.5965 15.4961 8.96564 15.3525 9.25731 15.0654C9.55353 14.7783 9.70164 14.4274 9.70164 14.0127C9.70164 13.557 9.5034 13.1719 9.10691 12.8574C8.71043 12.543 8.13849 12.3812 7.39109 12.3721V10.7314C7.85138 10.695 8.19318 10.6243 8.41648 10.5195C8.64435 10.4102 8.81981 10.262 8.94285 10.0752C9.07046 9.88835 9.13426 9.6901 9.13426 9.48047C9.13426 9.20703 9.03856 8.98145 8.84715 8.80371C8.65574 8.62142 8.40509 8.53027 8.0952 8.53027C7.82176 8.53027 7.57339 8.61458 7.35008 8.7832C7.12677 8.94727 6.9741 9.16146 6.89207 9.42578ZM14.2637 12.4268H17.7363V14.1631H14.2637V12.4268ZM22.2573 6.94434H26.9673V8.70801H23.6861L23.2759 10.54C23.3898 10.5081 23.5015 10.4854 23.6109 10.4717C23.7202 10.4535 23.8251 10.4443 23.9253 10.4443C24.8368 10.4443 25.5933 10.7565 26.1948 11.3809C26.801 12.0007 27.104 12.7959 27.104 13.7666C27.104 14.7464 26.7691 15.5736 26.0991 16.248C25.4338 16.918 24.6226 17.2529 23.6655 17.2529C22.8088 17.2529 22.0728 17.0091 21.4575 16.5215C20.8423 16.0339 20.439 15.3662 20.2476 14.5186H22.2573C22.4123 14.833 22.6151 15.0723 22.8657 15.2363C23.121 15.3958 23.4012 15.4756 23.7066 15.4756C24.1304 15.4756 24.4904 15.3229 24.7866 15.0176C25.0829 14.7122 25.231 14.3203 25.231 13.8418C25.231 13.377 25.092 12.9964 24.814 12.7002C24.5405 12.3994 24.2079 12.249 23.8159 12.249C23.6063 12.249 23.3989 12.3014 23.1939 12.4062C22.9933 12.5111 22.7951 12.6683 22.5991 12.8779L21.0405 12.5293L22.2573 6.94434Z" fill="white"/>
<rect x="1.5" y="1.5" width="30" height="19" stroke="white"/>
</svg>
