<svg width="33" height="22" viewBox="0 0 33 22" fill="none" xmlns="http://www.w3.org/2000/svg">
<rect width="33" height="22" fill="black"/>
<path d="M6.89207 9.42578H5.0532C5.14891 8.68294 5.41551 8.08594 5.85301 7.63477C6.46369 7.00586 7.23159 6.69141 8.15672 6.69141C8.98159 6.69141 9.67202 6.95345 10.228 7.47754C10.7886 8.00163 11.0688 8.6237 11.0688 9.34375C11.0688 9.79036 10.9458 10.1982 10.6997 10.5674C10.4582 10.9365 10.105 11.235 9.64012 11.4629C10.2508 11.6452 10.727 11.9642 11.0688 12.4199C11.4152 12.8711 11.5884 13.4043 11.5884 14.0195C11.5884 14.9219 11.2557 15.6875 10.5903 16.3164C9.92495 16.9408 9.07729 17.2529 8.04734 17.2529C7.07208 17.2529 6.27684 16.959 5.6616 16.3711C5.04637 15.7786 4.70913 14.9743 4.64988 13.958H6.54344C6.62547 14.4775 6.80548 14.8649 7.08348 15.1201C7.36603 15.3708 7.7215 15.4961 8.14988 15.4961C8.5965 15.4961 8.96564 15.3525 9.25731 15.0654C9.55353 14.7783 9.70164 14.4274 9.70164 14.0127C9.70164 13.557 9.5034 13.1719 9.10691 12.8574C8.71043 12.543 8.13849 12.3812 7.39109 12.3721V10.7314C7.85138 10.695 8.19318 10.6243 8.41648 10.5195C8.64435 10.4102 8.81981 10.262 8.94285 10.0752C9.07046 9.88835 9.13426 9.6901 9.13426 9.48047C9.13426 9.20703 9.03856 8.98145 8.84715 8.80371C8.65574 8.62142 8.40509 8.53027 8.0952 8.53027C7.82176 8.53027 7.57339 8.61458 7.35008 8.7832C7.12677 8.94727 6.9741 9.16146 6.89207 9.42578ZM14.2637 12.4268H17.7363V14.1631H14.2637V12.4268ZM23.98 6.69141L25.607 7.50488L23.8501 10.9229C24.7023 10.9229 25.4269 11.2282 26.0239 11.8389C26.621 12.4495 26.9195 13.2083 26.9195 14.1152C26.9195 14.9902 26.6118 15.7331 25.9966 16.3438C25.3859 16.9499 24.6476 17.2529 23.7818 17.2529C22.8749 17.2529 22.1183 16.9385 21.5122 16.3096C20.9107 15.6761 20.6099 14.9515 20.6099 14.1357C20.6099 13.8258 20.6555 13.5137 20.7466 13.1992C20.8423 12.8848 21.0588 12.4017 21.396 11.75L23.98 6.69141ZM23.7407 12.7344C23.3853 12.7344 23.0868 12.8643 22.8452 13.124C22.6037 13.3792 22.4829 13.7005 22.4829 14.0879C22.4829 14.4753 22.6083 14.8011 22.8589 15.0654C23.1141 15.3298 23.4103 15.4619 23.7476 15.4619C24.103 15.4619 24.4084 15.332 24.6636 15.0723C24.9188 14.8125 25.0464 14.4844 25.0464 14.0879C25.0464 13.7005 24.9211 13.3792 24.6704 13.124C24.4243 12.8643 24.1144 12.7344 23.7407 12.7344Z" fill="white"/>
<rect x="1.5" y="1.5" width="30" height="19" stroke="white"/>
</svg>
