<svg width="33" height="22" viewBox="0 0 33 22" fill="none" xmlns="http://www.w3.org/2000/svg">
<rect width="33" height="22" fill="black"/>
<path d="M10.0413 9.42578H8.20238C8.29809 8.68294 8.56469 8.08594 9.00219 7.63477C9.61286 7.00586 10.3808 6.69141 11.3059 6.69141C12.1308 6.69141 12.8212 6.95345 13.3772 7.47754C13.9377 8.00163 14.218 8.6237 14.218 9.34375C14.218 9.79036 14.095 10.1982 13.8489 10.5674C13.6073 10.9365 13.2541 11.235 12.7893 11.4629C13.4 11.6452 13.8762 11.9642 14.218 12.4199C14.5644 12.8711 14.7375 13.4043 14.7375 14.0195C14.7375 14.9219 14.4049 15.6875 13.7395 16.3164C13.0741 16.9408 12.2265 17.2529 11.1965 17.2529C10.2213 17.2529 9.42602 16.959 8.81078 16.3711C8.19555 15.7786 7.85831 14.9743 7.79906 13.958H9.69262C9.77465 14.4775 9.95466 14.8649 10.2327 15.1201C10.5152 15.3708 10.8707 15.4961 11.2991 15.4961C11.7457 15.4961 12.1148 15.3525 12.4065 15.0654C12.7027 14.7783 12.8508 14.4274 12.8508 14.0127C12.8508 13.557 12.6526 13.1719 12.2561 12.8574C11.8596 12.543 11.2877 12.3812 10.5403 12.3721V10.7314C11.0006 10.695 11.3424 10.6243 11.5657 10.5195C11.7935 10.4102 11.969 10.262 12.092 10.0752C12.2196 9.88835 12.2834 9.6901 12.2834 9.48047C12.2834 9.20703 12.1877 8.98145 11.9963 8.80371C11.8049 8.62142 11.5543 8.53027 11.2444 8.53027C10.9709 8.53027 10.7226 8.61458 10.4993 8.7832C10.276 8.94727 10.1233 9.16146 10.0413 9.42578ZM19.5593 11.1211V8.55762H21.2683V11.1211H23.825V12.8301H21.2683V15.3867H19.5593V12.8301H16.9959V11.1211H19.5593Z" fill="white"/>
<rect x="1.5" y="1.5" width="30" height="19" stroke="white"/>
</svg>
