<svg width="33" height="22" viewBox="0 0 33 22" fill="none" xmlns="http://www.w3.org/2000/svg">
<rect width="33" height="22" fill="black"/>
<path d="M12.0168 6.69141H13.9309V13.165H14.8264V14.9355H13.9309V17H12.0579V14.9355H7.66918V13.165L12.0168 6.69141ZM12.0579 13.165V9.79492L9.76098 13.165H12.0579ZM19.5593 11.1211V8.55762H21.2683V11.1211H23.825V12.8301H21.2683V15.3867H19.5593V12.8301H16.9959V11.1211H19.5593Z" fill="white"/>
<rect x="1.5" y="1.5" width="30" height="19" stroke="white"/>
<path fill-rule="evenodd" clip-rule="evenodd" d="M26.5625 12C26.7319 14.0968 25 14.8186 25 16.6655C25 17.9199 25.8525 18.9906 27.5 18.9999C29.1475 19.0093 30 17.7125 30 16.3878C30 15.18 29.4272 14.0411 28.3467 13.3329C28.6033 14.0933 28.2617 14.7877 27.9297 15.0269C27.9492 14.0536 27.6172 12.6093 26.5625 12ZM27.8711 15.7916C28.9142 16.9551 28.2736 18.4166 27.4358 18.4166C26.9261 18.4166 26.6639 18.0477 26.6667 17.665C26.6719 16.9554 27.4269 16.9548 27.8711 15.7916V15.7916Z" fill="#FF0000"/>
</svg>
