<svg width="33" height="22" viewBox="0 0 33 22" fill="none" xmlns="http://www.w3.org/2000/svg">
<rect width="33" height="22" fill="black"/>
<path d="M4.72807 7.09912H6.25346L9.2935 15H7.73051L7.11283 13.3726H3.89018L3.24564 15H1.68266L4.72807 7.09912ZM5.5015 9.19385L4.44877 11.9062H6.54887L5.5015 9.19385ZM12.2495 9.64502H10.7832C10.8226 8.79281 11.0894 8.12321 11.5835 7.63623C12.0812 7.14567 12.7186 6.90039 13.4956 6.90039C13.9754 6.90039 14.398 7.00244 14.7632 7.20654C15.132 7.40706 15.4256 7.69889 15.6441 8.08203C15.8661 8.46159 15.9771 8.84831 15.9771 9.24219C15.9771 9.71126 15.8428 10.2161 15.5742 10.7568C15.3093 11.2975 14.8223 11.9367 14.1133 12.6743L13.2271 13.6089H16.0415V15H10.5684V14.2803L13.0122 11.7881C13.603 11.1901 13.9951 10.7103 14.1885 10.3486C14.3854 9.9834 14.4839 9.65397 14.4839 9.36035C14.4839 9.05599 14.3819 8.80534 14.1778 8.6084C13.9772 8.40788 13.7176 8.30762 13.3989 8.30762C13.0767 8.30762 12.8081 8.42757 12.5933 8.66748C12.3784 8.90739 12.2639 9.23324 12.2495 9.64502ZM19.8999 10.3809V8.3667H21.2427V10.3809H23.2515V11.7236H21.2427V13.7324H19.8999V11.7236H17.8857V10.3809H19.8999ZM25.4394 7.09912H26.9326V15H25.4394V7.09912ZM29.2924 7.09912H30.7856V15H29.2924V7.09912Z" fill="white"/>
<path fill-rule="evenodd" clip-rule="evenodd" d="M26.5625 12C26.7319 14.0968 25 14.8186 25 16.6655C25 17.9199 25.8525 18.9906 27.5 18.9999C29.1475 19.0093 30 17.7125 30 16.3878C30 15.18 29.4272 14.0411 28.3467 13.3329C28.6033 14.0933 28.2617 14.7877 27.9297 15.0269C27.9492 14.0536 27.6172 12.6093 26.5625 12ZM27.8711 15.7916C28.9142 16.9551 28.2736 18.4166 27.4358 18.4166C26.9261 18.4166 26.6639 18.0477 26.6667 17.665C26.6719 16.9554 27.4269 16.9548 27.8711 15.7916V15.7916Z" fill="#FF0000"/>
<rect x="1.5" y="1.5" width="30" height="19" stroke="white"/>
</svg>
