<svg width="33" height="22" viewBox="0 0 33 22" fill="none" xmlns="http://www.w3.org/2000/svg">
<rect width="33" height="22" fill="black"/>
<path d="M5.75953 6.38086H7.42359L10.74 15H9.03492L8.36109 13.2246H4.84547L4.14234 15H2.43727L5.75953 6.38086ZM6.60328 8.66602L5.45484 11.625H7.74586L6.60328 8.66602ZM13.9648 9.1582H12.3652C12.4081 8.22852 12.6991 7.49805 13.2382 6.9668C13.7812 6.43164 14.4765 6.16406 15.3241 6.16406C15.8476 6.16406 16.3085 6.27539 16.707 6.49805C17.1093 6.7168 17.4296 7.03516 17.6679 7.45312C17.9101 7.86719 18.0312 8.28906 18.0312 8.71875C18.0312 9.23047 17.8847 9.78125 17.5917 10.3711C17.3027 10.9609 16.7714 11.6582 15.998 12.4629L15.0312 13.4824H18.1015V15H12.1308V14.2148L14.7968 11.4961C15.4413 10.8438 15.8691 10.3203 16.08 9.92578C16.2948 9.52734 16.4023 9.16797 16.4023 8.84766C16.4023 8.51562 16.2909 8.24219 16.0683 8.02734C15.8495 7.80859 15.5663 7.69922 15.2187 7.69922C14.8671 7.69922 14.5741 7.83008 14.3398 8.0918C14.1054 8.35352 13.9804 8.70898 13.9648 9.1582ZM22.3106 9.96094V7.76367H23.7755V9.96094H25.9669V11.4258H23.7755V13.6172H22.3106V11.4258H20.1134V9.96094H22.3106ZM28.3538 6.38086H29.9827V15H28.3538V6.38086Z" fill="white"/>
<path fill-rule="evenodd" clip-rule="evenodd" d="M26.5625 12C26.7319 14.0968 25 14.8186 25 16.6655C25 17.9199 25.8525 18.9906 27.5 18.9999C29.1475 19.0093 30 17.7125 30 16.3878C30 15.18 29.4272 14.0411 28.3467 13.3329C28.6033 14.0933 28.2617 14.7877 27.9297 15.0269C27.9492 14.0536 27.6172 12.6093 26.5625 12ZM27.8711 15.7916C28.9142 16.9551 28.2736 18.4166 27.4358 18.4166C26.9261 18.4166 26.6639 18.0477 26.6667 17.665C26.6719 16.9554 27.4269 16.9548 27.8711 15.7916V15.7916Z" fill="#FF0000"/>
<rect x="1.5" y="1.5" width="30" height="19" stroke="white"/>
</svg>
