<svg width="33" height="22" viewBox="0 0 33 22" fill="none" xmlns="http://www.w3.org/2000/svg">
<rect width="33" height="22" fill="black"/>
<path d="M6.42137 6.94434H8.36277L12.2319 17H10.2427L9.45652 14.9287H5.35496L4.53465 17H2.54539L6.42137 6.94434ZM7.40574 9.61035L6.0659 13.0625H8.73875L7.40574 9.61035ZM16.2129 9.42578H14.374C14.4697 8.68294 14.7363 8.08594 15.1738 7.63477C15.7845 7.00586 16.5524 6.69141 17.4775 6.69141C18.3024 6.69141 18.9928 6.95345 19.5488 7.47754C20.1094 8.00163 20.3896 8.6237 20.3896 9.34375C20.3896 9.79036 20.2666 10.1982 20.0205 10.5674C19.779 10.9365 19.4258 11.235 18.9609 11.4629C19.5716 11.6452 20.0479 11.9642 20.3896 12.4199C20.736 12.8711 20.9092 13.4043 20.9092 14.0195C20.9092 14.9219 20.5765 15.6875 19.9111 16.3164C19.2458 16.9408 18.3981 17.2529 17.3682 17.2529C16.3929 17.2529 15.5977 16.959 14.9824 16.3711C14.3672 15.7786 14.0299 14.9743 13.9707 13.958H15.8643C15.9463 14.4775 16.1263 14.8649 16.4043 15.1201C16.6868 15.3708 17.0423 15.4961 17.4707 15.4961C17.9173 15.4961 18.2865 15.3525 18.5781 15.0654C18.8743 14.7783 19.0225 14.4274 19.0225 14.0127C19.0225 13.557 18.8242 13.1719 18.4277 12.8574C18.0312 12.543 17.4593 12.3812 16.7119 12.3721V10.7314C17.1722 10.695 17.514 10.6243 17.7373 10.5195C17.9652 10.4102 18.1406 10.262 18.2637 10.0752C18.3913 9.88835 18.4551 9.6901 18.4551 9.48047C18.4551 9.20703 18.3594 8.98145 18.168 8.80371C17.9766 8.62142 17.7259 8.53027 17.416 8.53027C17.1426 8.53027 16.8942 8.61458 16.6709 8.7832C16.4476 8.94727 16.2949 9.16146 16.2129 9.42578ZM25.731 11.1211V8.55762H27.44V11.1211H29.9966V12.8301H27.44V15.3867H25.731V12.8301H23.1675V11.1211H25.731Z" fill="white"/>
<rect x="1.5" y="1.5" width="30" height="19" stroke="white"/>
<path fill-rule="evenodd" clip-rule="evenodd" d="M26.5625 12C26.7319 14.0968 25 14.8186 25 16.6655C25 17.9199 25.8525 18.9906 27.5 18.9999C29.1475 19.0093 30 17.7125 30 16.3878C30 15.18 29.4272 14.0411 28.3467 13.3329C28.6033 14.0933 28.2617 14.7877 27.9297 15.0269C27.9492 14.0536 27.6172 12.6093 26.5625 12ZM27.8711 15.7916C28.9142 16.9551 28.2736 18.4166 27.4358 18.4166C26.9261 18.4166 26.6639 18.0477 26.6667 17.665C26.6719 16.9554 27.4269 16.9548 27.8711 15.7916V15.7916Z" fill="#FF0000"/>
</svg>
