<svg width="500" height="275" viewBox="0 0 500 275" fill="none" xmlns="http://www.w3.org/2000/svg">
<rect width="500" height="275" fill="#1E1D22"/>
<path d="M181.328 71.5322L182.135 71.9561C181.87 72.4756 181.565 72.8949 181.219 73.2139C180.872 73.5329 180.483 73.7767 180.05 73.9453C179.617 74.1094 179.127 74.1914 178.58 74.1914C177.368 74.1914 176.42 73.7949 175.736 73.002C175.053 72.2044 174.711 71.3044 174.711 70.3018C174.711 69.3584 175 68.5176 175.579 67.7793C176.313 66.8405 177.295 66.3711 178.525 66.3711C179.792 66.3711 180.804 66.8519 181.561 67.8135C182.098 68.4925 182.372 69.3402 182.381 70.3564H175.695C175.714 71.2223 175.989 71.9333 176.522 72.4893C177.056 73.0407 177.714 73.3164 178.498 73.3164C178.876 73.3164 179.243 73.2503 179.599 73.1182C179.959 72.986 180.264 72.8105 180.515 72.5918C180.765 72.373 181.036 72.0199 181.328 71.5322ZM181.328 69.5293C181.201 69.0189 181.014 68.611 180.768 68.3057C180.526 68.0003 180.205 67.7542 179.804 67.5674C179.403 67.3805 178.981 67.2871 178.539 67.2871C177.81 67.2871 177.183 67.5218 176.659 67.9912C176.276 68.333 175.987 68.8457 175.791 69.5293H181.328ZM183.468 66.5625H184.486L186.975 71.9766L189.442 66.5625H190.468L187.063 74H186.893L183.468 66.5625ZM198.199 71.5322L199.006 71.9561C198.742 72.4756 198.436 72.8949 198.09 73.2139C197.743 73.5329 197.354 73.7767 196.921 73.9453C196.488 74.1094 195.998 74.1914 195.451 74.1914C194.239 74.1914 193.291 73.7949 192.607 73.002C191.924 72.2044 191.582 71.3044 191.582 70.3018C191.582 69.3584 191.871 68.5176 192.45 67.7793C193.184 66.8405 194.166 66.3711 195.396 66.3711C196.663 66.3711 197.675 66.8519 198.432 67.8135C198.969 68.4925 199.243 69.3402 199.252 70.3564H192.566C192.585 71.2223 192.86 71.9333 193.394 72.4893C193.927 73.0407 194.585 73.3164 195.369 73.3164C195.747 73.3164 196.114 73.2503 196.47 73.1182C196.83 72.986 197.135 72.8105 197.386 72.5918C197.636 72.373 197.908 72.0199 198.199 71.5322ZM198.199 69.5293C198.072 69.0189 197.885 68.611 197.639 68.3057C197.397 68.0003 197.076 67.7542 196.675 67.5674C196.274 67.3805 195.852 67.2871 195.41 67.2871C194.681 67.2871 194.054 67.5218 193.53 67.9912C193.147 68.333 192.858 68.8457 192.662 69.5293H198.199ZM200.681 66.5625H201.658V67.6494C201.95 67.221 202.257 66.902 202.581 66.6924C202.905 66.4782 203.242 66.3711 203.593 66.3711C203.857 66.3711 204.14 66.4554 204.44 66.624L203.941 67.4307C203.741 67.3441 203.572 67.3008 203.436 67.3008C203.117 67.3008 202.809 67.4329 202.513 67.6973C202.216 67.957 201.991 68.3626 201.836 68.9141C201.717 69.3379 201.658 70.1947 201.658 71.4844V74H200.681V66.5625ZM204.454 66.5625H205.466L208.022 72.291L210.504 66.5625H211.522L207.086 76.7207H206.074L207.51 73.4395L204.454 66.5625ZM217.477 63.8008H218.44V66.5625H219.958V67.3828H218.44V74H217.477V67.3828H216.171V66.5625H217.477V63.8008ZM221.722 63.5C221.94 63.5 222.127 63.5775 222.282 63.7324C222.437 63.8874 222.515 64.0742 222.515 64.293C222.515 64.5072 222.437 64.6917 222.282 64.8467C222.127 65.0016 221.94 65.0791 221.722 65.0791C221.507 65.0791 221.323 65.0016 221.168 64.8467C221.013 64.6917 220.936 64.5072 220.936 64.293C220.936 64.0742 221.013 63.8874 221.168 63.7324C221.323 63.5775 221.507 63.5 221.722 63.5ZM221.243 66.5625H222.207V74H221.243V66.5625ZM224.203 66.5625H225.153V67.9297C225.532 67.4102 225.967 67.0205 226.459 66.7607C226.951 66.501 227.5 66.3711 228.106 66.3711C229.164 66.3711 230.068 66.7516 230.82 67.5127C231.572 68.2738 231.948 69.1898 231.948 70.2607C231.948 71.3545 231.575 72.2842 230.827 73.0498C230.084 73.8109 229.187 74.1914 228.134 74.1914C227.541 74.1914 226.997 74.0684 226.5 73.8223C226.003 73.5762 225.554 73.2093 225.153 72.7217V76.7207H224.203V66.5625ZM228.031 67.2939C227.202 67.2939 226.502 67.5833 225.933 68.1621C225.368 68.7409 225.085 69.4609 225.085 70.3223C225.085 70.8874 225.21 71.3955 225.461 71.8467C225.716 72.2979 226.078 72.6556 226.548 72.9199C227.022 73.1842 227.521 73.3164 228.045 73.3164C228.56 73.3164 229.043 73.1842 229.494 72.9199C229.95 72.651 230.312 72.2773 230.581 71.7988C230.85 71.3203 230.984 70.819 230.984 70.2949C230.984 69.7663 230.85 69.265 230.581 68.791C230.317 68.3171 229.959 67.9502 229.508 67.6904C229.057 67.4261 228.564 67.2939 228.031 67.2939ZM237.964 63.5C238.183 63.5 238.369 63.5775 238.524 63.7324C238.679 63.8874 238.757 64.0742 238.757 64.293C238.757 64.5072 238.679 64.6917 238.524 64.8467C238.369 65.0016 238.183 65.0791 237.964 65.0791C237.75 65.0791 237.565 65.0016 237.41 64.8467C237.255 64.6917 237.178 64.5072 237.178 64.293C237.178 64.0742 237.255 63.8874 237.41 63.7324C237.565 63.5775 237.75 63.5 237.964 63.5ZM237.485 66.5625H238.449V74H237.485V66.5625ZM244.171 67.376L243.556 68.0117C243.045 67.515 242.546 67.2666 242.059 67.2666C241.749 67.2666 241.482 67.3691 241.259 67.5742C241.04 67.7793 240.931 68.0186 240.931 68.292C240.931 68.5335 241.022 68.7637 241.204 68.9824C241.386 69.2057 241.769 69.4678 242.353 69.7686C243.063 70.1377 243.547 70.4932 243.802 70.835C244.052 71.1813 244.178 71.571 244.178 72.0039C244.178 72.6146 243.964 73.1318 243.535 73.5557C243.107 73.9795 242.571 74.1914 241.929 74.1914C241.5 74.1914 241.09 74.098 240.698 73.9111C240.311 73.7243 239.99 73.4668 239.734 73.1387L240.336 72.4551C240.824 73.0065 241.341 73.2822 241.888 73.2822C242.271 73.2822 242.596 73.1592 242.865 72.9131C243.134 72.667 243.269 72.3776 243.269 72.0449C243.269 71.7715 243.18 71.5277 243.002 71.3135C242.824 71.1038 242.423 70.8395 241.799 70.5205C241.129 70.1742 240.673 69.8324 240.432 69.4951C240.19 69.1579 240.069 68.7728 240.069 68.3398C240.069 67.7747 240.261 67.3053 240.644 66.9316C241.031 66.5579 241.519 66.3711 242.106 66.3711C242.79 66.3711 243.478 66.7061 244.171 67.376ZM256.975 68.1074L256.216 68.5791C255.56 67.7087 254.664 67.2734 253.529 67.2734C252.622 67.2734 251.868 67.5651 251.267 68.1484C250.67 68.7318 250.371 69.4404 250.371 70.2744C250.371 70.8167 250.508 71.3271 250.781 71.8057C251.059 72.2842 251.438 72.6556 251.916 72.9199C252.399 73.1842 252.939 73.3164 253.536 73.3164C254.63 73.3164 255.523 72.8812 256.216 72.0107L256.975 72.5098C256.619 73.043 256.141 73.4577 255.539 73.7539C254.942 74.0456 254.261 74.1914 253.495 74.1914C252.319 74.1914 251.344 73.8177 250.569 73.0703C249.795 72.3229 249.407 71.4137 249.407 70.3428C249.407 69.6227 249.587 68.9551 249.947 68.3398C250.312 67.7201 250.811 67.237 251.444 66.8906C252.078 66.5443 252.786 66.3711 253.57 66.3711C254.062 66.3711 254.536 66.4463 254.992 66.5967C255.452 66.7471 255.842 66.943 256.161 67.1846C256.48 67.4261 256.751 67.7337 256.975 68.1074ZM266.23 66.5625V74H265.287V72.7217C264.886 73.2093 264.435 73.5762 263.934 73.8223C263.437 74.0684 262.892 74.1914 262.3 74.1914C261.247 74.1914 260.347 73.8109 259.6 73.0498C258.857 72.2842 258.485 71.3545 258.485 70.2607C258.485 69.1898 258.861 68.2738 259.613 67.5127C260.365 66.7516 261.27 66.3711 262.327 66.3711C262.938 66.3711 263.489 66.501 263.981 66.7607C264.478 67.0205 264.913 67.4102 265.287 67.9297V66.5625H266.23ZM262.402 67.2939C261.869 67.2939 261.377 67.4261 260.926 67.6904C260.475 67.9502 260.115 68.3171 259.846 68.791C259.581 69.265 259.449 69.7663 259.449 70.2949C259.449 70.819 259.584 71.3203 259.853 71.7988C260.121 72.2773 260.481 72.651 260.933 72.9199C261.388 73.1842 261.876 73.3164 262.396 73.3164C262.92 73.3164 263.416 73.1842 263.886 72.9199C264.355 72.6556 264.715 72.2979 264.966 71.8467C265.221 71.3955 265.349 70.8874 265.349 70.3223C265.349 69.4609 265.064 68.7409 264.494 68.1621C263.929 67.5833 263.232 67.2939 262.402 67.2939ZM268.247 63.6914H269.204V74H268.247V63.6914ZM278.412 68.1074L277.653 68.5791C276.997 67.7087 276.102 67.2734 274.967 67.2734C274.06 67.2734 273.306 67.5651 272.704 68.1484C272.107 68.7318 271.809 69.4404 271.809 70.2744C271.809 70.8167 271.945 71.3271 272.219 71.8057C272.497 72.2842 272.875 72.6556 273.354 72.9199C273.837 73.1842 274.377 73.3164 274.974 73.3164C276.067 73.3164 276.961 72.8812 277.653 72.0107L278.412 72.5098C278.057 73.043 277.578 73.4577 276.977 73.7539C276.38 74.0456 275.698 74.1914 274.933 74.1914C273.757 74.1914 272.782 73.8177 272.007 73.0703C271.232 72.3229 270.845 71.4137 270.845 70.3428C270.845 69.6227 271.025 68.9551 271.385 68.3398C271.749 67.7201 272.248 67.237 272.882 66.8906C273.515 66.5443 274.224 66.3711 275.008 66.3711C275.5 66.3711 275.974 66.4463 276.43 66.5967C276.89 66.7471 277.28 66.943 277.599 67.1846C277.918 67.4261 278.189 67.7337 278.412 68.1074ZM280.135 66.5625H281.099V70.0352C281.099 70.8828 281.144 71.4661 281.235 71.7852C281.372 72.2409 281.632 72.6009 282.015 72.8652C282.402 73.1296 282.862 73.2617 283.396 73.2617C283.929 73.2617 284.38 73.1341 284.749 72.8789C285.123 72.6191 285.38 72.2796 285.521 71.8604C285.617 71.5732 285.665 70.9648 285.665 70.0352V66.5625H286.643V70.2129C286.643 71.2383 286.522 72.0107 286.28 72.5303C286.043 73.0498 285.683 73.4577 285.2 73.7539C284.722 74.0456 284.12 74.1914 283.396 74.1914C282.671 74.1914 282.065 74.0456 281.577 73.7539C281.094 73.4577 280.732 73.0475 280.49 72.5234C280.253 71.9948 280.135 71.2018 280.135 70.1445V66.5625ZM288.632 63.6914H289.589V74H288.632V63.6914ZM298.988 66.5625V74H298.045V72.7217C297.644 73.2093 297.193 73.5762 296.691 73.8223C296.195 74.0684 295.65 74.1914 295.058 74.1914C294.005 74.1914 293.105 73.8109 292.357 73.0498C291.615 72.2842 291.243 71.3545 291.243 70.2607C291.243 69.1898 291.619 68.2738 292.371 67.5127C293.123 66.7516 294.028 66.3711 295.085 66.3711C295.696 66.3711 296.247 66.501 296.739 66.7607C297.236 67.0205 297.671 67.4102 298.045 67.9297V66.5625H298.988ZM295.16 67.2939C294.627 67.2939 294.135 67.4261 293.684 67.6904C293.232 67.9502 292.872 68.3171 292.604 68.791C292.339 69.265 292.207 69.7663 292.207 70.2949C292.207 70.819 292.341 71.3203 292.61 71.7988C292.879 72.2773 293.239 72.651 293.69 72.9199C294.146 73.1842 294.634 73.3164 295.153 73.3164C295.677 73.3164 296.174 73.1842 296.644 72.9199C297.113 72.6556 297.473 72.2979 297.724 71.8467C297.979 71.3955 298.106 70.8874 298.106 70.3223C298.106 69.4609 297.822 68.7409 297.252 68.1621C296.687 67.5833 295.99 67.2939 295.16 67.2939ZM301.982 63.8008H302.946V66.5625H304.464V67.3828H302.946V74H301.982V67.3828H300.677V66.5625H301.982V63.8008ZM312.154 71.5322L312.961 71.9561C312.697 72.4756 312.391 72.8949 312.045 73.2139C311.699 73.5329 311.309 73.7767 310.876 73.9453C310.443 74.1094 309.953 74.1914 309.406 74.1914C308.194 74.1914 307.246 73.7949 306.562 73.002C305.879 72.2044 305.537 71.3044 305.537 70.3018C305.537 69.3584 305.826 68.5176 306.405 67.7793C307.139 66.8405 308.121 66.3711 309.352 66.3711C310.618 66.3711 311.63 66.8519 312.387 67.8135C312.924 68.4925 313.198 69.3402 313.207 70.3564H306.521C306.54 71.2223 306.815 71.9333 307.349 72.4893C307.882 73.0407 308.54 73.3164 309.324 73.3164C309.702 73.3164 310.069 73.2503 310.425 73.1182C310.785 72.986 311.09 72.8105 311.341 72.5918C311.591 72.373 311.863 72.0199 312.154 71.5322ZM312.154 69.5293C312.027 69.0189 311.84 68.611 311.594 68.3057C311.352 68.0003 311.031 67.7542 310.63 67.5674C310.229 67.3805 309.807 67.2871 309.365 67.2871C308.636 67.2871 308.009 67.5218 307.485 67.9912C307.103 68.333 306.813 68.8457 306.617 69.5293H312.154ZM322.422 63.6914V74H321.479V72.7217C321.077 73.2093 320.626 73.5762 320.125 73.8223C319.628 74.0684 319.084 74.1914 318.491 74.1914C317.438 74.1914 316.538 73.8109 315.791 73.0498C315.048 72.2842 314.677 71.3545 314.677 70.2607C314.677 69.1898 315.053 68.2738 315.805 67.5127C316.557 66.7516 317.461 66.3711 318.519 66.3711C319.129 66.3711 319.681 66.501 320.173 66.7607C320.67 67.0205 321.105 67.4102 321.479 67.9297V63.6914H322.422ZM318.594 67.2939C318.061 67.2939 317.568 67.4261 317.117 67.6904C316.666 67.9502 316.306 68.3171 316.037 68.791C315.773 69.265 315.641 69.7663 315.641 70.2949C315.641 70.819 315.775 71.3203 316.044 71.7988C316.313 72.2773 316.673 72.651 317.124 72.9199C317.58 73.1842 318.067 73.3164 318.587 73.3164C319.111 73.3164 319.608 73.1842 320.077 72.9199C320.547 72.6556 320.907 72.2979 321.157 71.8467C321.412 71.3955 321.54 70.8874 321.54 70.3223C321.54 69.4609 321.255 68.7409 320.686 68.1621C320.12 67.5833 319.423 67.2939 318.594 67.2939Z" fill="#757575"/>
<path d="M253.652 24H261.5V26.0833H255.773V33.1667H259.591V34.8333H255.773V49H247.5V47.0154H253.652V34.8333H249.833V33.1667H253.652V24Z" fill="#757575"/>
<path d="M266.688 40.625H267.672L269.359 42.9863L271.047 40.625H272.031L269.852 43.6543L272.307 47H271.311L269.359 44.3223L267.438 47H266.459L268.873 43.6543L266.688 40.625Z" fill="#757575"/>
<path d="M107.984 106.917H109.533L112.599 117.786L116.926 106.917H117.233L121.509 117.786L124.637 106.917H126.175L121.848 122H121.561L117.09 110.587L112.527 122H112.24L107.984 106.917ZM138.151 118.298L139.361 118.934C138.965 119.713 138.507 120.342 137.987 120.821C137.468 121.299 136.883 121.665 136.234 121.918C135.584 122.164 134.85 122.287 134.029 122.287C132.211 122.287 130.789 121.692 129.764 120.503C128.738 119.307 128.226 117.957 128.226 116.453C128.226 115.038 128.66 113.776 129.528 112.669C130.628 111.261 132.102 110.557 133.947 110.557C135.848 110.557 137.365 111.278 138.5 112.72C139.307 113.739 139.717 115.01 139.73 116.535H129.702C129.729 117.833 130.143 118.9 130.943 119.734C131.743 120.561 132.73 120.975 133.906 120.975C134.474 120.975 135.024 120.875 135.557 120.677C136.097 120.479 136.555 120.216 136.931 119.888C137.307 119.56 137.714 119.03 138.151 118.298ZM138.151 115.294C137.96 114.528 137.68 113.917 137.311 113.458C136.948 113 136.466 112.631 135.865 112.351C135.263 112.071 134.631 111.931 133.968 111.931C132.874 111.931 131.934 112.283 131.148 112.987C130.574 113.5 130.14 114.269 129.846 115.294H138.151ZM148.333 122V106.537H149.759V112.761C150.36 112.023 151.034 111.473 151.779 111.11C152.524 110.741 153.341 110.557 154.229 110.557C155.809 110.557 157.155 111.131 158.27 112.279C159.391 113.421 159.951 114.809 159.951 116.442C159.951 118.056 159.387 119.433 158.259 120.575C157.131 121.716 155.774 122.287 154.188 122.287C153.279 122.287 152.456 122.092 151.717 121.703C150.979 121.313 150.326 120.729 149.759 119.949V122H148.333ZM154.076 120.903C154.875 120.903 155.614 120.708 156.291 120.318C156.967 119.922 157.504 119.368 157.9 118.657C158.304 117.946 158.505 117.194 158.505 116.401C158.505 115.608 158.304 114.853 157.9 114.135C157.497 113.417 156.954 112.86 156.27 112.464C155.593 112.061 154.869 111.859 154.096 111.859C153.31 111.859 152.562 112.061 151.851 112.464C151.146 112.86 150.603 113.397 150.22 114.074C149.844 114.75 149.656 115.513 149.656 116.36C149.656 117.652 150.08 118.732 150.928 119.601C151.782 120.469 152.832 120.903 154.076 120.903ZM171.969 118.298L173.179 118.934C172.782 119.713 172.324 120.342 171.805 120.821C171.285 121.299 170.701 121.665 170.051 121.918C169.402 122.164 168.667 122.287 167.847 122.287C166.028 122.287 164.606 121.692 163.581 120.503C162.556 119.307 162.043 117.957 162.043 116.453C162.043 115.038 162.477 113.776 163.345 112.669C164.446 111.261 165.919 110.557 167.765 110.557C169.665 110.557 171.183 111.278 172.317 112.72C173.124 113.739 173.534 115.01 173.548 116.535H163.52C163.547 117.833 163.96 118.9 164.76 119.734C165.56 120.561 166.548 120.975 167.724 120.975C168.291 120.975 168.841 120.875 169.375 120.677C169.915 120.479 170.373 120.216 170.749 119.888C171.125 119.56 171.531 119.03 171.969 118.298ZM171.969 115.294C171.777 114.528 171.497 113.917 171.128 113.458C170.766 113 170.284 112.631 169.682 112.351C169.081 112.071 168.448 111.931 167.785 111.931C166.691 111.931 165.751 112.283 164.965 112.987C164.391 113.5 163.957 114.269 163.663 115.294H171.969ZM176.019 106.537H177.455V122H176.019V106.537ZM180.941 106.25C181.269 106.25 181.549 106.366 181.782 106.599C182.014 106.831 182.13 107.111 182.13 107.439C182.13 107.761 182.014 108.038 181.782 108.27C181.549 108.502 181.269 108.619 180.941 108.619C180.62 108.619 180.343 108.502 180.11 108.27C179.878 108.038 179.762 107.761 179.762 107.439C179.762 107.111 179.878 106.831 180.11 106.599C180.343 106.366 180.62 106.25 180.941 106.25ZM180.223 110.844H181.669V122H180.223V110.844ZM194.035 118.298L195.245 118.934C194.849 119.713 194.391 120.342 193.871 120.821C193.352 121.299 192.767 121.665 192.118 121.918C191.468 122.164 190.733 122.287 189.913 122.287C188.095 122.287 186.673 121.692 185.647 120.503C184.622 119.307 184.109 117.957 184.109 116.453C184.109 115.038 184.543 113.776 185.412 112.669C186.512 111.261 187.985 110.557 189.831 110.557C191.731 110.557 193.249 111.278 194.384 112.72C195.19 113.739 195.601 115.01 195.614 116.535H185.586C185.613 117.833 186.027 118.9 186.827 119.734C187.626 120.561 188.614 120.975 189.79 120.975C190.357 120.975 190.908 120.875 191.441 120.677C191.981 120.479 192.439 120.216 192.815 119.888C193.191 119.56 193.598 119.03 194.035 118.298ZM194.035 115.294C193.844 114.528 193.563 113.917 193.194 113.458C192.832 113 192.35 112.631 191.749 112.351C191.147 112.071 190.515 111.931 189.852 111.931C188.758 111.931 187.818 112.283 187.032 112.987C186.458 113.5 186.023 114.269 185.729 115.294H194.035ZM197.245 110.844H198.772L202.505 118.965L206.207 110.844H207.745L202.638 122H202.382L197.245 110.844ZM219.342 118.298L220.552 118.934C220.155 119.713 219.697 120.342 219.178 120.821C218.658 121.299 218.074 121.665 217.424 121.918C216.775 122.164 216.04 122.287 215.22 122.287C213.401 122.287 211.979 121.692 210.954 120.503C209.929 119.307 209.416 117.957 209.416 116.453C209.416 115.038 209.85 113.776 210.718 112.669C211.819 111.261 213.292 110.557 215.138 110.557C217.038 110.557 218.556 111.278 219.69 112.72C220.497 113.739 220.907 115.01 220.921 116.535H210.893C210.92 117.833 211.333 118.9 212.133 119.734C212.933 120.561 213.921 120.975 215.097 120.975C215.664 120.975 216.214 120.875 216.748 120.677C217.288 120.479 217.746 120.216 218.122 119.888C218.498 119.56 218.904 119.03 219.342 118.298ZM219.342 115.294C219.15 114.528 218.87 113.917 218.501 113.458C218.139 113 217.657 112.631 217.055 112.351C216.454 112.071 215.821 111.931 215.158 111.931C214.064 111.931 213.125 112.283 212.338 112.987C211.764 113.5 211.33 114.269 211.036 115.294H219.342ZM229.934 106.25C230.262 106.25 230.542 106.366 230.775 106.599C231.007 106.831 231.124 107.111 231.124 107.439C231.124 107.761 231.007 108.038 230.775 108.27C230.542 108.502 230.262 108.619 229.934 108.619C229.613 108.619 229.336 108.502 229.104 108.27C228.871 108.038 228.755 107.761 228.755 107.439C228.755 107.111 228.871 106.831 229.104 106.599C229.336 106.366 229.613 106.25 229.934 106.25ZM229.216 110.844H230.662V122H229.216V110.844ZM233.636 110.844H235.071V112.843C235.646 112.078 236.281 111.507 236.979 111.131C237.676 110.748 238.435 110.557 239.255 110.557C240.089 110.557 240.827 110.769 241.47 111.192C242.119 111.616 242.598 112.187 242.905 112.905C243.213 113.623 243.367 114.74 243.367 116.258V122H241.941V116.678C241.941 115.393 241.887 114.535 241.777 114.104C241.606 113.366 241.285 112.812 240.813 112.443C240.342 112.067 239.727 111.879 238.968 111.879C238.1 111.879 237.32 112.167 236.63 112.741C235.946 113.315 235.495 114.026 235.276 114.874C235.14 115.427 235.071 116.439 235.071 117.909V122H233.636V110.844ZM252.134 110.844H254.943V112.125C255.422 111.599 255.952 111.206 256.533 110.946C257.121 110.687 257.76 110.557 258.45 110.557C259.147 110.557 259.776 110.728 260.337 111.069C260.897 111.411 261.349 111.91 261.69 112.566C262.135 111.91 262.678 111.411 263.321 111.069C263.97 110.728 264.678 110.557 265.443 110.557C266.236 110.557 266.934 110.741 267.535 111.11C268.137 111.479 268.567 111.961 268.827 112.556C269.094 113.151 269.227 114.118 269.227 115.458V122H266.407V116.34C266.407 115.075 266.25 114.221 265.936 113.776C265.621 113.325 265.149 113.1 264.521 113.1C264.042 113.1 263.611 113.236 263.229 113.51C262.853 113.783 262.572 114.163 262.388 114.648C262.203 115.126 262.111 115.899 262.111 116.965V122H259.291V116.596C259.291 115.598 259.216 114.877 259.065 114.433C258.922 113.981 258.703 113.646 258.409 113.428C258.115 113.209 257.76 113.1 257.343 113.1C256.878 113.1 256.454 113.24 256.071 113.52C255.695 113.793 255.412 114.18 255.22 114.679C255.036 115.178 254.943 115.964 254.943 117.037V122H252.134V110.844ZM280.147 110.844H282.937V122H280.147V120.821C279.601 121.34 279.05 121.716 278.497 121.949C277.95 122.174 277.355 122.287 276.712 122.287C275.27 122.287 274.022 121.73 272.97 120.616C271.917 119.495 271.391 118.104 271.391 116.442C271.391 114.72 271.9 113.308 272.918 112.208C273.937 111.107 275.174 110.557 276.63 110.557C277.3 110.557 277.929 110.683 278.517 110.936C279.105 111.189 279.648 111.568 280.147 112.074V110.844ZM277.205 113.141C276.336 113.141 275.615 113.448 275.041 114.063C274.467 114.672 274.18 115.455 274.18 116.412C274.18 117.375 274.47 118.168 275.051 118.791C275.639 119.413 276.36 119.724 277.215 119.724C278.097 119.724 278.828 119.419 279.409 118.811C279.99 118.196 280.281 117.393 280.281 116.401C280.281 115.431 279.99 114.645 279.409 114.043C278.828 113.441 278.093 113.141 277.205 113.141ZM286.105 106.732H288.894V110.844H290.555V113.253H288.894V122H286.105V113.253H284.669V110.844H286.105V106.732ZM292.073 106.537H294.852V111.972C295.398 111.5 295.949 111.148 296.502 110.916C297.056 110.676 297.617 110.557 298.184 110.557C299.292 110.557 300.225 110.939 300.983 111.705C301.633 112.368 301.958 113.342 301.958 114.627V122H299.199V117.109C299.199 115.817 299.138 114.942 299.015 114.484C298.892 114.026 298.68 113.684 298.379 113.458C298.085 113.233 297.719 113.12 297.282 113.12C296.714 113.12 296.226 113.308 295.815 113.684C295.412 114.06 295.132 114.573 294.975 115.222C294.893 115.557 294.852 116.323 294.852 117.519V122H292.073V106.537ZM315.852 117.232H306.859C306.989 118.025 307.334 118.657 307.895 119.129C308.462 119.594 309.183 119.826 310.058 119.826C311.104 119.826 312.003 119.46 312.755 118.729L315.113 119.836C314.525 120.67 313.821 121.289 313.001 121.692C312.181 122.089 311.207 122.287 310.079 122.287C308.329 122.287 306.903 121.737 305.803 120.636C304.702 119.529 304.152 118.145 304.152 116.483C304.152 114.781 304.699 113.37 305.792 112.249C306.893 111.121 308.271 110.557 309.925 110.557C311.682 110.557 313.11 111.121 314.211 112.249C315.312 113.37 315.862 114.853 315.862 116.699L315.852 117.232ZM313.042 115.027C312.857 114.405 312.492 113.899 311.945 113.51C311.405 113.12 310.776 112.925 310.058 112.925C309.279 112.925 308.595 113.144 308.007 113.582C307.638 113.855 307.296 114.337 306.982 115.027H313.042ZM318.107 110.844H320.917V112.125C321.396 111.599 321.925 111.206 322.506 110.946C323.094 110.687 323.733 110.557 324.424 110.557C325.121 110.557 325.75 110.728 326.311 111.069C326.871 111.411 327.322 111.91 327.664 112.566C328.108 111.91 328.652 111.411 329.294 111.069C329.944 110.728 330.651 110.557 331.417 110.557C332.21 110.557 332.907 110.741 333.509 111.11C334.11 111.479 334.541 111.961 334.801 112.556C335.067 113.151 335.201 114.118 335.201 115.458V122H332.381V116.34C332.381 115.075 332.224 114.221 331.909 113.776C331.595 113.325 331.123 113.1 330.494 113.1C330.016 113.1 329.585 113.236 329.202 113.51C328.826 113.783 328.546 114.163 328.361 114.648C328.177 115.126 328.084 115.899 328.084 116.965V122H325.265V116.596C325.265 115.598 325.189 114.877 325.039 114.433C324.896 113.981 324.677 113.646 324.383 113.428C324.089 113.209 323.733 113.1 323.316 113.1C322.852 113.1 322.428 113.24 322.045 113.52C321.669 113.793 321.385 114.18 321.194 114.679C321.009 115.178 320.917 115.964 320.917 117.037V122H318.107V110.844ZM346.121 110.844H348.91V122H346.121V120.821C345.574 121.34 345.024 121.716 344.47 121.949C343.923 122.174 343.329 122.287 342.686 122.287C341.244 122.287 339.996 121.73 338.943 120.616C337.891 119.495 337.364 118.104 337.364 116.442C337.364 114.72 337.874 113.308 338.892 112.208C339.911 111.107 341.148 110.557 342.604 110.557C343.274 110.557 343.903 110.683 344.491 110.936C345.079 111.189 345.622 111.568 346.121 112.074V110.844ZM343.178 113.141C342.31 113.141 341.589 113.448 341.015 114.063C340.44 114.672 340.153 115.455 340.153 116.412C340.153 117.375 340.444 118.168 341.025 118.791C341.613 119.413 342.334 119.724 343.188 119.724C344.07 119.724 344.802 119.419 345.383 118.811C345.964 118.196 346.254 117.393 346.254 116.401C346.254 115.431 345.964 114.645 345.383 114.043C344.802 113.441 344.067 113.141 343.178 113.141ZM352.079 106.732H354.868V110.844H356.529V113.253H354.868V122H352.079V113.253H350.643V110.844H352.079V106.732ZM359.133 106.25C359.625 106.25 360.046 106.428 360.395 106.783C360.75 107.139 360.928 107.569 360.928 108.075C360.928 108.574 360.753 109.001 360.405 109.357C360.056 109.706 359.639 109.88 359.154 109.88C358.655 109.88 358.228 109.702 357.872 109.347C357.523 108.984 357.349 108.547 357.349 108.034C357.349 107.542 357.523 107.122 357.872 106.773C358.221 106.424 358.641 106.25 359.133 106.25ZM357.729 110.844H360.538V122H357.729V110.844ZM374.001 113.1L371.674 114.381C371.236 113.923 370.802 113.605 370.372 113.428C369.948 113.25 369.449 113.161 368.875 113.161C367.829 113.161 366.981 113.476 366.332 114.104C365.689 114.727 365.368 115.526 365.368 116.504C365.368 117.454 365.679 118.23 366.301 118.832C366.923 119.433 367.74 119.734 368.751 119.734C370.002 119.734 370.977 119.307 371.674 118.452L373.878 119.959C372.682 121.511 370.994 122.287 368.813 122.287C366.851 122.287 365.313 121.706 364.199 120.544C363.091 119.382 362.538 118.021 362.538 116.463C362.538 115.383 362.808 114.388 363.348 113.479C363.888 112.57 364.64 111.855 365.604 111.336C366.574 110.816 367.658 110.557 368.854 110.557C369.961 110.557 370.956 110.779 371.838 111.223C372.72 111.661 373.441 112.286 374.001 113.1ZM383.363 112.402L381.63 114.135C380.926 113.438 380.287 113.089 379.713 113.089C379.398 113.089 379.152 113.158 378.975 113.294C378.797 113.424 378.708 113.588 378.708 113.787C378.708 113.937 378.763 114.077 378.872 114.207C378.988 114.33 379.269 114.501 379.713 114.72L380.738 115.232C381.818 115.766 382.56 116.309 382.963 116.863C383.367 117.417 383.568 118.066 383.568 118.811C383.568 119.802 383.203 120.629 382.471 121.292C381.747 121.956 380.772 122.287 379.549 122.287C377.922 122.287 376.623 121.651 375.652 120.38L377.375 118.503C377.703 118.886 378.086 119.197 378.523 119.437C378.968 119.669 379.361 119.785 379.703 119.785C380.072 119.785 380.369 119.696 380.595 119.519C380.82 119.341 380.933 119.136 380.933 118.903C380.933 118.473 380.526 118.052 379.713 117.642L378.77 117.17C376.965 116.261 376.062 115.123 376.062 113.756C376.062 112.874 376.401 112.122 377.078 111.5C377.761 110.871 378.633 110.557 379.692 110.557C380.417 110.557 381.097 110.717 381.733 111.039C382.375 111.353 382.919 111.808 383.363 112.402ZM387.547 119.744C387.896 119.744 388.193 119.867 388.439 120.113C388.685 120.359 388.808 120.66 388.808 121.016C388.808 121.364 388.685 121.665 388.439 121.918C388.193 122.164 387.896 122.287 387.547 122.287C387.198 122.287 386.901 122.164 386.655 121.918C386.409 121.665 386.286 121.364 386.286 121.016C386.286 120.66 386.409 120.359 386.655 120.113C386.901 119.867 387.198 119.744 387.547 119.744Z" fill="white"/>
<path d="M145.757 165.099H146.568L148.174 170.792L150.441 165.099H150.602L152.842 170.792L154.48 165.099H155.286L153.019 173H152.869L150.527 167.022L148.137 173H147.986L145.757 165.099ZM161.559 171.061L162.193 171.394C161.985 171.802 161.745 172.132 161.473 172.382C161.201 172.633 160.895 172.825 160.555 172.957C160.215 173.086 159.83 173.15 159.4 173.15C158.447 173.15 157.703 172.839 157.166 172.216C156.628 171.589 156.36 170.882 156.36 170.094C156.36 169.353 156.587 168.692 157.042 168.112C157.618 167.375 158.39 167.006 159.357 167.006C160.352 167.006 161.147 167.384 161.742 168.139C162.164 168.673 162.379 169.339 162.386 170.137H157.133C157.148 170.818 157.364 171.376 157.783 171.813C158.202 172.246 158.72 172.463 159.335 172.463C159.633 172.463 159.921 172.411 160.2 172.307C160.483 172.203 160.723 172.065 160.92 171.894C161.117 171.722 161.33 171.444 161.559 171.061ZM161.559 169.487C161.459 169.086 161.312 168.766 161.119 168.526C160.929 168.286 160.676 168.093 160.361 167.946C160.046 167.799 159.715 167.726 159.368 167.726C158.795 167.726 158.302 167.91 157.891 168.279C157.59 168.547 157.362 168.95 157.208 169.487H161.559ZM169.61 167.006C170.509 167.006 171.254 167.332 171.845 167.983C172.382 168.578 172.65 169.281 172.65 170.094C172.65 170.911 172.366 171.625 171.796 172.237C171.231 172.846 170.502 173.15 169.61 173.15C168.715 173.15 167.983 172.846 167.414 172.237C166.848 171.625 166.565 170.911 166.565 170.094C166.565 169.285 166.833 168.583 167.371 167.989C167.961 167.333 168.708 167.006 169.61 167.006ZM169.61 167.742C168.987 167.742 168.452 167.973 168.004 168.435C167.557 168.896 167.333 169.455 167.333 170.11C167.333 170.533 167.435 170.927 167.639 171.292C167.843 171.657 168.119 171.94 168.466 172.141C168.814 172.338 169.195 172.436 169.61 172.436C170.026 172.436 170.407 172.338 170.754 172.141C171.102 171.94 171.377 171.657 171.582 171.292C171.786 170.927 171.888 170.533 171.888 170.11C171.888 169.455 171.662 168.896 171.211 168.435C170.763 167.973 170.23 167.742 169.61 167.742ZM174.052 167.156H174.804V168.204C175.105 167.803 175.438 167.504 175.803 167.307C176.168 167.106 176.566 167.006 176.996 167.006C177.432 167.006 177.819 167.117 178.156 167.339C178.496 167.561 178.747 167.86 178.908 168.236C179.069 168.612 179.149 169.197 179.149 169.992V173H178.403V170.212C178.403 169.539 178.374 169.09 178.317 168.864C178.227 168.478 178.059 168.188 177.812 167.994C177.565 167.797 177.243 167.699 176.845 167.699C176.39 167.699 175.982 167.849 175.621 168.15C175.263 168.451 175.026 168.823 174.912 169.267C174.84 169.557 174.804 170.087 174.804 170.857V173H174.052V167.156ZM180.653 164.9H181.405V173H180.653V164.9ZM182.34 167.156H183.135L185.144 171.657L187.093 167.156H187.894L184.408 175.138H183.613L184.741 172.56L182.34 167.156ZM194.854 167.795L194.371 168.295C193.97 167.905 193.578 167.709 193.195 167.709C192.951 167.709 192.742 167.79 192.566 167.951C192.395 168.112 192.309 168.3 192.309 168.515C192.309 168.705 192.38 168.886 192.523 169.058C192.667 169.233 192.967 169.439 193.426 169.675C193.984 169.965 194.364 170.245 194.564 170.513C194.761 170.785 194.86 171.091 194.86 171.432C194.86 171.911 194.692 172.318 194.355 172.651C194.018 172.984 193.598 173.15 193.093 173.15C192.756 173.15 192.434 173.077 192.126 172.93C191.822 172.783 191.569 172.581 191.369 172.323L191.841 171.786C192.224 172.219 192.631 172.436 193.061 172.436C193.361 172.436 193.617 172.339 193.829 172.146C194.04 171.953 194.146 171.725 194.146 171.464C194.146 171.249 194.076 171.057 193.936 170.889C193.796 170.724 193.481 170.517 192.991 170.266C192.464 169.994 192.106 169.725 191.917 169.46C191.727 169.195 191.632 168.893 191.632 168.553C191.632 168.109 191.782 167.74 192.083 167.446C192.387 167.153 192.771 167.006 193.232 167.006C193.77 167.006 194.31 167.269 194.854 167.795ZM196.192 164.9H196.944V168.204C197.248 167.803 197.583 167.504 197.948 167.307C198.313 167.106 198.709 167.006 199.135 167.006C199.572 167.006 199.959 167.117 200.295 167.339C200.636 167.561 200.886 167.86 201.047 168.236C201.208 168.608 201.289 169.194 201.289 169.992V173H200.537V170.212C200.537 169.539 200.51 169.09 200.457 168.864C200.363 168.478 200.193 168.188 199.946 167.994C199.703 167.797 199.382 167.699 198.985 167.699C198.53 167.699 198.122 167.849 197.76 168.15C197.402 168.451 197.166 168.823 197.051 169.267C196.98 169.554 196.944 170.083 196.944 170.857V173H196.192V164.9ZM208.728 167.156V173H207.987V171.996C207.672 172.379 207.317 172.667 206.923 172.86C206.533 173.054 206.105 173.15 205.64 173.15C204.812 173.15 204.105 172.851 203.518 172.253C202.934 171.652 202.643 170.921 202.643 170.062C202.643 169.221 202.938 168.501 203.529 167.903C204.12 167.305 204.83 167.006 205.661 167.006C206.141 167.006 206.574 167.108 206.961 167.312C207.351 167.516 207.693 167.822 207.987 168.23V167.156H208.728ZM205.72 167.731C205.301 167.731 204.915 167.835 204.56 168.042C204.206 168.247 203.923 168.535 203.711 168.907C203.504 169.28 203.4 169.674 203.4 170.089C203.4 170.501 203.506 170.895 203.717 171.271C203.928 171.646 204.211 171.94 204.565 172.151C204.924 172.359 205.307 172.463 205.715 172.463C206.127 172.463 206.517 172.359 206.886 172.151C207.255 171.944 207.537 171.663 207.734 171.308C207.935 170.954 208.035 170.554 208.035 170.11C208.035 169.434 207.811 168.868 207.364 168.413C206.92 167.958 206.372 167.731 205.72 167.731ZM210.141 167.156H210.909V168.01C211.138 167.674 211.38 167.423 211.634 167.258C211.888 167.09 212.153 167.006 212.429 167.006C212.636 167.006 212.858 167.072 213.095 167.205L212.703 167.838C212.545 167.77 212.413 167.736 212.305 167.736C212.055 167.736 211.813 167.84 211.58 168.048C211.347 168.252 211.17 168.571 211.048 169.004C210.955 169.337 210.909 170.01 210.909 171.023V173H210.141V167.156ZM218.654 171.061L219.288 171.394C219.08 171.802 218.84 172.132 218.568 172.382C218.296 172.633 217.99 172.825 217.649 172.957C217.309 173.086 216.924 173.15 216.495 173.15C215.542 173.15 214.797 172.839 214.26 172.216C213.723 171.589 213.455 170.882 213.455 170.094C213.455 169.353 213.682 168.692 214.137 168.112C214.713 167.375 215.485 167.006 216.452 167.006C217.447 167.006 218.242 167.384 218.836 168.139C219.259 168.673 219.474 169.339 219.481 170.137H214.228C214.242 170.818 214.459 171.376 214.878 171.813C215.297 172.246 215.814 172.463 216.43 172.463C216.727 172.463 217.016 172.411 217.295 172.307C217.578 172.203 217.818 172.065 218.015 171.894C218.212 171.722 218.425 171.444 218.654 171.061ZM218.654 169.487C218.554 169.086 218.407 168.766 218.213 168.526C218.024 168.286 217.771 168.093 217.456 167.946C217.141 167.799 216.81 167.726 216.462 167.726C215.889 167.726 215.397 167.91 214.985 168.279C214.685 168.547 214.457 168.95 214.303 169.487H218.654ZM224.594 164.986H225.352V167.156H226.544V167.801H225.352V173H224.594V167.801H223.568V167.156H224.594V164.986ZM227.93 164.75C228.102 164.75 228.248 164.811 228.37 164.933C228.492 165.054 228.553 165.201 228.553 165.373C228.553 165.541 228.492 165.686 228.37 165.808C228.248 165.93 228.102 165.991 227.93 165.991C227.761 165.991 227.616 165.93 227.495 165.808C227.373 165.686 227.312 165.541 227.312 165.373C227.312 165.201 227.373 165.054 227.495 164.933C227.616 164.811 227.761 164.75 227.93 164.75ZM227.554 167.156H228.311V173H227.554V167.156ZM229.879 167.156H230.626V168.23C230.923 167.822 231.265 167.516 231.652 167.312C232.039 167.108 232.47 167.006 232.946 167.006C233.777 167.006 234.488 167.305 235.079 167.903C235.669 168.501 235.965 169.221 235.965 170.062C235.965 170.921 235.671 171.652 235.084 172.253C234.5 172.851 233.795 173.15 232.968 173.15C232.502 173.15 232.074 173.054 231.684 172.86C231.294 172.667 230.941 172.379 230.626 171.996V175.138H229.879V167.156ZM232.887 167.731C232.236 167.731 231.686 167.958 231.238 168.413C230.794 168.868 230.572 169.434 230.572 170.11C230.572 170.554 230.671 170.954 230.868 171.308C231.068 171.663 231.353 171.944 231.722 172.151C232.094 172.359 232.486 172.463 232.898 172.463C233.303 172.463 233.682 172.359 234.037 172.151C234.395 171.94 234.679 171.646 234.891 171.271C235.102 170.895 235.208 170.501 235.208 170.089C235.208 169.674 235.102 169.28 234.891 168.907C234.683 168.535 234.402 168.247 234.047 168.042C233.693 167.835 233.306 167.731 232.887 167.731ZM240.315 167.795L239.832 168.295C239.431 167.905 239.039 167.709 238.656 167.709C238.412 167.709 238.203 167.79 238.027 167.951C237.855 168.112 237.77 168.3 237.77 168.515C237.77 168.705 237.841 168.886 237.984 169.058C238.128 169.233 238.428 169.439 238.887 169.675C239.445 169.965 239.825 170.245 240.025 170.513C240.222 170.785 240.321 171.091 240.321 171.432C240.321 171.911 240.153 172.318 239.816 172.651C239.479 172.984 239.059 173.15 238.554 173.15C238.217 173.15 237.895 173.077 237.587 172.93C237.283 172.783 237.03 172.581 236.83 172.323L237.302 171.786C237.685 172.219 238.092 172.436 238.521 172.436C238.822 172.436 239.078 172.339 239.29 172.146C239.501 171.953 239.606 171.725 239.606 171.464C239.606 171.249 239.537 171.057 239.397 170.889C239.257 170.724 238.942 170.517 238.452 170.266C237.925 169.994 237.567 169.725 237.377 169.46C237.188 169.195 237.093 168.893 237.093 168.553C237.093 168.109 237.243 167.74 237.544 167.446C237.848 167.153 238.231 167.006 238.693 167.006C239.23 167.006 239.771 167.269 240.315 167.795ZM243.914 167.156H244.688L246.476 171.399L248.351 167.156H248.485L250.354 171.399L252.175 167.156H252.959L250.424 173H250.279L248.42 168.816L246.546 173H246.406L243.914 167.156ZM253.845 164.9H254.597V168.204C254.902 167.803 255.236 167.504 255.602 167.307C255.967 167.106 256.362 167.006 256.789 167.006C257.225 167.006 257.612 167.117 257.949 167.339C258.289 167.561 258.54 167.86 258.701 168.236C258.862 168.608 258.942 169.194 258.942 169.992V173H258.19V170.212C258.19 169.539 258.164 169.09 258.11 168.864C258.017 168.478 257.847 168.188 257.6 167.994C257.356 167.797 257.036 167.699 256.638 167.699C256.183 167.699 255.775 167.849 255.414 168.15C255.056 168.451 254.819 168.823 254.705 169.267C254.633 169.554 254.597 170.083 254.597 170.857V173H253.845V164.9ZM260.822 164.75C260.994 164.75 261.141 164.811 261.263 164.933C261.384 165.054 261.445 165.201 261.445 165.373C261.445 165.541 261.384 165.686 261.263 165.808C261.141 165.93 260.994 165.991 260.822 165.991C260.654 165.991 260.509 165.93 260.387 165.808C260.265 165.686 260.205 165.541 260.205 165.373C260.205 165.201 260.265 165.054 260.387 164.933C260.509 164.811 260.654 164.75 260.822 164.75ZM260.446 167.156H261.204V173H260.446V167.156ZM268.433 168.37L267.837 168.741C267.321 168.057 266.618 167.715 265.726 167.715C265.014 167.715 264.421 167.944 263.948 168.402C263.479 168.861 263.245 169.417 263.245 170.073C263.245 170.499 263.352 170.9 263.567 171.276C263.785 171.652 264.083 171.944 264.458 172.151C264.838 172.359 265.262 172.463 265.731 172.463C266.591 172.463 267.293 172.121 267.837 171.437L268.433 171.829C268.154 172.248 267.778 172.574 267.305 172.807C266.836 173.036 266.301 173.15 265.699 173.15C264.775 173.15 264.009 172.857 263.4 172.27C262.792 171.682 262.487 170.968 262.487 170.126C262.487 169.561 262.629 169.036 262.912 168.553C263.198 168.066 263.59 167.686 264.088 167.414C264.586 167.142 265.142 167.006 265.758 167.006C266.145 167.006 266.517 167.065 266.875 167.183C267.237 167.301 267.543 167.455 267.794 167.645C268.045 167.835 268.258 168.076 268.433 168.37ZM269.883 164.9H270.635V168.204C270.94 167.803 271.274 167.504 271.64 167.307C272.005 167.106 272.401 167.006 272.827 167.006C273.264 167.006 273.65 167.117 273.987 167.339C274.327 167.561 274.578 167.86 274.739 168.236C274.9 168.608 274.98 169.194 274.98 169.992V173H274.229V170.212C274.229 169.539 274.202 169.09 274.148 168.864C274.055 168.478 273.885 168.188 273.638 167.994C273.394 167.797 273.074 167.699 272.676 167.699C272.222 167.699 271.813 167.849 271.452 168.15C271.094 168.451 270.857 168.823 270.743 169.267C270.671 169.554 270.635 170.083 270.635 170.857V173H269.883V164.9ZM282.414 167.006C283.313 167.006 284.058 167.332 284.648 167.983C285.186 168.578 285.454 169.281 285.454 170.094C285.454 170.911 285.169 171.625 284.6 172.237C284.034 172.846 283.306 173.15 282.414 173.15C281.519 173.15 280.787 172.846 280.217 172.237C279.652 171.625 279.369 170.911 279.369 170.094C279.369 169.285 279.637 168.583 280.174 167.989C280.765 167.333 281.512 167.006 282.414 167.006ZM282.414 167.742C281.791 167.742 281.256 167.973 280.808 168.435C280.361 168.896 280.137 169.455 280.137 170.11C280.137 170.533 280.239 170.927 280.443 171.292C280.647 171.657 280.923 171.94 281.27 172.141C281.617 172.338 281.999 172.436 282.414 172.436C282.829 172.436 283.211 172.338 283.558 172.141C283.905 171.94 284.181 171.657 284.385 171.292C284.589 170.927 284.691 170.533 284.691 170.11C284.691 169.455 284.466 168.896 284.015 168.435C283.567 167.973 283.034 167.742 282.414 167.742ZM286.759 167.156H287.517V169.885C287.517 170.551 287.552 171.009 287.624 171.26C287.731 171.618 287.936 171.901 288.236 172.108C288.541 172.316 288.902 172.42 289.321 172.42C289.74 172.42 290.095 172.32 290.385 172.119C290.678 171.915 290.881 171.648 290.992 171.319C291.067 171.093 291.104 170.615 291.104 169.885V167.156H291.873V170.024C291.873 170.83 291.778 171.437 291.588 171.845C291.402 172.253 291.119 172.574 290.739 172.807C290.363 173.036 289.891 173.15 289.321 173.15C288.752 173.15 288.276 173.036 287.893 172.807C287.513 172.574 287.228 172.252 287.039 171.84C286.852 171.424 286.759 170.801 286.759 169.971V167.156ZM293.264 167.156H294.032V168.01C294.261 167.674 294.503 167.423 294.757 167.258C295.011 167.09 295.276 167.006 295.552 167.006C295.759 167.006 295.981 167.072 296.218 167.205L295.826 167.838C295.668 167.77 295.536 167.736 295.428 167.736C295.178 167.736 294.936 167.84 294.703 168.048C294.47 168.252 294.293 168.571 294.171 169.004C294.078 169.337 294.032 170.01 294.032 171.023V173H293.264V167.156ZM299.918 167.156H300.665V168.23C300.962 167.822 301.304 167.516 301.691 167.312C302.078 167.108 302.509 167.006 302.985 167.006C303.816 167.006 304.527 167.305 305.118 167.903C305.708 168.501 306.004 169.221 306.004 170.062C306.004 170.921 305.71 171.652 305.123 172.253C304.539 172.851 303.834 173.15 303.007 173.15C302.541 173.15 302.113 173.054 301.723 172.86C301.333 172.667 300.98 172.379 300.665 171.996V175.138H299.918V167.156ZM302.926 167.731C302.275 167.731 301.725 167.958 301.277 168.413C300.833 168.868 300.611 169.434 300.611 170.11C300.611 170.554 300.71 170.954 300.907 171.308C301.107 171.663 301.392 171.944 301.761 172.151C302.133 172.359 302.525 172.463 302.937 172.463C303.342 172.463 303.721 172.359 304.076 172.151C304.434 171.94 304.718 171.646 304.93 171.271C305.141 170.895 305.247 170.501 305.247 170.089C305.247 169.674 305.141 169.28 304.93 168.907C304.722 168.535 304.441 168.247 304.086 168.042C303.732 167.835 303.345 167.731 302.926 167.731ZM307.132 167.156H307.9V168.01C308.129 167.674 308.371 167.423 308.625 167.258C308.879 167.09 309.144 167.006 309.42 167.006C309.628 167.006 309.85 167.072 310.086 167.205L309.694 167.838C309.536 167.77 309.404 167.736 309.296 167.736C309.046 167.736 308.804 167.84 308.571 168.048C308.339 168.252 308.161 168.571 308.04 169.004C307.946 169.337 307.9 170.01 307.9 171.023V173H307.132V167.156ZM315.645 171.061L316.279 171.394C316.071 171.802 315.831 172.132 315.559 172.382C315.287 172.633 314.981 172.825 314.641 172.957C314.3 173.086 313.916 173.15 313.486 173.15C312.533 173.15 311.789 172.839 311.251 172.216C310.714 171.589 310.446 170.882 310.446 170.094C310.446 169.353 310.673 168.692 311.128 168.112C311.704 167.375 312.476 167.006 313.443 167.006C314.438 167.006 315.233 167.384 315.828 168.139C316.25 168.673 316.465 169.339 316.472 170.137H311.219C311.234 170.818 311.45 171.376 311.869 171.813C312.288 172.246 312.806 172.463 313.421 172.463C313.719 172.463 314.007 172.411 314.286 172.307C314.569 172.203 314.809 172.065 315.006 171.894C315.203 171.722 315.416 171.444 315.645 171.061ZM315.645 169.487C315.545 169.086 315.398 168.766 315.205 168.526C315.015 168.286 314.762 168.093 314.447 167.946C314.132 167.799 313.801 167.726 313.454 167.726C312.881 167.726 312.388 167.91 311.977 168.279C311.676 168.547 311.448 168.95 311.294 169.487H315.645ZM323.712 164.9V173H322.971V171.996C322.656 172.379 322.302 172.667 321.908 172.86C321.517 173.054 321.09 173.15 320.624 173.15C319.797 173.15 319.09 172.851 318.502 172.253C317.919 171.652 317.627 170.921 317.627 170.062C317.627 169.221 317.922 168.501 318.513 167.903C319.104 167.305 319.815 167.006 320.646 167.006C321.125 167.006 321.559 167.108 321.945 167.312C322.336 167.516 322.678 167.822 322.971 168.23V164.9H323.712ZM320.705 167.731C320.286 167.731 319.899 167.835 319.544 168.042C319.19 168.247 318.907 168.535 318.696 168.907C318.488 169.28 318.384 169.674 318.384 170.089C318.384 170.501 318.49 170.895 318.701 171.271C318.912 171.646 319.195 171.94 319.55 172.151C319.908 172.359 320.291 172.463 320.699 172.463C321.111 172.463 321.501 172.359 321.87 172.151C322.239 171.944 322.522 171.663 322.719 171.308C322.919 170.954 323.02 170.554 323.02 170.11C323.02 169.434 322.796 168.868 322.348 168.413C321.904 167.958 321.356 167.731 320.705 167.731ZM325.684 164.75C325.855 164.75 326.002 164.811 326.124 164.933C326.246 165.054 326.307 165.201 326.307 165.373C326.307 165.541 326.246 165.686 326.124 165.808C326.002 165.93 325.855 165.991 325.684 165.991C325.515 165.991 325.37 165.93 325.249 165.808C325.127 165.686 325.066 165.541 325.066 165.373C325.066 165.201 325.127 165.054 325.249 164.933C325.37 164.811 325.515 164.75 325.684 164.75ZM325.308 167.156H326.065V173H325.308V167.156ZM333.294 168.37L332.698 168.741C332.183 168.057 331.479 167.715 330.587 167.715C329.875 167.715 329.282 167.944 328.81 168.402C328.34 168.861 328.106 169.417 328.106 170.073C328.106 170.499 328.213 170.9 328.428 171.276C328.647 171.652 328.944 171.944 329.32 172.151C329.699 172.359 330.124 172.463 330.593 172.463C331.452 172.463 332.154 172.121 332.698 171.437L333.294 171.829C333.015 172.248 332.639 172.574 332.167 172.807C331.697 173.036 331.162 173.15 330.561 173.15C329.637 173.15 328.87 172.857 328.262 172.27C327.653 171.682 327.349 170.968 327.349 170.126C327.349 169.561 327.49 169.036 327.773 168.553C328.059 168.066 328.451 167.686 328.949 167.414C329.447 167.142 330.004 167.006 330.62 167.006C331.006 167.006 331.379 167.065 331.737 167.183C332.098 167.301 332.405 167.455 332.655 167.645C332.906 167.835 333.119 168.076 333.294 168.37ZM335.4 164.986H336.157V167.156H337.35V167.801H336.157V173H335.4V167.801H334.374V167.156H335.4V164.986ZM338.735 164.75C338.907 164.75 339.054 164.811 339.176 164.933C339.298 165.054 339.358 165.201 339.358 165.373C339.358 165.541 339.298 165.686 339.176 165.808C339.054 165.93 338.907 165.991 338.735 165.991C338.567 165.991 338.422 165.93 338.3 165.808C338.179 165.686 338.118 165.541 338.118 165.373C338.118 165.201 338.179 165.054 338.3 164.933C338.422 164.811 338.567 164.75 338.735 164.75ZM338.359 167.156H339.117V173H338.359V167.156ZM343.44 167.006C344.339 167.006 345.084 167.332 345.675 167.983C346.212 168.578 346.48 169.281 346.48 170.094C346.48 170.911 346.196 171.625 345.626 172.237C345.061 172.846 344.332 173.15 343.44 173.15C342.545 173.15 341.813 172.846 341.244 172.237C340.678 171.625 340.395 170.911 340.395 170.094C340.395 169.285 340.664 168.583 341.201 167.989C341.792 167.333 342.538 167.006 343.44 167.006ZM343.44 167.742C342.817 167.742 342.282 167.973 341.834 168.435C341.387 168.896 341.163 169.455 341.163 170.11C341.163 170.533 341.265 170.927 341.469 171.292C341.673 171.657 341.949 171.94 342.296 172.141C342.644 172.338 343.025 172.436 343.44 172.436C343.856 172.436 344.237 172.338 344.584 172.141C344.932 171.94 345.208 171.657 345.412 171.292C345.616 170.927 345.718 170.533 345.718 170.11C345.718 169.455 345.492 168.896 345.041 168.435C344.593 167.973 344.06 167.742 343.44 167.742ZM347.882 167.156H348.634V168.204C348.935 167.803 349.268 167.504 349.633 167.307C349.999 167.106 350.396 167.006 350.826 167.006C351.263 167.006 351.649 167.117 351.986 167.339C352.326 167.561 352.577 167.86 352.738 168.236C352.899 168.612 352.979 169.197 352.979 169.992V173H352.233V170.212C352.233 169.539 352.204 169.09 352.147 168.864C352.057 168.478 351.889 168.188 351.642 167.994C351.395 167.797 351.073 167.699 350.675 167.699C350.221 167.699 349.812 167.849 349.451 168.15C349.093 168.451 348.856 168.823 348.742 169.267C348.67 169.557 348.634 170.087 348.634 170.857V173H347.882V167.156ZM182.522 180.795L182.039 181.295C181.638 180.905 181.246 180.709 180.863 180.709C180.619 180.709 180.41 180.79 180.234 180.951C180.062 181.112 179.977 181.3 179.977 181.515C179.977 181.705 180.048 181.886 180.191 182.058C180.335 182.233 180.635 182.439 181.094 182.675C181.652 182.965 182.032 183.245 182.232 183.513C182.429 183.785 182.528 184.091 182.528 184.432C182.528 184.911 182.36 185.318 182.023 185.651C181.686 185.984 181.266 186.15 180.761 186.15C180.424 186.15 180.102 186.077 179.794 185.93C179.49 185.783 179.237 185.581 179.037 185.323L179.509 184.786C179.892 185.219 180.299 185.436 180.729 185.436C181.029 185.436 181.285 185.339 181.497 185.146C181.708 184.953 181.813 184.725 181.813 184.464C181.813 184.249 181.744 184.057 181.604 183.889C181.464 183.724 181.149 183.517 180.659 183.266C180.132 182.994 179.774 182.725 179.584 182.46C179.395 182.195 179.3 181.893 179.3 181.553C179.3 181.109 179.45 180.74 179.751 180.446C180.055 180.153 180.438 180.006 180.9 180.006C181.438 180.006 181.978 180.269 182.522 180.795ZM183.231 180.156H184.026L186.035 184.657L187.985 180.156H188.785L185.299 188.138H184.504L185.632 185.56L183.231 180.156ZM192.695 180.795L192.212 181.295C191.811 180.905 191.419 180.709 191.036 180.709C190.792 180.709 190.583 180.79 190.407 180.951C190.235 181.112 190.149 181.3 190.149 181.515C190.149 181.705 190.221 181.886 190.364 182.058C190.507 182.233 190.808 182.439 191.267 182.675C191.825 182.965 192.205 183.245 192.405 183.513C192.602 183.785 192.701 184.091 192.701 184.432C192.701 184.911 192.532 185.318 192.196 185.651C191.859 185.984 191.438 186.15 190.934 186.15C190.597 186.15 190.275 186.077 189.967 185.93C189.662 185.783 189.41 185.581 189.209 185.323L189.682 184.786C190.065 185.219 190.472 185.436 190.901 185.436C191.202 185.436 191.458 185.339 191.669 185.146C191.881 184.953 191.986 184.725 191.986 184.464C191.986 184.249 191.917 184.057 191.777 183.889C191.637 183.724 191.322 183.517 190.832 183.266C190.305 182.994 189.947 182.725 189.757 182.46C189.568 182.195 189.473 181.893 189.473 181.553C189.473 181.109 189.623 180.74 189.924 180.446C190.228 180.153 190.611 180.006 191.073 180.006C191.61 180.006 192.151 180.269 192.695 180.795ZM194.688 177.986H195.445V180.156H196.638V180.801H195.445V186H194.688V180.801H193.662V180.156H194.688V177.986ZM202.68 184.061L203.314 184.394C203.106 184.802 202.866 185.132 202.594 185.382C202.322 185.633 202.016 185.825 201.676 185.957C201.336 186.086 200.951 186.15 200.521 186.15C199.569 186.15 198.824 185.839 198.287 185.216C197.75 184.589 197.481 183.882 197.481 183.094C197.481 182.353 197.708 181.692 198.163 181.112C198.74 180.375 199.511 180.006 200.478 180.006C201.473 180.006 202.268 180.384 202.863 181.139C203.285 181.673 203.5 182.339 203.507 183.137H198.254C198.269 183.818 198.485 184.376 198.904 184.813C199.323 185.246 199.841 185.463 200.457 185.463C200.754 185.463 201.042 185.411 201.321 185.307C201.604 185.203 201.844 185.065 202.041 184.894C202.238 184.722 202.451 184.444 202.68 184.061ZM202.68 182.487C202.58 182.086 202.433 181.766 202.24 181.526C202.05 181.286 201.798 181.093 201.482 180.946C201.167 180.799 200.836 180.726 200.489 180.726C199.916 180.726 199.424 180.91 199.012 181.279C198.711 181.547 198.484 181.95 198.33 182.487H202.68ZM204.909 180.156H205.656V181.166C205.917 180.794 206.186 180.521 206.461 180.35C206.841 180.12 207.24 180.006 207.659 180.006C207.942 180.006 208.211 180.061 208.465 180.172C208.719 180.283 208.927 180.432 209.088 180.618C209.249 180.801 209.389 181.064 209.507 181.408C209.757 180.949 210.071 180.602 210.447 180.366C210.823 180.126 211.227 180.006 211.661 180.006C212.065 180.006 212.422 180.108 212.729 180.312C213.041 180.516 213.272 180.801 213.422 181.166C213.573 181.531 213.648 182.079 213.648 182.81V186H212.88V182.81C212.88 182.183 212.835 181.753 212.746 181.521C212.656 181.284 212.502 181.094 212.284 180.951C212.069 180.808 211.811 180.736 211.51 180.736C211.145 180.736 210.81 180.844 210.506 181.059C210.205 181.273 209.985 181.56 209.845 181.918C209.706 182.276 209.636 182.874 209.636 183.712V186H208.889V183.008C208.889 182.303 208.844 181.825 208.755 181.574C208.669 181.32 208.517 181.118 208.298 180.967C208.08 180.813 207.82 180.736 207.52 180.736C207.172 180.736 206.846 180.842 206.542 181.053C206.241 181.261 206.017 181.542 205.871 181.896C205.727 182.251 205.656 182.793 205.656 183.524V186H204.909V180.156ZM223.96 181.37L223.364 181.741C222.849 181.057 222.145 180.715 221.253 180.715C220.541 180.715 219.948 180.944 219.476 181.402C219.007 181.861 218.772 182.417 218.772 183.073C218.772 183.499 218.879 183.9 219.094 184.276C219.313 184.652 219.61 184.944 219.986 185.151C220.365 185.359 220.79 185.463 221.259 185.463C222.118 185.463 222.82 185.121 223.364 184.437L223.96 184.829C223.681 185.248 223.305 185.574 222.833 185.807C222.363 186.036 221.828 186.15 221.227 186.15C220.303 186.15 219.536 185.857 218.928 185.27C218.319 184.682 218.015 183.968 218.015 183.126C218.015 182.561 218.156 182.036 218.439 181.553C218.725 181.066 219.118 180.686 219.615 180.414C220.113 180.142 220.67 180.006 221.286 180.006C221.672 180.006 222.045 180.065 222.403 180.183C222.764 180.301 223.071 180.455 223.321 180.645C223.572 180.835 223.785 181.076 223.96 181.37ZM228.177 180.006C229.076 180.006 229.82 180.332 230.411 180.983C230.948 181.578 231.217 182.281 231.217 183.094C231.217 183.911 230.932 184.625 230.363 185.237C229.797 185.846 229.068 186.15 228.177 186.15C227.282 186.15 226.549 185.846 225.98 185.237C225.414 184.625 225.131 183.911 225.131 183.094C225.131 182.285 225.4 181.583 225.937 180.989C226.528 180.333 227.274 180.006 228.177 180.006ZM228.177 180.742C227.554 180.742 227.018 180.973 226.571 181.435C226.123 181.896 225.899 182.455 225.899 183.11C225.899 183.533 226.001 183.927 226.206 184.292C226.41 184.657 226.685 184.94 227.033 185.141C227.38 185.338 227.761 185.436 228.177 185.436C228.592 185.436 228.973 185.338 229.321 185.141C229.668 184.94 229.944 184.657 230.148 184.292C230.352 183.927 230.454 183.533 230.454 183.11C230.454 182.455 230.229 181.896 229.777 181.435C229.33 180.973 228.796 180.742 228.177 180.742ZM232.619 180.156H233.371V181.204C233.671 180.803 234.004 180.504 234.37 180.307C234.735 180.106 235.132 180.006 235.562 180.006C235.999 180.006 236.386 180.117 236.722 180.339C237.062 180.561 237.313 180.86 237.474 181.236C237.635 181.612 237.716 182.197 237.716 182.992V186H236.969V183.212C236.969 182.539 236.941 182.09 236.883 181.864C236.794 181.478 236.625 181.188 236.378 180.994C236.131 180.797 235.809 180.699 235.412 180.699C234.957 180.699 234.549 180.849 234.187 181.15C233.829 181.451 233.593 181.823 233.478 182.267C233.406 182.557 233.371 183.087 233.371 183.857V186H232.619V180.156ZM242.271 180.795L241.787 181.295C241.386 180.905 240.994 180.709 240.611 180.709C240.367 180.709 240.158 180.79 239.982 180.951C239.811 181.112 239.725 181.3 239.725 181.515C239.725 181.705 239.796 181.886 239.939 182.058C240.083 182.233 240.383 182.439 240.842 182.675C241.4 182.965 241.78 183.245 241.98 183.513C242.177 183.785 242.276 184.091 242.276 184.432C242.276 184.911 242.108 185.318 241.771 185.651C241.434 185.984 241.014 186.15 240.509 186.15C240.172 186.15 239.85 186.077 239.542 185.93C239.238 185.783 238.985 185.581 238.785 185.323L239.257 184.786C239.64 185.219 240.047 185.436 240.477 185.436C240.777 185.436 241.033 185.339 241.245 185.146C241.456 184.953 241.562 184.725 241.562 184.464C241.562 184.249 241.492 184.057 241.352 183.889C241.212 183.724 240.897 183.517 240.407 183.266C239.88 182.994 239.522 182.725 239.333 182.46C239.143 182.195 239.048 181.893 239.048 181.553C239.048 181.109 239.198 180.74 239.499 180.446C239.803 180.153 240.187 180.006 240.648 180.006C241.186 180.006 241.726 180.269 242.271 180.795ZM243.871 177.75C244.043 177.75 244.19 177.811 244.312 177.933C244.433 178.054 244.494 178.201 244.494 178.373C244.494 178.541 244.433 178.686 244.312 178.808C244.19 178.93 244.043 178.991 243.871 178.991C243.703 178.991 243.558 178.93 243.436 178.808C243.314 178.686 243.253 178.541 243.253 178.373C243.253 178.201 243.314 178.054 243.436 177.933C243.558 177.811 243.703 177.75 243.871 177.75ZM243.495 180.156H244.252V186H243.495V180.156ZM251.643 177.9V186H250.902V184.996C250.587 185.379 250.232 185.667 249.838 185.86C249.448 186.054 249.02 186.15 248.555 186.15C247.728 186.15 247.02 185.851 246.433 185.253C245.849 184.652 245.558 183.921 245.558 183.062C245.558 182.221 245.853 181.501 246.444 180.903C247.035 180.305 247.745 180.006 248.576 180.006C249.056 180.006 249.489 180.108 249.876 180.312C250.266 180.516 250.608 180.822 250.902 181.23V177.9H251.643ZM248.635 180.731C248.216 180.731 247.83 180.835 247.475 181.042C247.121 181.247 246.838 181.535 246.626 181.907C246.419 182.28 246.315 182.674 246.315 183.089C246.315 183.501 246.421 183.895 246.632 184.271C246.843 184.646 247.126 184.94 247.48 185.151C247.839 185.359 248.222 185.463 248.63 185.463C249.042 185.463 249.432 185.359 249.801 185.151C250.17 184.944 250.452 184.663 250.649 184.308C250.85 183.954 250.95 183.554 250.95 183.11C250.95 182.434 250.726 181.868 250.279 181.413C249.835 180.958 249.287 180.731 248.635 180.731ZM258.271 184.061L258.905 184.394C258.697 184.802 258.457 185.132 258.185 185.382C257.913 185.633 257.607 185.825 257.267 185.957C256.926 186.086 256.542 186.15 256.112 186.15C255.159 186.15 254.415 185.839 253.877 185.216C253.34 184.589 253.072 183.882 253.072 183.094C253.072 182.353 253.299 181.692 253.754 181.112C254.33 180.375 255.102 180.006 256.069 180.006C257.064 180.006 257.859 180.384 258.454 181.139C258.876 181.673 259.091 182.339 259.098 183.137H253.845C253.86 183.818 254.076 184.376 254.495 184.813C254.914 185.246 255.431 185.463 256.047 185.463C256.345 185.463 256.633 185.411 256.912 185.307C257.195 185.203 257.435 185.065 257.632 184.894C257.829 184.722 258.042 184.444 258.271 184.061ZM258.271 182.487C258.171 182.086 258.024 181.766 257.831 181.526C257.641 181.286 257.388 181.093 257.073 180.946C256.758 180.799 256.427 180.726 256.08 180.726C255.507 180.726 255.014 180.91 254.603 181.279C254.302 181.547 254.074 181.95 253.92 182.487H258.271ZM260.221 180.156H260.989V181.01C261.218 180.674 261.46 180.423 261.714 180.258C261.968 180.09 262.233 180.006 262.509 180.006C262.716 180.006 262.938 180.072 263.175 180.205L262.783 180.838C262.625 180.77 262.493 180.736 262.385 180.736C262.135 180.736 261.893 180.84 261.66 181.048C261.427 181.252 261.25 181.571 261.128 182.004C261.035 182.337 260.989 183.01 260.989 184.023V186H260.221V180.156ZM266.752 180.795L266.269 181.295C265.868 180.905 265.475 180.709 265.092 180.709C264.849 180.709 264.639 180.79 264.464 180.951C264.292 181.112 264.206 181.3 264.206 181.515C264.206 181.705 264.278 181.886 264.421 182.058C264.564 182.233 264.865 182.439 265.323 182.675C265.882 182.965 266.261 183.245 266.462 183.513C266.659 183.785 266.757 184.091 266.757 184.432C266.757 184.911 266.589 185.318 266.252 185.651C265.916 185.984 265.495 186.15 264.99 186.15C264.654 186.15 264.331 186.077 264.023 185.93C263.719 185.783 263.467 185.581 263.266 185.323L263.739 184.786C264.122 185.219 264.528 185.436 264.958 185.436C265.259 185.436 265.515 185.339 265.726 185.146C265.937 184.953 266.043 184.725 266.043 184.464C266.043 184.249 265.973 184.057 265.833 183.889C265.694 183.724 265.379 183.517 264.888 183.266C264.362 182.994 264.004 182.725 263.814 182.46C263.624 182.195 263.529 181.893 263.529 181.553C263.529 181.109 263.68 180.74 263.98 180.446C264.285 180.153 264.668 180.006 265.13 180.006C265.667 180.006 266.208 180.269 266.752 180.795ZM270.587 180.156H271.387L273.342 184.41L275.281 180.156H276.087L273.412 186H273.278L270.587 180.156ZM283.064 180.156V186H282.323V184.996C282.008 185.379 281.653 185.667 281.259 185.86C280.869 186.054 280.441 186.15 279.976 186.15C279.148 186.15 278.441 185.851 277.854 185.253C277.27 184.652 276.979 183.921 276.979 183.062C276.979 182.221 277.274 181.501 277.865 180.903C278.456 180.305 279.166 180.006 279.997 180.006C280.477 180.006 280.91 180.108 281.297 180.312C281.687 180.516 282.029 180.822 282.323 181.23V180.156H283.064ZM280.056 180.731C279.637 180.731 279.25 180.835 278.896 181.042C278.542 181.247 278.259 181.535 278.047 181.907C277.84 182.28 277.736 182.674 277.736 183.089C277.736 183.501 277.841 183.895 278.053 184.271C278.264 184.646 278.547 184.94 278.901 185.151C279.259 185.359 279.643 185.463 280.051 185.463C280.463 185.463 280.853 185.359 281.222 185.151C281.59 184.944 281.873 184.663 282.07 184.308C282.271 183.954 282.371 183.554 282.371 183.11C282.371 182.434 282.147 181.868 281.7 181.413C281.256 180.958 280.708 180.731 280.056 180.731ZM284.648 177.9H285.4V186H284.648V177.9ZM286.867 180.156H287.624V182.885C287.624 183.551 287.66 184.009 287.731 184.26C287.839 184.618 288.043 184.901 288.344 185.108C288.648 185.316 289.01 185.42 289.429 185.42C289.848 185.42 290.202 185.32 290.492 185.119C290.786 184.915 290.988 184.648 291.099 184.319C291.174 184.093 291.212 183.615 291.212 182.885V180.156H291.98V183.024C291.98 183.83 291.885 184.437 291.695 184.845C291.509 185.253 291.226 185.574 290.847 185.807C290.471 186.036 289.998 186.15 289.429 186.15C288.859 186.15 288.383 186.036 288 185.807C287.62 185.574 287.336 185.252 287.146 184.84C286.96 184.424 286.867 183.801 286.867 182.971V180.156ZM299.478 180.156V186H298.737V184.996C298.422 185.379 298.067 185.667 297.673 185.86C297.283 186.054 296.855 186.15 296.39 186.15C295.562 186.15 294.855 185.851 294.268 185.253C293.684 184.652 293.393 183.921 293.393 183.062C293.393 182.221 293.688 181.501 294.279 180.903C294.87 180.305 295.58 180.006 296.411 180.006C296.891 180.006 297.324 180.108 297.711 180.312C298.101 180.516 298.443 180.822 298.737 181.23V180.156H299.478ZM296.47 180.731C296.051 180.731 295.665 180.835 295.31 181.042C294.956 181.247 294.673 181.535 294.461 181.907C294.254 182.28 294.15 182.674 294.15 183.089C294.15 183.501 294.256 183.895 294.467 184.271C294.678 184.646 294.961 184.94 295.315 185.151C295.674 185.359 296.057 185.463 296.465 185.463C296.877 185.463 297.267 185.359 297.636 185.151C298.005 184.944 298.287 184.663 298.484 184.308C298.685 183.954 298.785 183.554 298.785 183.11C298.785 182.434 298.561 181.868 298.114 181.413C297.67 180.958 297.122 180.731 296.47 180.731ZM301.224 186V177.9H301.97V181.161C302.285 180.774 302.638 180.486 303.028 180.296C303.419 180.103 303.847 180.006 304.312 180.006C305.139 180.006 305.845 180.307 306.428 180.908C307.015 181.506 307.309 182.233 307.309 183.089C307.309 183.934 307.014 184.655 306.423 185.253C305.832 185.851 305.121 186.15 304.291 186.15C303.814 186.15 303.383 186.048 302.996 185.844C302.609 185.64 302.267 185.334 301.97 184.926V186H301.224ZM304.231 185.425C304.65 185.425 305.037 185.323 305.392 185.119C305.746 184.911 306.027 184.621 306.235 184.249C306.446 183.877 306.552 183.483 306.552 183.067C306.552 182.652 306.446 182.256 306.235 181.88C306.024 181.504 305.739 181.213 305.381 181.005C305.026 180.794 304.647 180.688 304.242 180.688C303.83 180.688 303.438 180.794 303.066 181.005C302.697 181.213 302.412 181.494 302.212 181.848C302.015 182.203 301.917 182.602 301.917 183.046C301.917 183.723 302.139 184.288 302.583 184.743C303.03 185.198 303.58 185.425 304.231 185.425ZM308.571 177.9H309.323V186H308.571V177.9ZM315.806 184.061L316.44 184.394C316.232 184.802 315.992 185.132 315.72 185.382C315.448 185.633 315.142 185.825 314.802 185.957C314.462 186.086 314.077 186.15 313.647 186.15C312.694 186.15 311.95 185.839 311.413 185.216C310.875 184.589 310.607 183.882 310.607 183.094C310.607 182.353 310.834 181.692 311.289 181.112C311.866 180.375 312.637 180.006 313.604 180.006C314.599 180.006 315.394 180.384 315.989 181.139C316.411 181.673 316.626 182.339 316.633 183.137H311.38C311.395 183.818 311.611 184.376 312.03 184.813C312.449 185.246 312.967 185.463 313.583 185.463C313.88 185.463 314.168 185.411 314.447 185.307C314.73 185.203 314.97 185.065 315.167 184.894C315.364 184.722 315.577 184.444 315.806 184.061ZM315.806 182.487C315.706 182.086 315.559 181.766 315.366 181.526C315.176 181.286 314.924 181.093 314.608 180.946C314.293 180.799 313.962 180.726 313.615 180.726C313.042 180.726 312.549 180.91 312.138 181.279C311.837 181.547 311.61 181.95 311.456 182.487H315.806ZM318.868 184.818C319.05 184.818 319.206 184.883 319.335 185.012C319.464 185.141 319.528 185.298 319.528 185.484C319.528 185.667 319.464 185.825 319.335 185.957C319.206 186.086 319.05 186.15 318.868 186.15C318.685 186.15 318.529 186.086 318.4 185.957C318.271 185.825 318.207 185.667 318.207 185.484C318.207 185.298 318.271 185.141 318.4 185.012C318.529 184.883 318.685 184.818 318.868 184.818Z" fill="white"/>
<path d="M165.623 139.944H166.655L168.699 147.19L171.584 139.944H171.789L174.64 147.19L176.725 139.944H177.75L174.865 150H174.674L171.693 142.392L168.651 150H168.46L165.623 139.944ZM185.734 147.532L186.541 147.956C186.277 148.476 185.971 148.895 185.625 149.214C185.279 149.533 184.889 149.777 184.456 149.945C184.023 150.109 183.533 150.191 182.986 150.191C181.774 150.191 180.826 149.795 180.143 149.002C179.459 148.204 179.117 147.304 179.117 146.302C179.117 145.358 179.407 144.518 179.985 143.779C180.719 142.84 181.701 142.371 182.932 142.371C184.199 142.371 185.21 142.852 185.967 143.813C186.505 144.493 186.778 145.34 186.787 146.356H180.102C180.12 147.222 180.396 147.933 180.929 148.489C181.462 149.041 182.12 149.316 182.904 149.316C183.283 149.316 183.649 149.25 184.005 149.118C184.365 148.986 184.67 148.811 184.921 148.592C185.172 148.373 185.443 148.02 185.734 147.532ZM185.734 145.529C185.607 145.019 185.42 144.611 185.174 144.306C184.932 144 184.611 143.754 184.21 143.567C183.809 143.381 183.387 143.287 182.945 143.287C182.216 143.287 181.59 143.522 181.065 143.991C180.683 144.333 180.393 144.846 180.197 145.529H185.734ZM192.522 150V139.691H193.473V143.841C193.874 143.349 194.323 142.982 194.819 142.74C195.316 142.494 195.861 142.371 196.453 142.371C197.506 142.371 198.404 142.754 199.146 143.52C199.894 144.281 200.268 145.206 200.268 146.295C200.268 147.37 199.892 148.289 199.14 149.05C198.388 149.811 197.483 150.191 196.426 150.191C195.82 150.191 195.271 150.062 194.778 149.802C194.286 149.542 193.851 149.152 193.473 148.633V150H192.522ZM196.351 149.269C196.884 149.269 197.376 149.139 197.827 148.879C198.278 148.615 198.636 148.245 198.9 147.771C199.169 147.298 199.304 146.796 199.304 146.268C199.304 145.739 199.169 145.235 198.9 144.757C198.632 144.278 198.269 143.907 197.813 143.643C197.362 143.374 196.879 143.239 196.364 143.239C195.84 143.239 195.341 143.374 194.867 143.643C194.398 143.907 194.035 144.265 193.78 144.716C193.53 145.167 193.404 145.675 193.404 146.24C193.404 147.102 193.687 147.822 194.252 148.4C194.822 148.979 195.521 149.269 196.351 149.269ZM208.279 147.532L209.086 147.956C208.822 148.476 208.516 148.895 208.17 149.214C207.824 149.533 207.434 149.777 207.001 149.945C206.568 150.109 206.078 150.191 205.531 150.191C204.319 150.191 203.371 149.795 202.688 149.002C202.004 148.204 201.662 147.304 201.662 146.302C201.662 145.358 201.951 144.518 202.53 143.779C203.264 142.84 204.246 142.371 205.477 142.371C206.743 142.371 207.755 142.852 208.512 143.813C209.049 144.493 209.323 145.34 209.332 146.356H202.646C202.665 147.222 202.94 147.933 203.474 148.489C204.007 149.041 204.665 149.316 205.449 149.316C205.827 149.316 206.194 149.25 206.55 149.118C206.91 148.986 207.215 148.811 207.466 148.592C207.716 148.373 207.988 148.02 208.279 147.532ZM208.279 145.529C208.152 145.019 207.965 144.611 207.719 144.306C207.477 144 207.156 143.754 206.755 143.567C206.354 143.381 205.932 143.287 205.49 143.287C204.761 143.287 204.134 143.522 203.61 143.991C203.228 144.333 202.938 144.846 202.742 145.529H208.279ZM211.957 139.801H212.921V142.562H214.438V143.383H212.921V150H211.957V143.383H210.651V142.562H211.957V139.801ZM223.271 142.371C224.414 142.371 225.362 142.786 226.114 143.615C226.798 144.372 227.14 145.267 227.14 146.302C227.14 147.341 226.777 148.25 226.053 149.029C225.333 149.804 224.405 150.191 223.271 150.191C222.131 150.191 221.199 149.804 220.475 149.029C219.755 148.25 219.395 147.341 219.395 146.302C219.395 145.272 219.736 144.379 220.42 143.622C221.172 142.788 222.122 142.371 223.271 142.371ZM223.271 143.308C222.478 143.308 221.796 143.602 221.227 144.189C220.657 144.777 220.372 145.488 220.372 146.322C220.372 146.86 220.502 147.361 220.762 147.826C221.021 148.291 221.372 148.651 221.814 148.906C222.257 149.157 222.742 149.282 223.271 149.282C223.799 149.282 224.285 149.157 224.727 148.906C225.169 148.651 225.52 148.291 225.779 147.826C226.039 147.361 226.169 146.86 226.169 146.322C226.169 145.488 225.882 144.777 225.308 144.189C224.738 143.602 224.059 143.308 223.271 143.308ZM228.924 142.562H229.881V143.896C230.264 143.385 230.688 143.005 231.152 142.754C231.617 142.499 232.123 142.371 232.67 142.371C233.226 142.371 233.718 142.512 234.146 142.795C234.579 143.077 234.898 143.458 235.104 143.937C235.309 144.415 235.411 145.16 235.411 146.172V150H234.461V146.452C234.461 145.595 234.424 145.023 234.352 144.736C234.238 144.244 234.023 143.875 233.709 143.629C233.395 143.378 232.984 143.253 232.479 143.253C231.9 143.253 231.38 143.444 230.92 143.827C230.464 144.21 230.163 144.684 230.018 145.249C229.926 145.618 229.881 146.293 229.881 147.272V150H228.924V142.562ZM241.345 142.562H242.295V143.848C242.628 143.374 242.969 143.027 243.32 142.809C243.803 142.517 244.312 142.371 244.845 142.371C245.205 142.371 245.547 142.442 245.87 142.583C246.194 142.724 246.458 142.913 246.663 143.15C246.868 143.383 247.046 143.718 247.196 144.155C247.515 143.572 247.914 143.13 248.393 142.829C248.871 142.524 249.386 142.371 249.938 142.371C250.452 142.371 250.906 142.501 251.298 142.761C251.694 143.021 251.988 143.383 252.18 143.848C252.371 144.312 252.467 145.01 252.467 145.939V150H251.489V145.939C251.489 145.142 251.432 144.595 251.318 144.299C251.204 143.998 251.008 143.757 250.73 143.574C250.457 143.392 250.129 143.301 249.746 143.301C249.281 143.301 248.855 143.438 248.468 143.711C248.085 143.984 247.805 144.349 247.627 144.805C247.449 145.26 247.36 146.021 247.36 147.088V150H246.41V146.192C246.41 145.295 246.353 144.686 246.239 144.367C246.13 144.044 245.936 143.786 245.658 143.595C245.38 143.399 245.05 143.301 244.667 143.301C244.225 143.301 243.81 143.435 243.423 143.704C243.04 143.968 242.755 144.326 242.568 144.777C242.386 145.229 242.295 145.919 242.295 146.849V150H241.345V142.562ZM261.9 142.562V150H260.957V148.722C260.556 149.209 260.105 149.576 259.604 149.822C259.107 150.068 258.562 150.191 257.97 150.191C256.917 150.191 256.017 149.811 255.27 149.05C254.527 148.284 254.155 147.354 254.155 146.261C254.155 145.19 254.531 144.274 255.283 143.513C256.035 142.752 256.94 142.371 257.997 142.371C258.608 142.371 259.159 142.501 259.651 142.761C260.148 143.021 260.583 143.41 260.957 143.93V142.562H261.9ZM258.072 143.294C257.539 143.294 257.047 143.426 256.596 143.69C256.145 143.95 255.785 144.317 255.516 144.791C255.251 145.265 255.119 145.766 255.119 146.295C255.119 146.819 255.254 147.32 255.522 147.799C255.791 148.277 256.151 148.651 256.603 148.92C257.058 149.184 257.546 149.316 258.065 149.316C258.59 149.316 259.086 149.184 259.556 148.92C260.025 148.656 260.385 148.298 260.636 147.847C260.891 147.396 261.019 146.887 261.019 146.322C261.019 145.461 260.734 144.741 260.164 144.162C259.599 143.583 258.902 143.294 258.072 143.294ZM264.895 139.801H265.858V142.562H267.376V143.383H265.858V150H264.895V143.383H263.589V142.562H264.895V139.801ZM268.805 139.691H269.762V143.896C270.149 143.385 270.575 143.005 271.04 142.754C271.505 142.499 272.008 142.371 272.551 142.371C273.107 142.371 273.599 142.512 274.027 142.795C274.46 143.077 274.779 143.458 274.984 143.937C275.189 144.41 275.292 145.156 275.292 146.172V150H274.335V146.452C274.335 145.595 274.301 145.023 274.232 144.736C274.114 144.244 273.897 143.875 273.583 143.629C273.273 143.378 272.865 143.253 272.359 143.253C271.781 143.253 271.261 143.444 270.801 143.827C270.345 144.21 270.044 144.684 269.898 145.249C269.807 145.614 269.762 146.288 269.762 147.272V150H268.805V139.691ZM283.611 147.532L284.418 147.956C284.154 148.476 283.848 148.895 283.502 149.214C283.156 149.533 282.766 149.777 282.333 149.945C281.9 150.109 281.41 150.191 280.863 150.191C279.651 150.191 278.703 149.795 278.02 149.002C277.336 148.204 276.994 147.304 276.994 146.302C276.994 145.358 277.284 144.518 277.862 143.779C278.596 142.84 279.578 142.371 280.809 142.371C282.076 142.371 283.087 142.852 283.844 143.813C284.382 144.493 284.655 145.34 284.664 146.356H277.979C277.997 147.222 278.272 147.933 278.806 148.489C279.339 149.041 279.997 149.316 280.781 149.316C281.16 149.316 281.526 149.25 281.882 149.118C282.242 148.986 282.547 148.811 282.798 148.592C283.049 148.373 283.32 148.02 283.611 147.532ZM283.611 145.529C283.484 145.019 283.297 144.611 283.051 144.306C282.809 144 282.488 143.754 282.087 143.567C281.686 143.381 281.264 143.287 280.822 143.287C280.093 143.287 279.466 143.522 278.942 143.991C278.56 144.333 278.27 144.846 278.074 145.529H283.611ZM286.448 142.562H287.398V143.848C287.731 143.374 288.073 143.027 288.424 142.809C288.907 142.517 289.415 142.371 289.948 142.371C290.308 142.371 290.65 142.442 290.974 142.583C291.297 142.724 291.562 142.913 291.767 143.15C291.972 143.383 292.149 143.718 292.3 144.155C292.619 143.572 293.018 143.13 293.496 142.829C293.975 142.524 294.49 142.371 295.041 142.371C295.556 142.371 296.009 142.501 296.401 142.761C296.798 143.021 297.092 143.383 297.283 143.848C297.475 144.312 297.57 145.01 297.57 145.939V150H296.593V145.939C296.593 145.142 296.536 144.595 296.422 144.299C296.308 143.998 296.112 143.757 295.834 143.574C295.561 143.392 295.232 143.301 294.85 143.301C294.385 143.301 293.959 143.438 293.571 143.711C293.188 143.984 292.908 144.349 292.73 144.805C292.553 145.26 292.464 146.021 292.464 147.088V150H291.514V146.192C291.514 145.295 291.457 144.686 291.343 144.367C291.233 144.044 291.04 143.786 290.762 143.595C290.484 143.399 290.153 143.301 289.771 143.301C289.328 143.301 288.914 143.435 288.526 143.704C288.144 143.968 287.859 144.326 287.672 144.777C287.49 145.229 287.398 145.919 287.398 146.849V150H286.448V142.562ZM307.004 142.562V150H306.061V148.722C305.66 149.209 305.208 149.576 304.707 149.822C304.21 150.068 303.666 150.191 303.073 150.191C302.021 150.191 301.12 149.811 300.373 149.05C299.63 148.284 299.259 147.354 299.259 146.261C299.259 145.19 299.635 144.274 300.387 143.513C301.139 142.752 302.043 142.371 303.101 142.371C303.711 142.371 304.263 142.501 304.755 142.761C305.252 143.021 305.687 143.41 306.061 143.93V142.562H307.004ZM303.176 143.294C302.643 143.294 302.15 143.426 301.699 143.69C301.248 143.95 300.888 144.317 300.619 144.791C300.355 145.265 300.223 145.766 300.223 146.295C300.223 146.819 300.357 147.32 300.626 147.799C300.895 148.277 301.255 148.651 301.706 148.92C302.162 149.184 302.649 149.316 303.169 149.316C303.693 149.316 304.19 149.184 304.659 148.92C305.129 148.656 305.489 148.298 305.739 147.847C305.994 147.396 306.122 146.887 306.122 146.322C306.122 145.461 305.837 144.741 305.268 144.162C304.702 143.583 304.005 143.294 303.176 143.294ZM309.998 139.801H310.962V142.562H312.479V143.383H310.962V150H309.998V143.383H308.692V142.562H309.998V139.801ZM314.243 139.5C314.462 139.5 314.649 139.577 314.804 139.732C314.959 139.887 315.036 140.074 315.036 140.293C315.036 140.507 314.959 140.692 314.804 140.847C314.649 141.002 314.462 141.079 314.243 141.079C314.029 141.079 313.844 141.002 313.689 140.847C313.535 140.692 313.457 140.507 313.457 140.293C313.457 140.074 313.535 139.887 313.689 139.732C313.844 139.577 314.029 139.5 314.243 139.5ZM313.765 142.562H314.729V150H313.765V142.562ZM323.93 144.107L323.171 144.579C322.515 143.709 321.619 143.273 320.484 143.273C319.577 143.273 318.823 143.565 318.222 144.148C317.625 144.732 317.326 145.44 317.326 146.274C317.326 146.817 317.463 147.327 317.736 147.806C318.014 148.284 318.393 148.656 318.871 148.92C319.354 149.184 319.894 149.316 320.491 149.316C321.585 149.316 322.478 148.881 323.171 148.011L323.93 148.51C323.574 149.043 323.096 149.458 322.494 149.754C321.897 150.046 321.216 150.191 320.45 150.191C319.274 150.191 318.299 149.818 317.524 149.07C316.75 148.323 316.362 147.414 316.362 146.343C316.362 145.623 316.542 144.955 316.902 144.34C317.267 143.72 317.766 143.237 318.399 142.891C319.033 142.544 319.742 142.371 320.525 142.371C321.018 142.371 321.492 142.446 321.947 142.597C322.408 142.747 322.797 142.943 323.116 143.185C323.435 143.426 323.706 143.734 323.93 144.107ZM329.515 143.376L328.899 144.012C328.389 143.515 327.89 143.267 327.402 143.267C327.092 143.267 326.826 143.369 326.603 143.574C326.384 143.779 326.274 144.019 326.274 144.292C326.274 144.534 326.366 144.764 326.548 144.982C326.73 145.206 327.113 145.468 327.696 145.769C328.407 146.138 328.89 146.493 329.146 146.835C329.396 147.181 329.521 147.571 329.521 148.004C329.521 148.615 329.307 149.132 328.879 149.556C328.451 149.979 327.915 150.191 327.272 150.191C326.844 150.191 326.434 150.098 326.042 149.911C325.655 149.724 325.333 149.467 325.078 149.139L325.68 148.455C326.167 149.007 326.685 149.282 327.231 149.282C327.614 149.282 327.94 149.159 328.209 148.913C328.478 148.667 328.612 148.378 328.612 148.045C328.612 147.771 328.523 147.528 328.346 147.313C328.168 147.104 327.767 146.84 327.143 146.521C326.473 146.174 326.017 145.832 325.775 145.495C325.534 145.158 325.413 144.773 325.413 144.34C325.413 143.775 325.604 143.305 325.987 142.932C326.375 142.558 326.862 142.371 327.45 142.371C328.134 142.371 328.822 142.706 329.515 143.376ZM332.27 148.496C332.502 148.496 332.7 148.578 332.864 148.742C333.028 148.906 333.11 149.107 333.11 149.344C333.11 149.576 333.028 149.777 332.864 149.945C332.7 150.109 332.502 150.191 332.27 150.191C332.037 150.191 331.839 150.109 331.675 149.945C331.511 149.777 331.429 149.576 331.429 149.344C331.429 149.107 331.511 148.906 331.675 148.742C331.839 148.578 332.037 148.496 332.27 148.496Z" fill="white"/>
<path d="M245.5 16H280V19H248L239.683 50L228.5 34.5L230.5 32.5L238 43L245.5 16Z" fill="#757575"/>
<path d="M264.3 37H265.5L262.7 43L265.5 49H264.3L261.5 43L264.3 37Z" fill="#757575"/>
<path d="M274.7 37H273.5L276.3 43L273.5 49H274.7L277.5 43L274.7 37Z" fill="#757575"/>
</svg>
