<svg width="500" height="275" viewBox="0 0 500 275" fill="none" xmlns="http://www.w3.org/2000/svg">
<rect width="500" height="275" fill="#1E1D22"/>
<path d="M239.9 63.8008H240.864V66.5625H242.382V67.3828H240.864V74H239.9V67.3828H238.595V66.5625H239.9V63.8008ZM244.146 63.5C244.364 63.5 244.551 63.5775 244.706 63.7324C244.861 63.8874 244.938 64.0742 244.938 64.293C244.938 64.5072 244.861 64.6917 244.706 64.8467C244.551 65.0016 244.364 65.0791 244.146 65.0791C243.931 65.0791 243.747 65.0016 243.592 64.8467C243.437 64.6917 243.359 64.5072 243.359 64.293C243.359 64.0742 243.437 63.8874 243.592 63.7324C243.747 63.5775 243.931 63.5 244.146 63.5ZM243.667 66.5625H244.631V74H243.667V66.5625ZM246.627 66.5625H247.577V67.9297C247.955 67.4102 248.391 67.0205 248.883 66.7607C249.375 66.501 249.924 66.3711 250.53 66.3711C251.588 66.3711 252.492 66.7516 253.244 67.5127C253.996 68.2738 254.372 69.1898 254.372 70.2607C254.372 71.3545 253.998 72.2842 253.251 73.0498C252.508 73.8109 251.61 74.1914 250.558 74.1914C249.965 74.1914 249.421 74.0684 248.924 73.8223C248.427 73.5762 247.978 73.2093 247.577 72.7217V76.7207H246.627V66.5625ZM250.455 67.2939C249.626 67.2939 248.926 67.5833 248.356 68.1621C247.791 68.7409 247.509 69.4609 247.509 70.3223C247.509 70.8874 247.634 71.3955 247.885 71.8467C248.14 72.2979 248.502 72.6556 248.972 72.9199C249.446 73.1842 249.945 73.3164 250.469 73.3164C250.984 73.3164 251.467 73.1842 251.918 72.9199C252.374 72.651 252.736 72.2773 253.005 71.7988C253.274 71.3203 253.408 70.819 253.408 70.2949C253.408 69.7663 253.274 69.265 253.005 68.791C252.741 68.3171 252.383 67.9502 251.932 67.6904C251.48 67.4261 250.988 67.2939 250.455 67.2939ZM259.909 67.376L259.294 68.0117C258.784 67.515 258.285 67.2666 257.797 67.2666C257.487 67.2666 257.22 67.3691 256.997 67.5742C256.778 67.7793 256.669 68.0186 256.669 68.292C256.669 68.5335 256.76 68.7637 256.942 68.9824C257.125 69.2057 257.507 69.4678 258.091 69.7686C258.802 70.1377 259.285 70.4932 259.54 70.835C259.791 71.1813 259.916 71.571 259.916 72.0039C259.916 72.6146 259.702 73.1318 259.273 73.5557C258.845 73.9795 258.31 74.1914 257.667 74.1914C257.239 74.1914 256.828 74.098 256.437 73.9111C256.049 73.7243 255.728 73.4668 255.473 73.1387L256.074 72.4551C256.562 73.0065 257.079 73.2822 257.626 73.2822C258.009 73.2822 258.335 73.1592 258.604 72.9131C258.872 72.667 259.007 72.3776 259.007 72.0449C259.007 71.7715 258.918 71.5277 258.74 71.3135C258.562 71.1038 258.161 70.8395 257.537 70.5205C256.867 70.1742 256.411 69.8324 256.17 69.4951C255.928 69.1579 255.808 68.7728 255.808 68.3398C255.808 67.7747 255.999 67.3053 256.382 66.9316C256.769 66.5579 257.257 66.3711 257.845 66.3711C258.528 66.3711 259.216 66.7061 259.909 67.376Z" fill="#757575"/>
<path fill-rule="evenodd" clip-rule="evenodd" d="M242.743 49H235V35.125H242.743V37.7998C243.731 37.4945 244.79 37.0367 245.476 36.7376C246.471 36.3059 247.426 36.0947 248.399 36.0947C250.279 36.0947 251.813 36.864 255.062 37.9524C256.053 38.2823 256.728 39.0562 256.882 39.9658C258.622 38.6354 261.404 36.4863 261.43 36.4662C261.983 36.0284 262.627 35.7972 263.288 35.7972C264.763 35.7972 266 36.9735 266 38.4303C266 39.1857 265.661 39.9365 265.029 40.5208C262.895 42.4942 261.243 43.9634 259.784 45.2599C258.917 46.0323 258.133 46.7276 257.387 47.4075C256.227 48.4666 255.036 48.9584 253.637 48.9584C253.01 48.9584 252.349 48.8582 251.612 48.65C247.318 47.4429 244.668 47.0529 242.743 46.9465V49ZM241.194 36.6667H236.549V47.4583H241.194V36.6667ZM242.743 45.3987C245.983 45.5806 249.565 46.4717 252.033 47.167C253.298 47.5231 254.76 47.7127 256.341 46.2712C258.322 44.4644 260.557 42.5512 263.974 39.3908C265.25 38.2114 263.699 36.642 262.392 37.6749C262.392 37.6749 257.806 41.2192 256.679 42.0579C256.092 42.4972 255.603 42.858 254.901 42.858C254.735 42.858 254.556 42.838 254.361 42.7933C253.346 42.5605 251.445 42.138 250.094 41.7125C249.204 41.4304 249.52 40.1817 250.509 40.3898C251.202 40.5332 252.978 40.9294 253.918 41.1915C255.493 41.6247 255.894 39.8548 254.571 39.4155C253.701 39.1225 253.74 39.1102 251.646 38.3902C249.631 37.695 248.217 37.2294 246.094 38.1497C245.105 38.5783 243.877 39.0994 242.743 39.4047V45.3987ZM248.612 14.6995L253.583 12L264.424 17.9508V29.7862L253.583 35.5443L242.743 29.7862V17.8861L248.603 14.7041L248.606 14.6964L248.612 14.6995ZM252.809 23.9726L244.292 19.5572V28.8612L252.809 33.386V23.9726ZM254.358 23.9741V33.386L262.875 28.8612V19.6112L254.358 23.9741ZM257.099 20.8368L248.628 16.4462L245.218 18.2992L253.586 22.636L257.099 20.8368ZM250.266 15.5566L258.785 19.972L261.947 18.3517L253.579 13.759L250.266 15.5566Z" fill="#757575"/>
<path d="M68.5 133C63.3256 140.497 60 145.186 60 149.745C60 154.305 63.8027 158 68.5 158C73.1973 158 77 154.305 77 149.745C77 145.186 73.6744 140.497 68.5 133ZM68.4713 138.333C68.9675 139.089 69.5625 140.403 69.5625 141.792C69.5625 145.862 65.3125 146.529 65.3125 144.052C65.3125 142.351 67.4247 139.84 68.4713 138.333Z" fill="#00A3FF"/>
<path d="M249.458 143.375H244.25V141.25H249.458C250.033 141.25 250.5 140.774 250.5 140.188C250.5 139.601 250.033 139.125 249.458 139.125C249.039 139.125 248.68 139.382 248.516 139.749L246.694 138.733C247.214 137.708 248.25 137 249.458 137C253.595 137 253.593 143.375 249.458 143.375ZM256.75 150.812C256.75 149.053 255.35 147.625 253.625 147.625H246.333V149.75H253.625C254.2 149.75 254.667 150.226 254.667 150.812C254.667 151.399 254.2 151.875 253.625 151.875C253.205 151.875 252.847 151.618 252.682 151.251L250.86 152.267C251.38 153.292 252.417 154 253.625 154C255.35 154 256.75 152.572 256.75 150.812ZM257.806 142.679C257.892 141.879 258.548 141.25 259.354 141.25C260.216 141.25 260.917 141.965 260.917 142.844C260.917 143.722 260.216 144.438 259.354 144.438H250.5V146.562H259.354C261.367 146.562 263 144.897 263 142.844C263 140.791 261.367 139.125 259.354 139.125C257.662 139.125 256.253 140.311 255.842 141.906L257.806 142.679ZM248.417 144.438H240.083V146.562H248.417V144.438ZM244.25 147.625H238V149.75H244.25V147.625ZM242.167 141.25H238V143.375H242.167V141.25Z" fill="#00C944"/>
<path fill-rule="evenodd" clip-rule="evenodd" d="M426.25 129C426.928 136.788 420 139.469 420 146.329C420 150.988 423.41 154.965 430 155C436.59 155.034 440 150.218 440 145.298C440 140.811 437.709 136.581 433.387 133.951C434.413 136.775 433.047 139.354 431.719 140.243C431.797 136.628 430.469 131.263 426.25 129ZM431.484 143.083C435.657 147.405 433.094 152.833 429.743 152.833C427.704 152.833 426.656 151.463 426.667 150.041C426.688 147.406 429.708 147.404 431.484 143.083Z" fill="#FF0000"/>
<path d="M32.2109 167.625H33.0254V168.727C33.3105 168.32 33.6035 168.023 33.9043 167.836C34.3184 167.586 34.7539 167.461 35.2109 167.461C35.5195 167.461 35.8125 167.521 36.0898 167.643C36.3672 167.764 36.5938 167.926 36.7695 168.129C36.9453 168.328 37.0977 168.615 37.2266 168.99C37.5 168.49 37.8418 168.111 38.252 167.854C38.6621 167.592 39.1035 167.461 39.5762 167.461C40.0176 167.461 40.4062 167.572 40.7422 167.795C41.082 168.018 41.334 168.328 41.498 168.727C41.6621 169.125 41.7441 169.723 41.7441 170.52V174H40.9062V170.52C40.9062 169.836 40.8574 169.367 40.7598 169.113C40.6621 168.855 40.4941 168.648 40.2559 168.492C40.0215 168.336 39.7402 168.258 39.4121 168.258C39.0137 168.258 38.6484 168.375 38.3164 168.609C37.9883 168.844 37.748 169.156 37.5957 169.547C37.4434 169.938 37.3672 170.59 37.3672 171.504V174H36.5527V170.736C36.5527 169.967 36.5039 169.445 36.4062 169.172C36.3125 168.895 36.1465 168.674 35.9082 168.51C35.6699 168.342 35.3867 168.258 35.0586 168.258C34.6797 168.258 34.3242 168.373 33.9922 168.604C33.6641 168.83 33.4199 169.137 33.2598 169.523C33.1035 169.91 33.0254 170.502 33.0254 171.299V174H32.2109V167.625ZM46.4961 167.461C47.4766 167.461 48.2891 167.816 48.9336 168.527C49.5195 169.176 49.8125 169.943 49.8125 170.83C49.8125 171.721 49.502 172.5 48.8809 173.168C48.2637 173.832 47.4688 174.164 46.4961 174.164C45.5195 174.164 44.7207 173.832 44.0996 173.168C43.4824 172.5 43.1738 171.721 43.1738 170.83C43.1738 169.947 43.4668 169.182 44.0527 168.533C44.6973 167.818 45.5117 167.461 46.4961 167.461ZM46.4961 168.264C45.8164 168.264 45.2324 168.516 44.7441 169.02C44.2559 169.523 44.0117 170.133 44.0117 170.848C44.0117 171.309 44.123 171.738 44.3457 172.137C44.5684 172.535 44.8691 172.844 45.248 173.062C45.627 173.277 46.043 173.385 46.4961 173.385C46.9492 173.385 47.3652 173.277 47.7441 173.062C48.123 172.844 48.4238 172.535 48.6465 172.137C48.8691 171.738 48.9805 171.309 48.9805 170.848C48.9805 170.133 48.7344 169.523 48.2422 169.02C47.7539 168.516 47.1719 168.264 46.4961 168.264ZM51.3418 167.625H52.1621V168.768C52.4902 168.33 52.8535 168.004 53.252 167.789C53.6504 167.57 54.084 167.461 54.5527 167.461C55.0293 167.461 55.4512 167.582 55.8184 167.824C56.1895 168.066 56.4629 168.393 56.6387 168.803C56.8145 169.213 56.9023 169.852 56.9023 170.719V174H56.0879V170.959C56.0879 170.225 56.0566 169.734 55.9941 169.488C55.8965 169.066 55.7129 168.75 55.4434 168.539C55.1738 168.324 54.8223 168.217 54.3887 168.217C53.8926 168.217 53.4473 168.381 53.0527 168.709C52.6621 169.037 52.4043 169.443 52.2793 169.928C52.2012 170.244 52.1621 170.822 52.1621 171.662V174H51.3418V167.625ZM61.6836 167.461C62.6641 167.461 63.4766 167.816 64.1211 168.527C64.707 169.176 65 169.943 65 170.83C65 171.721 64.6895 172.5 64.0684 173.168C63.4512 173.832 62.6562 174.164 61.6836 174.164C60.707 174.164 59.9082 173.832 59.2871 173.168C58.6699 172.5 58.3613 171.721 58.3613 170.83C58.3613 169.947 58.6543 169.182 59.2402 168.533C59.8848 167.818 60.6992 167.461 61.6836 167.461ZM61.6836 168.264C61.0039 168.264 60.4199 168.516 59.9316 169.02C59.4434 169.523 59.1992 170.133 59.1992 170.848C59.1992 171.309 59.3105 171.738 59.5332 172.137C59.7559 172.535 60.0566 172.844 60.4355 173.062C60.8145 173.277 61.2305 173.385 61.6836 173.385C62.1367 173.385 62.5527 173.277 62.9316 173.062C63.3105 172.844 63.6113 172.535 63.834 172.137C64.0566 171.738 64.168 171.309 64.168 170.848C64.168 170.133 63.9219 169.523 63.4297 169.02C62.9414 168.516 62.3594 168.264 61.6836 168.264ZM67.2441 165.258H68.0703V167.625H69.3711V168.328H68.0703V174H67.2441V168.328H66.125V167.625H67.2441V165.258ZM73.6133 167.461C74.5938 167.461 75.4062 167.816 76.0508 168.527C76.6367 169.176 76.9297 169.943 76.9297 170.83C76.9297 171.721 76.6191 172.5 75.998 173.168C75.3809 173.832 74.5859 174.164 73.6133 174.164C72.6367 174.164 71.8379 173.832 71.2168 173.168C70.5996 172.5 70.291 171.721 70.291 170.83C70.291 169.947 70.584 169.182 71.1699 168.533C71.8145 167.818 72.6289 167.461 73.6133 167.461ZM73.6133 168.264C72.9336 168.264 72.3496 168.516 71.8613 169.02C71.373 169.523 71.1289 170.133 71.1289 170.848C71.1289 171.309 71.2402 171.738 71.4629 172.137C71.6855 172.535 71.9863 172.844 72.3652 173.062C72.7441 173.277 73.1602 173.385 73.6133 173.385C74.0664 173.385 74.4824 173.277 74.8613 173.062C75.2402 172.844 75.541 172.535 75.7637 172.137C75.9863 171.738 76.0977 171.309 76.0977 170.848C76.0977 170.133 75.8516 169.523 75.3594 169.02C74.8711 168.516 74.2891 168.264 73.6133 168.264ZM78.459 167.625H79.2793V168.768C79.6074 168.33 79.9707 168.004 80.3691 167.789C80.7676 167.57 81.2012 167.461 81.6699 167.461C82.1465 167.461 82.5684 167.582 82.9355 167.824C83.3066 168.066 83.5801 168.393 83.7559 168.803C83.9316 169.213 84.0195 169.852 84.0195 170.719V174H83.2051V170.959C83.2051 170.225 83.1738 169.734 83.1113 169.488C83.0137 169.066 82.8301 168.75 82.5605 168.539C82.291 168.324 81.9395 168.217 81.5059 168.217C81.0098 168.217 80.5645 168.381 80.1699 168.709C79.7793 169.037 79.5215 169.443 79.3965 169.928C79.3184 170.244 79.2793 170.822 79.2793 171.662V174H78.459V167.625ZM88.8008 167.461C89.7812 167.461 90.5938 167.816 91.2383 168.527C91.8242 169.176 92.1172 169.943 92.1172 170.83C92.1172 171.721 91.8066 172.5 91.1855 173.168C90.5684 173.832 89.7734 174.164 88.8008 174.164C87.8242 174.164 87.0254 173.832 86.4043 173.168C85.7871 172.5 85.4785 171.721 85.4785 170.83C85.4785 169.947 85.7715 169.182 86.3574 168.533C87.002 167.818 87.8164 167.461 88.8008 167.461ZM88.8008 168.264C88.1211 168.264 87.5371 168.516 87.0488 169.02C86.5605 169.523 86.3164 170.133 86.3164 170.848C86.3164 171.309 86.4277 171.738 86.6504 172.137C86.873 172.535 87.1738 172.844 87.5527 173.062C87.9316 173.277 88.3477 173.385 88.8008 173.385C89.2539 173.385 89.6699 173.277 90.0488 173.062C90.4277 172.844 90.7285 172.535 90.9512 172.137C91.1738 171.738 91.2852 171.309 91.2852 170.848C91.2852 170.133 91.0391 169.523 90.5469 169.02C90.0586 168.516 89.4766 168.264 88.8008 168.264ZM93.541 167.625H94.3672V170.602C94.3672 171.328 94.4062 171.828 94.4844 172.102C94.6016 172.492 94.8242 172.801 95.1523 173.027C95.4844 173.254 95.8789 173.367 96.3359 173.367C96.793 173.367 97.1797 173.258 97.4961 173.039C97.8164 172.816 98.0371 172.525 98.1582 172.166C98.2402 171.92 98.2812 171.398 98.2812 170.602V167.625H99.1191V170.754C99.1191 171.633 99.0156 172.295 98.8086 172.74C98.6055 173.186 98.2969 173.535 97.8828 173.789C97.4727 174.039 96.957 174.164 96.3359 174.164C95.7148 174.164 95.1953 174.039 94.7773 173.789C94.3633 173.535 94.0527 173.184 93.8457 172.734C93.6426 172.281 93.541 171.602 93.541 170.695V167.625ZM104.152 168.322L103.625 168.867C103.188 168.441 102.76 168.229 102.342 168.229C102.076 168.229 101.848 168.316 101.656 168.492C101.469 168.668 101.375 168.873 101.375 169.107C101.375 169.314 101.453 169.512 101.609 169.699C101.766 169.891 102.094 170.115 102.594 170.373C103.203 170.689 103.617 170.994 103.836 171.287C104.051 171.584 104.158 171.918 104.158 172.289C104.158 172.812 103.975 173.256 103.607 173.619C103.24 173.982 102.781 174.164 102.23 174.164C101.863 174.164 101.512 174.084 101.176 173.924C100.844 173.764 100.568 173.543 100.35 173.262L100.865 172.676C101.283 173.148 101.727 173.385 102.195 173.385C102.523 173.385 102.803 173.279 103.033 173.068C103.264 172.857 103.379 172.609 103.379 172.324C103.379 172.09 103.303 171.881 103.15 171.697C102.998 171.518 102.654 171.291 102.119 171.018C101.545 170.721 101.154 170.428 100.947 170.139C100.74 169.85 100.637 169.52 100.637 169.148C100.637 168.664 100.801 168.262 101.129 167.941C101.461 167.621 101.879 167.461 102.383 167.461C102.969 167.461 103.559 167.748 104.152 168.322Z" fill="#BBBBBB"/>
<path d="M59.7012 193.551C60.5182 193.551 61.1953 193.847 61.7324 194.439C62.2207 194.98 62.4648 195.619 62.4648 196.358C62.4648 197.101 62.2061 197.75 61.6885 198.307C61.1742 198.86 60.5117 199.137 59.7012 199.137C58.8874 199.137 58.2217 198.86 57.7041 198.307C57.1898 197.75 56.9326 197.101 56.9326 196.358C56.9326 195.623 57.1768 194.985 57.665 194.444C58.2021 193.849 58.8809 193.551 59.7012 193.551ZM59.7012 194.22C59.1348 194.22 58.6481 194.43 58.2412 194.85C57.8343 195.27 57.6309 195.777 57.6309 196.373C57.6309 196.757 57.7236 197.115 57.9092 197.447C58.0947 197.779 58.3454 198.036 58.6611 198.219C58.9769 198.398 59.3236 198.487 59.7012 198.487C60.0788 198.487 60.4255 198.398 60.7412 198.219C61.057 198.036 61.3076 197.779 61.4932 197.447C61.6787 197.115 61.7715 196.757 61.7715 196.373C61.7715 195.777 61.5664 195.27 61.1562 194.85C60.7493 194.43 60.2643 194.22 59.7012 194.22ZM69.042 191.637V199H68.3682V198.087C68.0817 198.435 67.7594 198.697 67.4014 198.873C67.0465 199.049 66.6576 199.137 66.2344 199.137C65.4824 199.137 64.8395 198.865 64.3057 198.321C63.7751 197.774 63.5098 197.11 63.5098 196.329C63.5098 195.564 63.7783 194.91 64.3154 194.366C64.8525 193.823 65.4987 193.551 66.2539 193.551C66.6901 193.551 67.084 193.644 67.4355 193.829C67.7904 194.015 68.1012 194.293 68.3682 194.664V191.637H69.042ZM66.3076 194.21C65.9268 194.21 65.5752 194.304 65.2529 194.493C64.9307 194.679 64.6735 194.941 64.4814 195.279C64.2926 195.618 64.1982 195.976 64.1982 196.354C64.1982 196.728 64.2943 197.086 64.4863 197.428C64.6784 197.77 64.9355 198.036 65.2578 198.229C65.5833 198.417 65.9316 198.512 66.3027 198.512C66.6771 198.512 67.0319 198.417 67.3672 198.229C67.7025 198.04 67.9596 197.784 68.1387 197.462C68.321 197.14 68.4121 196.777 68.4121 196.373C68.4121 195.758 68.2087 195.243 67.8018 194.83C67.3981 194.417 66.9001 194.21 66.3076 194.21ZM75.8975 191.637V199H75.2236V198.087C74.9372 198.435 74.6149 198.697 74.2568 198.873C73.902 199.049 73.513 199.137 73.0898 199.137C72.3379 199.137 71.695 198.865 71.1611 198.321C70.6305 197.774 70.3652 197.11 70.3652 196.329C70.3652 195.564 70.6338 194.91 71.1709 194.366C71.708 193.823 72.3542 193.551 73.1094 193.551C73.5456 193.551 73.9395 193.644 74.291 193.829C74.6458 194.015 74.9567 194.293 75.2236 194.664V191.637H75.8975ZM73.1631 194.21C72.7822 194.21 72.4307 194.304 72.1084 194.493C71.7861 194.679 71.529 194.941 71.3369 195.279C71.1481 195.618 71.0537 195.976 71.0537 196.354C71.0537 196.728 71.1497 197.086 71.3418 197.428C71.5339 197.77 71.791 198.036 72.1133 198.229C72.4388 198.417 72.7871 198.512 73.1582 198.512C73.5326 198.512 73.8874 198.417 74.2227 198.229C74.5579 198.04 74.8151 197.784 74.9941 197.462C75.1764 197.14 75.2676 196.777 75.2676 196.373C75.2676 195.758 75.0641 195.243 74.6572 194.83C74.2536 194.417 73.7555 194.21 73.1631 194.21ZM80.1211 194.269L79.6816 194.723C79.3171 194.368 78.9606 194.19 78.6123 194.19C78.391 194.19 78.2005 194.264 78.041 194.41C77.8848 194.557 77.8066 194.728 77.8066 194.923C77.8066 195.095 77.8717 195.26 78.002 195.416C78.1322 195.576 78.4056 195.763 78.8223 195.978C79.3301 196.241 79.6751 196.495 79.8574 196.739C80.0365 196.987 80.126 197.265 80.126 197.574C80.126 198.01 79.973 198.38 79.667 198.683C79.361 198.985 78.9785 199.137 78.5195 199.137C78.2135 199.137 77.9206 199.07 77.6406 198.937C77.3639 198.803 77.1344 198.619 76.9521 198.385L77.3818 197.896C77.7301 198.29 78.0996 198.487 78.4902 198.487C78.7637 198.487 78.9964 198.399 79.1885 198.224C79.3805 198.048 79.4766 197.841 79.4766 197.604C79.4766 197.408 79.4131 197.234 79.2861 197.081C79.1592 196.931 78.8727 196.743 78.4268 196.515C77.9482 196.267 77.6227 196.023 77.4502 195.782C77.2777 195.541 77.1914 195.266 77.1914 194.957C77.1914 194.553 77.3281 194.218 77.6016 193.951C77.8783 193.684 78.2266 193.551 78.6465 193.551C79.1348 193.551 79.6263 193.79 80.1211 194.269Z" fill="#BBBBBB"/>
<path d="M49.2764 215.817H50.6875V223H49.9746V216.521H48.8467L49.2764 215.817ZM54.4863 221.926C54.6523 221.926 54.7939 221.984 54.9111 222.102C55.0283 222.219 55.0869 222.362 55.0869 222.531C55.0869 222.697 55.0283 222.84 54.9111 222.961C54.7939 223.078 54.6523 223.137 54.4863 223.137C54.3203 223.137 54.1787 223.078 54.0615 222.961C53.9443 222.84 53.8857 222.697 53.8857 222.531C53.8857 222.362 53.9443 222.219 54.0615 222.102C54.1787 221.984 54.3203 221.926 54.4863 221.926ZM56.9033 218.068H56.2148C56.2344 217.359 56.4704 216.776 56.9229 216.32C57.3786 215.865 57.9401 215.637 58.6074 215.637C59.2682 215.637 59.8021 215.85 60.209 216.276C60.6191 216.703 60.8242 217.206 60.8242 217.785C60.8242 218.192 60.7266 218.575 60.5312 218.933C60.3359 219.287 59.9567 219.769 59.3936 220.378L57.6064 222.307H60.9219V223H56.0439L58.7881 220.036C59.3447 219.44 59.7061 218.999 59.8721 218.713C60.0413 218.423 60.126 218.119 60.126 217.8C60.126 217.396 59.9746 217.049 59.6719 216.76C59.3724 216.467 59.0046 216.32 58.5684 216.32C58.1094 216.32 57.7269 216.473 57.4209 216.779C57.1182 217.085 56.9456 217.515 56.9033 218.068ZM64.3838 220.002H67.0693V220.598H64.3838V220.002ZM72.0107 215.817H73.4219V223H72.709V216.521H71.5811L72.0107 215.817ZM77.2207 221.926C77.3867 221.926 77.5283 221.984 77.6455 222.102C77.7627 222.219 77.8213 222.362 77.8213 222.531C77.8213 222.697 77.7627 222.84 77.6455 222.961C77.5283 223.078 77.3867 223.137 77.2207 223.137C77.0547 223.137 76.9131 223.078 76.7959 222.961C76.6787 222.84 76.6201 222.697 76.6201 222.531C76.6201 222.362 76.6787 222.219 76.7959 222.102C76.9131 221.984 77.0547 221.926 77.2207 221.926ZM83.3975 215.817V216.501H80.8389L80.4824 218.459C80.7949 218.368 81.0765 218.322 81.3271 218.322C81.9814 218.322 82.5202 218.542 82.9434 218.981C83.3698 219.418 83.583 219.978 83.583 220.661C83.583 221.133 83.474 221.566 83.2559 221.96C83.0378 222.354 82.7415 222.657 82.3672 222.868C81.9961 223.076 81.5664 223.181 81.0781 223.181C80.4954 223.181 80.0039 223.003 79.6035 222.648C79.2031 222.29 78.9639 221.828 78.8857 221.262H79.623C79.6784 221.538 79.7712 221.763 79.9014 221.936C80.0348 222.108 80.2106 222.248 80.4287 222.355C80.6501 222.46 80.8812 222.512 81.1221 222.512C81.5941 222.512 81.9993 222.333 82.3379 221.975C82.6764 221.617 82.8457 221.169 82.8457 220.632C82.8457 220.147 82.6927 219.753 82.3867 219.45C82.0807 219.147 81.6722 218.996 81.1611 218.996C80.738 218.996 80.2253 219.125 79.623 219.382L80.2871 215.817H83.3975ZM88.9443 215.817V216.501H86.3857L86.0293 218.459C86.3418 218.368 86.6234 218.322 86.874 218.322C87.5283 218.322 88.0671 218.542 88.4902 218.981C88.9167 219.418 89.1299 219.978 89.1299 220.661C89.1299 221.133 89.0208 221.566 88.8027 221.96C88.5846 222.354 88.2884 222.657 87.9141 222.868C87.543 223.076 87.1133 223.181 86.625 223.181C86.0423 223.181 85.5508 223.003 85.1504 222.648C84.75 222.29 84.5107 221.828 84.4326 221.262H85.1699C85.2253 221.538 85.318 221.763 85.4482 221.936C85.5817 222.108 85.7575 222.248 85.9756 222.355C86.1969 222.46 86.4281 222.512 86.6689 222.512C87.141 222.512 87.5462 222.333 87.8848 221.975C88.2233 221.617 88.3926 221.169 88.3926 220.632C88.3926 220.147 88.2396 219.753 87.9336 219.45C87.6276 219.147 87.2191 218.996 86.708 218.996C86.2848 218.996 85.7721 219.125 85.1699 219.382L85.834 215.817H88.9443Z" fill="#BBBBBB"/>
<path d="M241.701 193.551C242.518 193.551 243.195 193.847 243.732 194.439C244.221 194.98 244.465 195.619 244.465 196.358C244.465 197.101 244.206 197.75 243.688 198.307C243.174 198.86 242.512 199.137 241.701 199.137C240.887 199.137 240.222 198.86 239.704 198.307C239.19 197.75 238.933 197.101 238.933 196.358C238.933 195.623 239.177 194.985 239.665 194.444C240.202 193.849 240.881 193.551 241.701 193.551ZM241.701 194.22C241.135 194.22 240.648 194.43 240.241 194.85C239.834 195.27 239.631 195.777 239.631 196.373C239.631 196.757 239.724 197.115 239.909 197.447C240.095 197.779 240.345 198.036 240.661 198.219C240.977 198.398 241.324 198.487 241.701 198.487C242.079 198.487 242.425 198.398 242.741 198.219C243.057 198.036 243.308 197.779 243.493 197.447C243.679 197.115 243.771 196.757 243.771 196.373C243.771 195.777 243.566 195.27 243.156 194.85C242.749 194.43 242.264 194.22 241.701 194.22ZM251.042 191.637V199H250.368V198.087C250.082 198.435 249.759 198.697 249.401 198.873C249.047 199.049 248.658 199.137 248.234 199.137C247.482 199.137 246.84 198.865 246.306 198.321C245.775 197.774 245.51 197.11 245.51 196.329C245.51 195.564 245.778 194.91 246.315 194.366C246.853 193.823 247.499 193.551 248.254 193.551C248.69 193.551 249.084 193.644 249.436 193.829C249.79 194.015 250.101 194.293 250.368 194.664V191.637H251.042ZM248.308 194.21C247.927 194.21 247.575 194.304 247.253 194.493C246.931 194.679 246.674 194.941 246.481 195.279C246.293 195.618 246.198 195.976 246.198 196.354C246.198 196.728 246.294 197.086 246.486 197.428C246.678 197.77 246.936 198.036 247.258 198.229C247.583 198.417 247.932 198.512 248.303 198.512C248.677 198.512 249.032 198.417 249.367 198.229C249.702 198.04 249.96 197.784 250.139 197.462C250.321 197.14 250.412 196.777 250.412 196.373C250.412 195.758 250.209 195.243 249.802 194.83C249.398 194.417 248.9 194.21 248.308 194.21ZM257.897 191.637V199H257.224V198.087C256.937 198.435 256.615 198.697 256.257 198.873C255.902 199.049 255.513 199.137 255.09 199.137C254.338 199.137 253.695 198.865 253.161 198.321C252.631 197.774 252.365 197.11 252.365 196.329C252.365 195.564 252.634 194.91 253.171 194.366C253.708 193.823 254.354 193.551 255.109 193.551C255.546 193.551 255.939 193.644 256.291 193.829C256.646 194.015 256.957 194.293 257.224 194.664V191.637H257.897ZM255.163 194.21C254.782 194.21 254.431 194.304 254.108 194.493C253.786 194.679 253.529 194.941 253.337 195.279C253.148 195.618 253.054 195.976 253.054 196.354C253.054 196.728 253.15 197.086 253.342 197.428C253.534 197.77 253.791 198.036 254.113 198.229C254.439 198.417 254.787 198.512 255.158 198.512C255.533 198.512 255.887 198.417 256.223 198.229C256.558 198.04 256.815 197.784 256.994 197.462C257.176 197.14 257.268 196.777 257.268 196.373C257.268 195.758 257.064 195.243 256.657 194.83C256.254 194.417 255.756 194.21 255.163 194.21ZM262.121 194.269L261.682 194.723C261.317 194.368 260.961 194.19 260.612 194.19C260.391 194.19 260.201 194.264 260.041 194.41C259.885 194.557 259.807 194.728 259.807 194.923C259.807 195.095 259.872 195.26 260.002 195.416C260.132 195.576 260.406 195.763 260.822 195.978C261.33 196.241 261.675 196.495 261.857 196.739C262.036 196.987 262.126 197.265 262.126 197.574C262.126 198.01 261.973 198.38 261.667 198.683C261.361 198.985 260.979 199.137 260.52 199.137C260.214 199.137 259.921 199.07 259.641 198.937C259.364 198.803 259.134 198.619 258.952 198.385L259.382 197.896C259.73 198.29 260.1 198.487 260.49 198.487C260.764 198.487 260.996 198.399 261.188 198.224C261.381 198.048 261.477 197.841 261.477 197.604C261.477 197.408 261.413 197.234 261.286 197.081C261.159 196.931 260.873 196.743 260.427 196.515C259.948 196.267 259.623 196.023 259.45 195.782C259.278 195.541 259.191 195.266 259.191 194.957C259.191 194.553 259.328 194.218 259.602 193.951C259.878 193.684 260.227 193.551 260.646 193.551C261.135 193.551 261.626 193.79 262.121 194.269Z" fill="#BBBBBB"/>
<path d="M421.701 193.551C422.518 193.551 423.195 193.847 423.732 194.439C424.221 194.98 424.465 195.619 424.465 196.358C424.465 197.101 424.206 197.75 423.688 198.307C423.174 198.86 422.512 199.137 421.701 199.137C420.887 199.137 420.222 198.86 419.704 198.307C419.19 197.75 418.933 197.101 418.933 196.358C418.933 195.623 419.177 194.985 419.665 194.444C420.202 193.849 420.881 193.551 421.701 193.551ZM421.701 194.22C421.135 194.22 420.648 194.43 420.241 194.85C419.834 195.27 419.631 195.777 419.631 196.373C419.631 196.757 419.724 197.115 419.909 197.447C420.095 197.779 420.345 198.036 420.661 198.219C420.977 198.398 421.324 198.487 421.701 198.487C422.079 198.487 422.425 198.398 422.741 198.219C423.057 198.036 423.308 197.779 423.493 197.447C423.679 197.115 423.771 196.757 423.771 196.373C423.771 195.777 423.566 195.27 423.156 194.85C422.749 194.43 422.264 194.22 421.701 194.22ZM431.042 191.637V199H430.368V198.087C430.082 198.435 429.759 198.697 429.401 198.873C429.047 199.049 428.658 199.137 428.234 199.137C427.482 199.137 426.84 198.865 426.306 198.321C425.775 197.774 425.51 197.11 425.51 196.329C425.51 195.564 425.778 194.91 426.315 194.366C426.853 193.823 427.499 193.551 428.254 193.551C428.69 193.551 429.084 193.644 429.436 193.829C429.79 194.015 430.101 194.293 430.368 194.664V191.637H431.042ZM428.308 194.21C427.927 194.21 427.575 194.304 427.253 194.493C426.931 194.679 426.674 194.941 426.481 195.279C426.293 195.618 426.198 195.976 426.198 196.354C426.198 196.728 426.294 197.086 426.486 197.428C426.678 197.77 426.936 198.036 427.258 198.229C427.583 198.417 427.932 198.512 428.303 198.512C428.677 198.512 429.032 198.417 429.367 198.229C429.702 198.04 429.96 197.784 430.139 197.462C430.321 197.14 430.412 196.777 430.412 196.373C430.412 195.758 430.209 195.243 429.802 194.83C429.398 194.417 428.9 194.21 428.308 194.21ZM437.897 191.637V199H437.224V198.087C436.937 198.435 436.615 198.697 436.257 198.873C435.902 199.049 435.513 199.137 435.09 199.137C434.338 199.137 433.695 198.865 433.161 198.321C432.631 197.774 432.365 197.11 432.365 196.329C432.365 195.564 432.634 194.91 433.171 194.366C433.708 193.823 434.354 193.551 435.109 193.551C435.546 193.551 435.939 193.644 436.291 193.829C436.646 194.015 436.957 194.293 437.224 194.664V191.637H437.897ZM435.163 194.21C434.782 194.21 434.431 194.304 434.108 194.493C433.786 194.679 433.529 194.941 433.337 195.279C433.148 195.618 433.054 195.976 433.054 196.354C433.054 196.728 433.15 197.086 433.342 197.428C433.534 197.77 433.791 198.036 434.113 198.229C434.439 198.417 434.787 198.512 435.158 198.512C435.533 198.512 435.887 198.417 436.223 198.229C436.558 198.04 436.815 197.784 436.994 197.462C437.176 197.14 437.268 196.777 437.268 196.373C437.268 195.758 437.064 195.243 436.657 194.83C436.254 194.417 435.756 194.21 435.163 194.21ZM442.121 194.269L441.682 194.723C441.317 194.368 440.961 194.19 440.612 194.19C440.391 194.19 440.201 194.264 440.041 194.41C439.885 194.557 439.807 194.728 439.807 194.923C439.807 195.095 439.872 195.26 440.002 195.416C440.132 195.576 440.406 195.763 440.822 195.978C441.33 196.241 441.675 196.495 441.857 196.739C442.036 196.987 442.126 197.265 442.126 197.574C442.126 198.01 441.973 198.38 441.667 198.683C441.361 198.985 440.979 199.137 440.52 199.137C440.214 199.137 439.921 199.07 439.641 198.937C439.364 198.803 439.134 198.619 438.952 198.385L439.382 197.896C439.73 198.29 440.1 198.487 440.49 198.487C440.764 198.487 440.996 198.399 441.188 198.224C441.381 198.048 441.477 197.841 441.477 197.604C441.477 197.408 441.413 197.234 441.286 197.081C441.159 196.931 440.873 196.743 440.427 196.515C439.948 196.267 439.623 196.023 439.45 195.782C439.278 195.541 439.191 195.266 439.191 194.957C439.191 194.553 439.328 194.218 439.602 193.951C439.878 193.684 440.227 193.551 440.646 193.551C441.135 193.551 441.626 193.79 442.121 194.269Z" fill="#BBBBBB"/>
<path d="M238.21 215.817H239.621V223H238.908V216.521H237.78L238.21 215.817ZM243.42 221.926C243.586 221.926 243.728 221.984 243.845 222.102C243.962 222.219 244.021 222.362 244.021 222.531C244.021 222.697 243.962 222.84 243.845 222.961C243.728 223.078 243.586 223.137 243.42 223.137C243.254 223.137 243.112 223.078 242.995 222.961C242.878 222.84 242.819 222.697 242.819 222.531C242.819 222.362 242.878 222.219 242.995 222.102C243.112 221.984 243.254 221.926 243.42 221.926ZM248.347 215.637L248.938 216.022L246.999 218.962C247.259 218.874 247.504 218.83 247.731 218.83C248.301 218.83 248.785 219.037 249.182 219.45C249.579 219.86 249.777 220.367 249.777 220.969C249.777 221.382 249.681 221.757 249.489 222.092C249.297 222.424 249.024 222.689 248.669 222.888C248.317 223.083 247.938 223.181 247.531 223.181C247.137 223.181 246.771 223.086 246.433 222.897C246.097 222.705 245.834 222.437 245.642 222.092C245.45 221.747 245.354 221.377 245.354 220.983C245.354 220.69 245.412 220.383 245.529 220.061C245.65 219.735 245.863 219.344 246.169 218.889L248.347 215.637ZM247.561 219.46C247.144 219.46 246.787 219.608 246.491 219.904C246.198 220.197 246.052 220.554 246.052 220.974C246.052 221.39 246.198 221.747 246.491 222.043C246.787 222.336 247.144 222.482 247.561 222.482C247.977 222.482 248.332 222.336 248.625 222.043C248.921 221.747 249.069 221.39 249.069 220.974C249.069 220.554 248.921 220.197 248.625 219.904C248.332 219.608 247.977 219.46 247.561 219.46ZM253.317 220.002H256.003V220.598H253.317V220.002ZM260.417 217.482H259.685C259.818 216.89 260.074 216.434 260.451 216.115C260.829 215.796 261.275 215.637 261.789 215.637C262.163 215.637 262.512 215.723 262.834 215.896C263.16 216.065 263.41 216.294 263.586 216.584C263.765 216.874 263.854 217.176 263.854 217.492C263.854 218.111 263.547 218.601 262.932 218.962C263.277 219.102 263.56 219.307 263.781 219.577C264.094 219.958 264.25 220.384 264.25 220.856C264.25 221.263 264.143 221.652 263.928 222.023C263.713 222.391 263.42 222.676 263.049 222.878C262.678 223.08 262.263 223.181 261.804 223.181C261.185 223.181 260.669 223.003 260.256 222.648C259.842 222.29 259.572 221.766 259.445 221.076H260.148C260.272 221.542 260.45 221.879 260.681 222.087C260.977 222.351 261.354 222.482 261.813 222.482C262.334 222.482 262.753 222.326 263.068 222.014C263.384 221.701 263.542 221.335 263.542 220.915C263.542 220.635 263.462 220.373 263.303 220.129C263.146 219.885 262.935 219.701 262.668 219.577C262.404 219.453 261.994 219.377 261.438 219.348V218.688C261.766 218.688 262.066 218.632 262.336 218.518C262.606 218.4 262.801 218.252 262.922 218.073C263.046 217.894 263.107 217.699 263.107 217.487C263.107 217.175 262.982 216.905 262.731 216.677C262.484 216.449 262.17 216.335 261.789 216.335C261.48 216.335 261.213 216.423 260.988 216.599C260.764 216.771 260.573 217.066 260.417 217.482Z" fill="#BBBBBB"/>
<path d="M429.611 215.817V216.501H427.053L426.696 218.459C427.009 218.368 427.29 218.322 427.541 218.322C428.195 218.322 428.734 218.542 429.157 218.981C429.584 219.418 429.797 219.978 429.797 220.661C429.797 221.133 429.688 221.566 429.47 221.96C429.252 222.354 428.955 222.657 428.581 222.868C428.21 223.076 427.78 223.181 427.292 223.181C426.709 223.181 426.218 223.003 425.817 222.648C425.417 222.29 425.178 221.828 425.1 221.262H425.837C425.892 221.538 425.985 221.763 426.115 221.936C426.249 222.108 426.424 222.248 426.643 222.355C426.864 222.46 427.095 222.512 427.336 222.512C427.808 222.512 428.213 222.333 428.552 221.975C428.89 221.617 429.06 221.169 429.06 220.632C429.06 220.147 428.907 219.753 428.601 219.45C428.295 219.147 427.886 218.996 427.375 218.996C426.952 218.996 426.439 219.125 425.837 219.382L426.501 215.817H429.611ZM432.937 219.074V216.955H433.605V219.074H435.744V219.743H433.605V221.862H432.937V219.743H430.803V219.074H432.937Z" fill="#BBBBBB"/>
<path d="M220.756 167.625V174H219.947V172.904C219.604 173.322 219.217 173.637 218.787 173.848C218.361 174.059 217.895 174.164 217.387 174.164C216.484 174.164 215.713 173.838 215.072 173.186C214.436 172.529 214.117 171.732 214.117 170.795C214.117 169.877 214.439 169.092 215.084 168.439C215.729 167.787 216.504 167.461 217.41 167.461C217.934 167.461 218.406 167.572 218.828 167.795C219.254 168.018 219.627 168.352 219.947 168.797V167.625H220.756ZM217.475 168.252C217.018 168.252 216.596 168.365 216.209 168.592C215.822 168.814 215.514 169.129 215.283 169.535C215.057 169.941 214.943 170.371 214.943 170.824C214.943 171.273 215.059 171.703 215.289 172.113C215.52 172.523 215.828 172.844 216.215 173.074C216.605 173.301 217.023 173.414 217.469 173.414C217.918 173.414 218.344 173.301 218.746 173.074C219.148 172.848 219.457 172.541 219.672 172.154C219.891 171.768 220 171.332 220 170.848C220 170.109 219.756 169.492 219.268 168.996C218.783 168.5 218.186 168.252 217.475 168.252ZM228.971 165.164V174H228.162V172.904C227.818 173.322 227.432 173.637 227.002 173.848C226.576 174.059 226.109 174.164 225.602 174.164C224.699 174.164 223.928 173.838 223.287 173.186C222.65 172.529 222.332 171.732 222.332 170.795C222.332 169.877 222.654 169.092 223.299 168.439C223.943 167.787 224.719 167.461 225.625 167.461C226.148 167.461 226.621 167.572 227.043 167.795C227.469 168.018 227.842 168.352 228.162 168.797V165.164H228.971ZM225.689 168.252C225.232 168.252 224.811 168.365 224.424 168.592C224.037 168.814 223.729 169.129 223.498 169.535C223.271 169.941 223.158 170.371 223.158 170.824C223.158 171.273 223.273 171.703 223.504 172.113C223.734 172.523 224.043 172.844 224.43 173.074C224.82 173.301 225.238 173.414 225.684 173.414C226.133 173.414 226.559 173.301 226.961 173.074C227.363 172.848 227.672 172.541 227.887 172.154C228.105 171.768 228.215 171.332 228.215 170.848C228.215 170.109 227.971 169.492 227.482 168.996C226.998 168.5 226.4 168.252 225.689 168.252ZM230.23 167.625H231.104L233.236 172.266L235.352 167.625H236.23L233.312 174H233.166L230.23 167.625ZM242.857 171.885L243.549 172.248C243.322 172.693 243.061 173.053 242.764 173.326C242.467 173.6 242.133 173.809 241.762 173.953C241.391 174.094 240.971 174.164 240.502 174.164C239.463 174.164 238.65 173.824 238.064 173.145C237.479 172.461 237.186 171.689 237.186 170.83C237.186 170.021 237.434 169.301 237.93 168.668C238.559 167.863 239.4 167.461 240.455 167.461C241.541 167.461 242.408 167.873 243.057 168.697C243.518 169.279 243.752 170.006 243.76 170.877H238.029C238.045 171.619 238.281 172.229 238.738 172.705C239.195 173.178 239.76 173.414 240.432 173.414C240.756 173.414 241.07 173.357 241.375 173.244C241.684 173.131 241.945 172.98 242.16 172.793C242.375 172.605 242.607 172.303 242.857 171.885ZM242.857 170.168C242.748 169.73 242.588 169.381 242.377 169.119C242.17 168.857 241.895 168.646 241.551 168.486C241.207 168.326 240.846 168.246 240.467 168.246C239.842 168.246 239.305 168.447 238.855 168.85C238.527 169.143 238.279 169.582 238.111 170.168H242.857ZM245.295 167.625H246.115V168.768C246.443 168.33 246.807 168.004 247.205 167.789C247.604 167.57 248.037 167.461 248.506 167.461C248.982 167.461 249.404 167.582 249.771 167.824C250.143 168.066 250.416 168.393 250.592 168.803C250.768 169.213 250.855 169.852 250.855 170.719V174H250.041V170.959C250.041 170.225 250.01 169.734 249.947 169.488C249.85 169.066 249.666 168.75 249.396 168.539C249.127 168.324 248.775 168.217 248.342 168.217C247.846 168.217 247.4 168.381 247.006 168.709C246.615 169.037 246.357 169.443 246.232 169.928C246.154 170.244 246.115 170.822 246.115 171.662V174H245.295V167.625ZM253.334 165.258H254.16V167.625H255.461V168.328H254.16V174H253.334V168.328H252.215V167.625H253.334V165.258ZM256.58 167.625H257.406V170.602C257.406 171.328 257.445 171.828 257.523 172.102C257.641 172.492 257.863 172.801 258.191 173.027C258.523 173.254 258.918 173.367 259.375 173.367C259.832 173.367 260.219 173.258 260.535 173.039C260.855 172.816 261.076 172.525 261.197 172.166C261.279 171.92 261.32 171.398 261.32 170.602V167.625H262.158V170.754C262.158 171.633 262.055 172.295 261.848 172.74C261.645 173.186 261.336 173.535 260.922 173.789C260.512 174.039 259.996 174.164 259.375 174.164C258.754 174.164 258.234 174.039 257.816 173.789C257.402 173.535 257.092 173.184 256.885 172.734C256.682 172.281 256.58 171.602 256.58 170.695V167.625ZM263.676 167.625H264.514V168.557C264.764 168.189 265.027 167.916 265.305 167.736C265.582 167.553 265.871 167.461 266.172 167.461C266.398 167.461 266.641 167.533 266.898 167.678L266.471 168.369C266.299 168.295 266.154 168.258 266.037 168.258C265.764 168.258 265.5 168.371 265.246 168.598C264.992 168.82 264.799 169.168 264.666 169.641C264.564 170.004 264.514 170.738 264.514 171.844V174H263.676V167.625ZM270.613 167.461C271.594 167.461 272.406 167.816 273.051 168.527C273.637 169.176 273.93 169.943 273.93 170.83C273.93 171.721 273.619 172.5 272.998 173.168C272.381 173.832 271.586 174.164 270.613 174.164C269.637 174.164 268.838 173.832 268.217 173.168C267.6 172.5 267.291 171.721 267.291 170.83C267.291 169.947 267.584 169.182 268.17 168.533C268.814 167.818 269.629 167.461 270.613 167.461ZM270.613 168.264C269.934 168.264 269.35 168.516 268.861 169.02C268.373 169.523 268.129 170.133 268.129 170.848C268.129 171.309 268.24 171.738 268.463 172.137C268.686 172.535 268.986 172.844 269.365 173.062C269.744 173.277 270.16 173.385 270.613 173.385C271.066 173.385 271.482 173.277 271.861 173.062C272.24 172.844 272.541 172.535 272.764 172.137C272.986 171.738 273.098 171.309 273.098 170.848C273.098 170.133 272.852 169.523 272.359 169.02C271.871 168.516 271.289 168.264 270.613 168.264ZM275.354 167.625H276.18V170.602C276.18 171.328 276.219 171.828 276.297 172.102C276.414 172.492 276.637 172.801 276.965 173.027C277.297 173.254 277.691 173.367 278.148 173.367C278.605 173.367 278.992 173.258 279.309 173.039C279.629 172.816 279.85 172.525 279.971 172.166C280.053 171.92 280.094 171.398 280.094 170.602V167.625H280.932V170.754C280.932 171.633 280.828 172.295 280.621 172.74C280.418 173.186 280.109 173.535 279.695 173.789C279.285 174.039 278.77 174.164 278.148 174.164C277.527 174.164 277.008 174.039 276.59 173.789C276.176 173.535 275.865 173.184 275.658 172.734C275.455 172.281 275.354 171.602 275.354 170.695V167.625ZM285.965 168.322L285.438 168.867C285 168.441 284.572 168.229 284.154 168.229C283.889 168.229 283.66 168.316 283.469 168.492C283.281 168.668 283.188 168.873 283.188 169.107C283.188 169.314 283.266 169.512 283.422 169.699C283.578 169.891 283.906 170.115 284.406 170.373C285.016 170.689 285.43 170.994 285.648 171.287C285.863 171.584 285.971 171.918 285.971 172.289C285.971 172.812 285.787 173.256 285.42 173.619C285.053 173.982 284.594 174.164 284.043 174.164C283.676 174.164 283.324 174.084 282.988 173.924C282.656 173.764 282.381 173.543 282.162 173.262L282.678 172.676C283.096 173.148 283.539 173.385 284.008 173.385C284.336 173.385 284.615 173.279 284.846 173.068C285.076 172.857 285.191 172.609 285.191 172.324C285.191 172.09 285.115 171.881 284.963 171.697C284.811 171.518 284.467 171.291 283.932 171.018C283.357 170.721 282.967 170.428 282.76 170.139C282.553 169.85 282.449 169.52 282.449 169.148C282.449 168.664 282.613 168.262 282.941 167.941C283.273 167.621 283.691 167.461 284.195 167.461C284.781 167.461 285.371 167.748 285.965 168.322Z" fill="#BBBBBB"/>
<path d="M405.521 165.164H406.342V174H405.521V165.164ZM407.941 167.625H408.768V170.602C408.768 171.328 408.807 171.828 408.885 172.102C409.002 172.492 409.225 172.801 409.553 173.027C409.885 173.254 410.279 173.367 410.736 173.367C411.193 173.367 411.58 173.258 411.896 173.039C412.217 172.816 412.438 172.525 412.559 172.166C412.641 171.92 412.682 171.398 412.682 170.602V167.625H413.52V170.754C413.52 171.633 413.416 172.295 413.209 172.74C413.006 173.186 412.697 173.535 412.283 173.789C411.873 174.039 411.357 174.164 410.736 174.164C410.115 174.164 409.596 174.039 409.178 173.789C408.764 173.535 408.453 173.184 408.246 172.734C408.043 172.281 407.941 171.602 407.941 170.695V167.625ZM421.711 165.164V174H420.902V172.904C420.559 173.322 420.172 173.637 419.742 173.848C419.316 174.059 418.85 174.164 418.342 174.164C417.439 174.164 416.668 173.838 416.027 173.186C415.391 172.529 415.072 171.732 415.072 170.795C415.072 169.877 415.395 169.092 416.039 168.439C416.684 167.787 417.459 167.461 418.365 167.461C418.889 167.461 419.361 167.572 419.783 167.795C420.209 168.018 420.582 168.352 420.902 168.797V165.164H421.711ZM418.43 168.252C417.973 168.252 417.551 168.365 417.164 168.592C416.777 168.814 416.469 169.129 416.238 169.535C416.012 169.941 415.898 170.371 415.898 170.824C415.898 171.273 416.014 171.703 416.244 172.113C416.475 172.523 416.783 172.844 417.17 173.074C417.561 173.301 417.979 173.414 418.424 173.414C418.873 173.414 419.299 173.301 419.701 173.074C420.104 172.848 420.412 172.541 420.627 172.154C420.846 171.768 420.955 171.332 420.955 170.848C420.955 170.109 420.711 169.492 420.223 168.996C419.738 168.5 419.141 168.252 418.43 168.252ZM423.861 165C424.049 165 424.209 165.066 424.342 165.199C424.475 165.332 424.541 165.492 424.541 165.68C424.541 165.863 424.475 166.021 424.342 166.154C424.209 166.287 424.049 166.354 423.861 166.354C423.678 166.354 423.52 166.287 423.387 166.154C423.254 166.021 423.188 165.863 423.188 165.68C423.188 165.492 423.254 165.332 423.387 165.199C423.52 165.066 423.678 165 423.861 165ZM423.451 167.625H424.277V174H423.451V167.625ZM432.164 168.949L431.514 169.354C430.951 168.607 430.184 168.234 429.211 168.234C428.434 168.234 427.787 168.484 427.271 168.984C426.76 169.484 426.504 170.092 426.504 170.807C426.504 171.271 426.621 171.709 426.855 172.119C427.094 172.529 427.418 172.848 427.828 173.074C428.242 173.301 428.705 173.414 429.217 173.414C430.154 173.414 430.92 173.041 431.514 172.295L432.164 172.723C431.859 173.18 431.449 173.535 430.934 173.789C430.422 174.039 429.838 174.164 429.182 174.164C428.174 174.164 427.338 173.844 426.674 173.203C426.01 172.562 425.678 171.783 425.678 170.865C425.678 170.248 425.832 169.676 426.141 169.148C426.453 168.617 426.881 168.203 427.424 167.906C427.967 167.609 428.574 167.461 429.246 167.461C429.668 167.461 430.074 167.525 430.465 167.654C430.859 167.783 431.193 167.951 431.467 168.158C431.74 168.365 431.973 168.629 432.164 168.949ZM433.436 167.625H434.273V168.557C434.523 168.189 434.787 167.916 435.064 167.736C435.342 167.553 435.631 167.461 435.932 167.461C436.158 167.461 436.4 167.533 436.658 167.678L436.23 168.369C436.059 168.295 435.914 168.258 435.797 168.258C435.523 168.258 435.26 168.371 435.006 168.598C434.752 168.82 434.559 169.168 434.426 169.641C434.324 170.004 434.273 170.738 434.273 171.844V174H433.436V167.625ZM440.373 167.461C441.354 167.461 442.166 167.816 442.811 168.527C443.396 169.176 443.689 169.943 443.689 170.83C443.689 171.721 443.379 172.5 442.758 173.168C442.141 173.832 441.346 174.164 440.373 174.164C439.396 174.164 438.598 173.832 437.977 173.168C437.359 172.5 437.051 171.721 437.051 170.83C437.051 169.947 437.344 169.182 437.93 168.533C438.574 167.818 439.389 167.461 440.373 167.461ZM440.373 168.264C439.693 168.264 439.109 168.516 438.621 169.02C438.133 169.523 437.889 170.133 437.889 170.848C437.889 171.309 438 171.738 438.223 172.137C438.445 172.535 438.746 172.844 439.125 173.062C439.504 173.277 439.92 173.385 440.373 173.385C440.826 173.385 441.242 173.277 441.621 173.062C442 172.844 442.301 172.535 442.523 172.137C442.746 171.738 442.857 171.309 442.857 170.848C442.857 170.133 442.611 169.523 442.119 169.02C441.631 168.516 441.049 168.264 440.373 168.264ZM445.113 167.625H445.939V170.602C445.939 171.328 445.979 171.828 446.057 172.102C446.174 172.492 446.396 172.801 446.725 173.027C447.057 173.254 447.451 173.367 447.908 173.367C448.365 173.367 448.752 173.258 449.068 173.039C449.389 172.816 449.609 172.525 449.73 172.166C449.812 171.92 449.854 171.398 449.854 170.602V167.625H450.691V170.754C450.691 171.633 450.588 172.295 450.381 172.74C450.178 173.186 449.869 173.535 449.455 173.789C449.045 174.039 448.529 174.164 447.908 174.164C447.287 174.164 446.768 174.039 446.35 173.789C445.936 173.535 445.625 173.184 445.418 172.734C445.215 172.281 445.113 171.602 445.113 170.695V167.625ZM455.725 168.322L455.197 168.867C454.76 168.441 454.332 168.229 453.914 168.229C453.648 168.229 453.42 168.316 453.229 168.492C453.041 168.668 452.947 168.873 452.947 169.107C452.947 169.314 453.025 169.512 453.182 169.699C453.338 169.891 453.666 170.115 454.166 170.373C454.775 170.689 455.189 170.994 455.408 171.287C455.623 171.584 455.73 171.918 455.73 172.289C455.73 172.812 455.547 173.256 455.18 173.619C454.812 173.982 454.354 174.164 453.803 174.164C453.436 174.164 453.084 174.084 452.748 173.924C452.416 173.764 452.141 173.543 451.922 173.262L452.438 172.676C452.855 173.148 453.299 173.385 453.768 173.385C454.096 173.385 454.375 173.279 454.605 173.068C454.836 172.857 454.951 172.609 454.951 172.324C454.951 172.09 454.875 171.881 454.723 171.697C454.57 171.518 454.227 171.291 453.691 171.018C453.117 170.721 452.727 170.428 452.52 170.139C452.312 169.85 452.209 169.52 452.209 169.148C452.209 168.664 452.373 168.262 452.701 167.941C453.033 167.621 453.451 167.461 453.955 167.461C454.541 167.461 455.131 167.748 455.725 168.322Z" fill="#BBBBBB"/>
<path d="M97.0195 96.9443H98.0518L100.096 104.19L102.98 96.9443H103.186L106.036 104.19L108.121 96.9443H109.146L106.262 107H106.07L103.09 99.3916L100.048 107H99.8564L97.0195 96.9443ZM117.131 104.532L117.938 104.956C117.673 105.476 117.368 105.895 117.021 106.214C116.675 106.533 116.285 106.777 115.853 106.945C115.42 107.109 114.93 107.191 114.383 107.191C113.171 107.191 112.223 106.795 111.539 106.002C110.855 105.204 110.514 104.304 110.514 103.302C110.514 102.358 110.803 101.518 111.382 100.779C112.116 99.8405 113.098 99.3711 114.328 99.3711C115.595 99.3711 116.607 99.8519 117.363 100.813C117.901 101.493 118.174 102.34 118.184 103.356H111.498C111.516 104.222 111.792 104.933 112.325 105.489C112.858 106.041 113.517 106.316 114.301 106.316C114.679 106.316 115.046 106.25 115.401 106.118C115.761 105.986 116.067 105.811 116.317 105.592C116.568 105.373 116.839 105.02 117.131 104.532ZM117.131 102.529C117.003 102.019 116.816 101.611 116.57 101.306C116.329 101 116.007 100.754 115.606 100.567C115.205 100.381 114.784 100.287 114.342 100.287C113.613 100.287 112.986 100.522 112.462 100.991C112.079 101.333 111.79 101.846 111.594 102.529H117.131ZM127.597 100.376L126.981 101.012C126.471 100.515 125.972 100.267 125.484 100.267C125.174 100.267 124.908 100.369 124.685 100.574C124.466 100.779 124.356 101.019 124.356 101.292C124.356 101.534 124.448 101.764 124.63 101.982C124.812 102.206 125.195 102.468 125.778 102.769C126.489 103.138 126.972 103.493 127.228 103.835C127.478 104.181 127.604 104.571 127.604 105.004C127.604 105.615 127.389 106.132 126.961 106.556C126.533 106.979 125.997 107.191 125.354 107.191C124.926 107.191 124.516 107.098 124.124 106.911C123.737 106.724 123.415 106.467 123.16 106.139L123.762 105.455C124.249 106.007 124.767 106.282 125.313 106.282C125.696 106.282 126.022 106.159 126.291 105.913C126.56 105.667 126.694 105.378 126.694 105.045C126.694 104.771 126.605 104.528 126.428 104.313C126.25 104.104 125.849 103.84 125.225 103.521C124.555 103.174 124.099 102.832 123.857 102.495C123.616 102.158 123.495 101.773 123.495 101.34C123.495 100.775 123.687 100.305 124.069 99.9316C124.457 99.5579 124.944 99.3711 125.532 99.3711C126.216 99.3711 126.904 99.7061 127.597 100.376ZM135.561 104.532L136.367 104.956C136.103 105.476 135.798 105.895 135.451 106.214C135.105 106.533 134.715 106.777 134.282 106.945C133.849 107.109 133.359 107.191 132.812 107.191C131.6 107.191 130.652 106.795 129.969 106.002C129.285 105.204 128.943 104.304 128.943 103.302C128.943 102.358 129.233 101.518 129.812 100.779C130.545 99.8405 131.527 99.3711 132.758 99.3711C134.025 99.3711 135.036 99.8519 135.793 100.813C136.331 101.493 136.604 102.34 136.613 103.356H129.928C129.946 104.222 130.222 104.933 130.755 105.489C131.288 106.041 131.947 106.316 132.73 106.316C133.109 106.316 133.476 106.25 133.831 106.118C134.191 105.986 134.496 105.811 134.747 105.592C134.998 105.373 135.269 105.02 135.561 104.532ZM135.561 102.529C135.433 102.019 135.246 101.611 135 101.306C134.758 101 134.437 100.754 134.036 100.567C133.635 100.381 133.214 100.287 132.771 100.287C132.042 100.287 131.416 100.522 130.892 100.991C130.509 101.333 130.219 101.846 130.023 102.529H135.561ZM138.418 99.5625H139.368V100.93C139.746 100.41 140.182 100.021 140.674 99.7607C141.166 99.501 141.715 99.3711 142.321 99.3711C143.379 99.3711 144.283 99.7516 145.035 100.513C145.787 101.274 146.163 102.19 146.163 103.261C146.163 104.354 145.789 105.284 145.042 106.05C144.299 106.811 143.401 107.191 142.349 107.191C141.756 107.191 141.212 107.068 140.715 106.822C140.218 106.576 139.769 106.209 139.368 105.722V109.721H138.418V99.5625ZM142.246 100.294C141.417 100.294 140.717 100.583 140.147 101.162C139.582 101.741 139.3 102.461 139.3 103.322C139.3 103.887 139.425 104.396 139.676 104.847C139.931 105.298 140.293 105.656 140.763 105.92C141.237 106.184 141.736 106.316 142.26 106.316C142.775 106.316 143.258 106.184 143.709 105.92C144.165 105.651 144.527 105.277 144.796 104.799C145.065 104.32 145.199 103.819 145.199 103.295C145.199 102.766 145.065 102.265 144.796 101.791C144.532 101.317 144.174 100.95 143.723 100.69C143.271 100.426 142.779 100.294 142.246 100.294ZM155.371 99.5625V107H154.428V105.722C154.027 106.209 153.576 106.576 153.074 106.822C152.577 107.068 152.033 107.191 151.44 107.191C150.388 107.191 149.488 106.811 148.74 106.05C147.997 105.284 147.626 104.354 147.626 103.261C147.626 102.19 148.002 101.274 148.754 100.513C149.506 99.7516 150.41 99.3711 151.468 99.3711C152.078 99.3711 152.63 99.501 153.122 99.7607C153.619 100.021 154.054 100.41 154.428 100.93V99.5625H155.371ZM151.543 100.294C151.01 100.294 150.518 100.426 150.066 100.69C149.615 100.95 149.255 101.317 148.986 101.791C148.722 102.265 148.59 102.766 148.59 103.295C148.59 103.819 148.724 104.32 148.993 104.799C149.262 105.277 149.622 105.651 150.073 105.92C150.529 106.184 151.017 106.316 151.536 106.316C152.06 106.316 152.557 106.184 153.026 105.92C153.496 105.656 153.856 105.298 154.106 104.847C154.362 104.396 154.489 103.887 154.489 103.322C154.489 102.461 154.204 101.741 153.635 101.162C153.07 100.583 152.372 100.294 151.543 100.294ZM157.169 99.5625H158.146V100.649C158.438 100.221 158.746 99.902 159.069 99.6924C159.393 99.4782 159.73 99.3711 160.081 99.3711C160.345 99.3711 160.628 99.4554 160.929 99.624L160.43 100.431C160.229 100.344 160.061 100.301 159.924 100.301C159.605 100.301 159.297 100.433 159.001 100.697C158.705 100.957 158.479 101.363 158.324 101.914C158.206 102.338 158.146 103.195 158.146 104.484V107H157.169V99.5625ZM168.004 104.532L168.811 104.956C168.546 105.476 168.241 105.895 167.895 106.214C167.548 106.533 167.159 106.777 166.726 106.945C166.293 107.109 165.803 107.191 165.256 107.191C164.044 107.191 163.096 106.795 162.412 106.002C161.729 105.204 161.387 104.304 161.387 103.302C161.387 102.358 161.676 101.518 162.255 100.779C162.989 99.8405 163.971 99.3711 165.201 99.3711C166.468 99.3711 167.48 99.8519 168.236 100.813C168.774 101.493 169.048 102.34 169.057 103.356H162.371C162.389 104.222 162.665 104.933 163.198 105.489C163.731 106.041 164.39 106.316 165.174 106.316C165.552 106.316 165.919 106.25 166.274 106.118C166.634 105.986 166.94 105.811 167.19 105.592C167.441 105.373 167.712 105.02 168.004 104.532ZM168.004 102.529C167.876 102.019 167.689 101.611 167.443 101.306C167.202 101 166.881 100.754 166.479 100.567C166.078 100.381 165.657 100.287 165.215 100.287C164.486 100.287 163.859 100.522 163.335 100.991C162.952 101.333 162.663 101.846 162.467 102.529H168.004ZM171.682 96.8008H172.646V99.5625H174.163V100.383H172.646V107H171.682V100.383H170.376V99.5625H171.682V96.8008ZM181.854 104.532L182.66 104.956C182.396 105.476 182.09 105.895 181.744 106.214C181.398 106.533 181.008 106.777 180.575 106.945C180.142 107.109 179.652 107.191 179.105 107.191C177.893 107.191 176.945 106.795 176.262 106.002C175.578 105.204 175.236 104.304 175.236 103.302C175.236 102.358 175.526 101.518 176.104 100.779C176.838 99.8405 177.82 99.3711 179.051 99.3711C180.318 99.3711 181.329 99.8519 182.086 100.813C182.624 101.493 182.897 102.34 182.906 103.356H176.221C176.239 104.222 176.515 104.933 177.048 105.489C177.581 106.041 178.24 106.316 179.023 106.316C179.402 106.316 179.769 106.25 180.124 106.118C180.484 105.986 180.789 105.811 181.04 105.592C181.291 105.373 181.562 105.02 181.854 104.532ZM181.854 102.529C181.726 102.019 181.539 101.611 181.293 101.306C181.051 101 180.73 100.754 180.329 100.567C179.928 100.381 179.507 100.287 179.064 100.287C178.335 100.287 177.709 100.522 177.185 100.991C176.802 101.333 176.512 101.846 176.316 102.529H181.854ZM189.414 96.8008H190.378V99.5625H191.896V100.383H190.378V107H189.414V100.383H188.108V99.5625H189.414V96.8008ZM192.524 99.5625H193.536L196.093 105.291L198.574 99.5625H199.593L195.156 109.721H194.145L195.58 106.439L192.524 99.5625ZM200.844 99.5625H201.794V100.93C202.172 100.41 202.607 100.021 203.1 99.7607C203.592 99.501 204.141 99.3711 204.747 99.3711C205.804 99.3711 206.709 99.7516 207.461 100.513C208.213 101.274 208.589 102.19 208.589 103.261C208.589 104.354 208.215 105.284 207.468 106.05C206.725 106.811 205.827 107.191 204.774 107.191C204.182 107.191 203.637 107.068 203.141 106.822C202.644 106.576 202.195 106.209 201.794 105.722V109.721H200.844V99.5625ZM204.672 100.294C203.842 100.294 203.143 100.583 202.573 101.162C202.008 101.741 201.726 102.461 201.726 103.322C201.726 103.887 201.851 104.396 202.102 104.847C202.357 105.298 202.719 105.656 203.188 105.92C203.662 106.184 204.161 106.316 204.686 106.316C205.201 106.316 205.684 106.184 206.135 105.92C206.59 105.651 206.953 105.277 207.222 104.799C207.491 104.32 207.625 103.819 207.625 103.295C207.625 102.766 207.491 102.265 207.222 101.791C206.957 101.317 206.6 100.95 206.148 100.69C205.697 100.426 205.205 100.294 204.672 100.294ZM216.648 104.532L217.455 104.956C217.191 105.476 216.885 105.895 216.539 106.214C216.193 106.533 215.803 106.777 215.37 106.945C214.937 107.109 214.447 107.191 213.9 107.191C212.688 107.191 211.74 106.795 211.057 106.002C210.373 105.204 210.031 104.304 210.031 103.302C210.031 102.358 210.321 101.518 210.899 100.779C211.633 99.8405 212.615 99.3711 213.846 99.3711C215.113 99.3711 216.124 99.8519 216.881 100.813C217.419 101.493 217.692 102.34 217.701 103.356H211.016C211.034 104.222 211.31 104.933 211.843 105.489C212.376 106.041 213.035 106.316 213.818 106.316C214.197 106.316 214.563 106.25 214.919 106.118C215.279 105.986 215.584 105.811 215.835 105.592C216.086 105.373 216.357 105.02 216.648 104.532ZM216.648 102.529C216.521 102.019 216.334 101.611 216.088 101.306C215.846 101 215.525 100.754 215.124 100.567C214.723 100.381 214.301 100.287 213.859 100.287C213.13 100.287 212.504 100.522 211.979 100.991C211.597 101.333 211.307 101.846 211.111 102.529H216.648ZM223.231 100.376L222.616 101.012C222.106 100.515 221.607 100.267 221.119 100.267C220.809 100.267 220.543 100.369 220.319 100.574C220.101 100.779 219.991 101.019 219.991 101.292C219.991 101.534 220.082 101.764 220.265 101.982C220.447 102.206 220.83 102.468 221.413 102.769C222.124 103.138 222.607 103.493 222.862 103.835C223.113 104.181 223.238 104.571 223.238 105.004C223.238 105.615 223.024 106.132 222.596 106.556C222.167 106.979 221.632 107.191 220.989 107.191C220.561 107.191 220.151 107.098 219.759 106.911C219.371 106.724 219.05 106.467 218.795 106.139L219.396 105.455C219.884 106.007 220.401 106.282 220.948 106.282C221.331 106.282 221.657 106.159 221.926 105.913C222.195 105.667 222.329 105.378 222.329 105.045C222.329 104.771 222.24 104.528 222.062 104.313C221.885 104.104 221.484 103.84 220.859 103.521C220.189 103.174 219.734 102.832 219.492 102.495C219.251 102.158 219.13 101.773 219.13 101.34C219.13 100.775 219.321 100.305 219.704 99.9316C220.091 99.5579 220.579 99.3711 221.167 99.3711C221.851 99.3711 222.539 99.7061 223.231 100.376ZM232.337 99.3711C233.481 99.3711 234.429 99.7858 235.181 100.615C235.864 101.372 236.206 102.267 236.206 103.302C236.206 104.341 235.844 105.25 235.119 106.029C234.399 106.804 233.472 107.191 232.337 107.191C231.198 107.191 230.266 106.804 229.541 106.029C228.821 105.25 228.461 104.341 228.461 103.302C228.461 102.272 228.803 101.379 229.486 100.622C230.238 99.7881 231.188 99.3711 232.337 99.3711ZM232.337 100.308C231.544 100.308 230.863 100.602 230.293 101.189C229.723 101.777 229.438 102.488 229.438 103.322C229.438 103.86 229.568 104.361 229.828 104.826C230.088 105.291 230.439 105.651 230.881 105.906C231.323 106.157 231.808 106.282 232.337 106.282C232.866 106.282 233.351 106.157 233.793 105.906C234.235 105.651 234.586 105.291 234.846 104.826C235.105 104.361 235.235 103.86 235.235 103.322C235.235 102.488 234.948 101.777 234.374 101.189C233.804 100.602 233.125 100.308 232.337 100.308ZM241.053 96.6914V97.6279C240.702 97.4775 240.401 97.4023 240.15 97.4023C239.964 97.4023 239.809 97.4411 239.686 97.5186C239.562 97.5915 239.485 97.6781 239.453 97.7783C239.421 97.874 239.405 98.1338 239.405 98.5576V99.5625H240.957V100.383H239.398V107H238.441V100.383H237.464V99.5625H238.441V98.4004C238.441 97.8672 238.489 97.4867 238.585 97.2588C238.685 97.0309 238.852 96.8486 239.084 96.7119C239.321 96.5706 239.606 96.5 239.938 96.5C240.248 96.5 240.62 96.5638 241.053 96.6914ZM247.109 96.8008H248.073V99.5625H249.591V100.383H248.073V107H247.109V100.383H245.804V99.5625H247.109V96.8008ZM251.354 96.5C251.573 96.5 251.76 96.5775 251.915 96.7324C252.07 96.8874 252.147 97.0742 252.147 97.293C252.147 97.5072 252.07 97.6917 251.915 97.8467C251.76 98.0016 251.573 98.0791 251.354 98.0791C251.14 98.0791 250.956 98.0016 250.801 97.8467C250.646 97.6917 250.568 97.5072 250.568 97.293C250.568 97.0742 250.646 96.8874 250.801 96.7324C250.956 96.5775 251.14 96.5 251.354 96.5ZM250.876 99.5625H251.84V107H250.876V99.5625ZM253.836 99.5625H254.786V100.93C255.164 100.41 255.6 100.021 256.092 99.7607C256.584 99.501 257.133 99.3711 257.739 99.3711C258.797 99.3711 259.701 99.7516 260.453 100.513C261.205 101.274 261.581 102.19 261.581 103.261C261.581 104.354 261.207 105.284 260.46 106.05C259.717 106.811 258.819 107.191 257.767 107.191C257.174 107.191 256.63 107.068 256.133 106.822C255.636 106.576 255.187 106.209 254.786 105.722V109.721H253.836V99.5625ZM257.664 100.294C256.835 100.294 256.135 100.583 255.565 101.162C255 101.741 254.718 102.461 254.718 103.322C254.718 103.887 254.843 104.396 255.094 104.847C255.349 105.298 255.711 105.656 256.181 105.92C256.655 106.184 257.154 106.316 257.678 106.316C258.193 106.316 258.676 106.184 259.127 105.92C259.583 105.651 259.945 105.277 260.214 104.799C260.483 104.32 260.617 103.819 260.617 103.295C260.617 102.766 260.483 102.265 260.214 101.791C259.95 101.317 259.592 100.95 259.141 100.69C258.689 100.426 258.197 100.294 257.664 100.294ZM267.118 100.376L266.503 101.012C265.993 100.515 265.493 100.267 265.006 100.267C264.696 100.267 264.429 100.369 264.206 100.574C263.987 100.779 263.878 101.019 263.878 101.292C263.878 101.534 263.969 101.764 264.151 101.982C264.334 102.206 264.716 102.468 265.3 102.769C266.011 103.138 266.494 103.493 266.749 103.835C267 104.181 267.125 104.571 267.125 105.004C267.125 105.615 266.911 106.132 266.482 106.556C266.054 106.979 265.519 107.191 264.876 107.191C264.448 107.191 264.037 107.098 263.646 106.911C263.258 106.724 262.937 106.467 262.682 106.139L263.283 105.455C263.771 106.007 264.288 106.282 264.835 106.282C265.218 106.282 265.544 106.159 265.812 105.913C266.081 105.667 266.216 105.378 266.216 105.045C266.216 104.771 266.127 104.528 265.949 104.313C265.771 104.104 265.37 103.84 264.746 103.521C264.076 103.174 263.62 102.832 263.379 102.495C263.137 102.158 263.017 101.773 263.017 101.34C263.017 100.775 263.208 100.305 263.591 99.9316C263.978 99.5579 264.466 99.3711 265.054 99.3711C265.737 99.3711 266.425 99.7061 267.118 100.376ZM271.698 99.5625H272.683L274.959 104.963L277.345 99.5625H277.516L279.895 104.963L282.212 99.5625H283.21L279.983 107H279.799L277.434 101.675L275.048 107H274.87L271.698 99.5625ZM290.6 104.532L291.406 104.956C291.142 105.476 290.837 105.895 290.49 106.214C290.144 106.533 289.754 106.777 289.321 106.945C288.888 107.109 288.398 107.191 287.852 107.191C286.639 107.191 285.691 106.795 285.008 106.002C284.324 105.204 283.982 104.304 283.982 103.302C283.982 102.358 284.272 101.518 284.851 100.779C285.584 99.8405 286.566 99.3711 287.797 99.3711C289.064 99.3711 290.076 99.8519 290.832 100.813C291.37 101.493 291.643 102.34 291.652 103.356H284.967C284.985 104.222 285.261 104.933 285.794 105.489C286.327 106.041 286.986 106.316 287.77 106.316C288.148 106.316 288.515 106.25 288.87 106.118C289.23 105.986 289.535 105.811 289.786 105.592C290.037 105.373 290.308 105.02 290.6 104.532ZM290.6 102.529C290.472 102.019 290.285 101.611 290.039 101.306C289.798 101 289.476 100.754 289.075 100.567C288.674 100.381 288.253 100.287 287.811 100.287C287.081 100.287 286.455 100.522 285.931 100.991C285.548 101.333 285.258 101.846 285.062 102.529H290.6ZM300.847 99.3711C301.991 99.3711 302.938 99.7858 303.69 100.615C304.374 101.372 304.716 102.267 304.716 103.302C304.716 104.341 304.354 105.25 303.629 106.029C302.909 106.804 301.981 107.191 300.847 107.191C299.707 107.191 298.775 106.804 298.051 106.029C297.331 105.25 296.971 104.341 296.971 103.302C296.971 102.272 297.312 101.379 297.996 100.622C298.748 99.7881 299.698 99.3711 300.847 99.3711ZM300.847 100.308C300.054 100.308 299.372 100.602 298.803 101.189C298.233 101.777 297.948 102.488 297.948 103.322C297.948 103.86 298.078 104.361 298.338 104.826C298.598 105.291 298.949 105.651 299.391 105.906C299.833 106.157 300.318 106.282 300.847 106.282C301.375 106.282 301.861 106.157 302.303 105.906C302.745 105.651 303.096 105.291 303.355 104.826C303.615 104.361 303.745 103.86 303.745 103.322C303.745 102.488 303.458 101.777 302.884 101.189C302.314 100.602 301.635 100.308 300.847 100.308ZM309.562 96.6914V97.6279C309.212 97.4775 308.911 97.4023 308.66 97.4023C308.473 97.4023 308.318 97.4411 308.195 97.5186C308.072 97.5915 307.995 97.6781 307.963 97.7783C307.931 97.874 307.915 98.1338 307.915 98.5576V99.5625H309.467V100.383H307.908V107H306.951V100.383H305.974V99.5625H306.951V98.4004C306.951 97.8672 306.999 97.4867 307.095 97.2588C307.195 97.0309 307.361 96.8486 307.594 96.7119C307.831 96.5706 308.116 96.5 308.448 96.5C308.758 96.5 309.13 96.5638 309.562 96.6914ZM313.965 96.6914V97.6279C313.614 97.4775 313.313 97.4023 313.062 97.4023C312.876 97.4023 312.721 97.4411 312.598 97.5186C312.475 97.5915 312.397 97.6781 312.365 97.7783C312.333 97.874 312.317 98.1338 312.317 98.5576V99.5625H313.869V100.383H312.311V107H311.354V100.383H310.376V99.5625H311.354V98.4004C311.354 97.8672 311.401 97.4867 311.497 97.2588C311.597 97.0309 311.764 96.8486 311.996 96.7119C312.233 96.5706 312.518 96.5 312.851 96.5C313.16 96.5 313.532 96.5638 313.965 96.6914ZM321.566 104.532L322.373 104.956C322.109 105.476 321.803 105.895 321.457 106.214C321.111 106.533 320.721 106.777 320.288 106.945C319.855 107.109 319.365 107.191 318.818 107.191C317.606 107.191 316.658 106.795 315.975 106.002C315.291 105.204 314.949 104.304 314.949 103.302C314.949 102.358 315.239 101.518 315.817 100.779C316.551 99.8405 317.533 99.3711 318.764 99.3711C320.031 99.3711 321.042 99.8519 321.799 100.813C322.337 101.493 322.61 102.34 322.619 103.356H315.934C315.952 104.222 316.228 104.933 316.761 105.489C317.294 106.041 317.952 106.316 318.736 106.316C319.115 106.316 319.481 106.25 319.837 106.118C320.197 105.986 320.502 105.811 320.753 105.592C321.004 105.373 321.275 105.02 321.566 104.532ZM321.566 102.529C321.439 102.019 321.252 101.611 321.006 101.306C320.764 101 320.443 100.754 320.042 100.567C319.641 100.381 319.219 100.287 318.777 100.287C318.048 100.287 317.422 100.522 316.897 100.991C316.515 101.333 316.225 101.846 316.029 102.529H321.566ZM324.048 99.5625H325.025V100.649C325.317 100.221 325.625 99.902 325.948 99.6924C326.272 99.4782 326.609 99.3711 326.96 99.3711C327.224 99.3711 327.507 99.4554 327.808 99.624L327.309 100.431C327.108 100.344 326.939 100.301 326.803 100.301C326.484 100.301 326.176 100.433 325.88 100.697C325.584 100.957 325.358 101.363 325.203 101.914C325.085 102.338 325.025 103.195 325.025 104.484V107H324.048V99.5625ZM332.839 96.5C333.058 96.5 333.244 96.5775 333.399 96.7324C333.554 96.8874 333.632 97.0742 333.632 97.293C333.632 97.5072 333.554 97.6917 333.399 97.8467C333.244 98.0016 333.058 98.0791 332.839 98.0791C332.625 98.0791 332.44 98.0016 332.285 97.8467C332.13 97.6917 332.053 97.5072 332.053 97.293C332.053 97.0742 332.13 96.8874 332.285 96.7324C332.44 96.5775 332.625 96.5 332.839 96.5ZM332.36 99.5625H333.324V107H332.36V99.5625ZM335.307 99.5625H336.264V100.896C336.646 100.385 337.07 100.005 337.535 99.7539C338 99.4987 338.506 99.3711 339.053 99.3711C339.609 99.3711 340.101 99.5124 340.529 99.7949C340.962 100.077 341.281 100.458 341.486 100.937C341.691 101.415 341.794 102.16 341.794 103.172V107H340.844V103.452C340.844 102.595 340.807 102.023 340.734 101.736C340.62 101.244 340.406 100.875 340.092 100.629C339.777 100.378 339.367 100.253 338.861 100.253C338.283 100.253 337.763 100.444 337.303 100.827C336.847 101.21 336.546 101.684 336.4 102.249C336.309 102.618 336.264 103.293 336.264 104.272V107H335.307V99.5625ZM348.521 99.2754H347.495C347.682 98.446 348.04 97.8079 348.568 97.3613C349.097 96.9147 349.721 96.6914 350.441 96.6914C350.965 96.6914 351.453 96.8122 351.904 97.0537C352.36 97.2907 352.711 97.612 352.957 98.0176C353.208 98.4232 353.333 98.847 353.333 99.2891C353.333 100.155 352.902 100.841 352.041 101.347C352.524 101.543 352.921 101.83 353.23 102.208C353.668 102.741 353.887 103.338 353.887 103.999C353.887 104.569 353.736 105.113 353.436 105.633C353.135 106.148 352.725 106.547 352.205 106.829C351.686 107.112 351.104 107.253 350.462 107.253C349.596 107.253 348.874 107.005 348.295 106.508C347.716 106.007 347.338 105.273 347.16 104.307H348.145C348.318 104.958 348.566 105.43 348.89 105.722C349.304 106.091 349.833 106.275 350.476 106.275C351.205 106.275 351.79 106.057 352.232 105.619C352.674 105.182 352.896 104.669 352.896 104.081C352.896 103.689 352.784 103.322 352.561 102.98C352.342 102.639 352.046 102.381 351.672 102.208C351.303 102.035 350.729 101.928 349.949 101.887V100.964C350.41 100.964 350.829 100.884 351.207 100.725C351.585 100.561 351.859 100.353 352.027 100.103C352.201 99.8519 352.287 99.5785 352.287 99.2822C352.287 98.8447 352.112 98.4665 351.761 98.1475C351.414 97.8285 350.975 97.6689 350.441 97.6689C350.008 97.6689 349.635 97.792 349.32 98.0381C349.006 98.2796 348.739 98.6921 348.521 99.2754ZM365.788 99.5625H366.752V105.489C366.752 106.533 366.661 107.296 366.479 107.779C366.228 108.463 365.793 108.989 365.173 109.358C364.553 109.728 363.808 109.912 362.938 109.912C362.299 109.912 361.725 109.821 361.215 109.639C360.709 109.461 360.297 109.219 359.978 108.914C359.659 108.613 359.365 108.171 359.096 107.588H360.135C360.417 108.08 360.782 108.445 361.229 108.682C361.675 108.919 362.229 109.037 362.89 109.037C363.541 109.037 364.09 108.914 364.537 108.668C364.988 108.426 365.31 108.121 365.501 107.752C365.692 107.383 365.788 106.788 365.788 105.968V105.585C365.428 106.041 364.988 106.392 364.469 106.638C363.949 106.879 363.398 107 362.814 107C362.131 107 361.488 106.831 360.887 106.494C360.285 106.152 359.82 105.694 359.492 105.12C359.164 104.546 359 103.915 359 103.227C359 102.538 359.171 101.898 359.513 101.306C359.854 100.709 360.326 100.237 360.928 99.8906C361.534 99.5443 362.172 99.3711 362.842 99.3711C363.398 99.3711 363.915 99.4873 364.394 99.7197C364.877 99.9476 365.341 100.326 365.788 100.854V99.5625ZM362.965 100.294C362.423 100.294 361.919 100.426 361.454 100.69C360.989 100.95 360.625 101.312 360.36 101.777C360.096 102.238 359.964 102.737 359.964 103.274C359.964 104.09 360.237 104.765 360.784 105.298C361.331 105.831 362.04 106.098 362.91 106.098C363.79 106.098 364.496 105.833 365.029 105.305C365.567 104.776 365.836 104.081 365.836 103.22C365.836 102.659 365.713 102.16 365.467 101.723C365.221 101.281 364.872 100.932 364.421 100.677C363.97 100.422 363.484 100.294 362.965 100.294ZM368.44 99.5625H369.418V100.649C369.71 100.221 370.017 99.902 370.341 99.6924C370.664 99.4782 371.002 99.3711 371.353 99.3711C371.617 99.3711 371.899 99.4554 372.2 99.624L371.701 100.431C371.501 100.344 371.332 100.301 371.195 100.301C370.876 100.301 370.569 100.433 370.272 100.697C369.976 100.957 369.751 101.363 369.596 101.914C369.477 102.338 369.418 103.195 369.418 104.484V107H368.44V99.5625ZM376.534 99.3711C377.678 99.3711 378.626 99.7858 379.378 100.615C380.062 101.372 380.403 102.267 380.403 103.302C380.403 104.341 380.041 105.25 379.316 106.029C378.596 106.804 377.669 107.191 376.534 107.191C375.395 107.191 374.463 106.804 373.738 106.029C373.018 105.25 372.658 104.341 372.658 103.302C372.658 102.272 373 101.379 373.684 100.622C374.436 99.7881 375.386 99.3711 376.534 99.3711ZM376.534 100.308C375.741 100.308 375.06 100.602 374.49 101.189C373.921 101.777 373.636 102.488 373.636 103.322C373.636 103.86 373.766 104.361 374.025 104.826C374.285 105.291 374.636 105.651 375.078 105.906C375.52 106.157 376.006 106.282 376.534 106.282C377.063 106.282 377.548 106.157 377.99 105.906C378.432 105.651 378.783 105.291 379.043 104.826C379.303 104.361 379.433 103.86 379.433 103.322C379.433 102.488 379.146 101.777 378.571 101.189C378.002 100.602 377.323 100.308 376.534 100.308ZM382.064 99.5625H383.028V103.035C383.028 103.883 383.074 104.466 383.165 104.785C383.302 105.241 383.562 105.601 383.944 105.865C384.332 106.13 384.792 106.262 385.325 106.262C385.858 106.262 386.31 106.134 386.679 105.879C387.052 105.619 387.31 105.28 387.451 104.86C387.547 104.573 387.595 103.965 387.595 103.035V99.5625H388.572V103.213C388.572 104.238 388.451 105.011 388.21 105.53C387.973 106.05 387.613 106.458 387.13 106.754C386.651 107.046 386.05 107.191 385.325 107.191C384.601 107.191 383.994 107.046 383.507 106.754C383.024 106.458 382.661 106.048 382.42 105.523C382.183 104.995 382.064 104.202 382.064 103.145V99.5625ZM390.719 99.5625H391.669V100.93C392.047 100.41 392.482 100.021 392.975 99.7607C393.467 99.501 394.016 99.3711 394.622 99.3711C395.679 99.3711 396.584 99.7516 397.336 100.513C398.088 101.274 398.464 102.19 398.464 103.261C398.464 104.354 398.09 105.284 397.343 106.05C396.6 106.811 395.702 107.191 394.649 107.191C394.057 107.191 393.512 107.068 393.016 106.822C392.519 106.576 392.07 106.209 391.669 105.722V109.721H390.719V99.5625ZM394.547 100.294C393.717 100.294 393.018 100.583 392.448 101.162C391.883 101.741 391.601 102.461 391.601 103.322C391.601 103.887 391.726 104.396 391.977 104.847C392.232 105.298 392.594 105.656 393.063 105.92C393.537 106.184 394.036 106.316 394.561 106.316C395.076 106.316 395.559 106.184 396.01 105.92C396.465 105.651 396.828 105.277 397.097 104.799C397.366 104.32 397.5 103.819 397.5 103.295C397.5 102.766 397.366 102.265 397.097 101.791C396.832 101.317 396.475 100.95 396.023 100.69C395.572 100.426 395.08 100.294 394.547 100.294ZM404.001 100.376L403.386 101.012C402.875 100.515 402.376 100.267 401.889 100.267C401.579 100.267 401.312 100.369 401.089 100.574C400.87 100.779 400.761 101.019 400.761 101.292C400.761 101.534 400.852 101.764 401.034 101.982C401.216 102.206 401.599 102.468 402.183 102.769C402.894 103.138 403.377 103.493 403.632 103.835C403.882 104.181 404.008 104.571 404.008 105.004C404.008 105.615 403.794 106.132 403.365 106.556C402.937 106.979 402.401 107.191 401.759 107.191C401.33 107.191 400.92 107.098 400.528 106.911C400.141 106.724 399.82 106.467 399.564 106.139L400.166 105.455C400.654 106.007 401.171 106.282 401.718 106.282C402.101 106.282 402.426 106.159 402.695 105.913C402.964 105.667 403.099 105.378 403.099 105.045C403.099 104.771 403.01 104.528 402.832 104.313C402.654 104.104 402.253 103.84 401.629 103.521C400.959 103.174 400.503 102.832 400.262 102.495C400.02 102.158 399.899 101.773 399.899 101.34C399.899 100.775 400.091 100.305 400.474 99.9316C400.861 99.5579 401.349 99.3711 401.937 99.3711C402.62 99.3711 403.308 99.7061 404.001 100.376Z" fill="white"/>
</svg>
