<svg width="25" height="17" viewBox="0 0 25 17" fill="none" xmlns="http://www.w3.org/2000/svg">
<path d="M11.4583 6.375H6.25V4.25H11.4583C12.0333 4.25 12.5 3.774 12.5 3.1875C12.5 2.601 12.0333 2.125 11.4583 2.125C11.0385 2.125 10.6802 2.38212 10.5156 2.74869L8.69375 1.73294C9.21354 0.707625 10.25 0 11.4583 0C15.5948 0 15.5927 6.375 11.4583 6.375ZM18.75 13.8125C18.75 12.053 17.35 10.625 15.625 10.625H8.33333V12.75H15.625C16.2 12.75 16.6667 13.226 16.6667 13.8125C16.6667 14.399 16.2 14.875 15.625 14.875C15.2052 14.875 14.8469 14.6179 14.6823 14.2513L12.8604 15.2671C13.3802 16.2924 14.4167 17 15.625 17C17.35 17 18.75 15.572 18.75 13.8125ZM19.8062 5.67906C19.8917 4.879 20.5479 4.25 21.3542 4.25C22.2156 4.25 22.9167 4.96506 22.9167 5.84375C22.9167 6.72244 22.2156 7.4375 21.3542 7.4375H12.5V9.5625H21.3542C23.3667 9.5625 25 7.8965 25 5.84375C25 3.791 23.3667 2.125 21.3542 2.125C19.6625 2.125 18.2531 3.31075 17.8417 4.90556L19.8062 5.67906ZM10.4167 7.4375H2.08333V9.5625H10.4167V7.4375ZM6.25 10.625H0V12.75H6.25V10.625ZM4.16667 4.25H0V6.375H4.16667V4.25Z" fill="#00C944"/>
</svg>
