<svg width="30" height="27" viewBox="0 0 30 27" fill="none" xmlns="http://www.w3.org/2000/svg">
<path d="M13.75 10.125H7.5V6.75H13.75C14.44 6.75 15 5.994 15 5.0625C15 4.131 14.44 3.375 13.75 3.375C13.2463 3.375 12.8163 3.78337 12.6188 4.36556L10.4325 2.75231C11.0562 1.12388 12.3 0 13.75 0C18.7137 0 18.7113 10.125 13.75 10.125ZM22.5 21.9375C22.5 19.143 20.82 16.875 18.75 16.875H10V20.25H18.75C19.44 20.25 20 21.006 20 21.9375C20 22.869 19.44 23.625 18.75 23.625C18.2463 23.625 17.8163 23.2166 17.6188 22.6344L15.4325 24.2477C16.0562 25.8761 17.3 27 18.75 27C20.82 27 22.5 24.732 22.5 21.9375ZM23.7675 9.01969C23.87 7.749 24.6575 6.75 25.625 6.75C26.6588 6.75 27.5 7.88569 27.5 9.28125C27.5 10.6768 26.6588 11.8125 25.625 11.8125H15V15.1875H25.625C28.04 15.1875 30 12.5415 30 9.28125C30 6.021 28.04 3.375 25.625 3.375C23.595 3.375 21.9038 5.25825 21.41 7.79119L23.7675 9.01969ZM12.5 11.8125H2.5V15.1875H12.5V11.8125ZM7.5 16.875H0V20.25H7.5V16.875ZM5 6.75H0V10.125H5V6.75Z" fill="#00C944"/>
</svg>
