<svg width="143" height="104" viewBox="0 0 143 104" fill="none" xmlns="http://www.w3.org/2000/svg">
<rect width="143" height="104" fill="#1E1D22"/>
<path d="M43.0596 82.1562H44.5205V88H43.0596V87.3823C42.7731 87.6545 42.4849 87.8514 42.1948 87.9731C41.9084 88.0913 41.5968 88.1504 41.2603 88.1504C40.5047 88.1504 39.8512 87.8586 39.2998 87.2749C38.7484 86.6877 38.4727 85.959 38.4727 85.0889C38.4727 84.1865 38.7394 83.4471 39.2729 82.8706C39.8065 82.2941 40.4546 82.0059 41.2173 82.0059C41.5682 82.0059 41.8976 82.0721 42.2056 82.2046C42.5135 82.3371 42.7982 82.5358 43.0596 82.8008V82.1562ZM41.5181 83.3594C41.0633 83.3594 40.6855 83.5205 40.3848 83.8428C40.084 84.1615 39.9336 84.5715 39.9336 85.0728C39.9336 85.5776 40.0858 85.993 40.3901 86.3188C40.6981 86.6447 41.0758 86.8076 41.5234 86.8076C41.9854 86.8076 42.3685 86.6483 42.6729 86.3296C42.9772 86.0073 43.1294 85.5866 43.1294 85.0674C43.1294 84.5589 42.9772 84.1471 42.6729 83.832C42.3685 83.5169 41.9836 83.3594 41.5181 83.3594ZM51.0913 79.9004H52.5522V88H51.0913V87.3823C50.8048 87.6545 50.5166 87.8514 50.2265 87.9731C49.9401 88.0913 49.6286 88.1504 49.292 88.1504C48.5364 88.1504 47.883 87.8586 47.3315 87.2749C46.7801 86.6877 46.5044 85.959 46.5044 85.0889C46.5044 84.1865 46.7711 83.4471 47.3047 82.8706C47.8382 82.2941 48.4863 82.0059 49.249 82.0059C49.5999 82.0059 49.9293 82.0721 50.2373 82.2046C50.5452 82.3371 50.8299 82.5358 51.0913 82.8008V79.9004ZM49.5498 83.3594C49.095 83.3594 48.7173 83.5205 48.4165 83.8428C48.1157 84.1615 47.9653 84.5715 47.9653 85.0728C47.9653 85.5776 48.1175 85.993 48.4219 86.3188C48.7298 86.6447 49.1076 86.8076 49.5552 86.8076C50.0171 86.8076 50.4002 86.6483 50.7046 86.3296C51.0089 86.0073 51.1611 85.5866 51.1611 85.0674C51.1611 84.5589 51.0089 84.1471 50.7046 83.832C50.4002 83.5169 50.0153 83.3594 49.5498 83.3594ZM54.1762 82.1562H55.6694L57.1464 85.6045L58.6181 82.1562H60.1059L57.6191 88H56.6684L54.1762 82.1562ZM67.5952 85.5024H62.8847C62.9527 85.9178 63.1336 86.249 63.4272 86.4961C63.7244 86.7396 64.1022 86.8613 64.5605 86.8613C65.1083 86.8613 65.5792 86.6698 65.9731 86.2866L67.2084 86.8667C66.9005 87.3035 66.5317 87.6276 66.102 87.8389C65.6723 88.0465 65.1621 88.1504 64.5712 88.1504C63.6546 88.1504 62.908 87.8621 62.3315 87.2856C61.755 86.7056 61.4667 85.9805 61.4667 85.1104C61.4667 84.2188 61.7532 83.4793 62.3261 82.8921C62.9026 82.3013 63.6241 82.0059 64.4907 82.0059C65.4109 82.0059 66.1593 82.3013 66.7358 82.8921C67.3123 83.4793 67.6005 84.2563 67.6005 85.2231L67.5952 85.5024ZM66.1235 84.3477C66.0268 84.0218 65.8352 83.7568 65.5488 83.5527C65.2659 83.3486 64.9365 83.2466 64.5605 83.2466C64.1523 83.2466 63.7942 83.3612 63.4863 83.5903C63.2929 83.7336 63.1139 83.986 62.9492 84.3477H66.1235ZM69.5575 82.1562H71.0185V82.7524C71.3515 82.4731 71.6523 82.2798 71.9208 82.1724C72.193 82.0614 72.4705 82.0059 72.7533 82.0059C73.3334 82.0059 73.8258 82.2082 74.2304 82.6128C74.5706 82.9565 74.7406 83.465 74.7406 84.1382V88H73.2904V85.438C73.2904 84.7397 73.2582 84.276 73.1938 84.0469C73.1329 83.8177 73.0237 83.644 72.8661 83.5259C72.7122 83.4041 72.5206 83.3433 72.2914 83.3433C71.9942 83.3433 71.7382 83.4435 71.5234 83.644C71.3121 83.841 71.1653 84.1149 71.0829 84.4658C71.04 84.6484 71.0185 85.0441 71.0185 85.6528V88H69.5575V82.1562ZM77.1112 80.0024H78.5722V82.1562H79.4423V83.4185H78.5722V88H77.1112V83.4185H76.3593V82.1562H77.1112V80.0024ZM80.9965 82.1562H82.4789V84.9707C82.4789 85.5186 82.5165 85.8999 82.5917 86.1147C82.6669 86.326 82.7868 86.4907 82.9515 86.6089C83.1198 86.7271 83.3257 86.7861 83.5692 86.7861C83.8127 86.7861 84.0186 86.7288 84.1869 86.6143C84.3588 86.4961 84.4859 86.3242 84.5682 86.0986C84.6291 85.9303 84.6595 85.5705 84.6595 85.019V82.1562H86.1312V84.6323C86.1312 85.6528 86.0507 86.3511 85.8895 86.7271C85.6926 87.1854 85.4026 87.5381 85.0194 87.7852C84.6363 88.0286 84.1493 88.1504 83.5585 88.1504C82.9175 88.1504 82.3983 88.0072 82.0009 87.7207C81.607 87.4342 81.3295 87.035 81.1683 86.5229C81.0538 86.1685 80.9965 85.5239 80.9965 84.5894V82.1562ZM88.0345 82.1562H89.2914V82.8921C89.4274 82.6021 89.6083 82.3818 89.8338 82.2314C90.0594 82.0811 90.3065 82.0059 90.5751 82.0059C90.7648 82.0059 90.9636 82.056 91.1712 82.1562L90.7147 83.4185C90.5428 83.3325 90.4014 83.2896 90.2904 83.2896C90.0648 83.2896 89.8732 83.4292 89.7157 83.7085C89.5617 83.9878 89.4847 84.5356 89.4847 85.3521L89.4901 85.6367V88H88.0345V82.1562ZM98.5262 85.5024H93.8158C93.8838 85.9178 94.0646 86.249 94.3582 86.4961C94.6554 86.7396 95.0332 86.8613 95.4915 86.8613C96.0394 86.8613 96.5103 86.6698 96.9041 86.2866L98.1395 86.8667C97.8315 87.3035 97.4627 87.6276 97.033 87.8389C96.6034 88.0465 96.0931 88.1504 95.5023 88.1504C94.5856 88.1504 93.839 87.8621 93.2625 87.2856C92.686 86.7056 92.3978 85.9805 92.3978 85.1104C92.3978 84.2188 92.6843 83.4793 93.2572 82.8921C93.8337 82.3013 94.5552 82.0059 95.4217 82.0059C96.342 82.0059 97.0903 82.3013 97.6668 82.8921C98.2433 83.4793 98.5316 84.2563 98.5316 85.2231L98.5262 85.5024ZM97.0545 84.3477C96.9579 84.0218 96.7663 83.7568 96.4798 83.5527C96.1969 83.3486 95.8675 83.2466 95.4915 83.2466C95.0833 83.2466 94.7253 83.3612 94.4173 83.5903C94.224 83.7336 94.0449 83.986 93.8802 84.3477H97.0545ZM100.145 82.1562H101.402V82.8921C101.538 82.6021 101.719 82.3818 101.944 82.2314C102.17 82.0811 102.417 82.0059 102.685 82.0059C102.875 82.0059 103.074 82.056 103.282 82.1562L102.825 83.4185C102.653 83.3325 102.512 83.2896 102.401 83.2896C102.175 83.2896 101.984 83.4292 101.826 83.7085C101.672 83.9878 101.595 84.5356 101.595 85.3521L101.6 85.6367V88H100.145V82.1562Z" fill="white"/>
<path d="M83.9167 45.125H78.5V42.75H83.9167C84.5147 42.75 85 42.218 85 41.5625C85 40.907 84.5147 40.375 83.9167 40.375C83.4801 40.375 83.1074 40.6624 82.9363 41.0721L81.0415 39.9368C81.5821 38.7909 82.66 38 83.9167 38C88.2186 38 88.2164 45.125 83.9167 45.125ZM91.5 53.4375C91.5 51.471 90.044 49.875 88.25 49.875H80.6667V52.25H88.25C88.848 52.25 89.3333 52.782 89.3333 53.4375C89.3333 54.093 88.848 54.625 88.25 54.625C87.8134 54.625 87.4408 54.3376 87.2696 53.9279L85.3748 55.0632C85.9154 56.2091 86.9933 57 88.25 57C90.044 57 91.5 55.404 91.5 53.4375ZM92.5985 44.3472C92.6873 43.453 93.3698 42.75 94.2083 42.75C95.1043 42.75 95.8333 43.5492 95.8333 44.5312C95.8333 45.5133 95.1043 46.3125 94.2083 46.3125H85V48.6875H94.2083C96.3013 48.6875 98 46.8255 98 44.5312C98 42.237 96.3013 40.375 94.2083 40.375C92.449 40.375 90.9833 41.7002 90.5553 43.4827L92.5985 44.3472V44.3472ZM82.8333 46.3125H74.1667V48.6875H82.8333V46.3125ZM78.5 49.875H72V52.25H78.5V49.875ZM76.3333 42.75H72V45.125H76.3333V42.75Z" fill="#00C944"/>
<path d="M100.25 26V68H42.75V26H100.25ZM106 20H37V74H106V20ZM77.25 60.791V62H48.5V60.749C48.4885 57.413 48.6265 55.508 52.3065 54.62C56.3401 53.648 60.3191 52.781 58.4073 49.097C52.7349 38.186 56.7886 32 62.875 32C68.8464 32 72.9979 37.955 67.3485 49.097C65.4884 52.757 69.3265 53.627 73.4464 54.62C77.1379 55.511 77.2644 57.428 77.25 60.791Z" fill="white"/>
</svg>
