<svg width="53" height="39" viewBox="0 0 53 39" fill="none" xmlns="http://www.w3.org/2000/svg">
<path d="M36.124 18.1187H31.8981V16.4125H36.124C36.5905 16.4125 36.9691 16.0303 36.9691 15.5594C36.9691 15.0884 36.5905 14.7062 36.124 14.7062C35.7834 14.7062 35.4926 14.9127 35.3591 15.207L33.8809 14.3914C34.3026 13.5682 35.1436 13 36.124 13C39.4801 13 39.4784 18.1187 36.124 18.1187ZM42.0401 24.0906C42.0401 22.6778 40.9042 21.5312 39.5046 21.5312H33.5885V23.2375H39.5046C39.9711 23.2375 40.3498 23.6197 40.3498 24.0906C40.3498 24.5616 39.9711 24.9437 39.5046 24.9437C39.164 24.9437 38.8733 24.7373 38.7397 24.443L37.2615 25.2586C37.6833 26.0818 38.5242 26.65 39.5046 26.65C40.9042 26.65 42.0401 25.5034 42.0401 24.0906ZM42.8971 17.56C42.9664 16.9176 43.4989 16.4125 44.153 16.4125C44.852 16.4125 45.4208 16.9867 45.4208 17.6922C45.4208 18.3977 44.852 18.9719 44.153 18.9719H36.9691V20.6781H44.153C45.7859 20.6781 47.1111 19.3404 47.1111 17.6922C47.1111 16.0439 45.7859 14.7062 44.153 14.7062C42.7805 14.7062 41.637 15.6583 41.3031 16.9389L42.8971 17.56ZM35.2788 18.9719H28.5175V20.6781H35.2788V18.9719ZM31.8981 21.5312H26.8271V23.2375H31.8981V21.5312ZM30.2078 16.4125H26.8271V18.1187H30.2078V16.4125Z" fill="#00C944"/>
<path d="M48.5833 4.33333V34.6667H4.41667V4.33333H48.5833ZM53 0H0V39H53V0ZM30.9167 29.4602V30.3333H8.83333V29.4298C8.8245 27.0205 8.9305 25.6447 11.7572 25.0033C14.8555 24.3013 17.9118 23.6752 16.4433 21.0145C12.0862 13.1343 15.2 8.66667 19.875 8.66667C24.4617 8.66667 27.6505 12.9675 23.3112 21.0145C21.8824 23.6578 24.8305 24.2862 27.995 25.0033C30.8305 25.6468 30.9277 27.0313 30.9167 29.4602Z" fill="white"/>
</svg>
