<svg width="25" height="25" viewBox="0 0 25 25" fill="none" xmlns="http://www.w3.org/2000/svg">
<path d="M22.9167 2.08333V22.9167H2.08333V2.08333H22.9167ZM25 0H0V25H25V0ZM20.8333 7.29167H12.5V8.33333H20.8333V7.29167ZM20.8333 12.5H12.5V13.5417H20.8333V12.5ZM20.8333 17.7083H12.5V18.75H20.8333V17.7083ZM9.87917 5.93333L9.13958 5.20833L6.48021 7.92396L4.87708 6.41146L4.15 7.15104L6.49375 9.375L9.87917 5.93333V5.93333ZM9.87917 11.1417L9.13958 10.4167L6.48125 13.1323L4.87812 11.6198L4.15104 12.3583L6.49375 14.5833L9.87917 11.1417V11.1417ZM9.87917 16.35L9.13958 15.625L6.48125 18.3406L4.87812 16.8281L4.15104 17.5667L6.49375 19.7917L9.87917 16.35V16.35Z" fill="white"/>
</svg>
