<svg width="37" height="31" viewBox="0 0 37 31" fill="none" xmlns="http://www.w3.org/2000/svg">
<path fill-rule="evenodd" clip-rule="evenodd" d="M17.7292 31L4.625 24.6098V19.0396L12.95 23.4388L17.7292 18.6395V31ZM19.2708 30.9986V18.5901L24.1456 23.3007L32.375 19.1326V24.6098L19.2708 30.9986ZM3.33154 16.7315L0 14.9786L4.625 10.3258L0 6.34795L13.4403 0L18.3967 3.36068L23.5227 0L37 6.42686L32.3827 10.3315L37 15.183L33.5436 16.9316V16.9302L24.4431 21.538L19.2816 16.5484L30.7146 10.9655L18.5015 4.805L6.28692 10.9655L17.7292 16.5131V16.547L12.6463 21.6507L4.625 17.4121L4.37833 17.2825L3.33154 16.7287V16.7315V16.7315Z" fill="black"/>
</svg>
