<svg width="33" height="22" viewBox="0 0 33 22" fill="none" xmlns="http://www.w3.org/2000/svg">
<rect width="33" height="22" fill="black"/>
<path d="M14.1838 8.58496L12.8371 9.91797C11.9849 9.01562 10.9914 8.56445 9.85668 8.56445C8.86775 8.56445 8.03832 8.89258 7.3684 9.54883C6.70303 10.2051 6.37035 11.0026 6.37035 11.9414C6.37035 12.9121 6.71671 13.7347 7.40941 14.4092C8.10212 15.0837 8.95661 15.4209 9.97289 15.4209C10.6337 15.4209 11.1897 15.2819 11.6409 15.0039C12.0966 14.7259 12.4635 14.2907 12.7414 13.6982H9.82934V11.9004H14.8879L14.9016 12.3242C14.9016 13.2038 14.6737 14.0378 14.218 14.8262C13.7623 15.6146 13.1721 16.2161 12.4475 16.6309C11.7229 17.0456 10.873 17.2529 9.8977 17.2529C8.85408 17.2529 7.92211 17.0273 7.1018 16.5762C6.28604 16.1204 5.63891 15.4733 5.16039 14.6348C4.68643 13.7962 4.44945 12.8916 4.44945 11.9209C4.44945 10.5902 4.88923 9.43262 5.76879 8.44824C6.81241 7.27702 8.17048 6.69141 9.84301 6.69141C10.718 6.69141 11.536 6.85319 12.2971 7.17676C12.9397 7.4502 13.5686 7.9196 14.1838 8.58496ZM26.9216 8.58496L25.575 9.91797C24.7227 9.01562 23.7293 8.56445 22.5945 8.56445C21.6056 8.56445 20.7761 8.89258 20.1062 9.54883C19.4408 10.2051 19.1082 11.0026 19.1082 11.9414C19.1082 12.9121 19.4545 13.7347 20.1472 14.4092C20.8399 15.0837 21.6944 15.4209 22.7107 15.4209C23.3715 15.4209 23.9275 15.2819 24.3787 15.0039C24.8344 14.7259 25.2013 14.2907 25.4793 13.6982H22.5671V11.9004H27.6257L27.6394 12.3242C27.6394 13.2038 27.4115 14.0378 26.9558 14.8262C26.5001 15.6146 25.9099 16.2161 25.1853 16.6309C24.4607 17.0456 23.6108 17.2529 22.6355 17.2529C21.5919 17.2529 20.6599 17.0273 19.8396 16.5762C19.0239 16.1204 18.3767 15.4733 17.8982 14.6348C17.4242 13.7962 17.1873 12.8916 17.1873 11.9209C17.1873 10.5902 17.627 9.43262 18.5066 8.44824C19.5502 7.27702 20.9083 6.69141 22.5808 6.69141C23.4558 6.69141 24.2739 6.85319 25.0349 7.17676C25.6775 7.4502 26.3064 7.9196 26.9216 8.58496Z" fill="white"/>
<rect x="1.5" y="1.5" width="30" height="19" stroke="white"/>
</svg>
