<svg width="33" height="22" viewBox="0 0 33 22" fill="none" xmlns="http://www.w3.org/2000/svg">
<rect width="33" height="22" fill="black"/>
<path d="M9.97736 9.59033L9.11164 10.4473C8.56379 9.86719 7.92512 9.57715 7.19563 9.57715C6.55988 9.57715 6.02668 9.78809 5.59602 10.21C5.16828 10.6318 4.95441 11.1445 4.95441 11.748C4.95441 12.3721 5.17707 12.9009 5.62238 13.3345C6.0677 13.7681 6.61701 13.9849 7.27033 13.9849C7.69514 13.9849 8.05256 13.8955 8.3426 13.7168C8.63557 13.5381 8.87141 13.2583 9.05012 12.8774H7.17805V11.7217H10.43L10.4388 11.9941C10.4388 12.5596 10.2923 13.0957 9.99934 13.6025C9.70637 14.1094 9.32697 14.4961 8.86115 14.7627C8.39533 15.0293 7.84895 15.1626 7.22199 15.1626C6.55109 15.1626 5.95197 15.0176 5.42463 14.7275C4.90022 14.4346 4.4842 14.0186 4.17658 13.4795C3.87189 12.9404 3.71955 12.3589 3.71955 11.7349C3.71955 10.8794 4.00227 10.1353 4.5677 9.50244C5.23859 8.74951 6.11164 8.37305 7.18684 8.37305C7.74934 8.37305 8.27522 8.47705 8.76447 8.68506C9.17756 8.86084 9.58186 9.1626 9.97736 9.59033ZM18.166 9.59033L17.3002 10.4473C16.7524 9.86719 16.1137 9.57715 15.3842 9.57715C14.7485 9.57715 14.2153 9.78809 13.7846 10.21C13.3569 10.6318 13.143 11.1445 13.143 11.748C13.143 12.3721 13.3657 12.9009 13.811 13.3345C14.2563 13.7681 14.8056 13.9849 15.4589 13.9849C15.8837 13.9849 16.2412 13.8955 16.5312 13.7168C16.8242 13.5381 17.06 13.2583 17.2387 12.8774H15.3666V11.7217H18.6186L18.6274 11.9941C18.6274 12.5596 18.4809 13.0957 18.1879 13.6025C17.895 14.1094 17.5156 14.4961 17.0497 14.7627C16.5839 15.0293 16.0375 15.1626 15.4106 15.1626C14.7397 15.1626 14.1406 15.0176 13.6132 14.7275C13.0888 14.4346 12.6728 14.0186 12.3652 13.4795C12.0605 12.9404 11.9081 12.3589 11.9081 11.7349C11.9081 10.8794 12.1909 10.1353 12.7563 9.50244C13.4272 8.74951 14.3002 8.37305 15.3754 8.37305C15.9379 8.37305 16.4638 8.47705 16.9531 8.68506C17.3662 8.86084 17.7704 9.1626 18.166 9.59033ZM21.358 10.1309H20.1758C20.2374 9.65332 20.4088 9.26953 20.69 8.97949C21.0826 8.5752 21.5762 8.37305 22.171 8.37305C22.7012 8.37305 23.1451 8.5415 23.5025 8.87842C23.8629 9.21533 24.043 9.61523 24.043 10.0781C24.043 10.3652 23.9639 10.6274 23.8057 10.8647C23.6504 11.1021 23.4234 11.2939 23.1246 11.4404C23.5171 11.5576 23.8233 11.7627 24.043 12.0557C24.2657 12.3457 24.377 12.6885 24.377 13.084C24.377 13.6641 24.1631 14.1562 23.7354 14.5605C23.3077 14.9619 22.7628 15.1626 22.1006 15.1626C21.4737 15.1626 20.9625 14.9736 20.567 14.5957C20.1714 14.2148 19.9546 13.6978 19.9166 13.0444H21.1338C21.1866 13.3784 21.3023 13.6274 21.481 13.7915C21.6627 13.9526 21.8912 14.0332 22.1666 14.0332C22.4537 14.0332 22.691 13.9409 22.8785 13.7563C23.0689 13.5718 23.1641 13.3462 23.1641 13.0796C23.1641 12.7866 23.0367 12.5391 22.7818 12.3369C22.5269 12.1348 22.1592 12.0308 21.6788 12.0249V10.9702C21.9747 10.9468 22.1944 10.9014 22.3379 10.834C22.4844 10.7637 22.5972 10.6685 22.6763 10.5483C22.7584 10.4282 22.7994 10.3008 22.7994 10.166C22.7994 9.99023 22.7379 9.84521 22.6148 9.73096C22.4918 9.61377 22.3306 9.55518 22.1314 9.55518C21.9556 9.55518 21.796 9.60938 21.6524 9.71777C21.5088 9.82324 21.4107 9.96094 21.358 10.1309ZM27.4767 11.2207V9.57275H28.5754V11.2207H30.2189V12.3193H28.5754V13.9629H27.4767V12.3193H25.8288V11.2207H27.4767Z" fill="white"/>
<rect x="1.5" y="1.5" width="30" height="19" stroke="white"/>
<path fill-rule="evenodd" clip-rule="evenodd" d="M26.5625 12C26.7319 14.0968 25 14.8186 25 16.6655C25 17.9199 25.8525 18.9906 27.5 18.9999C29.1475 19.0093 30 17.7125 30 16.3878C30 15.18 29.4272 14.0411 28.3467 13.3329C28.6033 14.0933 28.2617 14.7877 27.9297 15.0269C27.9492 14.0536 27.6172 12.6093 26.5625 12ZM27.8711 15.7916C28.9142 16.9551 28.2736 18.4166 27.4358 18.4166C26.9261 18.4166 26.6639 18.0477 26.6667 17.665C26.6719 16.9554 27.4269 16.9548 27.8711 15.7916V15.7916Z" fill="#FF0000"/>
</svg>
