<svg width="33" height="22" viewBox="0 0 33 22" fill="none" xmlns="http://www.w3.org/2000/svg">
<rect width="33" height="22" fill="black"/>
<path d="M9.97736 9.59033L9.11164 10.4473C8.56379 9.86719 7.92512 9.57715 7.19563 9.57715C6.55988 9.57715 6.02668 9.78809 5.59602 10.21C5.16828 10.6318 4.95441 11.1445 4.95441 11.748C4.95441 12.3721 5.17707 12.9009 5.62238 13.3345C6.0677 13.7681 6.61701 13.9849 7.27033 13.9849C7.69514 13.9849 8.05256 13.8955 8.3426 13.7168C8.63557 13.5381 8.87141 13.2583 9.05012 12.8774H7.17805V11.7217H10.43L10.4388 11.9941C10.4388 12.5596 10.2923 13.0957 9.99934 13.6025C9.70637 14.1094 9.32697 14.4961 8.86115 14.7627C8.39533 15.0293 7.84895 15.1626 7.22199 15.1626C6.55109 15.1626 5.95197 15.0176 5.42463 14.7275C4.90022 14.4346 4.4842 14.0186 4.17658 13.4795C3.87189 12.9404 3.71955 12.3589 3.71955 11.7349C3.71955 10.8794 4.00227 10.1353 4.5677 9.50244C5.23859 8.74951 6.11164 8.37305 7.18684 8.37305C7.74934 8.37305 8.27522 8.47705 8.76447 8.68506C9.17756 8.86084 9.58186 9.1626 9.97736 9.59033ZM18.166 9.59033L17.3002 10.4473C16.7524 9.86719 16.1137 9.57715 15.3842 9.57715C14.7485 9.57715 14.2153 9.78809 13.7846 10.21C13.3569 10.6318 13.143 11.1445 13.143 11.748C13.143 12.3721 13.3657 12.9009 13.811 13.3345C14.2563 13.7681 14.8056 13.9849 15.4589 13.9849C15.8837 13.9849 16.2412 13.8955 16.5312 13.7168C16.8242 13.5381 17.06 13.2583 17.2387 12.8774H15.3666V11.7217H18.6186L18.6274 11.9941C18.6274 12.5596 18.4809 13.0957 18.1879 13.6025C17.895 14.1094 17.5156 14.4961 17.0497 14.7627C16.5839 15.0293 16.0375 15.1626 15.4106 15.1626C14.7397 15.1626 14.1406 15.0176 13.6132 14.7275C13.0888 14.4346 12.6728 14.0186 12.3652 13.4795C12.0605 12.9404 11.9081 12.3589 11.9081 11.7349C11.9081 10.8794 12.1909 10.1353 12.7563 9.50244C13.4272 8.74951 14.3002 8.37305 15.3754 8.37305C15.9379 8.37305 16.4638 8.47705 16.9531 8.68506C17.3662 8.86084 17.7704 9.1626 18.166 9.59033ZM22.628 8.37305H23.8585V12.5347H24.4341V13.6729H23.8585V15H22.6544V13.6729H19.8331V12.5347L22.628 8.37305ZM22.6544 12.5347V10.3682L21.1778 12.5347H22.6544ZM27.4767 11.2207V9.57275H28.5754V11.2207H30.2189V12.3193H28.5754V13.9629H27.4767V12.3193H25.8288V11.2207H27.4767Z" fill="white"/>
<rect x="1.5" y="1.5" width="30" height="19" stroke="white"/>
</svg>
