<svg width="33" height="22" viewBox="0 0 33 22" fill="none" xmlns="http://www.w3.org/2000/svg">
<rect width="33" height="22" fill="black"/>
<path d="M7.39261 9.69409L6.86355 10.2178C6.52876 9.86328 6.13846 9.68604 5.69266 9.68604C5.30415 9.68604 4.9783 9.81494 4.71512 10.0728C4.45372 10.3306 4.32303 10.6439 4.32303 11.0127C4.32303 11.394 4.4591 11.7172 4.73123 11.9822C5.00337 12.2472 5.33906 12.3796 5.73831 12.3796C5.99791 12.3796 6.21634 12.325 6.39358 12.2158C6.57262 12.1066 6.71675 11.9356 6.82596 11.7029H5.68191V10.9966H7.66922L7.67459 11.1631C7.67459 11.5086 7.58507 11.8363 7.40604 12.146C7.227 12.4557 6.99515 12.6921 6.71048 12.855C6.42581 13.0179 6.09191 13.0994 5.70877 13.0994C5.29878 13.0994 4.93265 13.0107 4.61038 12.8335C4.28991 12.6545 4.03567 12.4002 3.84769 12.0708C3.66149 11.7414 3.56839 11.386 3.56839 11.0046C3.56839 10.4819 3.74116 10.0271 4.0867 9.64038C4.49669 9.18026 5.03022 8.9502 5.68729 8.9502C6.03104 8.9502 6.35241 9.01375 6.6514 9.14087C6.90384 9.24829 7.15091 9.4327 7.39261 9.69409ZM12.3967 9.69409L11.8677 10.2178C11.5329 9.86328 11.1426 9.68604 10.6968 9.68604C10.3083 9.68604 9.98244 9.81494 9.71926 10.0728C9.45787 10.3306 9.32717 10.6439 9.32717 11.0127C9.32717 11.394 9.46324 11.7172 9.73537 11.9822C10.0075 12.2472 10.3432 12.3796 10.7425 12.3796C11.0021 12.3796 11.2205 12.325 11.3977 12.2158C11.5768 12.1066 11.7209 11.9356 11.8301 11.7029H10.6861V10.9966H12.6734L12.6787 11.1631C12.6787 11.5086 12.5892 11.8363 12.4102 12.146C12.2311 12.4557 11.9993 12.6921 11.7146 12.855C11.43 13.0179 11.096 13.0994 10.7129 13.0994C10.3029 13.0994 9.93679 13.0107 9.61452 12.8335C9.29405 12.6545 9.03981 12.4002 8.85183 12.0708C8.66563 11.7414 8.57253 11.386 8.57253 11.0046C8.57253 10.4819 8.7453 10.0271 9.09084 9.64038C9.50083 9.18026 10.0344 8.9502 10.6914 8.9502C11.0352 8.9502 11.3565 9.01375 11.6555 9.14087C11.908 9.24829 12.155 9.4327 12.3967 9.69409ZM13.7002 9.04956H14.4468V13H13.7002V9.04956ZM19.3274 9.69409L18.7983 10.2178C18.4635 9.86328 18.0732 9.68604 17.6274 9.68604C17.2389 9.68604 16.9131 9.81494 16.6499 10.0728C16.3885 10.3306 16.2578 10.6439 16.2578 11.0127C16.2578 11.394 16.3939 11.7172 16.666 11.9822C16.9382 12.2472 17.2738 12.3796 17.6731 12.3796C17.9327 12.3796 18.1511 12.325 18.3284 12.2158C18.5074 12.1066 18.6515 11.9356 18.7607 11.7029H17.6167V10.9966H19.604L19.6094 11.1631C19.6094 11.5086 19.5199 11.8363 19.3408 12.146C19.1618 12.4557 18.9299 12.6921 18.6453 12.855C18.3606 13.0179 18.0267 13.0994 17.6436 13.0994C17.2336 13.0994 16.8674 13.0107 16.5452 12.8335C16.2247 12.6545 15.9705 12.4002 15.7825 12.0708C15.5963 11.7414 15.5032 11.386 15.5032 11.0046C15.5032 10.4819 15.6759 10.0271 16.0215 9.64038C16.4315 9.18026 16.965 8.9502 17.6221 8.9502C17.9658 8.9502 18.2872 9.01375 18.5862 9.14087C18.8386 9.24829 19.0857 9.4327 19.3274 9.69409ZM24.3315 9.69409L23.8025 10.2178C23.4677 9.86328 23.0774 9.68604 22.6316 9.68604C22.2431 9.68604 21.9172 9.81494 21.654 10.0728C21.3927 10.3306 21.262 10.6439 21.262 11.0127C21.262 11.394 21.398 11.7172 21.6702 11.9822C21.9423 12.2472 22.278 12.3796 22.6772 12.3796C22.9368 12.3796 23.1553 12.325 23.3325 12.2158C23.5115 12.1066 23.6557 11.9356 23.7649 11.7029H22.6208V10.9966H24.6081L24.6135 11.1631C24.6135 11.5086 24.524 11.8363 24.345 12.146C24.1659 12.4557 23.9341 12.6921 23.6494 12.855C23.3647 13.0179 23.0308 13.0994 22.6477 13.0994C22.2377 13.0994 21.8716 13.0107 21.5493 12.8335C21.2288 12.6545 20.9746 12.4002 20.7866 12.0708C20.6004 11.7414 20.5073 11.386 20.5073 11.0046C20.5073 10.4819 20.6801 10.0271 21.0256 9.64038C21.4356 9.18026 21.9691 8.9502 22.6262 8.9502C22.97 8.9502 23.2913 9.01375 23.5903 9.14087C23.8428 9.24829 24.0898 9.4327 24.3315 9.69409ZM25.635 9.04956H26.3816V13H25.635V9.04956ZM27.5615 9.04956H28.3081V13H27.5615V9.04956Z" fill="white"/>
<rect x="1.5" y="1.5" width="30" height="19" stroke="white"/>
</svg>
