<svg width="33" height="22" viewBox="0 0 33 22" fill="none" xmlns="http://www.w3.org/2000/svg">
<rect width="33" height="22" fill="black"/>
<path d="M10.24 7.78711L9.0857 8.92969C8.35523 8.15625 7.50367 7.76953 6.53102 7.76953C5.68336 7.76953 4.97242 8.05078 4.3982 8.61328C3.82789 9.17578 3.54273 9.85938 3.54273 10.6641C3.54273 11.4961 3.83961 12.2012 4.43336 12.7793C5.02711 13.3574 5.75953 13.6465 6.63062 13.6465C7.19703 13.6465 7.67359 13.5273 8.06031 13.2891C8.45094 13.0508 8.76539 12.6777 9.00367 12.1699H6.50758V10.6289H10.8435L10.8552 10.9922C10.8552 11.7461 10.6599 12.4609 10.2693 13.1367C9.87867 13.8125 9.37281 14.3281 8.75172 14.6836C8.13062 15.0391 7.40211 15.2168 6.56617 15.2168C5.67164 15.2168 4.87281 15.0234 4.16969 14.6367C3.47047 14.2461 2.91578 13.6914 2.50562 12.9727C2.09937 12.2539 1.89625 11.4785 1.89625 10.6465C1.89625 9.50586 2.2732 8.51367 3.02711 7.66992C3.92164 6.66602 5.0857 6.16406 6.5193 6.16406C7.2693 6.16406 7.97047 6.30273 8.62281 6.58008C9.17359 6.81445 9.71266 7.2168 10.24 7.78711ZM21.1581 7.78711L20.0038 8.92969C19.2734 8.15625 18.4218 7.76953 17.4491 7.76953C16.6015 7.76953 15.8905 8.05078 15.3163 8.61328C14.746 9.17578 14.4609 9.85938 14.4609 10.6641C14.4609 11.4961 14.7577 12.2012 15.3515 12.7793C15.9452 13.3574 16.6777 13.6465 17.5487 13.6465C18.1152 13.6465 18.5917 13.5273 18.9784 13.2891C19.3691 13.0508 19.6835 12.6777 19.9218 12.1699H17.4257V10.6289H21.7616L21.7734 10.9922C21.7734 11.7461 21.578 12.4609 21.1874 13.1367C20.7968 13.8125 20.2909 14.3281 19.6698 14.6836C19.0487 15.0391 18.3202 15.2168 17.4843 15.2168C16.5898 15.2168 15.7909 15.0234 15.0878 14.6367C14.3886 14.2461 13.8339 13.6914 13.4237 12.9727C13.0175 12.2539 12.8144 11.4785 12.8144 10.6465C12.8144 9.50586 13.1913 8.51367 13.9452 7.66992C14.8398 6.66602 16.0038 6.16406 17.4374 6.16406C18.1874 6.16406 18.8886 6.30273 19.5409 6.58008C20.0917 6.81445 20.6308 7.2168 21.1581 7.78711ZM24.002 6.38086H25.6309V15H24.002V6.38086ZM28.2053 6.38086H29.8342V15H28.2053V6.38086Z" fill="white"/>
<rect x="1.5" y="1.5" width="30" height="19" stroke="white"/>
<path fill-rule="evenodd" clip-rule="evenodd" d="M26.5625 12C26.7319 14.0968 25 14.8186 25 16.6655C25 17.9199 25.8525 18.9906 27.5 18.9999C29.1475 19.0093 30 17.7125 30 16.3878C30 15.18 29.4272 14.0411 28.3467 13.3329C28.6033 14.0933 28.2617 14.7877 27.9297 15.0269C27.9492 14.0536 27.6172 12.6093 26.5625 12ZM27.8711 15.7916C28.9142 16.9551 28.2736 18.4166 27.4358 18.4166C26.9261 18.4166 26.6639 18.0477 26.6667 17.665C26.6719 16.9554 27.4269 16.9548 27.8711 15.7916V15.7916Z" fill="#FF0000"/>
</svg>
