<svg width="33" height="22" viewBox="0 0 33 22" fill="none" xmlns="http://www.w3.org/2000/svg">
<rect width="33" height="22" fill="black"/>
<path d="M11.7319 8.58496L10.3852 9.91797C9.53302 9.01562 8.53953 8.56445 7.40477 8.56445C6.41583 8.56445 5.58641 8.89258 4.91648 9.54883C4.25112 10.2051 3.91844 11.0026 3.91844 11.9414C3.91844 12.9121 4.26479 13.7347 4.9575 14.4092C5.65021 15.0837 6.5047 15.4209 7.52098 15.4209C8.18178 15.4209 8.73777 15.2819 9.18895 15.0039C9.64467 14.7259 10.0115 14.2907 10.2895 13.6982H7.37742V11.9004H12.436L12.4497 12.3242C12.4497 13.2038 12.2218 14.0378 11.7661 14.8262C11.3104 15.6146 10.7202 16.2161 9.99559 16.6309C9.27098 17.0456 8.42104 17.2529 7.44578 17.2529C6.40216 17.2529 5.4702 17.0273 4.64988 16.5762C3.83413 16.1204 3.18699 15.4733 2.70848 14.6348C2.23452 13.7962 1.99754 12.8916 1.99754 11.9209C1.99754 10.5902 2.43732 9.43262 3.31688 8.44824C4.3605 7.27702 5.71857 6.69141 7.39109 6.69141C8.26609 6.69141 9.08413 6.85319 9.8452 7.17676C10.4878 7.4502 11.1167 7.9196 11.7319 8.58496ZM24.4697 8.58496L23.123 9.91797C22.2708 9.01562 21.2773 8.56445 20.1426 8.56445C19.1536 8.56445 18.3242 8.89258 17.6543 9.54883C16.9889 10.2051 16.6562 11.0026 16.6562 11.9414C16.6562 12.9121 17.0026 13.7347 17.6953 14.4092C18.388 15.0837 19.2425 15.4209 20.2588 15.4209C20.9196 15.4209 21.4756 15.2819 21.9268 15.0039C22.3825 14.7259 22.7493 14.2907 23.0273 13.6982H20.1152V11.9004H25.1738L25.1875 12.3242C25.1875 13.2038 24.9596 14.0378 24.5039 14.8262C24.0482 15.6146 23.458 16.2161 22.7334 16.6309C22.0088 17.0456 21.1589 17.2529 20.1836 17.2529C19.14 17.2529 18.208 17.0273 17.3877 16.5762C16.5719 16.1204 15.9248 15.4733 15.4463 14.6348C14.9723 13.7962 14.7354 12.8916 14.7354 11.9209C14.7354 10.5902 15.1751 9.43262 16.0547 8.44824C17.0983 7.27702 18.4564 6.69141 20.1289 6.69141C21.0039 6.69141 21.8219 6.85319 22.583 7.17676C23.2256 7.4502 23.8545 7.9196 24.4697 8.58496ZM27.7876 6.94434H29.688V17H27.7876V6.94434Z" fill="white"/>
<rect x="1.5" y="1.5" width="30" height="19" stroke="white"/>
<path fill-rule="evenodd" clip-rule="evenodd" d="M26.5625 12C26.7319 14.0968 25 14.8186 25 16.6655C25 17.9199 25.8525 18.9906 27.5 18.9999C29.1475 19.0093 30 17.7125 30 16.3878C30 15.18 29.4272 14.0411 28.3467 13.3329C28.6033 14.0933 28.2617 14.7877 27.9297 15.0269C27.9492 14.0536 27.6172 12.6093 26.5625 12ZM27.8711 15.7916C28.9142 16.9551 28.2736 18.4166 27.4358 18.4166C26.9261 18.4166 26.6639 18.0477 26.6667 17.665C26.6719 16.9554 27.4269 16.9548 27.8711 15.7916V15.7916Z" fill="#FF0000"/>
</svg>
