<svg width="33" height="22" viewBox="0 0 33 22" fill="none" xmlns="http://www.w3.org/2000/svg">
<rect width="33" height="22" fill="black"/>
<path d="M3.26902 6.94434H5.21043V10.7383H8.57371V6.94434H10.5083V17H8.57371V12.5908H5.21043V17H3.26902V6.94434ZM15.0771 10.1846H13.2109C13.2611 9.09993 13.6006 8.24772 14.2295 7.62793C14.863 7.00358 15.6742 6.69141 16.6631 6.69141C17.2738 6.69141 17.8115 6.82129 18.2764 7.08105C18.7458 7.33626 19.1195 7.70768 19.3975 8.19531C19.68 8.67839 19.8213 9.17057 19.8213 9.67188C19.8213 10.2689 19.6504 10.9115 19.3086 11.5996C18.9714 12.2878 18.3516 13.1012 17.4492 14.04L16.3213 15.2295H19.9033V17H12.9375V16.084L16.0479 12.9121C16.7998 12.151 17.2988 11.5404 17.5449 11.0801C17.7956 10.6152 17.9209 10.196 17.9209 9.82227C17.9209 9.4349 17.791 9.11589 17.5312 8.86523C17.276 8.61003 16.9456 8.48242 16.54 8.48242C16.1299 8.48242 15.7881 8.63509 15.5146 8.94043C15.2412 9.24577 15.0954 9.66048 15.0771 10.1846ZM24.814 11.1211V8.55762H26.523V11.1211H29.0796V12.8301H26.523V15.3867H24.814V12.8301H22.2505V11.1211H24.814Z" fill="white"/>
<rect x="1.5" y="1.5" width="30" height="19" stroke="white"/>
</svg>
