<svg width="39" height="22" viewBox="0 0 39 22" fill="none" xmlns="http://www.w3.org/2000/svg">
<rect x="3" width="33" height="22" fill="black"/>
<path d="M6.48609 6.38086H8.15016V9.63281H11.033V6.38086H12.6912V15H11.033V11.2207H8.15016V15H6.48609V6.38086ZM16.6073 9.1582H15.0077C15.0507 8.22852 15.3417 7.49805 15.8808 6.9668C16.4237 6.43164 17.1191 6.16406 17.9667 6.16406C18.4902 6.16406 18.9511 6.27539 19.3495 6.49805C19.7519 6.7168 20.0722 7.03516 20.3105 7.45312C20.5527 7.86719 20.6737 8.28906 20.6737 8.71875C20.6737 9.23047 20.5273 9.78125 20.2343 10.3711C19.9452 10.9609 19.414 11.6582 18.6405 12.4629L17.6737 13.4824H20.7441V15H14.7734V14.2148L17.4394 11.4961C18.0839 10.8438 18.5116 10.3203 18.7226 9.92578C18.9374 9.52734 19.0448 9.16797 19.0448 8.84766C19.0448 8.51562 18.9335 8.24219 18.7109 8.02734C18.4921 7.80859 18.2089 7.69922 17.8612 7.69922C17.5097 7.69922 17.2167 7.83008 16.9823 8.0918C16.748 8.35352 16.623 8.70898 16.6073 9.1582ZM24.9532 9.96094V7.76367H26.418V9.96094H28.6095V11.4258H26.418V13.6172H24.9532V11.4258H22.7559V9.96094H24.9532ZM30.9963 6.38086H32.6252V15H30.9963V6.38086Z" fill="white"/>
<rect x="4.5" y="1.5" width="30" height="19" stroke="white"/>
</svg>
