<svg width="33" height="22" viewBox="0 0 33 22" fill="none" xmlns="http://www.w3.org/2000/svg">
<rect width="33" height="22" fill="black"/>
<path d="M2.14408 7.09912H3.66947V10.0801H6.31205V7.09912H7.83207V15H6.31205V11.5356H3.66947V15H2.14408V7.09912ZM11.4219 9.64502H9.95559C9.99497 8.79281 10.2617 8.12321 10.7559 7.63623C11.2536 7.14567 11.891 6.90039 12.668 6.90039C13.1478 6.90039 13.5703 7.00244 13.9356 7.20654C14.3044 7.40706 14.598 7.69889 14.8164 8.08203C15.0384 8.46159 15.1494 8.84831 15.1494 9.24219C15.1494 9.71126 15.0152 10.2161 14.7466 10.7568C14.4816 11.2975 13.9946 11.9367 13.2857 12.6743L12.3994 13.6089H15.2139V15H9.74074V14.2803L12.1846 11.7881C12.7754 11.1901 13.1675 10.7103 13.3609 10.3486C13.5578 9.9834 13.6563 9.65397 13.6563 9.36035C13.6563 9.05599 13.5542 8.80534 13.3501 8.6084C13.1496 8.40788 12.89 8.30762 12.5713 8.30762C12.249 8.30762 11.9805 8.42757 11.7656 8.66748C11.5508 8.90739 11.4362 9.23324 11.4219 9.64502ZM19.0723 10.3809V8.3667H20.415V10.3809H22.4238V11.7236H20.415V13.7324H19.0723V11.7236H17.0581V10.3809H19.0723ZM24.6118 7.09912H26.105V15H24.6118V7.09912ZM28.4648 7.09912H29.958V15H28.4648V7.09912Z" fill="white"/>
<path fill-rule="evenodd" clip-rule="evenodd" d="M26.5625 12C26.7319 14.0968 25 14.8186 25 16.6655C25 17.9199 25.8525 18.9906 27.5 18.9999C29.1475 19.0093 30 17.7125 30 16.3878C30 15.18 29.4272 14.0411 28.3467 13.3329C28.6033 14.0933 28.2617 14.7877 27.9297 15.0269C27.9492 14.0536 27.6172 12.6093 26.5625 12ZM27.8711 15.7916C28.9142 16.9551 28.2736 18.4166 27.4358 18.4166C26.9261 18.4166 26.6639 18.0477 26.6667 17.665C26.6719 16.9554 27.4269 16.9548 27.8711 15.7916V15.7916Z" fill="#FF0000"/>
<rect x="1.5" y="1.5" width="30" height="19" stroke="white"/>
</svg>
