<svg width="33" height="22" viewBox="0 0 33 22" fill="none" xmlns="http://www.w3.org/2000/svg">
<rect width="33" height="22" fill="black"/>
<path d="M2.98609 6.38086H4.65016V9.63281H7.53297V6.38086H9.19117V15H7.53297V11.2207H4.65016V15H2.98609V6.38086ZM13.1073 9.1582H11.5077C11.5507 8.22852 11.8417 7.49805 12.3808 6.9668C12.9237 6.43164 13.6191 6.16406 14.4667 6.16406C14.9902 6.16406 15.4511 6.27539 15.8495 6.49805C16.2519 6.7168 16.5722 7.03516 16.8105 7.45312C17.0527 7.86719 17.1737 8.28906 17.1737 8.71875C17.1737 9.23047 17.0273 9.78125 16.7343 10.3711C16.4452 10.9609 15.914 11.6582 15.1405 12.4629L14.1737 13.4824H17.2441V15H11.2734V14.2148L13.9394 11.4961C14.5839 10.8438 15.0116 10.3203 15.2226 9.92578C15.4374 9.52734 15.5448 9.16797 15.5448 8.84766C15.5448 8.51562 15.4335 8.24219 15.2109 8.02734C14.9921 7.80859 14.7089 7.69922 14.3612 7.69922C14.0097 7.69922 13.7167 7.83008 13.4823 8.0918C13.248 8.35352 13.123 8.70898 13.1073 9.1582ZM21.4532 9.96094V7.76367H22.918V9.96094H25.1095V11.4258H22.918V13.6172H21.4532V11.4258H19.2559V9.96094H21.4532ZM27.4963 6.38086H29.1252V15H27.4963V6.38086Z" fill="white"/>
<path fill-rule="evenodd" clip-rule="evenodd" d="M26.5625 12C26.7319 14.0968 25 14.8186 25 16.6655C25 17.9199 25.8525 18.9906 27.5 18.9999C29.1475 19.0093 30 17.7125 30 16.3878C30 15.18 29.4272 14.0411 28.3467 13.3329C28.6033 14.0933 28.2617 14.7877 27.9297 15.0269C27.9492 14.0536 27.6172 12.6093 26.5625 12ZM27.8711 15.7916C28.9142 16.9551 28.2736 18.4166 27.4358 18.4166C26.9261 18.4166 26.6639 18.0477 26.6667 17.665C26.6719 16.9554 27.4269 16.9548 27.8711 15.7916V15.7916Z" fill="#FF0000"/>
<rect x="1.5" y="1.5" width="30" height="19" stroke="white"/>
</svg>
