<svg width="33" height="22" viewBox="0 0 33 22" fill="none" xmlns="http://www.w3.org/2000/svg">
<rect width="33" height="22" fill="black"/>
<path d="M3.26902 6.94434H5.21043V10.7383H8.57371V6.94434H10.5083V17H8.57371V12.5908H5.21043V17H3.26902V6.94434ZM15.2959 9.42578H13.457C13.5527 8.68294 13.8193 8.08594 14.2568 7.63477C14.8675 7.00586 15.6354 6.69141 16.5605 6.69141C17.3854 6.69141 18.0758 6.95345 18.6318 7.47754C19.1924 8.00163 19.4727 8.6237 19.4727 9.34375C19.4727 9.79036 19.3496 10.1982 19.1035 10.5674C18.862 10.9365 18.5088 11.235 18.0439 11.4629C18.6546 11.6452 19.1309 11.9642 19.4727 12.4199C19.819 12.8711 19.9922 13.4043 19.9922 14.0195C19.9922 14.9219 19.6595 15.6875 18.9941 16.3164C18.3288 16.9408 17.4811 17.2529 16.4512 17.2529C15.4759 17.2529 14.6807 16.959 14.0654 16.3711C13.4502 15.7786 13.113 14.9743 13.0537 13.958H14.9473C15.0293 14.4775 15.2093 14.8649 15.4873 15.1201C15.7699 15.3708 16.1253 15.4961 16.5537 15.4961C17.0003 15.4961 17.3695 15.3525 17.6611 15.0654C17.9574 14.7783 18.1055 14.4274 18.1055 14.0127C18.1055 13.557 17.9072 13.1719 17.5107 12.8574C17.1143 12.543 16.5423 12.3812 15.7949 12.3721V10.7314C16.2552 10.695 16.597 10.6243 16.8203 10.5195C17.0482 10.4102 17.2236 10.262 17.3467 10.0752C17.4743 9.88835 17.5381 9.6901 17.5381 9.48047C17.5381 9.20703 17.4424 8.98145 17.251 8.80371C17.0596 8.62142 16.8089 8.53027 16.499 8.53027C16.2256 8.53027 15.9772 8.61458 15.7539 8.7832C15.5306 8.94727 15.3779 9.16146 15.2959 9.42578ZM24.814 11.1211V8.55762H26.523V11.1211H29.0796V12.8301H26.523V15.3867H24.814V12.8301H22.2505V11.1211H24.814Z" fill="white"/>
<rect x="1.5" y="1.5" width="30" height="19" stroke="white"/>
<path fill-rule="evenodd" clip-rule="evenodd" d="M26.5625 12C26.7319 14.0968 25 14.8186 25 16.6655C25 17.9199 25.8525 18.9906 27.5 18.9999C29.1475 19.0093 30 17.7125 30 16.3878C30 15.18 29.4272 14.0411 28.3467 13.3329C28.6033 14.0933 28.2617 14.7877 27.9297 15.0269C27.9492 14.0536 27.6172 12.6093 26.5625 12ZM27.8711 15.7916C28.9142 16.9551 28.2736 18.4166 27.4358 18.4166C26.9261 18.4166 26.6639 18.0477 26.6667 17.665C26.6719 16.9554 27.4269 16.9548 27.8711 15.7916V15.7916Z" fill="#FF0000"/>
</svg>
