<svg id="svg" version="1.1" width="400" height="400" xmlns="http://www.w3.org/2000/svg" xmlns:xlink="http://www.w3.org/1999/xlink" style="display: block;"><g id="svgg"><path id="path0" d="M193.917 66.596 C 193.550 66.630,192.012 66.740,190.500 66.841 C 172.311 68.052,154.067 73.252,137.750 81.875 C 131.033 85.425,121.817 91.412,117.571 94.985 C 117.289 95.223,116.766 95.642,116.410 95.917 C 115.511 96.610,112.683 98.995,111.086 100.407 C 110.355 101.054,108.024 103.308,105.907 105.417 C 102.617 108.694,101.145 110.253,98.512 113.250 C 97.496 114.406,94.348 118.370,92.898 120.318 C 92.039 121.472,91.277 122.492,91.204 122.583 C 89.949 124.162,84.936 132.131,83.238 135.250 C 82.788 136.075,82.253 137.050,82.047 137.417 C 77.594 145.372,72.594 158.519,70.257 168.417 C 70.019 169.425,69.753 170.550,69.665 170.917 C 69.134 173.137,68.383 177.270,67.833 181.000 C 65.697 195.487,66.304 214.301,69.335 227.583 C 73.993 247.993,81.594 264.739,93.078 279.897 C 94.181 281.354,95.233 282.747,95.417 282.994 C 99.599 288.629,111.359 300.388,117.006 304.583 C 117.253 304.767,118.646 305.819,120.103 306.922 C 127.247 312.335,136.658 317.945,144.500 321.467 C 155.571 326.438,166.560 329.811,177.667 331.648 C 185.947 333.017,190.992 333.417,200.000 333.417 C 207.675 333.417,213.727 333.020,219.083 332.167 C 223.505 331.462,224.753 331.242,227.237 330.731 C 236.161 328.893,245.687 325.825,254.083 322.085 C 256.407 321.051,263.040 317.797,263.417 317.508 C 263.508 317.438,264.183 317.057,264.917 316.662 C 269.854 314.003,276.752 309.410,282.583 304.899 C 289.721 299.378,299.378 289.721,304.899 282.583 C 307.779 278.861,313.008 271.403,312.996 271.035 C 312.992 270.910,312.721 270.598,310.275 267.905 C 309.436 266.981,308.457 265.894,308.100 265.488 C 307.033 264.277,303.711 260.581,301.750 258.423 C 300.742 257.314,299.668 256.119,299.365 255.769 C 299.061 255.418,298.794 255.158,298.771 255.191 C 298.748 255.223,298.249 256.075,297.663 257.083 C 296.554 258.992,293.730 263.446,293.121 264.247 C 293.050 264.340,292.342 265.317,291.547 266.417 C 290.209 268.268,287.418 271.861,286.562 272.833 C 286.361 273.063,285.542 274.000,284.743 274.917 C 239.357 326.966,156.588 325.436,112.537 271.734 C 79.540 231.507,78.340 172.515,109.692 131.877 C 110.171 131.257,110.792 130.452,111.073 130.088 C 115.947 123.768,124.027 115.687,130.083 111.074 C 130.542 110.725,131.517 109.981,132.250 109.420 C 142.291 101.737,154.395 95.651,167.877 91.507 C 185.185 86.188,206.035 85.490,224.642 89.608 C 255.064 96.341,282.327 116.244,297.662 142.917 C 298.242 143.925,298.738 144.777,298.764 144.809 C 298.791 144.842,299.061 144.581,299.365 144.229 C 299.668 143.878,300.742 142.683,301.750 141.573 C 302.758 140.463,304.746 138.258,306.167 136.672 C 307.587 135.087,309.706 132.735,310.875 131.446 C 312.044 130.157,313.000 129.043,313.000 128.969 C 313.000 128.512,305.796 118.359,304.083 116.401 C 303.992 116.296,303.504 115.701,303.000 115.078 C 300.140 111.544,292.775 103.794,290.018 101.417 C 289.487 100.958,288.379 99.983,287.556 99.250 C 286.248 98.084,285.234 97.239,282.292 94.863 C 260.312 77.111,230.803 66.826,201.167 66.588 C 197.546 66.559,194.283 66.563,193.917 66.596 M195.667 93.001 C 193.971 93.066,191.965 93.177,191.208 93.248 L 189.833 93.376 189.833 113.272 L 189.833 133.167 200.000 133.167 L 210.167 133.167 210.167 113.250 C 210.167 93.630,210.162 93.333,209.842 93.333 C 209.664 93.333,208.595 93.262,207.467 93.176 C 204.451 92.944,199.180 92.866,195.667 93.001 M182.250 94.356 C 167.184 97.103,154.929 101.817,142.701 109.567 C 140.392 111.031,140.470 110.756,141.911 112.338 C 142.372 112.844,143.313 113.893,144.000 114.669 C 144.688 115.445,145.700 116.570,146.250 117.169 C 146.800 117.767,147.578 118.631,147.979 119.087 C 148.663 119.866,151.654 123.200,153.040 124.729 L 153.663 125.417 153.665 144.865 L 153.667 164.313 155.542 166.379 C 156.573 167.515,158.654 169.822,160.167 171.505 C 163.689 175.426,166.952 179.048,169.167 181.496 C 170.129 182.560,171.629 184.229,172.500 185.204 L 174.083 186.977 174.126 172.488 L 174.168 158.000 195.567 158.000 L 216.966 158.000 218.942 155.863 C 220.028 154.687,222.304 152.200,224.000 150.335 C 226.801 147.256,228.222 145.701,232.958 140.539 C 233.806 139.615,234.500 138.815,234.500 138.762 C 234.500 138.710,220.925 138.667,204.333 138.667 L 174.167 138.667 174.167 127.423 L 174.167 116.180 175.275 115.838 C 176.494 115.461,181.194 114.299,182.708 113.999 L 183.667 113.810 183.667 103.988 C 183.667 94.738,183.650 94.168,183.375 94.185 C 183.215 94.196,182.708 94.272,182.250 94.356 M216.000 103.979 C 216.000 113.734,216.003 113.833,216.335 113.833 C 216.882 113.833,221.071 114.802,223.667 115.529 C 231.024 117.589,239.664 121.328,245.250 124.869 L 246.250 125.503 246.833 124.862 C 247.154 124.509,248.579 122.922,250.000 121.336 C 251.421 119.749,253.446 117.498,254.500 116.334 C 255.554 115.169,257.021 113.549,257.760 112.733 C 258.498 111.917,259.153 111.166,259.215 111.063 C 259.526 110.543,249.747 104.956,244.000 102.370 C 235.613 98.596,224.141 95.155,216.875 94.235 L 216.000 94.124 216.000 103.979 M282.000 133.362 C 281.496 133.930,280.633 134.889,280.083 135.495 C 279.533 136.101,278.558 137.191,277.917 137.917 C 277.275 138.643,276.300 139.730,275.750 140.332 C 275.200 140.934,274.225 142.024,273.583 142.753 C 272.942 143.482,271.967 144.570,271.417 145.171 C 270.867 145.772,269.892 146.859,269.250 147.586 C 268.608 148.314,267.633 149.400,267.083 150.000 C 266.533 150.600,265.558 151.686,264.917 152.414 C 264.275 153.141,263.300 154.230,262.750 154.832 C 262.200 155.434,261.225 156.524,260.583 157.253 C 259.942 157.982,258.967 159.070,258.417 159.671 C 257.867 160.272,256.892 161.356,256.250 162.081 C 255.608 162.805,254.335 164.228,253.421 165.241 C 252.507 166.254,251.532 167.342,251.255 167.658 C 250.977 167.974,250.338 168.689,249.833 169.246 C 249.329 169.803,248.354 170.893,247.667 171.667 C 246.979 172.441,246.004 173.529,245.500 174.084 C 244.996 174.640,244.021 175.727,243.333 176.500 C 242.646 177.273,241.671 178.361,241.167 178.919 C 240.662 179.477,239.688 180.563,239.000 181.333 C 238.313 182.104,237.338 183.190,236.833 183.747 C 236.329 184.304,235.354 185.393,234.667 186.167 C 233.979 186.941,233.004 188.029,232.500 188.584 C 231.996 189.140,231.021 190.227,230.333 191.000 C 229.646 191.773,228.671 192.861,228.167 193.419 C 227.662 193.977,226.688 195.066,226.000 195.839 C 225.313 196.612,224.338 197.700,223.833 198.257 C 223.329 198.813,222.385 199.864,221.735 200.593 C 219.668 202.909,217.606 205.200,216.878 205.987 L 216.172 206.750 216.169 221.982 L 216.167 237.215 217.163 236.127 C 217.712 235.529,218.405 234.746,218.705 234.388 C 219.005 234.030,220.188 232.696,221.333 231.424 C 224.891 227.477,226.825 225.320,229.417 222.413 C 230.792 220.870,232.704 218.732,233.667 217.663 C 234.629 216.593,236.542 214.455,237.917 212.913 C 239.292 211.370,241.204 209.232,242.167 208.163 C 243.129 207.093,245.042 204.955,246.417 203.413 C 247.792 201.870,249.704 199.732,250.667 198.663 C 251.629 197.593,253.542 195.456,254.917 193.914 C 259.084 189.240,261.202 186.920,261.355 186.861 C 261.437 186.830,261.500 208.676,261.500 237.153 C 261.500 264.844,261.556 287.499,261.625 287.498 C 261.755 287.495,264.825 285.209,266.656 283.750 C 271.545 279.857,276.567 275.043,280.875 270.119 L 281.833 269.023 281.833 216.486 L 281.833 163.949 282.625 163.086 C 283.060 162.612,284.579 160.925,286.000 159.337 C 287.421 157.750,289.446 155.500,290.500 154.337 C 291.554 153.174,292.897 151.677,293.484 151.011 L 294.552 149.799 293.910 148.608 C 291.338 143.830,286.299 136.301,283.379 132.874 L 282.917 132.331 282.000 133.362 M116.417 133.125 C 114.330 135.738,112.767 137.905,110.590 141.201 C 108.543 144.302,107.372 146.230,105.920 148.891 L 105.298 150.031 105.779 150.557 C 106.043 150.847,106.707 151.572,107.254 152.170 C 107.802 152.768,108.813 153.892,109.500 154.669 C 110.188 155.446,111.237 156.611,111.833 157.258 C 112.429 157.905,113.412 158.992,114.018 159.675 C 114.624 160.358,115.730 161.585,116.477 162.402 L 117.833 163.887 117.833 216.250 L 117.833 268.612 119.038 270.015 C 122.238 273.738,126.450 277.928,130.335 281.251 C 132.885 283.434,133.523 283.947,135.921 285.743 L 138.083 287.364 138.125 237.098 C 138.150 207.274,138.229 186.833,138.318 186.833 C 138.401 186.833,139.057 187.490,139.776 188.292 C 140.495 189.094,141.833 190.579,142.750 191.592 C 143.667 192.605,145.654 194.812,147.167 196.497 C 148.679 198.181,150.742 200.472,151.750 201.586 C 152.758 202.700,154.783 204.951,156.250 206.586 C 157.717 208.222,159.742 210.472,160.750 211.586 C 161.758 212.701,163.783 214.950,165.250 216.585 C 166.717 218.219,168.742 220.468,169.750 221.582 C 170.758 222.695,172.183 224.275,172.917 225.092 C 173.650 225.909,174.662 227.034,175.167 227.591 C 175.671 228.149,176.683 229.274,177.417 230.092 C 178.150 230.910,179.200 232.073,179.750 232.675 C 181.245 234.315,183.035 236.314,183.452 236.810 L 183.821 237.250 183.824 222.000 L 183.826 206.750 183.066 205.917 C 181.376 204.065,179.181 201.639,178.000 200.318 C 177.313 199.549,176.300 198.426,175.750 197.822 C 175.200 197.219,174.188 196.094,173.500 195.322 C 172.813 194.551,171.800 193.428,171.250 192.828 C 170.700 192.227,169.688 191.102,169.000 190.328 C 168.313 189.553,167.300 188.428,166.750 187.828 C 166.200 187.227,165.188 186.102,164.500 185.328 C 163.813 184.553,162.800 183.428,162.250 182.828 C 161.700 182.227,160.688 181.102,160.000 180.327 C 159.313 179.552,158.262 178.390,157.667 177.744 C 157.071 177.098,156.326 176.273,156.011 175.910 C 155.696 175.547,154.683 174.420,153.761 173.406 C 152.838 172.392,151.826 171.267,151.511 170.906 C 151.196 170.545,150.183 169.420,149.261 168.406 C 148.338 167.392,147.326 166.267,147.011 165.906 C 146.696 165.545,145.683 164.420,144.761 163.406 C 143.838 162.392,142.826 161.267,142.511 160.906 C 142.196 160.545,141.183 159.420,140.261 158.406 C 139.338 157.392,138.326 156.267,138.011 155.906 C 137.696 155.545,136.683 154.420,135.761 153.406 C 134.838 152.392,133.826 151.267,133.511 150.906 C 133.196 150.545,132.183 149.420,131.261 148.406 C 130.338 147.392,129.324 146.267,129.008 145.906 C 128.441 145.260,125.683 142.200,122.415 138.592 C 121.498 137.579,119.894 135.794,118.852 134.625 C 117.810 133.456,116.948 132.500,116.937 132.500 C 116.926 132.500,116.692 132.781,116.417 133.125 M189.833 235.559 L 189.833 306.618 190.958 306.728 C 195.579 307.176,204.421 307.176,209.042 306.728 L 210.167 306.618 210.167 235.559 L 210.167 164.500 200.000 164.500 L 189.833 164.500 189.833 235.559 M153.674 254.615 C 153.668 287.932,153.709 296.507,153.875 296.612 C 156.036 297.977,165.828 301.674,171.000 303.079 C 172.237 303.415,173.456 303.755,173.708 303.836 L 174.167 303.983 174.161 269.700 L 174.156 235.417 172.536 233.654 C 171.646 232.685,169.717 230.554,168.250 228.920 C 166.783 227.285,165.171 225.494,164.667 224.939 C 162.589 222.654,161.688 221.655,160.500 220.322 C 159.813 219.551,158.800 218.427,158.250 217.824 C 157.700 217.221,156.725 216.140,156.083 215.421 C 155.442 214.701,154.638 213.806,154.299 213.431 L 153.680 212.750 153.674 254.615 " stroke="none" fill="#ffffff" fill-rule="evenodd"></path><path id="path1" d="M189.833 32.587 C 95.561 38.378,24.797 120.494,32.924 214.667 C 39.736 293.589,101.432 357.239,180.167 366.571 C 245.953 374.368,310.283 342.688,344.112 285.833 C 346.915 281.123,348.081 278.975,350.490 274.083 C 384.656 204.706,366.948 121.024,307.583 71.314 C 281.293 49.300,248.882 35.898,214.750 32.928 C 207.464 32.294,196.945 32.150,189.833 32.587 M211.068 53.739 C 229.165 55.194,244.451 59.143,261.417 66.748 C 263.016 67.465,268.440 70.200,270.167 71.160 C 271.037 71.645,272.050 72.208,272.417 72.411 C 273.680 73.113,277.751 75.552,278.417 76.005 C 278.783 76.255,280.243 77.229,281.661 78.170 C 285.264 80.561,288.152 82.677,291.652 85.489 C 292.515 86.183,293.452 86.935,293.735 87.162 C 298.772 91.190,308.810 101.228,312.838 106.265 C 313.065 106.548,313.817 107.485,314.511 108.348 C 317.327 111.852,319.443 114.741,321.829 118.339 C 322.769 119.757,323.684 121.125,323.862 121.380 C 324.228 121.907,327.500 127.324,327.500 127.405 C 327.500 127.434,327.922 128.198,328.438 129.104 C 349.581 166.200,352.478 214.924,335.936 255.206 C 332.663 263.176,327.456 273.295,323.994 278.417 C 323.746 278.783,323.181 279.646,322.739 280.333 C 312.422 296.373,296.373 312.422,280.333 322.739 C 279.646 323.181,278.783 323.746,278.417 323.994 C 277.325 324.732,272.570 327.533,270.333 328.755 C 241.565 344.478,208.574 350.019,175.667 344.654 C 171.968 344.051,167.751 343.163,163.750 342.143 C 163.017 341.956,162.117 341.731,161.750 341.642 C 156.111 340.277,145.826 336.577,139.525 333.647 C 138.760 333.291,138.096 333.000,138.051 333.000 C 137.879 333.000,131.005 329.495,129.262 328.520 C 128.261 327.959,127.422 327.500,127.397 327.500 C 127.320 327.500,121.867 324.201,121.380 323.859 C 121.125 323.681,120.129 323.016,119.167 322.383 C 110.681 316.797,103.881 311.227,96.327 303.673 C 88.282 295.628,83.314 289.480,76.387 279.000 C 75.599 277.807,73.195 273.827,72.411 272.417 C 72.208 272.050,71.646 271.037,71.163 270.167 C 70.277 268.570,67.000 262.100,67.000 261.948 C 67.000 261.903,66.709 261.240,66.353 260.475 C 64.462 256.408,62.215 250.694,60.726 246.167 C 60.197 244.555,58.568 239.116,58.356 238.250 C 58.266 237.883,57.964 236.676,57.684 235.568 C 52.921 216.695,52.076 196.003,55.258 176.167 C 57.222 163.929,61.256 150.571,66.270 139.696 C 66.580 139.025,66.833 138.438,66.833 138.392 C 66.833 138.237,70.275 131.432,71.162 129.833 C 71.646 128.962,72.208 127.950,72.411 127.583 C 73.195 126.173,75.599 122.193,76.387 121.000 C 81.589 113.129,84.795 108.903,90.481 102.417 C 92.741 99.838,99.838 92.741,102.417 90.481 C 108.903 84.795,113.129 81.589,121.000 76.387 C 122.193 75.599,126.173 73.195,127.583 72.411 C 127.950 72.208,128.962 71.646,129.833 71.162 C 131.432 70.275,138.237 66.833,138.392 66.833 C 138.438 66.833,139.025 66.580,139.696 66.270 C 143.763 64.395,149.407 62.182,153.833 60.726 C 155.445 60.196,160.884 58.568,161.750 58.356 C 162.117 58.266,163.467 57.930,164.750 57.610 C 172.900 55.573,181.897 54.184,190.250 53.672 C 191.900 53.571,193.625 53.462,194.083 53.429 C 196.102 53.286,208.165 53.506,211.068 53.739 " stroke="none" fill="#030000" fill-rule="evenodd"></path><path id="path2" d="M191.333 13.103 C 102.890 17.860,30.743 81.448,15.682 167.917 C 13.704 179.269,13.084 186.966,13.089 200.083 C 13.104 239.278,25.054 277.180,47.034 307.750 C 57.207 321.899,68.952 334.557,81.000 344.357 C 132.210 386.009,199.555 398.162,261.097 376.856 C 264.821 375.567,265.508 375.315,268.706 374.070 C 319.558 354.273,360.055 311.505,377.510 259.167 C 393.723 210.549,389.183 156.901,365.045 111.858 C 337.690 60.816,288.360 25.234,231.583 15.593 C 225.616 14.579,220.979 14.014,213.583 13.400 C 210.616 13.153,194.418 12.937,191.333 13.103 M208.773 32.500 C 232.132 33.809,253.400 39.348,274.083 49.508 C 317.342 70.759,349.886 110.413,362.097 156.750 C 373.695 200.755,367.261 246.928,344.112 285.833 C 312.326 339.254,253.048 370.905,191.167 367.497 C 91.760 362.022,19.131 272.529,34.268 174.167 C 47.298 89.496,123.399 27.717,208.773 32.500 M195.211 53.453 C 195.464 53.491,195.839 53.490,196.044 53.451 C 196.249 53.411,196.042 53.380,195.583 53.381 C 195.125 53.382,194.957 53.415,195.211 53.453 M204.044 53.453 C 204.297 53.491,204.672 53.490,204.877 53.451 C 205.082 53.411,204.875 53.380,204.417 53.381 C 203.958 53.382,203.791 53.415,204.044 53.453 M191.627 53.618 C 191.834 53.658,192.134 53.656,192.294 53.615 C 192.453 53.573,192.283 53.540,191.917 53.542 C 191.550 53.544,191.420 53.578,191.627 53.618 M207.794 53.618 C 208.001 53.658,208.301 53.656,208.460 53.615 C 208.620 53.573,208.450 53.540,208.083 53.542 C 207.717 53.544,207.586 53.578,207.794 53.618 M101.158 91.625 L 100.583 92.250 101.208 91.676 C 101.790 91.141,101.910 91.000,101.783 91.000 C 101.755 91.000,101.474 91.281,101.158 91.625 M298.167 91.052 C 298.167 91.081,298.410 91.325,298.708 91.594 L 299.250 92.083 298.760 91.542 C 298.304 91.037,298.167 90.923,298.167 91.052 M98.991 93.625 L 98.417 94.250 99.042 93.676 C 99.623 93.141,99.743 93.000,99.616 93.000 C 99.588 93.000,99.307 93.281,98.991 93.625 M300.833 93.583 C 301.144 93.904,301.436 94.167,301.482 94.167 C 301.528 94.167,301.311 93.904,301.000 93.583 C 300.689 93.263,300.397 93.000,300.351 93.000 C 300.305 93.000,300.522 93.263,300.833 93.583 M93.575 99.042 L 92.917 99.750 93.625 99.091 C 94.284 98.478,94.410 98.333,94.284 98.333 C 94.257 98.333,93.938 98.652,93.575 99.042 M306.333 99.083 C 306.644 99.404,306.936 99.667,306.982 99.667 C 307.028 99.667,306.811 99.404,306.500 99.083 C 306.189 98.763,305.897 98.500,305.851 98.500 C 305.805 98.500,306.022 98.763,306.333 99.083 M91.406 101.375 L 90.917 101.917 91.458 101.427 C 91.963 100.971,92.077 100.833,91.948 100.833 C 91.919 100.833,91.675 101.077,91.406 101.375 M53.539 191.833 C 53.539 192.154,53.573 192.285,53.615 192.125 C 53.657 191.965,53.657 191.702,53.615 191.542 C 53.573 191.381,53.539 191.512,53.539 191.833 M346.372 191.833 C 346.372 192.154,346.406 192.285,346.448 192.125 C 346.490 191.965,346.490 191.702,346.448 191.542 C 346.406 191.381,346.372 191.512,346.372 191.833 M53.383 195.500 C 53.383 196.004,53.415 196.210,53.453 195.958 C 53.491 195.706,53.491 195.294,53.453 195.042 C 53.415 194.790,53.383 194.996,53.383 195.500 M346.550 195.500 C 346.550 196.004,346.581 196.210,346.619 195.958 C 346.658 195.706,346.658 195.294,346.619 195.042 C 346.581 194.790,346.550 194.996,346.550 195.500 M53.381 204.417 C 53.382 204.875,53.415 205.043,53.453 204.789 C 53.491 204.536,53.490 204.161,53.451 203.956 C 53.411 203.751,53.380 203.958,53.381 204.417 M346.550 204.500 C 346.550 205.004,346.581 205.210,346.619 204.958 C 346.658 204.706,346.658 204.294,346.619 204.042 C 346.581 203.790,346.550 203.996,346.550 204.500 M53.542 208.083 C 53.544 208.450,53.578 208.580,53.618 208.373 C 53.658 208.166,53.656 207.866,53.615 207.706 C 53.573 207.547,53.540 207.717,53.542 208.083 M346.372 208.167 C 346.372 208.487,346.406 208.619,346.448 208.458 C 346.490 208.298,346.490 208.035,346.448 207.875 C 346.406 207.715,346.372 207.846,346.372 208.167 M308.491 298.625 L 307.917 299.250 308.542 298.676 C 309.123 298.141,309.243 298.000,309.116 298.000 C 309.088 298.000,308.807 298.281,308.491 298.625 M91.000 298.219 C 91.000 298.248,91.244 298.491,91.542 298.760 L 92.083 299.250 91.594 298.708 C 91.138 298.203,91.000 298.090,91.000 298.219 M306.324 300.958 L 305.750 301.583 306.375 301.009 C 306.719 300.693,307.000 300.412,307.000 300.384 C 307.000 300.257,306.859 300.377,306.324 300.958 M93.167 300.552 C 93.167 300.581,93.410 300.825,93.708 301.094 L 94.250 301.583 93.760 301.042 C 93.304 300.537,93.167 300.423,93.167 300.552 M98.500 305.885 C 98.500 305.914,98.744 306.158,99.042 306.427 L 99.583 306.917 99.094 306.375 C 98.638 305.870,98.500 305.757,98.500 305.885 M300.824 306.458 L 300.250 307.083 300.875 306.509 C 301.219 306.193,301.500 305.912,301.500 305.884 C 301.500 305.757,301.359 305.877,300.824 306.458 M100.833 308.052 C 100.833 308.081,101.077 308.325,101.375 308.594 L 101.917 309.083 101.427 308.542 C 100.971 308.037,100.833 307.923,100.833 308.052 M298.491 308.625 L 297.917 309.250 298.542 308.676 C 298.885 308.360,299.167 308.078,299.167 308.051 C 299.167 307.923,299.026 308.043,298.491 308.625 M191.542 346.448 C 191.702 346.490,191.965 346.490,192.125 346.448 C 192.285 346.406,192.154 346.372,191.833 346.372 C 191.512 346.372,191.381 346.406,191.542 346.448 M207.875 346.448 C 208.035 346.490,208.298 346.490,208.458 346.448 C 208.619 346.406,208.487 346.372,208.167 346.372 C 207.846 346.372,207.715 346.406,207.875 346.448 M195.042 346.619 C 195.294 346.658,195.706 346.658,195.958 346.619 C 196.210 346.581,196.004 346.550,195.500 346.550 C 194.996 346.550,194.790 346.581,195.042 346.619 M204.042 346.619 C 204.294 346.658,204.706 346.658,204.958 346.619 C 205.210 346.581,205.004 346.550,204.500 346.550 C 203.996 346.550,203.790 346.581,204.042 346.619 " stroke="none" fill="#1266ab" fill-rule="evenodd"></path><path id="path3" d="M189.333 0.179 C 188.463 0.252,186.512 0.394,185.000 0.493 C 178.142 0.945,168.704 2.170,162.583 3.400 C 161.942 3.529,160.779 3.762,160.000 3.917 C 156.682 4.576,153.441 5.305,151.083 5.922 C 150.533 6.066,149.671 6.289,149.167 6.417 C 147.828 6.756,146.542 7.108,145.500 7.420 C 144.996 7.571,144.208 7.796,143.750 7.920 C 139.711 9.014,129.992 12.331,126.917 13.666 C 126.550 13.825,125.875 14.091,125.417 14.256 C 124.958 14.422,124.508 14.607,124.417 14.667 C 124.325 14.727,123.875 14.911,123.417 15.075 C 122.958 15.240,122.033 15.627,121.360 15.937 C 120.687 16.247,120.101 16.500,120.058 16.500 C 119.982 16.500,119.182 16.860,117.083 17.838 C 116.533 18.094,115.521 18.564,114.833 18.882 C 110.760 20.768,104.905 23.787,102.002 25.499 C 101.535 25.774,101.123 26.000,101.087 26.000 C 100.935 26.000,93.412 30.574,93.361 30.697 C 93.331 30.772,93.215 30.833,93.103 30.833 C 92.992 30.833,92.755 30.946,92.576 31.084 C 92.397 31.221,90.975 32.174,89.417 33.201 C 87.858 34.227,86.492 35.146,86.381 35.242 C 86.270 35.338,85.682 35.754,85.074 36.167 C 83.904 36.961,76.475 42.473,76.333 42.652 C 76.287 42.710,75.725 43.167,75.083 43.667 C 74.442 44.166,73.879 44.615,73.833 44.663 C 73.787 44.711,73.375 45.050,72.917 45.416 C 71.791 46.317,71.326 46.703,71.011 47.000 C 70.865 47.137,70.376 47.550,69.924 47.917 C 69.472 48.283,68.902 48.771,68.657 49.000 C 67.880 49.728,65.801 51.580,65.663 51.667 C 64.637 52.316,52.316 64.637,51.667 65.663 C 51.580 65.801,49.728 67.880,49.000 68.657 C 48.771 68.902,48.283 69.472,47.917 69.924 C 47.550 70.376,47.137 70.865,47.000 71.011 C 46.703 71.326,46.317 71.791,45.416 72.917 C 45.050 73.375,44.711 73.787,44.663 73.833 C 44.615 73.879,44.166 74.442,43.667 75.083 C 43.167 75.725,42.710 76.287,42.652 76.333 C 42.473 76.475,36.961 83.904,36.167 85.074 C 35.754 85.682,35.338 86.270,35.242 86.381 C 35.146 86.492,34.227 87.858,33.201 89.417 C 32.174 90.975,31.221 92.397,31.084 92.576 C 30.946 92.755,30.833 92.992,30.833 93.103 C 30.833 93.215,30.772 93.331,30.697 93.361 C 30.574 93.412,26.000 100.935,26.000 101.087 C 26.000 101.123,25.774 101.535,25.499 102.002 C 23.787 104.905,20.768 110.760,18.882 114.833 C 18.564 115.521,18.094 116.533,17.838 117.083 C 16.860 119.182,16.500 119.982,16.500 120.058 C 16.500 120.101,16.247 120.687,15.937 121.360 C 15.627 122.033,15.240 122.958,15.075 123.417 C 14.911 123.875,14.727 124.325,14.667 124.417 C 14.607 124.508,14.422 124.958,14.256 125.417 C 14.091 125.875,13.825 126.550,13.666 126.917 C 12.331 129.992,9.014 139.711,7.920 143.750 C 7.796 144.208,7.571 144.996,7.420 145.500 C 7.108 146.542,6.756 147.828,6.417 149.167 C 6.289 149.671,6.066 150.533,5.922 151.083 C 5.305 153.441,4.576 156.682,3.917 160.000 C 3.762 160.779,3.529 161.942,3.400 162.583 C 2.183 168.637,0.957 178.058,0.505 184.833 C 0.410 186.254,0.257 188.392,0.166 189.583 C 0.074 190.775,-0.001 195.463,-0.001 200.000 C -0.001 204.537,0.074 209.225,0.166 210.417 C 0.257 211.608,0.410 213.746,0.505 215.167 C 0.957 221.942,2.183 231.363,3.400 237.417 C 3.529 238.058,3.762 239.221,3.917 240.000 C 4.576 243.318,5.305 246.559,5.922 248.917 C 6.066 249.467,6.289 250.329,6.417 250.833 C 6.756 252.172,7.108 253.458,7.420 254.500 C 7.571 255.004,7.793 255.792,7.912 256.250 C 8.032 256.708,8.170 257.196,8.218 257.333 C 8.266 257.471,8.585 258.483,8.926 259.583 C 10.385 264.276,12.677 270.805,13.666 273.083 C 13.825 273.450,14.091 274.125,14.256 274.583 C 14.422 275.042,14.607 275.492,14.667 275.583 C 14.727 275.675,14.911 276.125,15.075 276.583 C 15.240 277.042,15.627 277.967,15.937 278.640 C 16.247 279.313,16.500 279.899,16.500 279.942 C 16.500 280.017,16.638 280.324,17.912 283.083 C 20.610 288.926,23.504 294.615,25.499 297.998 C 25.774 298.465,26.000 298.877,26.000 298.913 C 26.000 299.046,30.574 306.592,30.783 306.804 C 30.902 306.925,31.000 307.097,31.000 307.186 C 31.000 307.275,31.076 307.438,31.169 307.549 C 31.262 307.659,32.178 309.025,33.204 310.583 C 34.230 312.142,35.130 313.492,35.205 313.583 C 35.280 313.675,35.841 314.462,36.452 315.333 C 37.613 316.988,42.477 323.522,42.655 323.667 C 42.712 323.712,43.167 324.275,43.667 324.917 C 44.166 325.558,44.615 326.121,44.663 326.167 C 44.711 326.212,45.050 326.625,45.416 327.083 C 46.317 328.209,46.703 328.674,47.000 328.989 C 47.137 329.135,47.550 329.624,47.917 330.076 C 48.283 330.528,48.771 331.098,49.000 331.343 C 49.728 332.120,51.580 334.199,51.667 334.337 C 52.316 335.363,64.637 347.684,65.663 348.333 C 65.801 348.420,67.880 350.272,68.657 351.000 C 68.902 351.229,69.472 351.717,69.924 352.083 C 70.376 352.450,70.865 352.863,71.011 353.000 C 71.326 353.297,71.791 353.683,72.917 354.584 C 73.375 354.950,73.787 355.289,73.833 355.337 C 73.879 355.385,74.442 355.834,75.083 356.333 C 75.725 356.833,76.287 357.288,76.333 357.345 C 76.478 357.523,83.012 362.387,84.667 363.548 C 85.537 364.159,86.325 364.720,86.417 364.795 C 86.508 364.870,87.858 365.771,89.417 366.798 C 90.975 367.826,92.397 368.779,92.576 368.916 C 92.755 369.054,92.992 369.167,93.103 369.167 C 93.215 369.167,93.331 369.228,93.361 369.303 C 93.412 369.426,100.935 374.000,101.087 374.000 C 101.123 374.000,101.535 374.226,102.002 374.501 C 105.385 376.496,111.074 379.390,116.917 382.088 C 119.676 383.362,119.983 383.500,120.058 383.500 C 120.101 383.500,120.687 383.753,121.360 384.063 C 122.033 384.373,122.958 384.760,123.417 384.925 C 123.875 385.089,124.325 385.273,124.417 385.333 C 124.508 385.393,124.958 385.578,125.417 385.744 C 125.875 385.909,126.550 386.175,126.917 386.334 C 129.195 387.323,135.724 389.615,140.417 391.074 C 141.517 391.415,142.529 391.734,142.667 391.782 C 142.804 391.830,143.292 391.968,143.750 392.088 C 144.208 392.207,144.996 392.429,145.500 392.580 C 146.542 392.892,147.828 393.244,149.167 393.583 C 149.671 393.711,150.533 393.934,151.083 394.078 C 153.441 394.695,156.682 395.424,160.000 396.083 C 160.779 396.238,161.942 396.471,162.583 396.600 C 168.637 397.817,178.058 399.043,184.833 399.495 C 186.254 399.590,188.392 399.743,189.583 399.834 C 192.392 400.050,207.608 400.050,210.417 399.834 C 211.608 399.743,213.746 399.591,215.167 399.497 C 221.964 399.047,231.282 397.833,237.417 396.600 C 238.058 396.471,239.183 396.246,239.917 396.101 C 242.177 395.654,243.532 395.359,246.833 394.600 C 247.429 394.463,248.292 394.267,248.750 394.165 C 249.208 394.064,249.733 393.914,249.917 393.833 C 250.100 393.752,250.588 393.612,251.000 393.522 C 251.412 393.431,252.200 393.235,252.750 393.085 C 253.300 392.935,254.100 392.723,254.528 392.614 C 254.956 392.505,255.362 392.360,255.431 392.292 C 255.499 392.223,255.690 392.167,255.855 392.167 C 256.020 392.167,256.476 392.063,256.869 391.937 C 257.262 391.810,258.146 391.538,258.833 391.332 C 259.521 391.127,260.233 390.899,260.417 390.828 C 260.600 390.756,261.650 390.417,262.750 390.075 C 263.850 389.733,264.825 389.397,264.917 389.329 C 265.008 389.261,265.346 389.150,265.667 389.083 C 265.987 389.016,266.325 388.904,266.417 388.834 C 266.508 388.765,266.771 388.654,267.000 388.589 C 267.505 388.446,271.384 387.044,272.083 386.751 C 272.358 386.636,272.958 386.407,273.417 386.242 C 273.875 386.078,274.325 385.893,274.417 385.833 C 274.508 385.773,274.958 385.589,275.417 385.424 C 276.341 385.092,276.726 384.930,278.387 384.180 C 279.012 383.898,279.568 383.667,279.623 383.667 C 279.679 383.667,280.180 383.448,280.737 383.182 C 281.294 382.915,282.125 382.531,282.583 382.329 C 284.573 381.450,285.797 380.866,289.250 379.145 C 292.834 377.360,293.702 376.908,296.083 375.586 C 296.725 375.230,297.587 374.758,298.000 374.537 C 298.412 374.316,299.360 373.767,300.106 373.318 C 300.853 372.868,301.546 372.500,301.648 372.500 C 301.750 372.500,301.833 372.425,301.833 372.333 C 301.833 372.242,301.911 372.167,302.007 372.167 C 302.102 372.167,302.570 371.904,303.046 371.583 C 303.522 371.263,304.001 371.000,304.109 371.000 C 304.217 371.000,304.331 370.938,304.361 370.862 C 304.408 370.744,305.009 370.359,307.083 369.116 C 307.267 369.007,307.454 368.875,307.500 368.823 C 307.546 368.772,308.071 368.439,308.667 368.083 C 309.262 367.728,309.787 367.391,309.833 367.335 C 309.879 367.278,310.217 367.053,310.583 366.833 C 310.950 366.614,311.287 366.389,311.333 366.333 C 311.379 366.278,311.717 366.052,312.083 365.831 C 312.450 365.610,312.841 365.351,312.953 365.256 C 313.360 364.908,313.613 364.727,315.167 363.672 C 316.448 362.802,318.913 361.026,319.750 360.370 C 319.842 360.299,320.892 359.497,322.083 358.589 C 323.275 357.682,324.287 356.895,324.333 356.840 C 324.379 356.786,324.941 356.331,325.582 355.829 C 326.913 354.788,327.443 354.356,327.827 354.000 C 327.976 353.863,328.468 353.450,328.922 353.083 C 329.375 352.717,329.864 352.304,330.008 352.167 C 330.395 351.797,332.351 350.097,332.500 350.000 C 332.711 349.863,335.437 347.369,337.324 345.587 C 339.613 343.424,343.469 339.566,345.671 337.236 C 347.841 334.939,349.347 333.270,351.430 330.852 C 351.698 330.541,351.995 330.204,352.091 330.102 C 352.232 329.952,354.830 326.819,355.977 325.416 C 356.219 325.119,357.877 323.016,358.209 322.583 C 358.279 322.492,358.560 322.154,358.832 321.833 C 359.105 321.512,359.329 321.205,359.331 321.151 C 359.332 321.096,359.522 320.834,359.753 320.568 C 359.984 320.301,360.378 319.783,360.628 319.417 C 360.878 319.050,361.158 318.665,361.250 318.560 C 361.429 318.356,361.466 318.304,362.976 316.167 C 363.527 315.387,364.042 314.675,364.122 314.583 C 364.485 314.166,369.000 307.312,369.000 307.178 C 369.000 307.095,369.061 307.003,369.136 306.972 C 369.313 306.900,374.000 299.085,374.000 298.863 C 374.000 298.770,374.056 298.669,374.125 298.639 C 374.238 298.589,374.585 297.992,375.322 296.583 C 375.466 296.309,375.621 296.046,375.667 296.000 C 375.869 295.797,380.308 287.003,381.608 284.226 C 382.671 281.958,383.333 280.486,383.333 280.390 C 383.333 280.343,383.566 279.804,383.850 279.194 C 384.134 278.583,384.512 277.708,384.691 277.250 C 384.869 276.792,385.115 276.192,385.236 275.917 C 385.358 275.642,385.593 275.042,385.758 274.583 C 385.922 274.125,386.107 273.675,386.167 273.583 C 386.227 273.492,386.411 273.042,386.576 272.583 C 386.741 272.125,386.970 271.525,387.085 271.250 C 387.336 270.650,388.647 267.017,389.160 265.500 C 389.362 264.904,389.586 264.302,389.659 264.161 C 389.732 264.021,389.848 263.648,389.917 263.333 C 389.986 263.019,390.104 262.646,390.179 262.505 C 390.254 262.365,390.479 261.688,390.679 261.000 C 390.878 260.313,391.257 259.093,391.521 258.289 C 391.784 257.486,392.000 256.692,392.000 256.525 C 392.000 256.359,392.056 256.166,392.125 256.097 C 392.194 256.029,392.339 255.622,392.448 255.195 C 392.556 254.767,392.764 253.986,392.909 253.459 C 393.409 251.645,393.644 250.745,394.070 249.000 C 394.306 248.037,394.569 247.025,394.655 246.750 C 394.742 246.475,394.892 245.838,394.989 245.333 C 395.086 244.829,395.279 243.929,395.418 243.333 C 395.556 242.737,395.789 241.650,395.934 240.917 C 396.079 240.183,396.304 239.058,396.433 238.417 C 397.667 232.292,398.777 224.365,399.328 217.750 C 399.420 216.650,399.589 214.737,399.706 213.500 C 399.999 210.371,399.999 189.629,399.706 186.500 C 399.589 185.262,399.420 183.350,399.328 182.250 C 398.777 175.635,397.667 167.708,396.433 161.583 C 396.304 160.942,396.081 159.817,395.937 159.083 C 395.794 158.350,395.555 157.225,395.407 156.583 C 395.258 155.942,395.071 155.079,394.990 154.667 C 394.909 154.254,394.767 153.654,394.673 153.333 C 394.580 153.012,394.310 151.962,394.073 151.000 C 393.642 149.247,393.402 148.330,392.909 146.541 C 392.764 146.014,392.556 145.233,392.448 144.805 C 392.339 144.378,392.194 143.971,392.125 143.903 C 392.056 143.834,392.000 143.650,392.000 143.494 C 392.000 143.338,391.859 142.769,391.687 142.230 C 391.516 141.691,391.136 140.462,390.844 139.500 C 390.552 138.537,390.252 137.635,390.178 137.495 C 390.103 137.354,389.986 136.981,389.917 136.667 C 389.848 136.352,389.732 135.979,389.659 135.839 C 389.586 135.698,389.362 135.096,389.160 134.500 C 388.647 132.983,387.336 129.350,387.085 128.750 C 386.970 128.475,386.741 127.875,386.576 127.417 C 386.411 126.958,386.227 126.508,386.167 126.417 C 386.107 126.325,385.922 125.875,385.758 125.417 C 385.593 124.958,385.358 124.358,385.236 124.083 C 385.115 123.808,384.869 123.208,384.691 122.750 C 384.512 122.292,384.134 121.417,383.850 120.806 C 383.566 120.196,383.333 119.657,383.333 119.610 C 383.333 119.514,382.671 118.042,381.608 115.774 C 380.309 113.000,375.870 104.204,375.667 104.000 C 375.588 103.920,375.083 103.011,374.511 101.917 C 374.368 101.642,374.194 101.392,374.125 101.361 C 374.056 101.331,374.000 101.230,374.000 101.137 C 374.000 100.536,366.223 88.305,362.998 83.833 C 362.436 83.054,361.850 82.240,361.696 82.023 C 361.542 81.807,361.342 81.544,361.250 81.440 C 361.158 81.335,360.878 80.950,360.628 80.583 C 360.378 80.217,359.984 79.699,359.753 79.432 C 359.522 79.166,359.332 78.904,359.331 78.849 C 359.329 78.795,359.105 78.487,358.832 78.167 C 358.560 77.846,358.279 77.508,358.209 77.417 C 357.877 76.984,356.219 74.881,355.977 74.584 C 355.588 74.108,352.325 70.163,351.921 69.680 C 351.735 69.458,351.471 69.154,351.333 69.005 C 351.196 68.856,350.792 68.400,350.435 67.992 C 345.263 62.071,336.542 53.349,332.174 49.728 C 331.857 49.465,331.398 49.063,331.155 48.833 C 330.620 48.330,329.237 47.150,328.571 46.629 C 328.305 46.420,327.968 46.137,327.822 46.000 C 327.458 45.656,326.945 45.237,325.582 44.171 C 324.941 43.669,324.379 43.214,324.333 43.160 C 324.287 43.105,323.275 42.318,322.083 41.411 C 320.892 40.503,319.842 39.701,319.750 39.630 C 318.933 38.989,316.450 37.200,315.168 36.327 C 314.298 35.735,313.494 35.175,313.382 35.083 C 313.270 34.992,313.082 34.839,312.964 34.745 C 312.846 34.650,312.450 34.392,312.083 34.170 C 311.717 33.949,311.379 33.722,311.333 33.667 C 311.287 33.611,310.950 33.386,310.583 33.167 C 310.217 32.947,309.879 32.722,309.833 32.665 C 309.787 32.609,309.262 32.272,308.667 31.917 C 308.071 31.561,307.546 31.228,307.500 31.177 C 307.454 31.125,307.267 30.993,307.083 30.884 C 305.009 29.641,304.408 29.256,304.361 29.138 C 304.331 29.062,304.217 29.000,304.109 29.000 C 304.001 29.000,303.522 28.738,303.046 28.417 C 302.570 28.096,302.102 27.833,302.007 27.833 C 301.911 27.833,301.833 27.758,301.833 27.667 C 301.833 27.575,301.750 27.500,301.648 27.500 C 301.546 27.500,300.853 27.132,300.106 26.682 C 299.360 26.233,298.412 25.684,298.000 25.463 C 297.587 25.242,296.725 24.770,296.083 24.414 C 293.638 23.057,292.808 22.625,289.083 20.775 C 285.432 18.961,284.488 18.510,282.583 17.671 C 282.125 17.469,281.294 17.085,280.737 16.818 C 280.180 16.552,279.679 16.333,279.623 16.333 C 279.568 16.333,279.012 16.102,278.387 15.820 C 276.726 15.070,276.341 14.908,275.417 14.576 C 274.958 14.411,274.508 14.227,274.417 14.167 C 274.325 14.107,273.875 13.922,273.417 13.758 C 272.958 13.593,272.358 13.363,272.083 13.248 C 271.808 13.133,270.496 12.648,269.167 12.169 C 267.837 11.691,266.600 11.235,266.417 11.156 C 266.233 11.076,264.883 10.625,263.417 10.152 C 261.950 9.680,260.600 9.237,260.417 9.168 C 260.233 9.099,259.521 8.873,258.833 8.668 C 258.146 8.462,257.262 8.190,256.869 8.063 C 256.476 7.937,256.020 7.833,255.855 7.833 C 255.690 7.833,255.499 7.777,255.431 7.708 C 255.362 7.640,254.956 7.495,254.528 7.386 C 254.100 7.277,253.300 7.065,252.750 6.915 C 252.200 6.765,251.412 6.569,251.000 6.478 C 250.588 6.388,250.100 6.248,249.917 6.167 C 249.733 6.086,249.208 5.936,248.750 5.835 C 248.292 5.733,247.448 5.541,246.875 5.408 C 243.337 4.588,242.906 4.494,240.000 3.917 C 239.221 3.762,238.058 3.529,237.417 3.400 C 231.282 2.167,221.964 0.953,215.167 0.503 C 213.746 0.409,211.608 0.257,210.417 0.166 C 207.903 -0.028,191.672 -0.017,189.333 0.179 M213.583 13.400 C 237.713 15.405,257.743 20.596,278.917 30.330 C 324.993 51.514,361.284 92.190,377.506 140.833 C 391.866 183.895,389.998 231.330,372.301 273.000 C 352.746 319.048,314.703 356.163,268.706 374.070 C 265.508 375.315,264.821 375.567,261.097 376.856 C 199.555 398.162,132.210 386.009,81.000 344.357 C 68.952 334.557,57.207 321.899,47.034 307.750 C 21.132 271.725,9.090 224.711,14.098 179.167 C 23.171 96.653,86.410 29.589,168.333 15.603 C 175.284 14.416,183.484 13.525,191.333 13.103 C 194.418 12.937,210.616 13.153,213.583 13.400 M193.500 53.517 C 156.501 55.213,122.154 70.402,96.114 96.583 C 92.027 100.692,88.281 104.870,85.504 108.418 C 85.002 109.059,84.548 109.621,84.494 109.667 C 84.270 109.858,80.445 115.064,79.227 116.833 C 67.877 133.330,59.854 152.331,56.179 171.417 C 55.897 172.883,55.593 174.458,55.505 174.917 C 52.526 190.360,52.764 211.227,56.113 228.250 C 56.347 229.442,56.576 230.604,56.620 230.833 C 56.891 232.218,58.448 238.448,59.016 240.417 C 64.574 259.681,73.467 276.644,86.500 292.844 C 91.733 299.348,99.601 307.240,106.846 313.252 C 138.586 339.586,181.924 351.439,222.583 344.905 C 286.055 334.706,334.706 286.055,344.905 222.583 C 346.748 211.116,347.103 196.776,345.840 184.832 C 345.405 180.720,345.128 178.728,344.334 174.000 C 340.550 151.459,328.370 124.665,314.516 108.408 C 314.278 108.129,313.821 107.570,313.500 107.167 C 308.417 100.782,299.231 91.595,292.833 86.500 C 292.430 86.179,291.684 85.578,291.175 85.163 C 288.732 83.174,283.343 79.262,280.583 77.474 C 264.510 67.063,249.328 60.728,230.333 56.508 C 219.610 54.126,205.396 52.971,193.500 53.517 M208.167 66.676 C 249.950 69.176,288.258 91.296,311.408 126.289 L 313.188 128.980 305.990 136.997 C 302.032 141.407,298.775 144.993,298.753 144.966 C 298.731 144.939,298.242 144.092,297.666 143.083 C 288.808 127.561,274.401 112.906,258.583 103.327 C 248.246 97.067,234.881 91.680,224.686 89.664 C 224.263 89.580,223.392 89.400,222.750 89.264 C 221.083 88.909,217.075 88.235,214.833 87.933 C 203.038 86.342,188.567 86.855,177.250 89.264 C 176.608 89.400,175.746 89.579,175.333 89.661 C 142.873 96.103,112.263 120.713,97.565 152.186 C 64.804 222.340,110.961 304.044,188.083 312.415 C 231.894 317.171,276.192 294.762,297.604 257.013 L 298.750 254.993 299.500 255.792 C 299.912 256.231,301.490 257.976,303.006 259.670 C 304.521 261.364,307.435 264.610,309.481 266.883 L 313.200 271.015 311.287 273.883 C 265.658 342.293,170.285 353.888,109.673 298.393 C 88.777 279.261,75.132 255.087,68.999 226.333 C 65.657 210.666,65.658 189.266,69.000 173.667 C 70.201 168.061,71.401 163.463,72.783 159.167 C 89.675 106.657,137.233 69.784,192.083 66.668 C 197.986 66.333,202.470 66.335,208.167 66.676 M206.333 93.001 C 207.662 93.091,209.106 93.210,209.542 93.265 L 210.333 93.365 210.333 113.349 L 210.333 133.333 200.083 133.333 L 189.833 133.333 189.833 113.333 C 189.833 102.333,189.852 93.328,189.875 93.321 C 191.155 92.940,202.265 92.724,206.333 93.001 M218.917 94.511 C 232.397 96.847,246.009 102.208,257.965 109.888 C 259.512 110.882,259.512 110.882,259.195 111.233 C 259.021 111.425,256.082 114.696,252.665 118.500 C 249.248 122.304,246.389 125.441,246.312 125.471 C 246.235 125.501,245.552 125.155,244.795 124.702 C 240.678 122.240,236.716 120.282,232.250 118.501 C 227.686 116.682,221.585 114.883,216.958 113.994 L 216.000 113.810 216.000 103.909 L 216.000 94.008 216.458 94.086 C 216.710 94.129,217.817 94.320,218.917 94.511 M183.626 104.028 L 183.583 113.890 181.417 114.352 C 180.225 114.606,178.150 115.118,176.805 115.490 C 175.460 115.862,174.316 116.167,174.263 116.167 C 174.210 116.167,174.167 121.229,174.167 127.416 L 174.167 138.666 204.434 138.708 L 234.701 138.750 225.836 148.458 L 216.970 158.167 195.568 158.167 L 174.167 158.167 174.167 172.665 L 174.167 187.164 173.292 186.201 C 172.810 185.671,171.779 184.530,171.000 183.665 C 170.221 182.801,169.171 181.638,168.667 181.082 C 168.162 180.526,167.179 179.436,166.481 178.660 C 165.783 177.885,162.614 174.365,159.439 170.839 L 153.667 164.428 153.667 144.988 L 153.667 125.547 147.397 118.565 C 143.948 114.725,140.984 111.427,140.810 111.236 C 140.494 110.889,140.496 110.887,142.205 109.795 C 153.756 102.417,166.343 97.350,179.333 94.849 C 180.754 94.576,182.067 94.319,182.250 94.279 C 182.433 94.238,182.828 94.197,183.126 94.186 L 183.669 94.167 183.626 104.028 M285.577 135.583 C 288.617 139.610,291.763 144.457,293.983 148.535 L 294.683 149.821 288.342 156.864 L 282.000 163.906 282.000 216.433 L 282.000 268.960 280.728 270.438 C 276.771 275.035,269.107 282.114,263.917 285.967 L 261.583 287.698 261.500 237.231 L 261.417 186.763 258.417 190.125 C 256.767 191.974,246.604 203.337,235.833 215.376 L 216.250 237.265 216.207 221.952 L 216.165 206.639 217.707 204.939 C 218.556 204.004,219.784 202.642,220.436 201.911 C 221.088 201.181,231.805 189.221,244.251 175.333 C 256.697 161.446,267.384 149.521,268.000 148.833 C 269.445 147.221,279.533 135.975,281.031 134.308 C 281.661 133.607,282.338 132.827,282.535 132.576 L 282.894 132.120 283.292 132.602 C 283.510 132.867,284.539 134.208,285.577 135.583 M151.389 170.630 L 183.833 206.677 183.833 221.995 L 183.833 237.313 183.028 236.448 C 182.585 235.973,175.782 228.421,167.911 219.667 C 160.039 210.912,153.557 203.713,153.506 203.667 C 153.455 203.621,152.440 202.496,151.250 201.167 C 150.060 199.838,149.048 198.713,149.000 198.667 C 148.952 198.621,147.940 197.496,146.750 196.167 C 145.560 194.838,144.548 193.713,144.500 193.667 C 144.452 193.621,143.440 192.496,142.250 191.167 C 141.060 189.838,140.049 188.713,140.002 188.667 C 139.955 188.621,139.560 188.193,139.125 187.715 L 138.333 186.848 138.333 237.174 C 138.333 264.853,138.284 287.500,138.223 287.500 C 138.014 287.500,133.751 284.223,131.167 282.077 C 128.408 279.786,121.429 272.947,119.188 270.340 L 117.833 268.763 117.833 216.407 L 117.833 164.051 111.520 157.044 L 105.207 150.037 106.150 148.310 C 108.662 143.711,112.174 138.399,115.638 133.962 L 116.904 132.341 117.925 133.462 C 118.486 134.079,133.545 150.804,151.389 170.630 M210.333 235.567 L 210.333 306.634 209.375 306.738 C 204.212 307.298,195.080 307.296,190.625 306.735 L 189.833 306.635 189.833 235.568 L 189.833 164.500 200.083 164.500 L 210.333 164.500 210.333 235.567 M164.149 224.218 L 174.167 235.352 174.167 269.687 C 174.167 302.308,174.152 304.018,173.875 303.940 C 173.715 303.894,172.447 303.552,171.057 303.178 C 166.437 301.936,159.902 299.543,155.524 297.489 L 153.667 296.618 153.667 254.607 C 153.667 218.720,153.700 212.631,153.899 212.839 C 154.026 212.974,158.639 218.094,164.149 224.218 " stroke="none" fill="#a39261" fill-rule="evenodd"></path><path id="path4" d="M198.958 66.457 C 199.531 66.489,200.469 66.489,201.042 66.457 C 201.615 66.424,201.146 66.398,200.000 66.398 C 198.854 66.398,198.385 66.424,198.958 66.457 M193.627 66.618 C 193.834 66.658,194.134 66.656,194.294 66.615 C 194.453 66.573,194.283 66.540,193.917 66.542 C 193.550 66.544,193.420 66.578,193.627 66.618 M205.794 66.618 C 206.001 66.658,206.301 66.656,206.460 66.615 C 206.620 66.573,206.450 66.540,206.083 66.542 C 205.717 66.544,205.586 66.578,205.794 66.618 M188.460 66.951 C 188.668 66.991,188.968 66.990,189.127 66.948 C 189.286 66.906,189.117 66.874,188.750 66.875 C 188.383 66.877,188.253 66.911,188.460 66.951 M210.960 66.951 C 211.168 66.991,211.468 66.990,211.627 66.948 C 211.786 66.906,211.617 66.874,211.250 66.875 C 210.883 66.877,210.753 66.911,210.960 66.951 M199.208 86.956 C 199.644 86.990,200.356 86.990,200.792 86.956 C 201.227 86.922,200.871 86.893,200.000 86.893 C 199.129 86.893,198.773 86.922,199.208 86.956 M193.877 87.120 C 194.131 87.158,194.506 87.157,194.711 87.117 C 194.916 87.078,194.708 87.046,194.250 87.048 C 193.792 87.049,193.624 87.081,193.877 87.120 M205.377 87.120 C 205.631 87.158,206.006 87.157,206.211 87.117 C 206.416 87.078,206.208 87.046,205.750 87.048 C 205.292 87.049,205.124 87.081,205.377 87.120 M196.048 92.957 C 196.578 92.990,197.403 92.990,197.881 92.956 C 198.359 92.922,197.925 92.895,196.917 92.896 C 195.908 92.896,195.517 92.924,196.048 92.957 M202.214 92.957 C 202.745 92.990,203.570 92.990,204.048 92.956 C 204.526 92.922,204.092 92.895,203.083 92.896 C 202.075 92.896,201.684 92.924,202.214 92.957 M206.708 93.115 C 206.869 93.157,207.131 93.157,207.292 93.115 C 207.452 93.073,207.321 93.039,207.000 93.039 C 206.679 93.039,206.548 93.073,206.708 93.115 M210.167 113.249 L 210.167 133.164 199.958 133.208 L 189.750 133.253 200.042 133.293 L 210.333 133.333 210.333 113.333 C 210.333 102.333,210.296 93.333,210.250 93.333 C 210.204 93.333,210.167 102.295,210.167 113.249 M111.409 100.042 L 110.750 100.750 111.458 100.091 C 111.848 99.729,112.167 99.410,112.167 99.383 C 112.167 99.257,112.022 99.383,111.409 100.042 M288.000 99.548 C 288.000 99.594,288.600 100.172,289.333 100.833 C 290.067 101.494,290.667 101.998,290.667 101.952 C 290.667 101.906,290.067 101.328,289.333 100.667 C 288.600 100.006,288.000 99.502,288.000 99.548 M105.498 105.625 L 102.417 108.750 105.542 105.668 C 108.445 102.805,108.742 102.500,108.623 102.500 C 108.599 102.500,107.193 103.906,105.498 105.625 M294.333 105.583 C 295.844 107.096,297.117 108.333,297.163 108.333 C 297.209 108.333,296.010 107.096,294.500 105.583 C 292.990 104.071,291.716 102.833,291.670 102.833 C 291.625 102.833,292.823 104.071,294.333 105.583 M133.583 108.431 L 133.083 108.861 133.625 108.502 C 133.923 108.305,134.167 108.112,134.167 108.072 C 134.167 107.947,134.096 107.991,133.583 108.431 M101.324 109.958 L 100.750 110.583 101.375 110.009 C 101.719 109.693,102.000 109.412,102.000 109.384 C 102.000 109.257,101.859 109.377,101.324 109.958 M298.500 109.917 C 298.811 110.237,299.103 110.500,299.149 110.500 C 299.195 110.500,298.978 110.237,298.667 109.917 C 298.356 109.596,298.064 109.333,298.018 109.333 C 297.972 109.333,298.189 109.596,298.500 109.917 M299.750 111.333 C 300.108 111.700,300.438 112.000,300.484 112.000 C 300.530 112.000,300.275 111.700,299.917 111.333 C 299.559 110.967,299.228 110.667,299.182 110.667 C 299.137 110.667,299.392 110.967,299.750 111.333 M99.909 111.542 L 99.250 112.250 99.958 111.591 C 100.617 110.978,100.743 110.833,100.617 110.833 C 100.590 110.833,100.271 111.152,99.909 111.542 M141.917 112.500 C 142.275 112.867,142.605 113.167,142.651 113.167 C 142.697 113.167,142.441 112.867,142.083 112.500 C 141.725 112.133,141.395 111.833,141.349 111.833 C 141.303 111.833,141.559 112.133,141.917 112.500 M257.909 112.542 L 257.250 113.250 257.958 112.591 C 258.617 111.978,258.743 111.833,258.617 111.833 C 258.590 111.833,258.271 112.152,257.909 112.542 M300.667 112.385 C 300.667 112.414,300.910 112.658,301.208 112.927 L 301.750 113.417 301.260 112.875 C 300.804 112.370,300.667 112.257,300.667 112.385 M126.323 114.179 L 125.417 115.025 126.375 114.231 C 127.255 113.502,127.425 113.333,127.282 113.333 C 127.253 113.333,126.822 113.714,126.323 114.179 M256.740 113.875 L 256.250 114.417 256.792 113.927 C 257.297 113.471,257.410 113.333,257.281 113.333 C 257.252 113.333,257.009 113.577,256.740 113.875 M273.500 114.052 C 273.500 114.081,273.744 114.325,274.042 114.594 L 274.583 115.083 274.094 114.542 C 273.638 114.037,273.500 113.923,273.500 114.052 M124.491 115.792 L 123.917 116.417 124.542 115.842 C 124.885 115.526,125.167 115.245,125.167 115.217 C 125.167 115.090,125.026 115.210,124.491 115.792 M144.333 115.219 C 144.333 115.248,144.577 115.491,144.875 115.760 L 145.417 116.250 144.927 115.708 C 144.471 115.203,144.333 115.090,144.333 115.219 M254.991 115.792 L 254.417 116.417 255.042 115.842 C 255.623 115.308,255.743 115.167,255.616 115.167 C 255.588 115.167,255.307 115.448,254.991 115.792 M275.500 115.917 C 275.811 116.237,276.103 116.500,276.149 116.500 C 276.195 116.500,275.978 116.237,275.667 115.917 C 275.356 115.596,275.064 115.333,275.018 115.333 C 274.972 115.333,275.189 115.596,275.500 115.917 M95.833 116.333 C 95.543 116.700,95.343 117.000,95.389 117.000 C 95.434 117.000,95.710 116.700,96.000 116.333 C 96.290 115.967,96.491 115.667,96.445 115.667 C 96.399 115.667,96.124 115.967,95.833 116.333 M146.417 117.500 C 146.775 117.867,147.105 118.167,147.151 118.167 C 147.197 118.167,146.941 117.867,146.583 117.500 C 146.225 117.133,145.895 116.833,145.849 116.833 C 145.803 116.833,146.059 117.133,146.417 117.500 M253.407 117.542 C 252.230 118.800,251.769 119.333,251.857 119.333 C 251.905 119.333,252.449 118.771,253.067 118.083 C 254.268 116.747,254.508 116.364,253.407 117.542 M121.995 118.125 L 120.917 119.250 122.042 118.171 C 122.660 117.578,123.167 117.072,123.167 117.046 C 123.167 116.924,122.997 117.080,121.995 118.125 M278.000 118.250 C 278.498 118.754,278.943 119.167,278.989 119.167 C 279.034 119.167,278.665 118.754,278.167 118.250 C 277.669 117.746,277.224 117.333,277.178 117.333 C 277.132 117.333,277.502 117.746,278.000 118.250 M306.330 119.328 C 306.524 119.601,306.767 119.876,306.871 119.940 C 306.975 120.004,306.850 119.782,306.594 119.445 C 306.037 118.715,305.827 118.622,306.330 119.328 M119.910 120.042 L 119.083 120.917 119.958 120.090 C 120.440 119.635,120.833 119.241,120.833 119.215 C 120.833 119.090,120.679 119.229,119.910 120.042 M149.167 120.583 C 149.478 120.904,149.770 121.167,149.815 121.167 C 149.861 121.167,149.644 120.904,149.333 120.583 C 149.022 120.263,148.730 120.000,148.685 120.000 C 148.639 120.000,148.856 120.263,149.167 120.583 M250.491 120.792 L 249.917 121.417 250.542 120.842 C 251.123 120.308,251.243 120.167,251.116 120.167 C 251.088 120.167,250.807 120.448,250.491 120.792 M117.995 122.125 L 116.917 123.250 118.042 122.171 C 118.660 121.578,119.167 121.072,119.167 121.046 C 119.167 120.924,118.997 121.080,117.995 122.125 M281.667 121.917 C 282.165 122.421,282.609 122.833,282.655 122.833 C 282.701 122.833,282.331 122.421,281.833 121.917 C 281.335 121.412,280.891 121.000,280.845 121.000 C 280.799 121.000,281.169 121.412,281.667 121.917 M150.917 122.500 C 151.275 122.867,151.605 123.167,151.651 123.167 C 151.697 123.167,151.441 122.867,151.083 122.500 C 150.725 122.133,150.395 121.833,150.349 121.833 C 150.303 121.833,150.559 122.133,150.917 122.500 M248.907 122.542 C 247.730 123.800,247.269 124.333,247.357 124.333 C 247.405 124.333,247.949 123.771,248.567 123.083 C 249.768 121.747,250.008 121.364,248.907 122.542 M284.000 124.417 C 284.311 124.737,284.603 125.000,284.649 125.000 C 284.695 125.000,284.478 124.737,284.167 124.417 C 283.856 124.096,283.564 123.833,283.518 123.833 C 283.472 123.833,283.689 124.096,284.000 124.417 M115.658 124.625 L 115.083 125.250 115.708 124.676 C 116.290 124.141,116.410 124.000,116.283 124.000 C 116.255 124.000,115.974 124.281,115.658 124.625 M114.406 126.042 L 113.917 126.583 114.458 126.094 C 114.756 125.825,115.000 125.581,115.000 125.552 C 115.000 125.423,114.862 125.537,114.406 126.042 M285.000 125.552 C 285.000 125.581,285.244 125.825,285.542 126.094 L 286.083 126.583 285.594 126.042 C 285.138 125.537,285.000 125.423,285.000 125.552 M111.810 129.125 C 111.331 129.704,111.127 130.000,111.210 130.000 C 111.256 130.000,111.494 129.737,111.739 129.417 C 112.193 128.821,112.248 128.597,111.810 129.125 M312.681 129.397 L 312.279 129.917 312.755 129.463 C 313.018 129.214,313.199 128.980,313.158 128.944 C 313.117 128.907,312.902 129.111,312.681 129.397 M311.073 131.208 L 310.583 131.750 311.125 131.260 C 311.630 130.804,311.743 130.667,311.615 130.667 C 311.586 130.667,311.342 130.910,311.073 131.208 M282.635 132.458 C 282.497 132.619,282.330 132.862,282.263 133.000 C 282.196 133.137,282.306 133.041,282.506 132.786 C 282.815 132.391,282.910 132.354,283.143 132.536 C 283.387 132.727,283.392 132.719,283.188 132.458 C 283.062 132.298,282.942 132.167,282.922 132.167 C 282.902 132.167,282.772 132.298,282.635 132.458 M309.409 133.042 L 308.750 133.750 309.458 133.091 C 310.117 132.478,310.243 132.333,310.117 132.333 C 310.090 132.333,309.771 132.652,309.409 133.042 M118.500 134.250 C 118.811 134.571,119.103 134.833,119.149 134.833 C 119.195 134.833,118.978 134.571,118.667 134.250 C 118.356 133.929,118.064 133.667,118.018 133.667 C 117.972 133.667,118.189 133.929,118.500 134.250 M115.240 134.445 C 114.983 134.782,114.858 135.004,114.962 134.940 C 115.175 134.808,115.897 133.833,115.781 133.833 C 115.740 133.833,115.496 134.109,115.240 134.445 M280.158 135.292 L 279.583 135.917 280.208 135.342 C 280.790 134.808,280.910 134.667,280.783 134.667 C 280.755 134.667,280.474 134.948,280.158 135.292 M120.000 135.917 C 120.311 136.237,120.603 136.500,120.649 136.500 C 120.695 136.500,120.478 136.237,120.167 135.917 C 119.856 135.596,119.564 135.333,119.518 135.333 C 119.472 135.333,119.689 135.596,120.000 135.917 M306.658 136.125 L 306.083 136.750 306.708 136.176 C 307.290 135.641,307.410 135.500,307.283 135.500 C 307.255 135.500,306.974 135.781,306.658 136.125 M278.573 137.042 L 278.083 137.583 278.625 137.094 C 279.130 136.638,279.243 136.500,279.115 136.500 C 279.086 136.500,278.842 136.744,278.573 137.042 M121.326 137.375 C 121.735 137.810,122.091 138.167,122.118 138.167 C 122.243 138.167,122.111 138.017,121.375 137.326 L 120.583 136.583 121.326 137.375 M305.075 137.875 L 304.417 138.583 305.125 137.925 C 305.784 137.312,305.910 137.167,305.784 137.167 C 305.757 137.167,305.438 137.485,305.075 137.875 M123.000 139.250 C 123.311 139.571,123.603 139.833,123.649 139.833 C 123.695 139.833,123.478 139.571,123.167 139.250 C 122.856 138.929,122.564 138.667,122.518 138.667 C 122.472 138.667,122.689 138.929,123.000 139.250 M303.906 139.208 L 303.417 139.750 303.958 139.260 C 304.463 138.804,304.577 138.667,304.448 138.667 C 304.419 138.667,304.175 138.910,303.906 139.208 M233.244 140.208 L 232.417 141.083 233.292 140.256 C 233.773 139.801,234.167 139.408,234.167 139.381 C 234.167 139.257,234.012 139.395,233.244 140.208 M275.909 140.042 L 275.250 140.750 275.958 140.091 C 276.348 139.729,276.667 139.410,276.667 139.383 C 276.667 139.257,276.522 139.383,275.909 140.042 M124.500 140.917 C 124.811 141.237,125.103 141.500,125.149 141.500 C 125.195 141.500,124.978 141.237,124.667 140.917 C 124.356 140.596,124.064 140.333,124.018 140.333 C 123.972 140.333,124.189 140.596,124.500 140.917 M302.242 141.042 L 301.583 141.750 302.292 141.091 C 302.950 140.478,303.077 140.333,302.950 140.333 C 302.923 140.333,302.605 140.652,302.242 141.042 M231.824 141.792 L 231.250 142.417 231.875 141.842 C 232.457 141.308,232.577 141.167,232.449 141.167 C 232.422 141.167,232.140 141.448,231.824 141.792 M274.240 141.875 L 273.750 142.417 274.292 141.927 C 274.797 141.471,274.910 141.333,274.781 141.333 C 274.752 141.333,274.509 141.577,274.240 141.875 M125.826 142.375 C 126.235 142.810,126.591 143.167,126.618 143.167 C 126.743 143.167,126.611 143.017,125.875 142.326 L 125.083 141.583 125.826 142.375 M300.667 142.750 C 300.262 143.162,299.968 143.500,300.014 143.500 C 300.060 143.500,300.428 143.162,300.833 142.750 C 301.238 142.337,301.532 142.000,301.486 142.000 C 301.440 142.000,301.072 142.337,300.667 142.750 M272.824 143.458 L 272.250 144.083 272.875 143.509 C 273.457 142.974,273.577 142.833,273.449 142.833 C 273.422 142.833,273.140 143.115,272.824 143.458 M229.833 143.917 C 229.428 144.329,229.135 144.667,229.181 144.667 C 229.226 144.667,229.595 144.329,230.000 143.917 C 230.405 143.504,230.699 143.167,230.653 143.167 C 230.607 143.167,230.238 143.504,229.833 143.917 M127.500 144.250 C 127.811 144.571,128.103 144.833,128.149 144.833 C 128.195 144.833,127.978 144.571,127.667 144.250 C 127.356 143.929,127.064 143.667,127.018 143.667 C 126.972 143.667,127.189 143.929,127.500 144.250 M299.406 144.208 L 298.917 144.750 299.458 144.260 C 299.756 143.991,300.000 143.748,300.000 143.719 C 300.000 143.590,299.862 143.703,299.406 144.208 M271.500 144.917 C 271.095 145.329,270.801 145.667,270.847 145.667 C 270.893 145.667,271.262 145.329,271.667 144.917 C 272.072 144.504,272.365 144.167,272.319 144.167 C 272.274 144.167,271.905 144.504,271.500 144.917 M227.910 146.042 L 227.083 146.917 227.958 146.090 C 228.440 145.635,228.833 145.241,228.833 145.215 C 228.833 145.090,228.679 145.229,227.910 146.042 M269.769 146.834 C 269.438 147.201,269.167 147.553,269.167 147.617 C 269.167 147.681,269.223 147.662,269.292 147.575 C 269.361 147.488,269.676 147.135,269.991 146.792 C 270.307 146.448,270.522 146.167,270.469 146.167 C 270.416 146.167,270.101 146.467,269.769 146.834 M130.326 147.375 C 130.735 147.810,131.091 148.167,131.118 148.167 C 131.243 148.167,131.111 148.017,130.375 147.326 L 129.583 146.583 130.326 147.375 M226.573 147.542 L 226.083 148.083 226.625 147.594 C 227.130 147.138,227.243 147.000,227.115 147.000 C 227.086 147.000,226.842 147.244,226.573 147.542 M132.000 149.250 C 132.311 149.571,132.603 149.833,132.649 149.833 C 132.695 149.833,132.478 149.571,132.167 149.250 C 131.856 148.929,131.564 148.667,131.518 148.667 C 131.472 148.667,131.689 148.929,132.000 149.250 M224.667 149.583 C 224.262 149.996,223.968 150.333,224.014 150.333 C 224.060 150.333,224.428 149.996,224.833 149.583 C 225.238 149.171,225.532 148.833,225.486 148.833 C 225.440 148.833,225.072 149.171,224.667 149.583 M267.259 149.656 L 266.602 150.417 267.334 149.714 C 267.737 149.328,268.033 148.985,267.992 148.953 C 267.950 148.922,267.621 149.238,267.259 149.656 M293.842 150.575 L 293.100 151.417 293.917 150.631 C 294.366 150.199,294.700 149.820,294.659 149.789 C 294.617 149.758,294.250 150.111,293.842 150.575 M105.667 150.583 C 105.978 150.904,106.270 151.167,106.315 151.167 C 106.361 151.167,106.144 150.904,105.833 150.583 C 105.522 150.262,105.230 150.000,105.185 150.000 C 105.139 150.000,105.356 150.262,105.667 150.583 M222.744 151.708 L 221.917 152.583 222.792 151.756 C 223.273 151.301,223.667 150.908,223.667 150.881 C 223.667 150.757,223.512 150.895,222.744 151.708 M265.573 151.542 L 265.083 152.083 265.625 151.594 C 266.130 151.138,266.243 151.000,266.115 151.000 C 266.086 151.000,265.842 151.244,265.573 151.542 M134.826 152.375 C 135.235 152.810,135.591 153.167,135.618 153.167 C 135.743 153.167,135.611 153.017,134.875 152.326 L 134.083 151.583 134.826 152.375 M107.417 152.500 C 107.775 152.867,108.105 153.167,108.151 153.167 C 108.197 153.167,107.941 152.867,107.583 152.500 C 107.225 152.133,106.895 151.833,106.849 151.833 C 106.803 151.833,107.059 152.133,107.417 152.500 M221.324 153.292 L 220.750 153.917 221.375 153.342 C 221.719 153.026,222.000 152.745,222.000 152.717 C 222.000 152.590,221.859 152.710,221.324 153.292 M290.991 153.792 L 290.417 154.417 291.042 153.842 C 291.623 153.308,291.743 153.167,291.616 153.167 C 291.588 153.167,291.307 153.448,290.991 153.792 M136.500 154.250 C 136.811 154.571,137.103 154.833,137.149 154.833 C 137.195 154.833,136.978 154.571,136.667 154.250 C 136.356 153.929,136.064 153.667,136.018 153.667 C 135.972 153.667,136.189 153.929,136.500 154.250 M262.909 154.542 L 262.250 155.250 262.958 154.591 C 263.617 153.978,263.743 153.833,263.617 153.833 C 263.590 153.833,263.271 154.152,262.909 154.542 M219.409 155.375 L 218.750 156.083 219.458 155.425 C 220.117 154.812,220.243 154.667,220.117 154.667 C 220.090 154.667,219.771 154.985,219.409 155.375 M289.333 155.583 C 288.928 155.996,288.635 156.333,288.681 156.333 C 288.726 156.333,289.095 155.996,289.500 155.583 C 289.905 155.171,290.199 154.833,290.153 154.833 C 290.107 154.833,289.738 155.171,289.333 155.583 M109.833 155.219 C 109.833 155.248,110.077 155.491,110.375 155.760 L 110.917 156.250 110.427 155.708 C 109.971 155.203,109.833 155.090,109.833 155.219 M261.240 156.375 L 260.750 156.917 261.292 156.427 C 261.797 155.971,261.910 155.833,261.781 155.833 C 261.752 155.833,261.509 156.077,261.240 156.375 M139.326 157.375 C 139.735 157.810,140.091 158.167,140.118 158.167 C 140.243 158.167,140.111 158.017,139.375 157.326 L 138.583 156.583 139.326 157.375 M217.584 157.333 L 216.934 157.999 195.508 158.042 L 174.083 158.085 195.507 158.126 L 216.931 158.167 217.667 157.417 C 218.072 157.004,218.365 156.667,218.319 156.667 C 218.272 156.667,217.942 156.966,217.584 157.333 M111.993 157.542 C 112.684 158.278,112.833 158.410,112.833 158.285 C 112.833 158.258,112.477 157.902,112.042 157.493 L 111.250 156.750 111.993 157.542 M259.824 157.958 L 259.250 158.583 259.875 158.009 C 260.457 157.474,260.577 157.333,260.449 157.333 C 260.422 157.333,260.140 157.615,259.824 157.958 M286.491 158.792 L 285.917 159.417 286.542 158.842 C 287.123 158.308,287.243 158.167,287.116 158.167 C 287.088 158.167,286.807 158.448,286.491 158.792 M141.000 159.250 C 141.311 159.571,141.603 159.833,141.649 159.833 C 141.695 159.833,141.478 159.571,141.167 159.250 C 140.856 158.929,140.564 158.667,140.518 158.667 C 140.472 158.667,140.689 158.929,141.000 159.250 M258.575 159.375 L 257.917 160.083 258.625 159.425 C 259.284 158.812,259.410 158.667,259.284 158.667 C 259.257 158.667,258.938 158.985,258.575 159.375 M284.833 160.583 C 284.428 160.996,284.135 161.333,284.181 161.333 C 284.226 161.333,284.595 160.996,285.000 160.583 C 285.405 160.171,285.699 159.833,285.653 159.833 C 285.607 159.833,285.238 160.171,284.833 160.583 M114.833 160.750 C 115.144 161.071,115.436 161.333,115.482 161.333 C 115.528 161.333,115.311 161.071,115.000 160.750 C 114.689 160.429,114.397 160.167,114.351 160.167 C 114.305 160.167,114.522 160.429,114.833 160.750 M256.906 161.208 L 256.417 161.750 256.958 161.260 C 257.463 160.804,257.577 160.667,257.448 160.667 C 257.419 160.667,257.175 160.910,256.906 161.208 M143.826 162.375 C 144.235 162.810,144.591 163.167,144.618 163.167 C 144.743 163.167,144.611 163.017,143.875 162.326 L 143.083 161.583 143.826 162.375 M116.493 162.542 C 116.902 162.977,117.258 163.333,117.285 163.333 C 117.410 163.333,117.278 163.184,116.542 162.493 L 115.750 161.750 116.493 162.542 M282.195 163.553 L 281.833 163.939 281.875 216.511 L 281.917 269.083 281.959 216.511 L 282.000 163.938 282.362 163.552 C 282.562 163.340,282.687 163.167,282.641 163.167 C 282.596 163.167,282.395 163.340,282.195 163.553 M254.242 164.208 L 253.583 164.917 254.292 164.258 C 254.950 163.645,255.077 163.500,254.950 163.500 C 254.923 163.500,254.605 163.819,254.242 164.208 M145.500 164.250 C 145.811 164.571,146.103 164.833,146.149 164.833 C 146.195 164.833,145.978 164.571,145.667 164.250 C 145.356 163.929,145.064 163.667,145.018 163.667 C 144.972 163.667,145.189 163.929,145.500 164.250 M210.249 235.583 C 210.249 274.725,210.268 290.713,210.292 271.111 C 210.315 251.510,210.315 219.485,210.292 199.945 C 210.268 180.404,210.249 196.442,210.249 235.583 M154.833 165.750 C 155.144 166.071,155.436 166.333,155.482 166.333 C 155.528 166.333,155.311 166.071,155.000 165.750 C 154.689 165.429,154.397 165.167,154.351 165.167 C 154.305 165.167,154.522 165.429,154.833 165.750 M252.658 165.958 L 252.083 166.583 252.708 166.009 C 253.052 165.693,253.333 165.412,253.333 165.384 C 253.333 165.257,253.192 165.377,252.658 165.958 M148.326 167.375 C 148.735 167.810,149.091 168.167,149.118 168.167 C 149.243 168.167,149.111 168.017,148.375 167.326 L 147.583 166.583 148.326 167.375 M156.493 167.542 C 156.902 167.977,157.258 168.333,157.285 168.333 C 157.410 168.333,157.278 168.184,156.542 167.493 L 155.750 166.750 156.493 167.542 M249.909 169.042 L 249.250 169.750 249.958 169.091 C 250.617 168.478,250.743 168.333,250.617 168.333 C 250.590 168.333,250.271 168.652,249.909 169.042 M157.833 169.083 C 158.144 169.404,158.436 169.667,158.482 169.667 C 158.528 169.667,158.311 169.404,158.000 169.083 C 157.689 168.762,157.397 168.500,157.351 168.500 C 157.305 168.500,157.522 168.762,157.833 169.083 M150.000 169.250 C 150.311 169.571,150.603 169.833,150.649 169.833 C 150.695 169.833,150.478 169.571,150.167 169.250 C 149.856 168.929,149.564 168.667,149.518 168.667 C 149.472 168.667,149.689 168.929,150.000 169.250 M159.333 170.750 C 159.644 171.071,159.936 171.333,159.982 171.333 C 160.028 171.333,159.811 171.071,159.500 170.750 C 159.189 170.429,158.897 170.167,158.851 170.167 C 158.805 170.167,159.022 170.429,159.333 170.750 M248.324 170.792 L 247.750 171.417 248.375 170.842 C 248.957 170.308,249.077 170.167,248.949 170.167 C 248.922 170.167,248.640 170.448,248.324 170.792 M152.826 172.375 C 153.517 173.111,153.667 173.243,153.667 173.118 C 153.667 173.091,153.310 172.735,152.875 172.326 L 152.083 171.583 152.826 172.375 M160.993 172.542 C 161.684 173.278,161.833 173.410,161.833 173.285 C 161.833 173.258,161.477 172.902,161.042 172.493 L 160.250 171.750 160.993 172.542 M246.824 172.458 L 246.250 173.083 246.875 172.509 C 247.457 171.974,247.577 171.833,247.449 171.833 C 247.422 171.833,247.140 172.115,246.824 172.458 M245.575 173.875 L 244.917 174.583 245.625 173.925 C 246.284 173.312,246.410 173.167,246.284 173.167 C 246.257 173.167,245.938 173.485,245.575 173.875 M162.333 174.083 C 162.644 174.404,162.936 174.667,162.982 174.667 C 163.028 174.667,162.811 174.404,162.500 174.083 C 162.189 173.762,161.897 173.500,161.851 173.500 C 161.805 173.500,162.022 173.762,162.333 174.083 M154.500 174.250 C 154.811 174.571,155.103 174.833,155.149 174.833 C 155.195 174.833,154.978 174.571,154.667 174.250 C 154.356 173.929,154.064 173.667,154.018 173.667 C 153.972 173.667,154.189 173.929,154.500 174.250 M243.991 175.625 L 243.417 176.250 244.042 175.676 C 244.385 175.360,244.667 175.078,244.667 175.051 C 244.667 174.923,244.526 175.043,243.991 175.625 M163.833 175.750 C 164.144 176.071,164.436 176.333,164.482 176.333 C 164.528 176.333,164.311 176.071,164.000 175.750 C 163.689 175.429,163.397 175.167,163.351 175.167 C 163.305 175.167,163.522 175.429,163.833 175.750 M157.326 177.375 C 158.017 178.111,158.167 178.243,158.167 178.118 C 158.167 178.091,157.810 177.735,157.375 177.326 L 156.583 176.583 157.326 177.375 M165.583 177.667 C 165.941 178.033,166.272 178.333,166.318 178.333 C 166.363 178.333,166.108 178.033,165.750 177.667 C 165.392 177.300,165.062 177.000,165.016 177.000 C 164.970 177.000,165.225 177.300,165.583 177.667 M241.242 178.708 L 240.583 179.417 241.292 178.758 C 241.950 178.145,242.077 178.000,241.950 178.000 C 241.923 178.000,241.605 178.319,241.242 178.708 M159.167 179.417 C 159.478 179.737,159.770 180.000,159.815 180.000 C 159.861 180.000,159.644 179.737,159.333 179.417 C 159.022 179.096,158.730 178.833,158.685 178.833 C 158.639 178.833,158.856 179.096,159.167 179.417 M239.669 180.414 C 239.359 180.734,239.138 181.021,239.178 181.052 C 239.218 181.083,239.502 180.822,239.811 180.471 C 240.512 179.674,240.422 179.638,239.669 180.414 M168.417 180.833 C 168.775 181.200,169.105 181.500,169.151 181.500 C 169.197 181.500,168.941 181.200,168.583 180.833 C 168.225 180.467,167.895 180.167,167.849 180.167 C 167.803 180.167,168.059 180.467,168.417 180.833 M161.917 182.500 C 162.275 182.867,162.605 183.167,162.651 183.167 C 162.697 183.167,162.441 182.867,162.083 182.500 C 161.725 182.133,161.395 181.833,161.349 181.833 C 161.303 181.833,161.559 182.133,161.917 182.500 M170.083 182.667 C 170.441 183.033,170.772 183.333,170.818 183.333 C 170.863 183.333,170.608 183.033,170.250 182.667 C 169.892 182.300,169.562 182.000,169.516 182.000 C 169.470 182.000,169.725 182.300,170.083 182.667 M236.909 183.542 L 236.250 184.250 236.958 183.591 C 237.617 182.978,237.743 182.833,237.617 182.833 C 237.590 182.833,237.271 183.152,236.909 183.542 M163.667 184.417 C 163.978 184.737,164.270 185.000,164.315 185.000 C 164.361 185.000,164.144 184.737,163.833 184.417 C 163.522 184.096,163.230 183.833,163.185 183.833 C 163.139 183.833,163.356 184.096,163.667 184.417 M235.324 185.292 L 234.750 185.917 235.375 185.342 C 235.957 184.808,236.077 184.667,235.949 184.667 C 235.922 184.667,235.640 184.948,235.324 185.292 M173.000 185.917 C 173.311 186.237,173.603 186.500,173.649 186.500 C 173.695 186.500,173.478 186.237,173.167 185.917 C 172.856 185.596,172.564 185.333,172.518 185.333 C 172.472 185.333,172.689 185.596,173.000 185.917 M233.824 186.958 L 233.250 187.583 233.875 187.009 C 234.219 186.693,234.500 186.412,234.500 186.384 C 234.500 186.257,234.359 186.377,233.824 186.958 M138.208 237.052 C 138.175 277.235,138.125 287.329,137.958 287.235 C 137.793 287.142,137.792 287.163,137.956 287.339 C 138.069 287.461,138.200 287.522,138.247 287.475 C 138.295 287.427,138.315 264.745,138.292 237.069 L 138.249 186.750 138.208 237.052 M166.417 187.500 C 166.775 187.867,167.105 188.167,167.151 188.167 C 167.197 188.167,166.941 187.867,166.583 187.500 C 166.225 187.133,165.895 186.833,165.849 186.833 C 165.803 186.833,166.059 187.133,166.417 187.500 M139.083 187.667 C 139.441 188.033,139.772 188.333,139.818 188.333 C 139.863 188.333,139.608 188.033,139.250 187.667 C 138.892 187.300,138.562 187.000,138.516 187.000 C 138.470 187.000,138.725 187.300,139.083 187.667 M232.575 188.375 L 231.917 189.083 232.625 188.425 C 233.284 187.812,233.410 187.667,233.284 187.667 C 233.257 187.667,232.938 187.985,232.575 188.375 M66.875 188.750 C 66.877 189.117,66.911 189.247,66.951 189.040 C 66.991 188.832,66.990 188.532,66.948 188.373 C 66.906 188.214,66.874 188.383,66.875 188.750 M259.573 188.708 L 259.083 189.250 259.625 188.760 C 260.130 188.304,260.243 188.167,260.115 188.167 C 260.086 188.167,259.842 188.410,259.573 188.708 M168.167 189.417 C 168.478 189.737,168.770 190.000,168.815 190.000 C 168.861 190.000,168.644 189.737,168.333 189.417 C 168.022 189.096,167.730 188.833,167.685 188.833 C 167.639 188.833,167.856 189.096,168.167 189.417 M230.991 190.125 L 230.417 190.750 231.042 190.176 C 231.385 189.860,231.667 189.578,231.667 189.551 C 231.667 189.423,231.526 189.543,230.991 190.125 M257.991 190.458 L 257.417 191.083 258.042 190.509 C 258.623 189.974,258.743 189.833,258.616 189.833 C 258.588 189.833,258.307 190.115,257.991 190.458 M142.000 190.917 C 142.311 191.237,142.603 191.500,142.649 191.500 C 142.695 191.500,142.478 191.237,142.167 190.917 C 141.856 190.596,141.564 190.333,141.518 190.333 C 141.472 190.333,141.689 190.596,142.000 190.917 M87.205 191.500 C 87.205 191.821,87.240 191.952,87.282 191.792 C 87.323 191.631,87.323 191.369,87.282 191.208 C 87.240 191.048,87.205 191.179,87.205 191.500 M256.906 191.708 L 256.417 192.250 256.958 191.760 C 257.463 191.304,257.577 191.167,257.448 191.167 C 257.419 191.167,257.175 191.410,256.906 191.708 M170.917 192.500 C 171.275 192.867,171.605 193.167,171.651 193.167 C 171.697 193.167,171.441 192.867,171.083 192.500 C 170.725 192.133,170.395 191.833,170.349 191.833 C 170.303 191.833,170.559 192.133,170.917 192.500 M143.583 192.667 C 143.941 193.033,144.272 193.333,144.318 193.333 C 144.363 193.333,144.108 193.033,143.750 192.667 C 143.392 192.300,143.062 192.000,143.016 192.000 C 142.970 192.000,143.225 192.300,143.583 192.667 M228.242 193.208 L 227.583 193.917 228.292 193.258 C 228.950 192.645,229.077 192.500,228.950 192.500 C 228.923 192.500,228.605 192.819,228.242 193.208 M255.324 193.458 L 254.750 194.083 255.375 193.509 C 255.957 192.974,256.077 192.833,255.949 192.833 C 255.922 192.833,255.640 193.115,255.324 193.458 M66.542 193.917 C 66.544 194.283,66.578 194.414,66.618 194.206 C 66.658 193.999,66.656 193.699,66.615 193.540 C 66.573 193.380,66.540 193.550,66.542 193.917 M87.050 194.333 C 87.050 194.838,87.081 195.044,87.119 194.792 C 87.158 194.540,87.158 194.127,87.119 193.875 C 87.081 193.623,87.050 193.829,87.050 194.333 M172.667 194.417 C 172.978 194.737,173.270 195.000,173.315 195.000 C 173.361 195.000,173.144 194.737,172.833 194.417 C 172.522 194.096,172.230 193.833,172.185 193.833 C 172.139 193.833,172.356 194.096,172.667 194.417 M226.669 194.914 C 226.359 195.234,226.138 195.521,226.178 195.552 C 226.218 195.583,226.502 195.322,226.811 194.971 C 227.512 194.174,227.422 194.138,226.669 194.914 M253.742 195.208 L 253.083 195.917 253.792 195.258 C 254.450 194.645,254.577 194.500,254.450 194.500 C 254.423 194.500,254.105 194.819,253.742 195.208 M146.500 195.917 C 146.811 196.237,147.103 196.500,147.149 196.500 C 147.195 196.500,146.978 196.237,146.667 195.917 C 146.356 195.596,146.064 195.333,146.018 195.333 C 145.972 195.333,146.189 195.596,146.500 195.917 M225.324 196.458 L 224.750 197.083 225.375 196.509 C 225.957 195.974,226.077 195.833,225.949 195.833 C 225.922 195.833,225.640 196.115,225.324 196.458 M175.417 197.500 C 175.775 197.867,176.105 198.167,176.151 198.167 C 176.197 198.167,175.941 197.867,175.583 197.500 C 175.225 197.133,174.895 196.833,174.849 196.833 C 174.803 196.833,175.059 197.133,175.417 197.500 M148.175 197.759 C 148.583 198.222,148.951 198.576,148.992 198.545 C 149.033 198.514,148.700 198.135,148.250 197.702 L 147.433 196.917 148.175 197.759 M223.909 198.042 L 223.250 198.750 223.958 198.091 C 224.617 197.478,224.743 197.333,224.617 197.333 C 224.590 197.333,224.271 197.652,223.909 198.042 M251.073 198.208 L 250.583 198.750 251.125 198.260 C 251.630 197.804,251.743 197.667,251.615 197.667 C 251.586 197.667,251.342 197.910,251.073 198.208 M66.395 200.000 C 66.395 200.963,66.423 201.356,66.456 200.875 C 66.490 200.394,66.490 199.606,66.456 199.125 C 66.423 198.644,66.395 199.037,66.395 200.000 M177.167 199.417 C 177.478 199.737,177.770 200.000,177.815 200.000 C 177.861 200.000,177.644 199.737,177.333 199.417 C 177.022 199.096,176.730 198.833,176.685 198.833 C 176.639 198.833,176.856 199.096,177.167 199.417 M86.885 200.083 C 86.886 200.633,86.917 200.838,86.954 200.539 C 86.991 200.239,86.990 199.789,86.952 199.539 C 86.914 199.288,86.884 199.533,86.885 200.083 M222.269 199.834 C 221.938 200.201,221.667 200.553,221.667 200.617 C 221.667 200.681,221.723 200.662,221.792 200.575 C 221.861 200.488,222.176 200.135,222.491 199.792 C 222.807 199.448,223.022 199.167,222.969 199.167 C 222.916 199.167,222.601 199.467,222.269 199.834 M249.575 199.875 L 248.917 200.583 249.625 199.925 C 250.284 199.312,250.410 199.167,250.284 199.167 C 250.257 199.167,249.938 199.485,249.575 199.875 M151.000 200.917 C 151.311 201.237,151.603 201.500,151.649 201.500 C 151.695 201.500,151.478 201.237,151.167 200.917 C 150.856 200.596,150.564 200.333,150.518 200.333 C 150.472 200.333,150.689 200.596,151.000 200.917 M248.406 201.208 L 247.917 201.750 248.458 201.260 C 248.963 200.804,249.077 200.667,248.948 200.667 C 248.919 200.667,248.675 200.910,248.406 201.208 M179.917 202.500 C 180.275 202.867,180.605 203.167,180.651 203.167 C 180.697 203.167,180.441 202.867,180.083 202.500 C 179.725 202.133,179.395 201.833,179.349 201.833 C 179.303 201.833,179.559 202.133,179.917 202.500 M152.675 202.759 C 153.083 203.222,153.451 203.576,153.492 203.545 C 153.533 203.514,153.200 203.135,152.750 202.702 L 151.933 201.917 152.675 202.759 M219.658 202.792 L 219.083 203.417 219.708 202.842 C 220.290 202.308,220.410 202.167,220.283 202.167 C 220.255 202.167,219.974 202.448,219.658 202.792 M246.824 202.958 L 246.250 203.583 246.875 203.009 C 247.219 202.693,247.500 202.412,247.500 202.384 C 247.500 202.257,247.359 202.377,246.824 202.958 M181.667 204.417 C 181.978 204.737,182.270 205.000,182.315 205.000 C 182.361 205.000,182.144 204.737,181.833 204.417 C 181.522 204.096,181.230 203.833,181.185 203.833 C 181.139 203.833,181.356 204.096,181.667 204.417 M218.073 204.542 L 217.583 205.083 218.125 204.594 C 218.630 204.138,218.743 204.000,218.615 204.000 C 218.586 204.000,218.342 204.244,218.073 204.542 M245.242 204.708 L 244.583 205.417 245.292 204.758 C 245.950 204.145,246.077 204.000,245.950 204.000 C 245.923 204.000,245.605 204.319,245.242 204.708 M87.050 205.667 C 87.050 206.171,87.081 206.377,87.119 206.125 C 87.158 205.873,87.158 205.460,87.119 205.208 C 87.081 204.956,87.050 205.162,87.050 205.667 M66.542 205.917 C 66.544 206.283,66.578 206.414,66.618 206.206 C 66.658 205.999,66.656 205.699,66.615 205.540 C 66.573 205.380,66.540 205.550,66.542 205.917 M155.500 205.917 C 155.811 206.237,156.103 206.500,156.149 206.500 C 156.195 206.500,155.978 206.237,155.667 205.917 C 155.356 205.596,155.064 205.333,155.018 205.333 C 154.972 205.333,155.189 205.596,155.500 205.917 M157.250 207.833 C 157.608 208.200,157.938 208.500,157.984 208.500 C 158.030 208.500,157.775 208.200,157.417 207.833 C 157.059 207.467,156.728 207.167,156.682 207.167 C 156.637 207.167,156.892 207.467,157.250 207.833 M242.573 207.708 L 242.083 208.250 242.625 207.760 C 243.130 207.304,243.243 207.167,243.115 207.167 C 243.086 207.167,242.842 207.410,242.573 207.708 M87.205 208.500 C 87.205 208.821,87.240 208.952,87.282 208.792 C 87.323 208.631,87.323 208.369,87.282 208.208 C 87.240 208.048,87.205 208.179,87.205 208.500 M241.075 209.375 L 240.417 210.083 241.125 209.425 C 241.784 208.812,241.910 208.667,241.784 208.667 C 241.757 208.667,241.438 208.985,241.075 209.375 M239.906 210.708 L 239.417 211.250 239.958 210.760 C 240.463 210.304,240.577 210.167,240.448 210.167 C 240.419 210.167,240.175 210.410,239.906 210.708 M160.000 210.917 C 160.311 211.237,160.603 211.500,160.649 211.500 C 160.695 211.500,160.478 211.237,160.167 210.917 C 159.856 210.596,159.564 210.333,159.518 210.333 C 159.472 210.333,159.689 210.596,160.000 210.917 M66.879 211.167 C 66.879 211.579,66.911 211.748,66.951 211.542 C 66.991 211.335,66.991 210.998,66.951 210.792 C 66.911 210.585,66.879 210.754,66.879 211.167 M238.324 212.458 L 237.750 213.083 238.375 212.509 C 238.719 212.193,239.000 211.912,239.000 211.884 C 239.000 211.757,238.859 211.877,238.324 212.458 M161.750 212.833 C 162.108 213.200,162.438 213.500,162.484 213.500 C 162.530 213.500,162.275 213.200,161.917 212.833 C 161.559 212.467,161.228 212.167,161.182 212.167 C 161.137 212.167,161.392 212.467,161.750 212.833 M236.742 214.208 L 236.083 214.917 236.792 214.258 C 237.450 213.645,237.577 213.500,237.450 213.500 C 237.423 213.500,237.105 213.819,236.742 214.208 M155.167 214.417 C 155.478 214.737,155.770 215.000,155.815 215.000 C 155.861 215.000,155.644 214.737,155.333 214.417 C 155.022 214.096,154.730 213.833,154.685 213.833 C 154.639 213.833,154.856 214.096,155.167 214.417 M164.500 215.917 C 164.811 216.237,165.103 216.500,165.149 216.500 C 165.195 216.500,164.978 216.237,164.667 215.917 C 164.356 215.596,164.064 215.333,164.018 215.333 C 163.972 215.333,164.189 215.596,164.500 215.917 M234.158 217.125 L 233.583 217.750 234.208 217.176 C 234.552 216.860,234.833 216.578,234.833 216.551 C 234.833 216.423,234.692 216.543,234.158 217.125 M157.993 217.542 C 158.684 218.278,158.833 218.410,158.833 218.285 C 158.833 218.258,158.477 217.902,158.042 217.493 L 157.250 216.750 157.993 217.542 M166.250 217.833 C 166.608 218.200,166.938 218.500,166.984 218.500 C 167.030 218.500,166.775 218.200,166.417 217.833 C 166.059 217.467,165.728 217.167,165.682 217.167 C 165.637 217.167,165.892 217.467,166.250 217.833 M232.575 218.875 L 231.917 219.583 232.625 218.925 C 233.284 218.312,233.410 218.167,233.284 218.167 C 233.257 218.167,232.938 218.485,232.575 218.875 M159.750 219.500 C 160.108 219.867,160.438 220.167,160.484 220.167 C 160.530 220.167,160.275 219.867,159.917 219.500 C 159.559 219.133,159.228 218.833,159.182 218.833 C 159.137 218.833,159.392 219.133,159.750 219.500 M231.406 220.208 L 230.917 220.750 231.458 220.260 C 231.963 219.804,232.077 219.667,231.948 219.667 C 231.919 219.667,231.675 219.910,231.406 220.208 M169.167 221.083 C 169.478 221.404,169.770 221.667,169.815 221.667 C 169.861 221.667,169.644 221.404,169.333 221.083 C 169.022 220.762,168.730 220.500,168.685 220.500 C 168.639 220.500,168.856 220.762,169.167 221.083 M161.798 221.792 C 162.255 222.319,162.803 222.900,163.016 223.083 C 163.229 223.267,162.887 222.835,162.257 222.125 C 161.626 221.415,161.078 220.833,161.039 220.833 C 160.999 220.833,161.341 221.265,161.798 221.792 M229.824 221.958 L 229.250 222.583 229.875 222.009 C 230.219 221.693,230.500 221.412,230.500 221.384 C 230.500 221.257,230.359 221.377,229.824 221.958 M170.750 222.833 C 171.108 223.200,171.438 223.500,171.484 223.500 C 171.530 223.500,171.275 223.200,170.917 222.833 C 170.559 222.467,170.228 222.167,170.182 222.167 C 170.137 222.167,170.392 222.467,170.750 222.833 M228.242 223.708 L 227.583 224.417 228.292 223.758 C 228.950 223.145,229.077 223.000,228.950 223.000 C 228.923 223.000,228.605 223.319,228.242 223.708 M164.250 224.500 C 164.608 224.867,164.938 225.167,164.984 225.167 C 165.030 225.167,164.775 224.867,164.417 224.500 C 164.059 224.133,163.728 223.833,163.682 223.833 C 163.637 223.833,163.892 224.133,164.250 224.500 M173.667 226.083 C 173.978 226.404,174.270 226.667,174.315 226.667 C 174.361 226.667,174.144 226.404,173.833 226.083 C 173.522 225.762,173.230 225.500,173.185 225.500 C 173.139 225.500,173.356 225.762,173.667 226.083 M165.500 225.885 C 165.500 225.914,165.744 226.158,166.042 226.427 L 166.583 226.917 166.094 226.375 C 165.638 225.870,165.500 225.757,165.500 225.885 M225.658 226.625 L 225.083 227.250 225.708 226.676 C 226.290 226.141,226.410 226.000,226.283 226.000 C 226.255 226.000,225.974 226.281,225.658 226.625 M167.083 227.667 C 167.441 228.033,167.772 228.333,167.818 228.333 C 167.863 228.333,167.608 228.033,167.250 227.667 C 166.892 227.300,166.562 227.000,166.516 227.000 C 166.470 227.000,166.725 227.300,167.083 227.667 M175.250 227.833 C 175.608 228.200,175.938 228.500,175.984 228.500 C 176.030 228.500,175.775 228.200,175.417 227.833 C 175.059 227.467,174.728 227.167,174.682 227.167 C 174.637 227.167,174.892 227.467,175.250 227.833 M224.075 228.375 L 223.417 229.083 224.125 228.425 C 224.784 227.812,224.910 227.667,224.784 227.667 C 224.757 227.667,224.438 227.985,224.075 228.375 M168.750 229.500 C 169.108 229.867,169.438 230.167,169.484 230.167 C 169.530 230.167,169.275 229.867,168.917 229.500 C 168.559 229.133,168.228 228.833,168.182 228.833 C 168.137 228.833,168.392 229.133,168.750 229.500 M222.906 229.708 L 222.417 230.250 222.958 229.760 C 223.463 229.304,223.577 229.167,223.448 229.167 C 223.419 229.167,223.175 229.410,222.906 229.708 M178.167 231.083 C 178.478 231.404,178.770 231.667,178.815 231.667 C 178.861 231.667,178.644 231.404,178.333 231.083 C 178.022 230.762,177.730 230.500,177.685 230.500 C 177.639 230.500,177.856 230.762,178.167 231.083 M170.000 230.885 C 170.000 230.914,170.244 231.158,170.542 231.427 L 171.083 231.917 170.594 231.375 C 170.138 230.870,170.000 230.757,170.000 230.885 M221.324 231.458 L 220.750 232.083 221.375 231.509 C 221.719 231.193,222.000 230.912,222.000 230.884 C 222.000 230.757,221.859 230.877,221.324 231.458 M171.583 232.667 C 171.941 233.033,172.272 233.333,172.318 233.333 C 172.363 233.333,172.108 233.033,171.750 232.667 C 171.392 232.300,171.062 232.000,171.016 232.000 C 170.970 232.000,171.225 232.300,171.583 232.667 M179.826 232.875 C 180.517 233.611,180.667 233.743,180.667 233.618 C 180.667 233.591,180.310 233.235,179.875 232.826 L 179.083 232.083 179.826 232.875 M219.833 233.083 C 219.428 233.496,219.135 233.833,219.181 233.833 C 219.226 233.833,219.595 233.496,220.000 233.083 C 220.405 232.671,220.699 232.333,220.653 232.333 C 220.607 232.333,220.238 232.671,219.833 233.083 M173.333 234.583 C 173.644 234.904,173.936 235.167,173.982 235.167 C 174.028 235.167,173.811 234.904,173.500 234.583 C 173.189 234.262,172.897 234.000,172.851 234.000 C 172.805 234.000,173.022 234.262,173.333 234.583 M182.667 236.083 C 182.978 236.404,183.270 236.667,183.315 236.667 C 183.361 236.667,183.144 236.404,182.833 236.083 C 182.522 235.762,182.230 235.500,182.185 235.500 C 182.139 235.500,182.356 235.762,182.667 236.083 M217.158 236.125 L 216.583 236.750 217.208 236.176 C 217.790 235.641,217.910 235.500,217.783 235.500 C 217.755 235.500,217.474 235.781,217.158 236.125 M300.002 256.502 C 300.571 257.144,301.123 257.722,301.227 257.785 C 301.331 257.848,300.901 257.323,300.271 256.617 C 299.641 255.911,299.090 255.333,299.046 255.333 C 299.002 255.333,299.432 255.859,300.002 256.502 M302.333 259.083 C 302.644 259.404,302.936 259.667,302.982 259.667 C 303.028 259.667,302.811 259.404,302.500 259.083 C 302.189 258.762,301.897 258.500,301.851 258.500 C 301.805 258.500,302.022 258.762,302.333 259.083 M303.500 260.385 C 303.500 260.414,303.744 260.658,304.042 260.927 L 304.583 261.417 304.094 260.875 C 303.638 260.370,303.500 260.257,303.500 260.385 M305.083 262.167 C 305.441 262.533,305.772 262.833,305.818 262.833 C 305.863 262.833,305.608 262.533,305.250 262.167 C 304.892 261.800,304.562 261.500,304.516 261.500 C 304.470 261.500,304.725 261.800,305.083 262.167 M306.667 263.917 C 306.978 264.237,307.270 264.500,307.315 264.500 C 307.361 264.500,307.144 264.237,306.833 263.917 C 306.522 263.596,306.230 263.333,306.185 263.333 C 306.139 263.333,306.356 263.596,306.667 263.917 M309.417 267.000 C 309.775 267.367,310.105 267.667,310.151 267.667 C 310.197 267.667,309.941 267.367,309.583 267.000 C 309.225 266.633,308.895 266.333,308.849 266.333 C 308.803 266.333,309.059 266.633,309.417 267.000 M311.167 268.917 C 311.478 269.237,311.770 269.500,311.815 269.500 C 311.861 269.500,311.644 269.237,311.333 268.917 C 311.022 268.596,310.730 268.333,310.685 268.333 C 310.639 268.333,310.856 268.596,311.167 268.917 M118.333 269.385 C 118.333 269.414,118.577 269.658,118.875 269.927 L 119.417 270.417 118.927 269.875 C 118.471 269.370,118.333 269.257,118.333 269.385 M281.071 269.875 C 280.126 270.911,279.776 271.333,279.863 271.333 C 279.911 271.333,280.341 270.883,280.820 270.333 C 281.734 269.282,281.918 268.947,281.071 269.875 M312.681 270.603 C 312.902 270.889,313.117 271.093,313.158 271.056 C 313.199 271.020,313.018 270.786,312.755 270.537 L 312.279 270.083 312.681 270.603 M287.135 271.958 C 286.841 272.300,286.621 272.667,286.709 272.667 C 286.743 272.667,286.937 272.442,287.140 272.167 C 287.542 271.623,287.538 271.488,287.135 271.958 M121.583 273.000 C 122.035 273.458,122.442 273.833,122.487 273.833 C 122.533 273.833,122.201 273.458,121.750 273.000 C 121.299 272.542,120.892 272.167,120.846 272.167 C 120.800 272.167,121.132 272.542,121.583 273.000 M278.078 273.208 L 277.083 274.250 278.125 273.255 C 278.698 272.708,279.167 272.239,279.167 272.214 C 279.167 272.090,279.002 272.241,278.078 273.208 M114.000 273.552 C 114.000 273.581,114.244 273.825,114.542 274.094 L 115.083 274.583 114.594 274.042 C 114.138 273.537,114.000 273.423,114.000 273.552 M285.406 274.042 L 284.917 274.583 285.458 274.094 C 285.963 273.638,286.077 273.500,285.948 273.500 C 285.919 273.500,285.675 273.744,285.406 274.042 M115.833 275.583 C 116.144 275.904,116.436 276.167,116.482 276.167 C 116.528 276.167,116.311 275.904,116.000 275.583 C 115.689 275.262,115.397 275.000,115.351 275.000 C 115.305 275.000,115.522 275.262,115.833 275.583 M283.991 275.625 L 283.417 276.250 284.042 275.676 C 284.385 275.360,284.667 275.078,284.667 275.051 C 284.667 274.923,284.526 275.043,283.991 275.625 M117.750 277.667 C 118.201 278.125,118.608 278.500,118.654 278.500 C 118.700 278.500,118.368 278.125,117.917 277.667 C 117.465 277.208,117.058 276.833,117.013 276.833 C 116.967 276.833,117.299 277.208,117.750 277.667 M272.994 278.292 L 272.083 279.250 273.042 278.339 C 273.569 277.838,274.000 277.407,274.000 277.381 C 274.000 277.257,273.841 277.401,272.994 278.292 M281.577 278.208 L 280.750 279.083 281.625 278.256 C 282.438 277.488,282.576 277.333,282.452 277.333 C 282.426 277.333,282.032 277.727,281.577 278.208 M126.917 278.333 C 127.368 278.792,127.775 279.167,127.821 279.167 C 127.867 279.167,127.535 278.792,127.083 278.333 C 126.632 277.875,126.225 277.500,126.179 277.500 C 126.133 277.500,126.465 277.875,126.917 278.333 M129.667 280.719 C 129.667 280.748,129.910 280.991,130.208 281.260 L 130.750 281.750 130.260 281.208 C 129.804 280.703,129.667 280.590,129.667 280.719 M269.740 281.208 L 269.250 281.750 269.792 281.260 C 270.297 280.804,270.410 280.667,270.281 280.667 C 270.252 280.667,270.009 280.910,269.740 281.208 M277.994 281.792 L 277.083 282.750 278.042 281.839 C 278.569 281.338,279.000 280.907,279.000 280.881 C 279.000 280.757,278.841 280.901,277.994 281.792 M122.167 282.083 C 122.665 282.587,123.109 283.000,123.155 283.000 C 123.201 283.000,122.831 282.587,122.333 282.083 C 121.835 281.579,121.391 281.167,121.345 281.167 C 121.299 281.167,121.669 281.579,122.167 282.083 M267.069 283.429 L 266.417 284.024 267.125 283.484 C 267.772 282.991,267.930 282.833,267.778 282.833 C 267.747 282.833,267.428 283.101,267.069 283.429 M275.491 284.125 L 274.917 284.750 275.542 284.176 C 275.885 283.860,276.167 283.578,276.167 283.551 C 276.167 283.423,276.026 283.543,275.491 284.125 M124.500 284.250 C 124.811 284.571,125.103 284.833,125.149 284.833 C 125.195 284.833,124.978 284.571,124.667 284.250 C 124.356 283.929,124.064 283.667,124.018 283.667 C 123.972 283.667,124.189 283.929,124.500 284.250 M97.231 285.383 C 97.584 285.814,97.908 286.167,97.951 286.167 C 98.064 286.167,97.009 284.859,96.782 284.718 C 96.676 284.653,96.878 284.952,97.231 285.383 M125.500 285.052 C 125.500 285.081,125.744 285.325,126.042 285.594 L 126.583 286.083 126.094 285.542 C 125.638 285.037,125.500 284.923,125.500 285.052 M273.906 285.542 L 273.417 286.083 273.958 285.594 C 274.463 285.138,274.577 285.000,274.448 285.000 C 274.419 285.000,274.175 285.244,273.906 285.542 M301.073 287.208 L 300.583 287.750 301.125 287.260 C 301.630 286.804,301.743 286.667,301.615 286.667 C 301.586 286.667,301.342 286.910,301.073 287.208 M99.917 288.500 C 100.275 288.867,100.605 289.167,100.651 289.167 C 100.697 289.167,100.441 288.867,100.083 288.500 C 99.725 288.133,99.395 287.833,99.349 287.833 C 99.303 287.833,99.559 288.133,99.917 288.500 M128.833 287.889 C 128.833 287.934,129.133 288.210,129.500 288.500 C 129.867 288.790,130.167 288.991,130.167 288.945 C 130.167 288.899,129.867 288.624,129.500 288.333 C 129.133 288.043,128.833 287.843,128.833 287.889 M299.742 288.708 L 299.083 289.417 299.792 288.758 C 300.450 288.145,300.577 288.000,300.450 288.000 C 300.423 288.000,300.105 288.319,299.742 288.708 M298.573 290.042 L 298.083 290.583 298.625 290.094 C 299.130 289.638,299.243 289.500,299.115 289.500 C 299.086 289.500,298.842 289.744,298.573 290.042 M105.583 294.500 C 107.231 296.150,108.617 297.500,108.663 297.500 C 108.709 297.500,107.398 296.150,105.750 294.500 C 104.102 292.850,102.716 291.500,102.670 291.500 C 102.624 291.500,103.935 292.850,105.583 294.500 M294.331 294.458 L 291.583 297.250 294.375 294.502 C 295.910 292.990,297.167 291.734,297.167 291.710 C 297.167 291.591,296.885 291.865,294.331 294.458 M289.906 298.708 L 289.417 299.250 289.958 298.760 C 290.463 298.304,290.577 298.167,290.448 298.167 C 290.419 298.167,290.175 298.410,289.906 298.708 M288.575 299.875 L 287.917 300.583 288.625 299.925 C 289.284 299.312,289.410 299.167,289.284 299.167 C 289.257 299.167,288.938 299.485,288.575 299.875 M111.417 300.000 C 111.775 300.367,112.105 300.667,112.151 300.667 C 112.197 300.667,111.941 300.367,111.583 300.000 C 111.225 299.633,110.895 299.333,110.849 299.333 C 110.803 299.333,111.059 299.633,111.417 300.000 M287.073 301.208 L 286.583 301.750 287.125 301.260 C 287.630 300.804,287.743 300.667,287.615 300.667 C 287.586 300.667,287.342 300.910,287.073 301.208 M195.958 307.122 C 196.348 307.157,196.985 307.157,197.375 307.122 C 197.765 307.087,197.446 307.058,196.667 307.058 C 195.887 307.058,195.569 307.087,195.958 307.122 M202.625 307.122 C 203.015 307.157,203.652 307.157,204.042 307.122 C 204.431 307.087,204.112 307.058,203.333 307.058 C 202.554 307.058,202.235 307.087,202.625 307.122 M120.833 307.561 C 120.833 307.606,121.058 307.804,121.333 308.000 C 121.608 308.196,121.833 308.319,121.833 308.273 C 121.833 308.227,121.608 308.029,121.333 307.833 C 121.058 307.638,120.833 307.515,120.833 307.561 M278.583 307.931 L 278.083 308.361 278.625 308.002 C 278.923 307.805,279.167 307.612,279.167 307.572 C 279.167 307.447,279.096 307.491,278.583 307.931 M193.628 312.954 C 193.928 312.991,194.378 312.990,194.628 312.952 C 194.878 312.914,194.633 312.884,194.083 312.885 C 193.533 312.886,193.328 312.917,193.628 312.954 M205.461 312.954 C 205.761 312.991,206.211 312.990,206.461 312.952 C 206.712 312.914,206.467 312.884,205.917 312.885 C 205.367 312.886,205.162 312.917,205.461 312.954 M199.375 313.121 C 199.719 313.157,200.281 313.157,200.625 313.121 C 200.969 313.085,200.688 313.056,200.000 313.056 C 199.313 313.056,199.031 313.085,199.375 313.121 M188.375 333.115 C 188.535 333.157,188.798 333.157,188.958 333.115 C 189.119 333.073,188.987 333.039,188.667 333.039 C 188.346 333.039,188.215 333.073,188.375 333.115 M211.042 333.115 C 211.202 333.157,211.465 333.157,211.625 333.115 C 211.785 333.073,211.654 333.039,211.333 333.039 C 211.012 333.039,210.881 333.073,211.042 333.115 M193.627 333.451 C 193.834 333.491,194.134 333.490,194.294 333.448 C 194.453 333.406,194.283 333.374,193.917 333.375 C 193.550 333.377,193.420 333.411,193.627 333.451 M205.794 333.451 C 206.001 333.491,206.301 333.490,206.460 333.448 C 206.620 333.406,206.450 333.374,206.083 333.375 C 205.717 333.377,205.586 333.411,205.794 333.451 M198.958 333.623 C 199.531 333.656,200.469 333.656,201.042 333.623 C 201.615 333.591,201.146 333.564,200.000 333.564 C 198.854 333.564,198.385 333.591,198.958 333.623 " stroke="none" fill="#d5cdb7" fill-rule="evenodd"></path></g></svg>