<svg width="25" height="25" viewBox="0 0 25 25" fill="none" xmlns="http://www.w3.org/2000/svg">
<path d="M6.25 22.9167V6.25H22.9167V14.1073C22.9167 18.3854 16.6667 16.6667 16.6667 16.6667C16.6667 16.6667 18.2479 22.9167 13.9187 22.9167H6.25ZM25 14.9854V4.16667H4.16667V25H14.7802C18.075 25 25 17.476 25 14.9854ZM14.5833 16.6667H9.375V15.625H14.5833V16.6667ZM19.7917 12.5H9.375V13.5417H19.7917V12.5ZM19.7917 9.375H9.375V10.4167H19.7917V9.375ZM22.9167 3.125H3.125V22.9167H2.08333V2.08333H22.9167V3.125ZM20.8333 1.04167H1.04167V20.8333H0V0H20.8333V1.04167Z" fill="white"/>
</svg>
