<svg width="34" height="34" viewBox="0 0 34 34" fill="none" xmlns="http://www.w3.org/2000/svg">
<path fill-rule="evenodd" clip-rule="evenodd" d="M21.5985 24.0833C20.2852 29.3264 17.9902 32.5833 17 34C16.0098 32.5833 13.7133 29.3278 12.4015 24.0833H21.5985ZM32.4558 24.0833C30.2487 28.8872 25.8683 32.4884 20.5757 33.6217C22.4386 30.6921 23.7518 27.4422 24.5098 24.0833H32.4558ZM1.54417 24.0833H9.49025C10.2538 27.4635 11.5727 30.7105 13.4243 33.6217C8.13167 32.4884 3.75133 28.8872 1.54417 24.0833ZM22.1567 21.25H11.8433C11.4325 18.4379 11.4325 15.5635 11.8433 12.75H22.1581C22.5661 15.5635 22.5661 18.4379 22.1567 21.25ZM8.98308 21.25H0.536917C0.185583 19.8928 0 18.4677 0 17C0 15.5323 0.185583 14.1086 0.536917 12.75H8.98308C8.6105 15.5663 8.6105 18.4337 8.98308 21.25ZM33.4631 21.25H25.0155C25.3909 18.4337 25.3909 15.5663 25.0169 12.75H33.4631C33.813 14.1086 34 15.5323 34 17C34 18.4677 33.813 19.8928 33.4631 21.25ZM21.5985 9.91667H12.4015C13.7119 4.67217 16.0083 1.41667 17 0C18.6915 2.41967 20.4623 5.38192 21.5985 9.91667ZM9.48883 9.91525H1.54275C3.75133 5.11275 8.13167 1.51158 13.4243 0.376833C11.6719 3.12517 10.2878 6.37925 9.48883 9.91525ZM32.4558 9.91525H24.5098C23.7207 6.42742 22.3663 3.18608 20.5742 0.376833C25.8669 1.51158 30.2487 5.11275 32.4558 9.91525Z" fill="#1E1D22"/>
</svg>
