<svg width="30" height="30" viewBox="0 0 30 30" fill="none" xmlns="http://www.w3.org/2000/svg">
<path fill-rule="evenodd" clip-rule="evenodd" d="M19.0575 21.25C17.8988 25.8762 15.8738 28.75 15 30C14.1262 28.75 12.1 25.8775 10.9425 21.25H19.0575V21.25ZM28.6375 21.25C26.69 25.4888 22.825 28.6662 18.155 29.6662C19.7988 27.0812 20.9575 24.2138 21.6263 21.25H28.6375V21.25ZM1.3625 21.25H8.37375C9.0475 24.2325 10.2112 27.0975 11.845 29.6662C7.175 28.6662 3.31 25.4888 1.3625 21.25ZM19.55 18.75H10.45C10.0875 16.2687 10.0875 13.7325 10.45 11.25H19.5512C19.9112 13.7325 19.9113 16.2687 19.55 18.75V18.75ZM7.92625 18.75H0.47375C0.16375 17.5525 0 16.295 0 15C0 13.705 0.16375 12.4487 0.47375 11.25H7.92625C7.5975 13.735 7.5975 16.265 7.92625 18.75ZM29.5263 18.75H22.0725C22.4038 16.265 22.4038 13.735 22.0738 11.25H29.5263C29.835 12.4487 30 13.705 30 15C30 16.295 29.835 17.5525 29.5263 18.75ZM19.0575 8.75H10.9425C12.0987 4.1225 14.125 1.25 15 0C16.4925 2.135 18.055 4.74875 19.0575 8.75ZM8.3725 8.74875H1.36125C3.31 4.51125 7.175 1.33375 11.845 0.3325C10.2987 2.7575 9.0775 5.62875 8.3725 8.74875ZM28.6375 8.74875H21.6263C20.93 5.67125 19.735 2.81125 18.1537 0.3325C22.8237 1.33375 26.69 4.51125 28.6375 8.74875Z" fill="#F46036"/>
</svg>
