<svg width="106" height="41" viewBox="0 0 106 41" fill="none" xmlns="http://www.w3.org/2000/svg">
<path d="M0.856929 16.0938H4.54834L10.8765 24.9487L17.2046 16.0938H20.896L12.7222 27.4536L21.9287 40H18.1934L10.8765 29.9585L3.66943 40H0L9.05274 27.4536L0.856929 16.0938ZM28.5504 40V6.86523H31.6046V20.2026C32.8936 18.6206 34.3365 17.4414 35.9332 16.665C37.5299 15.874 39.2804 15.4785 41.1847 15.4785C44.5684 15.4785 47.4542 16.709 49.8419 19.1699C52.2442 21.6162 53.4454 24.5898 53.4454 28.0908C53.4454 31.5479 52.2369 34.4995 49.8199 36.9458C47.4029 39.3921 44.4952 40.6152 41.0968 40.6152C39.1485 40.6152 37.3834 40.1978 35.8014 39.3628C34.2193 38.5278 32.8204 37.2754 31.6046 35.6055V40H28.5504ZM40.8551 37.6489C42.5689 37.6489 44.151 37.2314 45.6012 36.3965C47.0514 35.5469 48.2013 34.3604 49.0509 32.8369C49.9151 31.3135 50.3473 29.7021 50.3473 28.0029C50.3473 26.3037 49.9151 24.6851 49.0509 23.147C48.1866 21.6089 47.0221 20.415 45.5572 19.5654C44.107 18.7012 42.5543 18.269 40.899 18.269C39.2144 18.269 37.6104 18.7012 36.087 19.5654C34.5782 20.415 33.4137 21.5649 32.5934 23.0151C31.7877 24.4653 31.3849 26.0986 31.3849 27.915C31.3849 30.6836 32.2931 32.998 34.1095 34.8584C35.9405 36.7188 38.1891 37.6489 40.8551 37.6489ZM82.3474 32.0679L84.9401 33.4302C84.0905 35.1001 83.1091 36.4478 81.9958 37.4731C80.8825 38.4985 79.6301 39.2822 78.2385 39.8242C76.8469 40.3516 75.2722 40.6152 73.5143 40.6152C69.6179 40.6152 66.571 39.3408 64.3737 36.792C62.1765 34.2285 61.0778 31.3354 61.0778 28.1128C61.0778 25.0806 62.008 22.3779 63.8684 20.0049C66.2267 16.9873 69.3835 15.4785 73.3386 15.4785C77.4108 15.4785 80.6628 17.0239 83.0944 20.1147C84.8229 22.2974 85.7018 25.022 85.7311 28.2886H64.2419C64.3005 31.0718 65.1867 33.3569 66.9006 35.144C68.6144 36.9165 70.7311 37.8027 73.2507 37.8027C74.4665 37.8027 75.6457 37.5903 76.7883 37.1655C77.9455 36.7407 78.9269 36.1768 79.7326 35.4736C80.5383 34.7705 81.4099 33.6353 82.3474 32.0679ZM82.3474 25.6299C81.9372 23.9893 81.3366 22.6782 80.5456 21.6968C79.7692 20.7153 78.7365 19.9243 77.4475 19.3237C76.1584 18.7231 74.8034 18.4229 73.3825 18.4229C71.0388 18.4229 69.0246 19.1772 67.34 20.686C66.1096 21.7847 65.1794 23.4326 64.5495 25.6299H82.3474ZM97.3186 7.2168H100.417V16.0938H105.295V18.7305H100.417V40H97.3186V18.7305H93.1219V16.0938H97.3186V7.2168Z" fill="white"/>
<path d="M18.1538 13.5532L27.5951 0L85.1538 33.5L28.6538 3.5L21.6538 13.5532H18.1538Z" fill="#FFC700"/>
</svg>
