<svg width="56" height="49" viewBox="0 0 56 49" fill="none" xmlns="http://www.w3.org/2000/svg">
<path d="M9.25469 23.6997L8.92586 23.9661L9.13372 24.3342L17.7088 39.5213L17.7088 46.8406L2.45624 24.1805L27.5864 2.95481L27.5864 8.85177L9.25469 23.6997Z" fill="black" stroke="white"/>
<path d="M46.7469 23.6997L47.0802 23.9697L46.8645 24.34L38.021 39.5249L38.021 46.8627L53.5427 24.1782L28.4152 2.95481L28.4152 8.85177L46.7469 23.6997Z" fill="black" stroke="white"/>
<path d="M33 25.5L40.2313 25.5L40.2313 21.5L28.6384 21.5L28.6384 24.6724L28.6384 35.4193L32.5 35.4193L32.5 32L32.5 31.5L33 31.5L40.2313 31.5L40.2313 28L33 28L32.5 28L32.5 27.5L32.5 26L32.5 25.5L33 25.5Z" fill="black" stroke="white"/>
<path d="M25 25.5L28.0928 25.5L28.0928 21.5L16.5 21.5L16.5 25.5L20 25.5L20.5 25.5L20.5 26L20.5 35.4193L24.5 35.4193L24.5 26L24.5 25.5L25 25.5Z" fill="black" stroke="white"/>
</svg>
