<svg width="56" height="50" viewBox="0 0 56 50" fill="none" xmlns="http://www.w3.org/2000/svg">
<path d="M28.0864 2.39177L28.0864 9.64936L9.56921 24.7433L18.2089 40.1423L18.2089 49.2902L1.79108 24.7433L28.0864 2.39177Z" fill="white"/>
<path d="M27.9151 2.39177L27.9152 9.64936L46.4324 24.7433L37.521 40.1423L37.521 49.2902L54.2105 24.7433L27.9151 2.39177Z" fill="white"/>
<line x1="40.5" y1="25" x2="40.5" y2="23" stroke="url(#paint0_linear)"/>
<line x1="16.5" y1="22" x2="16.5" y2="25" stroke="url(#paint1_linear)"/>
<line x1="40.5" y1="31" x2="40.5" y2="28" stroke="url(#paint2_linear)"/>
<line x1="31.5" y1="29" x2="31.5" y2="24" stroke="url(#paint3_linear)"/>
<line x1="31.5" y1="37" x2="31.5" y2="30" stroke="url(#paint4_linear)"/>
<line x1="21.5" y1="25" x2="21.5" y2="37" stroke="url(#paint5_linear)"/>
<line x1="17" y1="24.5" x2="22" y2="24.5" stroke="url(#paint6_linear)"/>
<line x1="32" y1="24.5" x2="40" y2="24.5" stroke="url(#paint7_linear)"/>
<line x1="40" y1="28.5" x2="32" y2="28.5" stroke="url(#paint8_linear)"/>
<line x1="40" y1="30.5" x2="32" y2="30.5" stroke="url(#paint9_linear)"/>
<path d="M40 22L27 22L27 25.6923L27 37L30.9 37L30.9 30.6154L40 30.6154L40 28.1538L30.9 28.1538L30.9 24.4615L40 24.4615L40 22Z" fill="url(#paint10_linear)"/>
<path d="M30 22L17 22L17 24.3077L21.55 24.3077L21.55 37L25.45 37L25.45 24.3077L30 24.3077L30 22Z" fill="white"/>
<defs>
<linearGradient id="paint0_linear" x1="41" y1="24" x2="39.5" y2="24" gradientUnits="userSpaceOnUse">
<stop stop-color="#FFC400"/>
<stop offset="1" stop-color="#FFC400" stop-opacity="0"/>
</linearGradient>
<linearGradient id="paint1_linear" x1="16" y1="23.5" x2="17.5" y2="23.5" gradientUnits="userSpaceOnUse">
<stop stop-color="#FFC400"/>
<stop offset="1" stop-color="#FFC400" stop-opacity="0"/>
</linearGradient>
<linearGradient id="paint2_linear" x1="41" y1="29.5" x2="39.5" y2="29.5" gradientUnits="userSpaceOnUse">
<stop stop-color="#FFC400"/>
<stop offset="1" stop-color="#FFC400" stop-opacity="0"/>
</linearGradient>
<linearGradient id="paint3_linear" x1="32" y1="26.5" x2="30.5" y2="26.5" gradientUnits="userSpaceOnUse">
<stop stop-color="#FFC400"/>
<stop offset="1" stop-color="#FFC400" stop-opacity="0"/>
</linearGradient>
<linearGradient id="paint4_linear" x1="32" y1="33.5" x2="30.5" y2="33.5" gradientUnits="userSpaceOnUse">
<stop stop-color="#FFC400"/>
<stop offset="1" stop-color="#FFC400" stop-opacity="0"/>
</linearGradient>
<linearGradient id="paint5_linear" x1="21" y1="31" x2="22.5" y2="31" gradientUnits="userSpaceOnUse">
<stop stop-color="#FFC400"/>
<stop offset="1" stop-color="#FFC400" stop-opacity="0"/>
</linearGradient>
<linearGradient id="paint6_linear" x1="19.5" y1="25" x2="19.5" y2="23.5" gradientUnits="userSpaceOnUse">
<stop stop-color="#FFC400"/>
<stop offset="1" stop-color="#FFC400" stop-opacity="0"/>
</linearGradient>
<linearGradient id="paint7_linear" x1="36" y1="25" x2="36" y2="23.5" gradientUnits="userSpaceOnUse">
<stop stop-color="#FFC400"/>
<stop offset="1" stop-color="#FFC400" stop-opacity="0"/>
</linearGradient>
<linearGradient id="paint8_linear" x1="36" y1="28" x2="36" y2="29.5" gradientUnits="userSpaceOnUse">
<stop stop-color="#FFC400"/>
<stop offset="1" stop-color="#FFC400" stop-opacity="0"/>
</linearGradient>
<linearGradient id="paint9_linear" x1="36" y1="30" x2="36" y2="31.5" gradientUnits="userSpaceOnUse">
<stop stop-color="#FFC400"/>
<stop offset="1" stop-color="#FFC400" stop-opacity="0"/>
</linearGradient>
<linearGradient id="paint10_linear" x1="29.7083" y1="27.5" x2="25.6299" y2="24.1863" gradientUnits="userSpaceOnUse">
<stop stop-color="white"/>
<stop offset="1" stop-color="white" stop-opacity="0"/>
</linearGradient>
</defs>
</svg>
