<svg width="117" height="102" viewBox="0 0 117 102" fill="none" xmlns="http://www.w3.org/2000/svg">
<path d="M19.3654 49.3649L18.7043 49.8985L19.1225 50.6365L37.0434 82.2593L37.0434 97.6482L5.07456 50.3273L57.6805 6.05753L57.6805 18.4449L19.3654 49.3649Z" fill="black" stroke="white" stroke-width="2"/>
<path d="M97.638 49.3649L98.3081 49.9057L97.8742 50.6481L79.3922 82.2665L79.3922 97.6922L111.923 50.3228L59.3228 6.05753L59.3229 18.4449L97.638 49.3649Z" fill="black" stroke="white" stroke-width="2"/>
<path d="M68.9465 53.1224L84.0993 53.1224L84.0993 44.7143L59.7892 44.7143L59.7892 51.359L59.7892 73.7709L67.9465 73.7709L67.9465 66.6122L67.9465 65.6122L68.9465 65.6122L84.0993 65.6122L84.0993 58.2449L68.9465 58.2449L67.9465 58.2449L67.9465 57.2449L67.9465 54.1224L67.9465 53.1224L68.9465 53.1224Z" fill="black" stroke="white" stroke-width="2"/>
<path d="M52.2322 53.1224L58.7386 53.1224L58.7386 44.7143L34.4286 44.7143L34.4286 53.1224L41.7857 53.1224L42.7857 53.1224L42.7857 54.1224L42.7857 73.7709L51.2322 73.7709L51.2322 54.1224L51.2322 53.1224L52.2322 53.1224Z" fill="black" stroke="white" stroke-width="2"/>
</svg>
