<svg width="116" height="102" viewBox="0 0 116 102" fill="none" xmlns="http://www.w3.org/2000/svg">
<path d="M57.9891 3.90281L57.9891 18.8873L19.7572 50.0512L37.5952 81.8451L37.5952 100.732L3.698 50.0512L57.9891 3.90281Z" fill="#E0E0E0"/>
<path d="M57.6355 3.90281L57.6355 18.8873L95.8674 50.0512L77.4684 81.8451L77.4684 100.732L111.927 50.0512L57.6355 3.90281Z" fill="#E0E0E0"/>
<path d="M82.0318 44.2987L56.0318 44.2987L56.0318 51.9295L56.0318 75.2987L63.8318 75.2987L63.8318 62.1038L82.0318 62.1038L82.0318 57.0167L63.8318 57.0167L63.8318 49.3859L82.0318 49.3859L82.0318 44.2987Z" fill="url(#paint0_linear)"/>
<path d="M61.0318 44.2987L35.0318 44.2987L35.0318 49.0679L44.1318 49.0679L44.1318 75.2987L51.9318 75.2987L51.9318 49.0679L61.0318 49.0679L61.0318 44.2987Z" fill="#E0E0E0"/>
<line x1="35.0318" y1="44.4999" x2="61.0318" y2="44.4999" stroke="#FFC400"/>
<line x1="61.0318" y1="44.4999" x2="82.0318" y2="44.4999" stroke="url(#paint1_linear)"/>
<line x1="35.0318" y1="49.4999" x2="45.0318" y2="49.4999" stroke="#FFC400"/>
<line x1="44.5318" y1="49.9999" x2="44.5318" y2="74.9999" stroke="#FFC400"/>
<line x1="44.0318" y1="75.4999" x2="52.0318" y2="75.4999" stroke="#FFC400"/>
<line x1="56.0001" y1="75.4999" x2="64.0001" y2="75.4999" stroke="#FFC400"/>
<line x1="63.5318" y1="61.9999" x2="63.5318" y2="74.9999" stroke="#FFC400"/>
<line x1="83.0317" y1="62.4999" x2="63.0317" y2="62.4999" stroke="#FFC400"/>
<line x1="82.5317" y1="61.9999" x2="82.5317" y2="56.9999" stroke="#FFC400"/>
<line x1="63.0318" y1="57.4999" x2="82.0318" y2="57.4999" stroke="#FFC400"/>
<line x1="63.5318" y1="49.9999" x2="63.5318" y2="56.9999" stroke="#FFC400"/>
<line x1="82.0317" y1="49.4999" x2="63.0317" y2="49.4999" stroke="#FFC400"/>
<line x1="81.5317" y1="48.9999" x2="81.5317" y2="44.9999" stroke="#FFC400"/>
<line x1="35.5318" y1="44.9999" x2="35.5318" y2="48.9999" stroke="#FFC400"/>
<defs>
<linearGradient id="paint0_linear" x1="61.4485" y1="55.6654" x2="53.0804" y2="49.0856" gradientUnits="userSpaceOnUse">
<stop stop-color="#E0E0E0"/>
<stop offset="1" stop-color="#E0E0E0" stop-opacity="0"/>
</linearGradient>
<linearGradient id="paint1_linear" x1="66.0318" y1="45.4999" x2="52.5318" y2="43.9999" gradientUnits="userSpaceOnUse">
<stop stop-color="#FFC400"/>
<stop offset="0.764444"/>
</linearGradient>
</defs>
</svg>
