<svg width="20" height="26" viewBox="0 0 20 26" fill="none" xmlns="http://www.w3.org/2000/svg">
<path fill-rule="evenodd" clip-rule="evenodd" d="M6.25 0C6.92778 7.78803 0 10.4693 0 17.3289C0 21.9883 3.41 25.9651 10 25.9998C16.59 26.0345 20 21.218 20 16.2976C20 11.8115 17.7089 7.58111 13.3867 4.9508C14.4133 7.77503 13.0467 10.3544 11.7189 11.2428C11.7967 7.6277 10.4689 2.26307 6.25 0ZM11.4844 14.0832C15.6567 18.4046 13.0944 23.8332 9.74333 23.8332C7.70444 23.8332 6.65556 22.4628 6.66667 21.0414C6.68778 18.4057 9.70778 18.4035 11.4844 14.0832Z" fill="#FF0000"/>
</svg>
