<svg width="19" height="27" viewBox="0 0 19 27" fill="none" xmlns="http://www.w3.org/2000/svg">
<path fill-rule="evenodd" clip-rule="evenodd" d="M5.9375 0C6.58139 8.08757 0 10.8719 0 17.9954C0 22.834 3.2395 26.9638 9.5 26.9998C15.7605 27.0358 19 22.0341 19 16.9244C19 12.2658 16.8234 7.87269 12.7173 5.14121C13.6927 8.07407 12.3943 10.7527 11.1329 11.6752C11.2068 7.92107 9.94544 2.35011 5.9375 0ZM10.9102 14.6249C14.8738 19.1125 12.4397 24.7498 9.25617 24.7498C7.31922 24.7498 6.32278 23.3267 6.33333 21.8507C6.35339 19.1136 9.22239 19.1114 10.9102 14.6249Z" fill="black"/>
</svg>
