<svg width="52" height="34" viewBox="0 0 52 34" fill="none" xmlns="http://www.w3.org/2000/svg">
<path d="M25.1515 8H33V10.0833H27.2727V17.1667H31.0909V18.8333H27.2727V33H19V31.0154H25.1515V18.8333H21.3333V17.1667H25.1515V8Z" fill="#1E1D22"/>
<path d="M38.1875 24.625H39.1719L40.8594 26.9863L42.5469 24.625H43.5312L41.3516 27.6543L43.8066 31H42.8105L40.8594 28.3223L38.9375 31H37.959L40.373 27.6543L38.1875 24.625Z" fill="#1E1D22"/>
<path d="M17 0H51.5V3H19.5L11.1827 34L0 18.5L2 16.5L9.5 27L17 0Z" fill="#1E1D22"/>
<path d="M35.8 21H37L34.2 27L37 33H35.8L33 27L35.8 21Z" fill="#1E1D22"/>
<path d="M46.2 21H45L47.8 27L45 33H46.2L49 27L46.2 21Z" fill="#1E1D22"/>
</svg>
