<svg width="143" height="104" viewBox="0 0 143 104" fill="none" xmlns="http://www.w3.org/2000/svg">
<rect width="143" height="104" fill="#1E1D22"/>
<path d="M38.7305 82.1562H40.2021V82.8276C40.4528 82.5519 40.7303 82.346 41.0347 82.21C41.3426 82.0739 41.6774 82.0059 42.0391 82.0059C42.4043 82.0059 42.7337 82.0954 43.0273 82.2744C43.321 82.4535 43.5573 82.7148 43.7363 83.0586C43.9691 82.7148 44.2537 82.4535 44.5903 82.2744C44.9305 82.0954 45.3011 82.0059 45.7021 82.0059C46.1175 82.0059 46.4827 82.1025 46.7979 82.2959C47.113 82.4893 47.3385 82.7417 47.4746 83.0532C47.6143 83.3647 47.6841 83.8714 47.6841 84.5732V88H46.207V85.0352C46.207 84.3727 46.1247 83.9251 45.96 83.6924C45.7952 83.4561 45.5482 83.3379 45.2188 83.3379C44.9681 83.3379 44.7425 83.4095 44.542 83.5527C44.3451 83.696 44.1982 83.8947 44.1016 84.1489C44.0049 84.3996 43.9565 84.8042 43.9565 85.3628V88H42.4795V85.1694C42.4795 84.6466 42.4401 84.2689 42.3613 84.0361C42.2861 83.7998 42.1715 83.6243 42.0176 83.5098C41.8636 83.3952 41.6774 83.3379 41.459 83.3379C41.2155 83.3379 40.9935 83.4113 40.793 83.5581C40.596 83.7013 40.4474 83.9036 40.3472 84.165C40.2505 84.4264 40.2021 84.8382 40.2021 85.4004V88H38.7305V82.1562ZM52.6006 82.0059C53.152 82.0059 53.6694 82.1437 54.1528 82.4194C54.6398 82.6951 55.0193 83.0693 55.2915 83.542C55.5636 84.0146 55.6997 84.5249 55.6997 85.0728C55.6997 85.6242 55.5618 86.1398 55.2861 86.6196C55.014 87.0994 54.6416 87.4754 54.1689 87.7476C53.6963 88.0161 53.1753 88.1504 52.6059 88.1504C51.768 88.1504 51.0519 87.8532 50.4575 87.2588C49.8667 86.6608 49.5713 85.9357 49.5713 85.0835C49.5713 84.1704 49.9061 83.4095 50.5757 82.8008C51.1629 82.2708 51.8379 82.0059 52.6006 82.0059ZM52.6221 83.3862C52.1673 83.3862 51.7877 83.5456 51.4834 83.8643C51.1826 84.1794 51.0322 84.584 51.0322 85.0781C51.0322 85.5866 51.1808 85.9984 51.478 86.3135C51.7788 86.6286 52.1583 86.7861 52.6167 86.7861C53.075 86.7861 53.4564 86.6268 53.7607 86.3081C54.0651 85.9894 54.2173 85.5794 54.2173 85.0781C54.2173 84.5768 54.0669 84.1704 53.7661 83.8589C53.4689 83.5438 53.0875 83.3862 52.6221 83.3862ZM57.6728 82.1562H59.1338V82.7524C59.4668 82.4731 59.7675 82.2798 60.0361 82.1724C60.3082 82.0614 60.5857 82.0059 60.8686 82.0059C61.4487 82.0059 61.941 82.2082 62.3457 82.6128C62.6858 82.9565 62.8559 83.465 62.8559 84.1382V88H61.4057V85.438C61.4057 84.7397 61.3735 84.276 61.309 84.0469C61.2482 83.8177 61.139 83.644 60.9814 83.5259C60.8274 83.4041 60.6359 83.3433 60.4067 83.3433C60.1095 83.3433 59.8535 83.4435 59.6386 83.644C59.4274 83.841 59.2806 84.1149 59.1982 84.4658C59.1552 84.6484 59.1338 85.0441 59.1338 85.6528V88H57.6728V82.1562ZM67.7939 82.0059C68.3453 82.0059 68.8627 82.1437 69.3461 82.4194C69.8331 82.6951 70.2127 83.0693 70.4848 83.542C70.7569 84.0146 70.893 84.5249 70.893 85.0728C70.893 85.6242 70.7551 86.1398 70.4794 86.6196C70.2073 87.0994 69.8349 87.4754 69.3622 87.7476C68.8896 88.0161 68.3686 88.1504 67.7993 88.1504C66.9614 88.1504 66.2452 87.8532 65.6508 87.2588C65.06 86.6608 64.7646 85.9357 64.7646 85.0835C64.7646 84.1704 65.0994 83.4095 65.769 82.8008C66.3562 82.2708 67.0312 82.0059 67.7939 82.0059ZM67.8154 83.3862C67.3606 83.3862 66.9811 83.5456 66.6767 83.8643C66.3759 84.1794 66.2255 84.584 66.2255 85.0781C66.2255 85.5866 66.3741 85.9984 66.6713 86.3135C66.9721 86.6286 67.3517 86.7861 67.81 86.7861C68.2683 86.7861 68.6497 86.6268 68.954 86.3081C69.2584 85.9894 69.4106 85.5794 69.4106 85.0781C69.4106 84.5768 69.2602 84.1704 68.9594 83.8589C68.6622 83.5438 68.2809 83.3862 67.8154 83.3862ZM73.0434 80.0024H74.5043V82.1562H75.3744V83.4185H74.5043V88H73.0434V83.4185H72.2914V82.1562H73.0434V80.0024ZM79.6786 82.0059C80.23 82.0059 80.7475 82.1437 81.2309 82.4194C81.7178 82.6951 82.0974 83.0693 82.3695 83.542C82.6417 84.0146 82.7777 84.5249 82.7777 85.0728C82.7777 85.6242 82.6399 86.1398 82.3642 86.6196C82.092 87.0994 81.7196 87.4754 81.247 87.7476C80.7743 88.0161 80.2533 88.1504 79.684 88.1504C78.8461 88.1504 78.1299 87.8532 77.5355 87.2588C76.9447 86.6608 76.6493 85.9357 76.6493 85.0835C76.6493 84.1704 76.9841 83.4095 77.6537 82.8008C78.2409 82.2708 78.9159 82.0059 79.6786 82.0059ZM79.7001 83.3862C79.2453 83.3862 78.8658 83.5456 78.5614 83.8643C78.2606 84.1794 78.1103 84.584 78.1103 85.0781C78.1103 85.5866 78.2589 85.9984 78.5561 86.3135C78.8568 86.6286 79.2364 86.7861 79.6947 86.7861C80.1531 86.7861 80.5344 86.6268 80.8388 86.3081C81.1431 85.9894 81.2953 85.5794 81.2953 85.0781C81.2953 84.5768 81.1449 84.1704 80.8441 83.8589C80.5469 83.5438 80.1656 83.3862 79.7001 83.3862ZM84.7509 82.1562H86.2118V82.7524C86.5448 82.4731 86.8456 82.2798 87.1141 82.1724C87.3863 82.0614 87.6638 82.0059 87.9467 82.0059C88.5267 82.0059 89.0191 82.2082 89.4237 82.6128C89.7639 82.9565 89.934 83.465 89.934 84.1382V88H88.4838V85.438C88.4838 84.7397 88.4515 84.276 88.3871 84.0469C88.3262 83.8177 88.217 83.644 88.0595 83.5259C87.9055 83.4041 87.7139 83.3433 87.4847 83.3433C87.1875 83.3433 86.9315 83.4435 86.7167 83.644C86.5054 83.841 86.3586 84.1149 86.2762 84.4658C86.2333 84.6484 86.2118 85.0441 86.2118 85.6528V88H84.7509V82.1562ZM97.9818 85.5024H93.2713C93.3394 85.9178 93.5202 86.249 93.8138 86.4961C94.111 86.7396 94.4888 86.8613 94.9471 86.8613C95.495 86.8613 95.9658 86.6698 96.3597 86.2866L97.5951 86.8667C97.2871 87.3035 96.9183 87.6276 96.4886 87.8389C96.0589 88.0465 95.5487 88.1504 94.9579 88.1504C94.0412 88.1504 93.2946 87.8621 92.7181 87.2856C92.1416 86.7056 91.8534 85.9805 91.8534 85.1104C91.8534 84.2188 92.1398 83.4793 92.7128 82.8921C93.2893 82.3013 94.0108 82.0059 94.8773 82.0059C95.7976 82.0059 96.5459 82.3013 97.1224 82.8921C97.6989 83.4793 97.9872 84.2563 97.9872 85.2231L97.9818 85.5024ZM96.5101 84.3477C96.4134 84.0218 96.2219 83.7568 95.9354 83.5527C95.6525 83.3486 95.3231 83.2466 94.9471 83.2466C94.5389 83.2466 94.1809 83.3612 93.8729 83.5903C93.6796 83.7336 93.5005 83.986 93.3358 84.3477H96.5101ZM99.6004 82.1562H100.857V82.8921C100.993 82.6021 101.174 82.3818 101.4 82.2314C101.625 82.0811 101.872 82.0059 102.141 82.0059C102.331 82.0059 102.529 82.056 102.737 82.1562L102.281 83.4185C102.109 83.3325 101.967 83.2896 101.856 83.2896C101.631 83.2896 101.439 83.4292 101.282 83.7085C101.128 83.9878 101.051 84.5356 101.051 85.3521L101.056 85.6367V88H99.6004V82.1562Z" fill="white"/>
<path d="M89 32C83.5213 40.6964 80 46.1363 80 51.424C80 56.714 84.0264 61 89 61C93.9736 61 98 56.714 98 51.424C98 46.1363 94.4787 40.6964 89 32ZM88.9696 38.1867C89.495 39.0627 90.125 40.5876 90.125 42.1983C90.125 46.9205 85.625 47.6938 85.625 44.8204C85.625 42.8472 87.8615 39.9339 88.9696 38.1867V38.1867Z" fill="#00A3FF"/>
<path d="M101.25 26V68H43.75V26H101.25ZM107 20H38V74H107V20ZM78.25 60.791V62H49.5V60.749C49.4885 57.413 49.6265 55.508 53.3065 54.62C57.3401 53.648 61.3191 52.781 59.4073 49.097C53.7349 38.186 57.7886 32 63.875 32C69.8464 32 73.9979 37.955 68.3485 49.097C66.4884 52.757 70.3265 53.627 74.4464 54.62C78.1379 55.511 78.2644 57.428 78.25 60.791Z" fill="white"/>
</svg>
