<svg width="53" height="39" viewBox="0 0 53 39" fill="none" xmlns="http://www.w3.org/2000/svg">
<path d="M39.2591 9.1001C34.8776 15.5324 32.0615 19.5561 32.0615 23.4671C32.0615 27.38 35.2815 30.5501 39.2591 30.5501C43.2366 30.5501 46.4566 27.38 46.4566 23.4671C46.4566 19.5561 43.6406 15.5324 39.2591 9.1001ZM39.2348 13.6761C39.6549 14.3241 40.1587 15.452 40.1587 16.6433C40.1587 20.1361 36.56 20.7081 36.56 18.5828C36.56 17.1233 38.3486 14.9685 39.2348 13.6761Z" fill="#00A3FF"/>
<path d="M48.5833 4.33333V34.6667H4.41667V4.33333H48.5833ZM53 0H0V39H53V0ZM30.9167 29.4602V30.3333H8.83333V29.4298C8.8245 27.0205 8.9305 25.6447 11.7572 25.0033C14.8555 24.3013 17.9118 23.6752 16.4433 21.0145C12.0862 13.1343 15.2 8.66667 19.875 8.66667C24.4617 8.66667 27.6505 12.9675 23.3112 21.0145C21.8824 23.6578 24.8305 24.2862 27.995 25.0033C30.8305 25.6468 30.9277 27.0313 30.9167 29.4602Z" fill="white"/>
</svg>
