<svg width="33" height="22" viewBox="0 0 33 22" fill="none" xmlns="http://www.w3.org/2000/svg">
<rect width="33" height="22" fill="black"/>
<path d="M5.60473 6.94434H7.43676L11.7502 13.5615V6.94434H13.6643V17H11.8254L7.51879 10.4033V17H5.60473V6.94434ZM26.2244 8.58496L24.8777 9.91797C24.0255 9.01562 23.032 8.56445 21.8972 8.56445C20.9083 8.56445 20.0789 8.89258 19.4089 9.54883C18.7436 10.2051 18.4109 11.0026 18.4109 11.9414C18.4109 12.9121 18.7573 13.7347 19.45 14.4092C20.1427 15.0837 20.9972 15.4209 22.0134 15.4209C22.6742 15.4209 23.2302 15.2819 23.6814 15.0039C24.1371 14.7259 24.504 14.2907 24.782 13.6982H21.8699V11.9004H26.9285L26.9421 12.3242C26.9421 13.2038 26.7143 14.0378 26.2586 14.8262C25.8028 15.6146 25.2127 16.2161 24.488 16.6309C23.7634 17.0456 22.9135 17.2529 21.9382 17.2529C20.8946 17.2529 19.9627 17.0273 19.1423 16.5762C18.3266 16.1204 17.6795 15.4733 17.2009 14.6348C16.727 13.7962 16.49 12.8916 16.49 11.9209C16.49 10.5902 16.9298 9.43262 17.8093 8.44824C18.853 7.27702 20.211 6.69141 21.8836 6.69141C22.7586 6.69141 23.5766 6.85319 24.3377 7.17676C24.9802 7.4502 25.6091 7.9196 26.2244 8.58496Z" fill="white"/>
<rect x="1.5" y="1.5" width="30" height="19" stroke="white"/>
</svg>
