<svg width="255" height="94" viewBox="0 0 255 94" fill="none" xmlns="http://www.w3.org/2000/svg">
<g filter="url(#filter0_d)">
<rect x="4" width="247" height="85" fill="#484553"/>
</g>
<path d="M87.2339 31.4243H100.549V34.0439H89.8716V42.3545H100.549V44.9741H89.8716V58H87.2339V31.4243ZM107.926 31.4243H113.22C116.171 31.4243 118.17 31.5448 119.218 31.7856C120.796 32.147 122.078 32.9238 123.066 34.1162C124.054 35.2965 124.548 36.7539 124.548 38.4883C124.548 39.9336 124.204 41.2043 123.518 42.3003C122.843 43.3963 121.874 44.2274 120.609 44.7935C119.344 45.3475 117.598 45.6305 115.37 45.6426L124.927 58H121.639L112.1 45.6426H110.582V58H107.926V31.4243ZM110.582 34.0259V43.0591L115.153 43.0952C116.923 43.0952 118.23 42.9266 119.073 42.5894C119.929 42.2521 120.591 41.7161 121.061 40.9814C121.542 40.2347 121.783 39.4036 121.783 38.4883C121.783 37.597 121.542 36.79 121.061 36.0674C120.579 35.3327 119.947 34.8088 119.164 34.4956C118.381 34.1825 117.08 34.0259 115.261 34.0259H110.582ZM132.865 31.4243H148.095V34.0439H135.52V42.3545H147.986V44.9561H135.52V55.3804H147.986V58H132.865V31.4243ZM155.291 31.4243H170.521V34.0439H157.947V42.3545H170.413V44.9561H157.947V55.3804H170.413V58H155.291V31.4243Z" fill="white"/>
<defs>
<filter id="filter0_d" x="0" y="0" width="255" height="94" filterUnits="userSpaceOnUse" color-interpolation-filters="sRGB">
<feFlood flood-opacity="0" result="BackgroundImageFix"/>
<feColorMatrix in="SourceAlpha" type="matrix" values="0 0 0 0 0 0 0 0 0 0 0 0 0 0 0 0 0 0 127 0"/>
<feOffset dy="5"/>
<feGaussianBlur stdDeviation="2"/>
<feColorMatrix type="matrix" values="0 0 0 0 0 0 0 0 0 0 0 0 0 0 0 0 0 0 0.5 0"/>
<feBlend mode="normal" in2="BackgroundImageFix" result="effect1_dropShadow"/>
<feBlend mode="normal" in="SourceGraphic" in2="effect1_dropShadow" result="shape"/>
</filter>
</defs>
</svg>
