<svg width="53" height="39" viewBox="0 0 53 39" fill="none" xmlns="http://www.w3.org/2000/svg">
<path fill-rule="evenodd" clip-rule="evenodd" d="M35.8648 9.1001C36.4192 15.5252 30.7529 17.7372 30.7529 23.3964C30.7529 27.2404 33.542 30.5213 38.9319 30.5499C44.3219 30.5785 47.111 26.605 47.111 22.5456C47.111 18.8446 45.2371 15.3545 41.7019 13.1845C42.5416 15.5145 41.4238 17.6425 40.3378 18.3754C40.4014 15.3929 39.3154 10.9671 35.8648 9.1001ZM40.1461 20.7188C43.5585 24.2839 41.4629 28.7625 38.722 28.7625C37.0544 28.7625 36.1965 27.6319 36.2056 26.4593C36.2229 24.2848 38.6929 24.283 40.1461 20.7188Z" fill="#FF0000"/>
<path d="M48.5833 4.33333V34.6667H4.41667V4.33333H48.5833ZM53 0H0V39H53V0ZM30.9167 29.4602V30.3333H8.83333V29.4298C8.8245 27.0205 8.9305 25.6447 11.7572 25.0033C14.8555 24.3013 17.9118 23.6752 16.4433 21.0145C12.0862 13.1343 15.2 8.66667 19.875 8.66667C24.4617 8.66667 27.6505 12.9675 23.3112 21.0145C21.8824 23.6578 24.8305 24.2862 27.995 25.0033C30.8305 25.6468 30.9277 27.0313 30.9167 29.4602Z" fill="white"/>
</svg>
