<svg width="143" height="104" viewBox="0 0 143 104" fill="none" xmlns="http://www.w3.org/2000/svg">
<rect width="143" height="104" fill="#1E1D22"/>
<path d="M37.1968 83.1562V83.8008C37.4618 83.5358 37.7482 83.3371 38.0562 83.2046C38.3641 83.0721 38.6935 83.0059 39.0444 83.0059C39.8071 83.0059 40.4552 83.2941 40.9888 83.8706C41.5223 84.4471 41.7891 85.1865 41.7891 86.0889C41.7891 86.959 41.5133 87.6877 40.9619 88.2749C40.4105 88.8586 39.757 89.1504 39.0015 89.1504C38.6649 89.1504 38.3516 89.0913 38.0615 88.9731C37.7715 88.8514 37.4832 88.6545 37.1968 88.3823V91.1377H35.7412V83.1562H37.1968ZM38.7383 84.3594C38.2764 84.3594 37.8932 84.5169 37.5889 84.832C37.2845 85.1471 37.1323 85.5589 37.1323 86.0674C37.1323 86.5866 37.2845 87.0073 37.5889 87.3296C37.8932 87.6483 38.2764 87.8076 38.7383 87.8076C39.1859 87.8076 39.5618 87.6447 39.8662 87.3188C40.1742 86.993 40.3281 86.5776 40.3281 86.0728C40.3281 85.5715 40.1777 85.1615 39.877 84.8428C39.5762 84.5205 39.1966 84.3594 38.7383 84.3594ZM43.4292 83.1562H44.686V83.8921C44.8221 83.6021 45.0029 83.3818 45.2285 83.2314C45.4541 83.0811 45.7012 83.0059 45.9697 83.0059C46.1595 83.0059 46.3582 83.056 46.5659 83.1562L46.1094 84.4185C45.9375 84.3325 45.796 84.2896 45.685 84.2896C45.4595 84.2896 45.2679 84.4292 45.1103 84.7085C44.9564 84.9878 44.8794 85.5356 44.8794 86.3521L44.8847 86.6367V89H43.4292V83.1562ZM50.811 83.0059C51.3624 83.0059 51.8798 83.1437 52.3632 83.4194C52.8502 83.6951 53.2298 84.0693 53.5019 84.542C53.774 85.0146 53.9101 85.5249 53.9101 86.0728C53.9101 86.6242 53.7723 87.1398 53.4965 87.6196C53.2244 88.0994 52.852 88.4754 52.3794 88.7476C51.9067 89.0161 51.3857 89.1504 50.8164 89.1504C49.9785 89.1504 49.2623 88.8532 48.6679 88.2588C48.0771 87.6608 47.7817 86.9357 47.7817 86.0835C47.7817 85.1704 48.1165 84.4095 48.7861 83.8008C49.3733 83.2708 50.0483 83.0059 50.811 83.0059ZM50.8325 84.3862C50.3777 84.3862 49.9982 84.5456 49.6938 84.8643C49.393 85.1794 49.2426 85.584 49.2426 86.0781C49.2426 86.5866 49.3912 86.9984 49.6884 87.3135C49.9892 87.6286 50.3688 87.7861 50.8271 87.7861C51.2854 87.7861 51.6668 87.6268 51.9712 87.3081C52.2755 86.9894 52.4277 86.5794 52.4277 86.0781C52.4277 85.5768 52.2773 85.1704 51.9765 84.8589C51.6793 84.5438 51.298 84.3862 50.8325 84.3862ZM55.185 83.1562H55.706C55.7096 82.39 55.7221 81.937 55.7436 81.7974C55.783 81.4751 55.9173 81.2209 56.1464 81.0347C56.3792 80.8449 56.7068 80.75 57.1293 80.75C57.4337 80.75 57.7774 80.8198 58.1606 80.9595V82.0767C57.9493 82.0158 57.7757 81.9854 57.6396 81.9854C57.4677 81.9854 57.3424 82.0212 57.2636 82.0928C57.2063 82.1465 57.1777 82.2575 57.1777 82.4258L57.1723 83.1562H58.1015V84.4023H57.1723V89H55.706V84.4023H55.185V83.1562ZM65.5907 86.5024H60.8803C60.9483 86.9178 61.1292 87.249 61.4228 87.4961C61.72 87.7396 62.0977 87.8613 62.5561 87.8613C63.1039 87.8613 63.5748 87.6698 63.9687 87.2866L65.204 87.8667C64.8961 88.3035 64.5273 88.6276 64.0976 88.8389C63.6679 89.0465 63.1576 89.1504 62.5668 89.1504C61.6501 89.1504 60.9036 88.8621 60.3271 88.2856C59.7506 87.7056 59.4623 86.9805 59.4623 86.1104C59.4623 85.2188 59.7488 84.4793 60.3217 83.8921C60.8982 83.3013 61.6197 83.0059 62.4862 83.0059C63.4065 83.0059 64.1549 83.3013 64.7314 83.8921C65.3079 84.4793 65.5961 85.2563 65.5961 86.2231L65.5907 86.5024ZM64.1191 85.3477C64.0224 85.0218 63.8308 84.7568 63.5444 84.5527C63.2615 84.3486 62.9321 84.2466 62.5561 84.2466C62.1479 84.2466 61.7898 84.3612 61.4819 84.5903C61.2885 84.7336 61.1095 84.986 60.9447 85.3477H64.1191ZM71.1303 83.9727L70.2226 84.8804C69.8537 84.5151 69.5189 84.3325 69.2182 84.3325C69.0535 84.3325 68.9245 84.3683 68.8314 84.4399C68.7383 84.508 68.6918 84.5939 68.6918 84.6978C68.6918 84.7765 68.7204 84.8499 68.7777 84.918C68.8386 84.9824 68.9854 85.0719 69.2182 85.1865L69.7553 85.4551C70.321 85.7344 70.7095 86.019 70.9208 86.3091C71.1321 86.5991 71.2377 86.9393 71.2377 87.3296C71.2377 87.8488 71.0461 88.2821 70.663 88.6294C70.2834 88.9767 69.7732 89.1504 69.1322 89.1504C68.28 89.1504 67.5997 88.8174 67.0912 88.1514L67.9936 87.1685C68.1654 87.369 68.366 87.5319 68.5951 87.6572C68.8279 87.779 69.0338 87.8398 69.2128 87.8398C69.4062 87.8398 69.5619 87.7933 69.6801 87.7002C69.7982 87.6071 69.8573 87.4997 69.8573 87.3779C69.8573 87.1523 69.6443 86.9321 69.2182 86.7173L68.724 86.4702C67.7787 85.994 67.3061 85.3978 67.3061 84.6816C67.3061 84.2197 67.4833 83.8258 67.8378 83.5C68.1959 83.1706 68.6524 83.0059 69.2074 83.0059C69.587 83.0059 69.9433 83.09 70.2763 83.2583C70.6129 83.423 70.8975 83.6611 71.1303 83.9727ZM76.745 83.9727L75.8373 84.8804C75.4685 84.5151 75.1337 84.3325 74.8329 84.3325C74.6682 84.3325 74.5393 84.3683 74.4462 84.4399C74.3531 84.508 74.3065 84.5939 74.3065 84.6978C74.3065 84.7765 74.3352 84.8499 74.3925 84.918C74.4533 84.9824 74.6001 85.0719 74.8329 85.1865L75.37 85.4551C75.9358 85.7344 76.3243 86.019 76.5355 86.3091C76.7468 86.5991 76.8524 86.9393 76.8524 87.3296C76.8524 87.8488 76.6609 88.2821 76.2777 88.6294C75.8982 88.9767 75.3879 89.1504 74.747 89.1504C73.8947 89.1504 73.2144 88.8174 72.7059 88.1514L73.6083 87.1685C73.7802 87.369 73.9807 87.5319 74.2098 87.6572C74.4426 87.779 74.6485 87.8398 74.8275 87.8398C75.0209 87.8398 75.1766 87.7933 75.2948 87.7002C75.413 87.6071 75.472 87.4997 75.472 87.3779C75.472 87.1523 75.259 86.9321 74.8329 86.7173L74.3387 86.4702C73.3934 85.994 72.9208 85.3978 72.9208 84.6816C72.9208 84.2197 73.098 83.8258 73.4525 83.5C73.8106 83.1706 74.2671 83.0059 74.8221 83.0059C75.2017 83.0059 75.558 83.09 75.891 83.2583C76.2276 83.423 76.5123 83.6611 76.745 83.9727ZM79.3573 80.75C79.6151 80.75 79.8353 80.8431 80.0179 81.0293C80.2041 81.2155 80.2972 81.4411 80.2972 81.7061C80.2972 81.9674 80.2059 82.1912 80.0233 82.3774C79.8407 82.5601 79.6223 82.6514 79.368 82.6514C79.1066 82.6514 78.8828 82.5583 78.6966 82.3721C78.514 82.1823 78.4227 81.9531 78.4227 81.6846C78.4227 81.4268 78.514 81.2065 78.6966 81.0239C78.8793 80.8413 79.0995 80.75 79.3573 80.75ZM78.6214 83.1562H80.0931V89H78.6214V83.1562ZM84.9398 83.0059C85.4912 83.0059 86.0086 83.1437 86.492 83.4194C86.979 83.6951 87.3586 84.0693 87.6307 84.542C87.9028 85.0146 88.0389 85.5249 88.0389 86.0728C88.0389 86.6242 87.901 87.1398 87.6253 87.6196C87.3532 88.0994 86.9808 88.4754 86.5081 88.7476C86.0355 89.0161 85.5145 89.1504 84.9452 89.1504C84.1073 89.1504 83.3911 88.8532 82.7967 88.2588C82.2059 87.6608 81.9105 86.9357 81.9105 86.0835C81.9105 85.1704 82.2453 84.4095 82.9149 83.8008C83.5021 83.2708 84.1771 83.0059 84.9398 83.0059ZM84.9613 84.3862C84.5065 84.3862 84.127 84.5456 83.8226 84.8643C83.5218 85.1794 83.3714 85.584 83.3714 86.0781C83.3714 86.5866 83.52 86.9984 83.8172 87.3135C84.118 87.6286 84.4976 87.7861 84.9559 87.7861C85.4142 87.7861 85.7956 87.6268 86.0999 87.3081C86.4043 86.9894 86.5565 86.5794 86.5565 86.0781C86.5565 85.5768 86.4061 85.1704 86.1053 84.8589C85.8081 84.5438 85.4268 84.3862 84.9613 84.3862ZM90.012 83.1562H91.473V83.7524C91.806 83.4731 92.1068 83.2798 92.3753 83.1724C92.6474 83.0614 92.925 83.0059 93.2078 83.0059C93.7879 83.0059 94.2803 83.2082 94.6849 83.6128C95.0251 83.9565 95.1951 84.465 95.1951 85.1382V89H93.7449V86.438C93.7449 85.7397 93.7127 85.276 93.6483 85.0469C93.5874 84.8177 93.4782 84.644 93.3206 84.5259C93.1667 84.4041 92.9751 84.3433 92.7459 84.3433C92.4487 84.3433 92.1927 84.4435 91.9779 84.644C91.7666 84.841 91.6198 85.1149 91.5374 85.4658C91.4945 85.6484 91.473 86.0441 91.473 86.6528V89H90.012V83.1562ZM101.707 83.1562H103.168V89H101.707V88.3823C101.42 88.6545 101.132 88.8514 100.842 88.9731C100.556 89.0913 100.244 89.1504 99.9075 89.1504C99.152 89.1504 98.4985 88.8586 97.9471 88.2749C97.3956 87.6877 97.1199 86.959 97.1199 86.0889C97.1199 85.1865 97.3867 84.4471 97.9202 83.8706C98.4537 83.2941 99.1019 83.0059 99.8646 83.0059C100.215 83.0059 100.545 83.0721 100.853 83.2046C101.161 83.3371 101.445 83.5358 101.707 83.8008V83.1562ZM100.165 84.3594C99.7106 84.3594 99.3328 84.5205 99.032 84.8428C98.7313 85.1615 98.5809 85.5715 98.5809 86.0728C98.5809 86.5776 98.733 86.993 99.0374 87.3188C99.3453 87.6447 99.7231 87.8076 100.171 87.8076C100.633 87.8076 101.016 87.6483 101.32 87.3296C101.624 87.0073 101.777 86.5866 101.777 86.0674C101.777 85.5589 101.624 85.1471 101.32 84.832C101.016 84.5169 100.631 84.3594 100.165 84.3594ZM105.264 80.9004H106.731V89H105.264V80.9004Z" fill="white"/>
<path fill-rule="evenodd" clip-rule="evenodd" d="M83.5625 32C84.2742 40.9862 77 44.0799 77 51.9949C77 57.3711 80.5805 61.9598 87.5 61.9998C94.4195 62.0398 98 56.4823 98 50.8049C98 45.6287 95.5943 40.7474 91.056 37.7125C92.134 40.9712 90.699 43.9474 89.3048 44.9724C89.3865 40.8012 87.9923 34.6112 83.5625 32ZM89.0587 48.2499C93.4395 53.2361 90.7492 59.4998 87.2305 59.4998C85.0897 59.4998 83.9883 57.9186 84 56.2786C84.0222 53.2374 87.1932 53.2348 89.0587 48.2499Z" fill="#FF0000"/>
<path d="M100.25 26V68H42.75V26H100.25ZM106 20H37V74H106V20ZM77.25 60.791V62H48.5V60.749C48.4885 57.413 48.6265 55.508 52.3065 54.62C56.3401 53.648 60.3191 52.781 58.4073 49.097C52.7349 38.186 56.7886 32 62.875 32C68.8464 32 72.9979 37.955 67.3485 49.097C65.4884 52.757 69.3265 53.627 73.4464 54.62C77.1379 55.511 77.2644 57.428 77.25 60.791Z" fill="white"/>
</svg>
