<svg width="31" height="37" viewBox="0 0 31 37" fill="none" xmlns="http://www.w3.org/2000/svg">
<path fill-rule="evenodd" clip-rule="evenodd" d="M7.74303 37H0V23.125H7.74303V25.7998C8.73104 25.4945 9.79029 25.0367 10.4763 24.7376C11.4705 24.3059 12.426 24.0947 13.3985 24.0947C15.2786 24.0947 16.8132 24.864 20.0622 25.9524C21.0533 26.2823 21.7285 27.0562 21.8818 27.9658C23.6224 26.6354 26.4037 24.4863 26.4301 24.4662C26.9829 24.0284 27.6271 23.7972 28.2884 23.7972C29.7627 23.7972 31 24.9735 31 26.4303C31 27.1857 30.6609 27.9365 30.029 28.5208C27.895 30.4942 26.2427 31.9634 24.7839 33.2599C23.9167 34.0323 23.1331 34.7276 22.3867 35.4075C21.2267 36.4666 20.0359 36.9584 18.6375 36.9584C18.0103 36.9584 17.349 36.8582 16.6119 36.65C12.3176 35.4429 9.66795 35.0529 7.74303 34.9465V37ZM6.19443 24.6667H1.54861V35.4583H6.19443V24.6667ZM7.74303 33.3987C10.9827 33.5806 14.5646 34.4717 17.0331 35.167C18.2983 35.5231 19.7602 35.7127 21.3413 34.2712C23.322 32.4644 25.5566 30.5512 28.9744 27.3908C30.2505 26.2114 28.6988 24.642 27.3917 25.6749C27.3917 25.6749 22.8063 29.2192 21.6789 30.0579C21.092 30.4972 20.6027 30.858 19.9011 30.858C19.7354 30.858 19.5558 30.838 19.3607 30.7933C18.3463 30.5605 16.4446 30.138 15.0943 29.7125C14.2038 29.4304 14.5197 28.1817 15.5093 28.3898C16.2015 28.5332 17.9778 28.9294 18.9178 29.1915C20.4927 29.6247 20.8938 27.8548 19.5713 27.4155C18.701 27.1225 18.7397 27.1102 16.646 26.3902C14.6312 25.695 13.2174 25.2294 11.0942 26.1497C10.1047 26.5783 8.87661 27.0994 7.74303 27.4047V33.3987ZM13.6122 2.69946L18.5833 0L29.4235 5.95083V17.7862L18.5833 23.5443L7.74303 17.7862V5.88608L13.603 2.70408L13.6061 2.69637L13.6122 2.69946ZM17.809 11.9726L9.29164 7.55725V16.8612L17.809 21.386V11.9726ZM19.3576 11.9741V21.386L27.8749 16.8612V7.61121L19.3576 11.9741ZM22.0986 8.83683L13.6277 4.44617L10.2177 6.29925L18.5864 10.636L22.0986 8.83683ZM15.2662 3.55662L23.785 7.97196L26.9473 6.35167L18.5786 1.75904L15.2662 3.55662Z" fill="#1E1D22"/>
</svg>
