<svg width="27" height="31" viewBox="0 0 27 31" fill="none" xmlns="http://www.w3.org/2000/svg">
<path fill-rule="evenodd" clip-rule="evenodd" d="M12.8858 15.9172V31L0 23.9405V9.02905L12.8858 15.9172ZM27 23.9405L14.113 30.9988V15.9197L27 9.11094V23.9405ZM6.27353 4.80696L19.2931 11.7669L13.5018 14.8261L0.649198 7.95557L6.27353 4.80696ZM26.3533 8.03621L20.6295 11.0601L7.5707 4.07997L13.4994 0.76001L26.3533 8.03621Z" fill="#F46036"/>
<path d="M15.1201 16.96L20.5201 14.26V16.42L15.1201 19.12V16.96Z" fill="#1A181B"/>
<path d="M15.1201 23.98L24.8401 19.12V21.28L15.1201 26.14V23.98Z" fill="#1A181B"/>
<path d="M15.1201 20.2L25.9201 14.8V16.96L15.1201 22.36V20.2Z" fill="#1A181B"/>
</svg>
