<svg width="35" height="35" viewBox="0 0 35 35" fill="none" xmlns="http://www.w3.org/2000/svg">
<path d="M32.0833 2.91667V32.0833H2.91667V2.91667H32.0833ZM35 0H0V35H35V0ZM29.1667 10.2083H17.5V11.6667H29.1667V10.2083ZM29.1667 17.5H17.5V18.9583H29.1667V17.5ZM29.1667 24.7917H17.5V26.25H29.1667V24.7917ZM13.8308 8.30667L12.7954 7.29167L9.07229 11.0935L6.82792 8.97604L5.81 10.0115L9.09125 13.125L13.8308 8.30667V8.30667ZM13.8308 15.5983L12.7954 14.5833L9.07375 18.3852L6.82938 16.2677L5.81146 17.3017L9.09125 20.4167L13.8308 15.5983V15.5983ZM13.8308 22.89L12.7954 21.875L9.07375 25.6769L6.82938 23.5594L5.81146 24.5933L9.09125 27.7083L13.8308 22.89V22.89Z" fill="white"/>
</svg>
