<svg width="21" height="21" viewBox="0 0 21 21" fill="none" xmlns="http://www.w3.org/2000/svg">
<path d="M15.5 2L16.2858 4.41844H18.8287L16.7714 5.91312L17.5572 8.33156L15.5 6.83688L13.4428 8.33156L14.2286 5.91312L12.1713 4.41844H14.7142L15.5 2Z" fill="#FFC700"/>
<rect x="2.7" y="0.7" width="17.6" height="17.6" stroke="#343A40" stroke-width="1.4"/>
<path d="M13.5 8C13.5 7.72386 13.2761 7.5 13 7.5L8.5 7.5C8.22386 7.5 8 7.72386 8 8C8 8.27614 8.22386 8.5 8.5 8.5H12.5V12.5C12.5 12.7761 12.7239 13 13 13C13.2761 13 13.5 12.7761 13.5 12.5L13.5 8ZM3.35355 18.3536L13.3536 8.35355L12.6464 7.64645L2.64645 17.6464L3.35355 18.3536Z" fill="#343A40"/>
</svg>
